<svg width="186" height="186" viewBox="0 0 186 186" fill="none" xmlns="http://www.w3.org/2000/svg">
<path fill-rule="evenodd" clip-rule="evenodd" d="M1.03841 0H184.962C185.537 0 186 0.462399 186 1.03672V184.963C186 185.538 185.537 186 184.962 186H1.03841C0.463154 186 0 185.538 0 184.963V1.03672C0 0.462399 0.463154 0 1.03841 0Z" fill="#183668"/>
<path d="M60.5195 32.0302V16.3651H64.1903H64.2371C64.7047 16.3651 65.1489 16.4664 65.5697 16.6691C65.9906 16.8561 66.3647 17.1054 66.692 17.4172C67.0193 17.7289 67.2766 18.0875 67.4636 18.4927C67.6662 18.8824 67.7753 19.2877 67.7909 19.7085V21.9764V22.2102C67.7909 22.7246 67.6896 23.2078 67.4869 23.6598C67.2999 24.0963 67.0427 24.4782 66.7154 24.8055C66.3881 25.1328 65.9984 25.3901 65.5464 25.5771C65.1099 25.7642 64.6423 25.8577 64.1435 25.8577H63.9331H62.7641V32.0302H60.5195ZM65.2659 23.2858C65.4061 23.1455 65.4919 22.9974 65.523 22.8415C65.5698 22.6857 65.5931 22.4908 65.5931 22.257V19.9423C65.5931 19.5059 65.4607 19.1474 65.1957 18.8668C64.9307 18.5707 64.5722 18.4226 64.1202 18.4226H62.7641V23.73H63.9331C64.2449 23.73 64.4943 23.7066 64.6813 23.6598C64.884 23.5975 65.0788 23.4728 65.2659 23.2858Z" fill="white"/>
<path d="M67.9619 32.0302L71.469 16.3651H73.4097L76.9168 32.0302H74.5085L73.8773 28.6634H70.9781L70.3234 32.0302H67.9619ZM71.3755 26.5825H73.4798L72.4277 20.8776L71.3755 26.5825Z" fill="white"/>
<path d="M78.0361 32.0302V16.3651H81.9641C82.9928 16.3651 83.8579 16.7236 84.5594 17.4406C85.2764 18.1576 85.6348 19.0382 85.6348 20.0826V21.5322C85.6348 22.9818 85.0192 24.0885 83.7878 24.8523L86.1727 32.0302H83.7878L81.6835 25.3199H80.2807V32.0302H78.0361ZM83.0162 22.8415C83.1565 22.6701 83.25 22.4752 83.2968 22.257C83.3592 22.0388 83.3904 21.7972 83.3904 21.5322V20.0826C83.3904 19.5994 83.2578 19.2098 82.9928 18.9136C82.7279 18.6019 82.3538 18.446 81.8706 18.446H80.2807V23.3326H81.8473C82.3149 23.3326 82.7045 23.1689 83.0162 22.8415Z" fill="white"/>
<path d="M88.7543 32.0303V18.4461H86.1123V16.3652H93.6642V18.4461H90.9755V32.0303H88.7543Z" fill="white"/>
<path d="M100.274 32.0302L96.7904 22.5142V32.0302H94.5459V16.3651H96.6735L100.134 25.8577V16.3651H102.378V32.0302H100.274Z" fill="white"/>
<path d="M110.41 29.7858V32.0303H103.7V16.3652H110.41V18.4227H105.921V23.0521H109.849V25.1798H105.921V29.7858H110.41Z" fill="white"/>
<path d="M111.434 32.0302V16.3651H115.362C116.39 16.3651 117.255 16.7236 117.957 17.4406C118.674 18.1576 119.032 19.0382 119.032 20.0826V21.5322C119.032 22.9818 118.417 24.0885 117.185 24.8523L119.57 32.0302H117.185L115.081 25.3199H113.678V32.0302H111.434ZM116.414 22.8415C116.554 22.6701 116.648 22.4752 116.694 22.257C116.757 22.0388 116.788 21.7972 116.788 21.5322V20.0826C116.788 19.5994 116.655 19.2098 116.39 18.9136C116.125 18.6019 115.751 18.446 115.268 18.446H113.678V23.3326H115.245C115.712 23.3326 116.102 23.1689 116.414 22.8415H116.414Z" fill="white"/>
<path d="M122.124 28.1259C122.124 28.2818 122.124 28.4142 122.124 28.5234C122.124 28.6325 122.132 28.726 122.148 28.8039C122.179 28.9598 122.296 29.1858 122.499 29.4819C122.717 29.7937 123.106 29.9496 123.668 29.9496C123.979 29.9496 124.268 29.8872 124.533 29.7625C124.798 29.6222 124.993 29.443 125.117 29.2248C125.211 29.0533 125.265 28.8896 125.281 28.7337C125.312 28.5779 125.328 28.4376 125.328 28.3129V28.1025V27.0036V26.7932C125.328 26.4502 125.265 26.1853 125.141 25.9982C125.016 25.7956 124.735 25.5696 124.299 25.3202C124.003 25.1643 123.473 24.9461 122.709 24.6655C121.945 24.3849 121.306 23.9408 120.792 23.3329C120.277 22.725 120.02 21.8988 120.02 20.8545V20.153C120.02 19.0775 120.379 18.1579 121.096 17.3942C121.828 16.6148 122.717 16.2251 123.761 16.2251C124.852 16.2251 125.756 16.607 126.473 17.3708C127.206 18.1345 127.572 19.0619 127.572 20.153V20.8545H125.328V20.153C125.328 20.0439 125.32 19.9426 125.304 19.8491C125.304 19.7556 125.296 19.6698 125.281 19.5919C125.265 19.514 125.226 19.4205 125.164 19.3113C125.102 19.2022 125.016 19.0698 124.907 18.9139C124.688 18.6021 124.322 18.4462 123.808 18.4462C123.356 18.4462 122.982 18.6099 122.686 18.9373C122.405 19.2646 122.265 19.6698 122.265 20.153V20.8545V21.0649C122.265 21.3767 122.311 21.626 122.405 21.8131C122.514 21.9845 122.763 22.1794 123.153 22.3976C123.278 22.46 123.465 22.5457 123.714 22.6548C123.979 22.7483 124.299 22.8652 124.673 23.0055C125.421 23.2549 126.091 23.6991 126.684 24.3382C127.276 24.9772 127.572 25.819 127.572 26.8633V28.1259C127.572 28.6714 127.518 29.1312 127.408 29.5053C127.315 29.8794 126.995 30.4249 126.45 31.142C125.904 31.8278 124.992 32.1707 123.714 32.1707C122.358 32.1707 121.376 31.7343 120.768 30.8614C120.16 29.9729 119.856 29.0611 119.856 28.1259V27.5648H122.124L122.124 28.1259Z" fill="white"/>
<path d="M128.879 32.0303V16.3652H131.1V23.0521H133.953V16.3652H136.174V32.0303H133.953V25.0395H131.1V32.0303H128.879Z" fill="white"/>
<path d="M138.381 32.0303V16.3652H140.602V32.0303H138.381Z" fill="white"/>
<path d="M142.478 32.0303V16.3652H146.148H146.195C146.663 16.3652 147.107 16.4666 147.528 16.6692C147.949 16.8562 148.323 17.1056 148.65 17.4173C148.977 17.7291 149.234 18.0876 149.422 18.4929C149.624 18.8826 149.733 19.2878 149.749 19.7086V21.9766V22.2104C149.749 22.7247 149.648 23.208 149.445 23.66C149.258 24.0964 149.001 24.4783 148.673 24.8056C148.346 25.133 147.956 25.3902 147.504 25.5772C147.068 25.7643 146.6 25.8578 146.101 25.8578H145.891H144.722V32.0303H142.478ZM147.224 23.2859C147.364 23.1456 147.45 22.9976 147.481 22.8417C147.528 22.6858 147.551 22.491 147.551 22.2572V19.9424C147.551 19.506 147.419 19.1475 147.154 18.8669C146.889 18.5708 146.53 18.4227 146.078 18.4227H144.722V23.7302H145.891C146.203 23.7302 146.452 23.7067 146.639 23.66C146.842 23.5976 147.037 23.4729 147.224 23.2859Z" fill="white"/>
<path d="M153.108 28.1259C153.108 28.2818 153.108 28.4142 153.108 28.5234C153.108 28.6325 153.116 28.726 153.131 28.8039C153.162 28.9598 153.279 29.1858 153.482 29.4819C153.7 29.7937 154.09 29.9496 154.651 29.9496C154.963 29.9496 155.251 29.8872 155.516 29.7625C155.781 29.6222 155.976 29.443 156.101 29.2248C156.194 29.0533 156.249 28.8896 156.264 28.7337C156.295 28.5779 156.311 28.4376 156.311 28.3129V28.1025V27.0036V26.7932C156.311 26.4502 156.249 26.1853 156.124 25.9982C155.999 25.7956 155.719 25.5696 155.282 25.3202C154.986 25.1643 154.456 24.9461 153.692 24.6655C152.929 24.3849 152.289 23.9408 151.775 23.3329C151.261 22.725 151.004 21.8988 151.004 20.8545V20.153C151.004 19.0775 151.362 18.1579 152.079 17.3942C152.812 16.6148 153.7 16.2251 154.744 16.2251C155.836 16.2251 156.74 16.607 157.457 17.3708C158.189 18.1345 158.556 19.0619 158.556 20.153V20.8545H156.311V20.153C156.311 20.0439 156.303 19.9426 156.288 19.8491C156.288 19.7556 156.28 19.6698 156.264 19.5919C156.249 19.514 156.21 19.4205 156.147 19.3113C156.085 19.2022 155.999 19.0698 155.89 18.9139C155.672 18.6021 155.306 18.4462 154.791 18.4462C154.339 18.4462 153.965 18.6099 153.669 18.9373C153.388 19.2646 153.248 19.6698 153.248 20.153V20.8545V21.0649C153.248 21.3767 153.295 21.626 153.388 21.8131C153.497 21.9845 153.747 22.1794 154.137 22.3976C154.261 22.46 154.448 22.5457 154.698 22.6548C154.963 22.7483 155.282 22.8652 155.656 23.0055C156.404 23.2549 157.075 23.6991 157.667 24.3382C158.259 24.9772 158.556 25.819 158.556 26.8633V28.1259C158.556 28.6714 158.501 29.1312 158.392 29.5053C158.298 29.8794 157.979 30.4249 157.433 31.142C156.888 31.8278 155.976 32.1707 154.698 32.1707C153.342 32.1707 152.36 31.7343 151.752 30.8614C151.144 29.9729 150.84 29.0611 150.84 28.1259V27.5648H153.108L153.108 28.1259Z" fill="white"/>
<path d="M60.5195 53.6329V37.9677H67.2064V40.072H62.7408V44.7715H66.6453V46.8758H62.7408V53.6329H60.5195Z" fill="white"/>
<path d="M68.3177 39.441C68.6762 38.9422 69.1282 38.5525 69.6737 38.272C70.2349 37.9758 70.8116 37.8277 71.4039 37.8277C71.9806 37.8277 72.5184 37.9447 73.0172 38.1785C73.5316 38.4123 73.9602 38.7318 74.3031 39.1371C74.646 39.5423 74.8799 39.9632 75.0046 40.3996C75.1293 40.8205 75.1916 41.2803 75.1916 41.7791V49.7519C75.1916 50.2195 75.1448 50.6326 75.0513 50.9911C74.9734 51.3496 74.7863 51.7471 74.4902 52.1835C74.2096 52.62 73.7965 52.9941 73.251 53.3058C72.721 53.6175 72.1287 53.7734 71.474 53.7734C71.0999 53.7734 70.7415 53.7267 70.3985 53.6332C70.0556 53.524 69.7361 53.3838 69.4399 53.2123C69.1438 53.0408 68.8788 52.846 68.645 52.6278C68.4267 52.4096 68.2553 52.1835 68.1306 51.9497C67.8968 51.4665 67.7565 51.0769 67.7098 50.7807C67.663 50.4845 67.6396 50.1416 67.6396 49.7519V41.7791C67.6396 41.3115 67.6864 40.8984 67.7799 40.5399C67.889 40.1658 68.0683 39.7995 68.3177 39.441ZM72.6665 40.6802C72.3703 40.2438 71.9651 40.0256 71.4507 40.0256C71.1857 40.0256 70.9207 40.1035 70.6557 40.2593C70.4063 40.3996 70.2271 40.5633 70.118 40.7504C70.0244 40.9374 69.9621 41.1245 69.9309 41.3115C69.8998 41.4986 69.8842 41.6544 69.8842 41.7791V49.7519C69.8842 49.8298 69.8842 49.9155 69.8842 50.0091C69.8842 50.087 69.892 50.1727 69.9077 50.2663C69.9233 50.4221 70.0479 50.6794 70.2817 51.0379C70.5155 51.3652 70.9052 51.5288 71.4508 51.5288C71.7313 51.5288 71.9807 51.4665 72.1989 51.3418C72.4327 51.2015 72.5964 51.0456 72.6899 50.8742C72.799 50.6871 72.8692 50.5157 72.9004 50.3598C72.9315 50.204 72.9471 50.0013 72.9471 49.7519V41.7791C72.9471 41.4673 72.9315 41.2491 72.9004 41.1244C72.8848 40.9997 72.8068 40.8517 72.6665 40.6802H72.6665Z" fill="white"/>
<path d="M77.0791 53.6329V37.9677H81.007C82.0358 37.9677 82.9008 38.3263 83.6023 39.0433C84.3193 39.7603 84.6778 40.641 84.6778 41.6853V43.1349C84.6778 44.5845 84.0621 45.6912 82.8307 46.4549L85.2156 53.6329H82.8307L80.7265 46.9226H79.3236V53.6329H77.0791ZM82.0591 44.4443C82.1994 44.2728 82.2929 44.078 82.3397 43.8597C82.4021 43.6415 82.4333 43.3999 82.4333 43.1349V41.6853C82.4333 41.2021 82.3008 40.8124 82.0358 40.5162C81.7708 40.2045 81.3967 40.0486 80.9135 40.0486H79.3236V44.9352H80.8902C81.3578 44.9352 81.7475 44.7716 82.0592 44.4443H82.0591Z" fill="white"/>
<path d="M90.3822 53.6329V40.0486H87.7402V37.9678H95.2922V40.0486H92.6034V53.6329H90.3822Z" fill="white"/>
<path d="M96.1738 53.6329V37.9677H98.395V44.6547H101.247V37.9677H103.469V53.6329H101.247V46.642H98.395V53.6329H96.1738Z" fill="white"/>
<path d="M112.275 51.3883V53.6329H105.564V37.9677H112.275V40.0253H107.786V44.6547H111.714V46.7823H107.786V51.3883H112.275Z" fill="white"/>
<path d="M122.621 51.9965C122.262 52.5576 121.802 52.9941 121.241 53.3058C120.68 53.6175 120.064 53.7734 119.394 53.7734C118.802 53.7734 118.225 53.6332 117.664 53.3526C117.118 53.072 116.69 52.7291 116.378 52.3238C116.082 51.903 115.879 51.4821 115.77 51.0613C115.677 50.6404 115.63 50.165 115.63 49.635V41.8025C115.63 41.4128 115.669 41.0231 115.747 40.6334C115.856 40.2437 116.144 39.6904 116.612 38.9734C117.095 38.2096 118.046 37.8277 119.464 37.8277C120.088 37.8277 120.672 37.9758 121.218 38.272C121.763 38.5681 122.176 38.9344 122.457 39.3708C122.753 39.7917 122.94 40.197 123.018 40.5867C123.112 40.9608 123.158 41.366 123.158 41.8025V42.4572H120.937V41.8025C120.937 41.6778 120.929 41.5686 120.914 41.4751C120.914 41.366 120.906 41.2725 120.89 41.1945C120.875 41.0543 120.758 40.8283 120.54 40.5165C120.322 40.2048 119.955 40.0489 119.441 40.0489C118.833 40.0489 118.428 40.2126 118.225 40.5399C118.038 40.8672 117.929 41.1088 117.898 41.2647C117.867 41.4206 117.851 41.5998 117.851 41.8025V49.635C117.851 49.7909 117.851 49.9234 117.851 50.0325C117.851 50.1416 117.859 50.2351 117.874 50.3131C117.89 50.4377 118.007 50.6794 118.225 51.0379C118.428 51.3652 118.825 51.5288 119.417 51.5288C120.025 51.5288 120.415 51.3652 120.587 51.0379C120.68 50.8664 120.75 50.7261 120.797 50.617C120.844 50.4923 120.875 50.3832 120.891 50.2897C120.922 50.1961 120.937 50.1026 120.937 50.0091C120.937 49.9 120.937 49.7753 120.937 49.635V46.8995H119.137V44.9355H123.158V49.635C123.158 49.9624 123.151 50.2429 123.135 50.4767C123.119 50.695 123.088 50.8898 123.041 51.0613C122.995 51.2327 122.932 51.3963 122.854 51.5522C122.792 51.6925 122.714 51.8406 122.621 51.9965H122.621Z" fill="white"/>
<path d="M125.674 39.441C126.033 38.9422 126.485 38.5525 127.03 38.272C127.591 37.9758 128.168 37.8277 128.76 37.8277C129.337 37.8277 129.875 37.9447 130.374 38.1785C130.888 38.4123 131.317 38.7318 131.66 39.1371C132.002 39.5423 132.236 39.9632 132.361 40.3996C132.486 40.8205 132.548 41.2803 132.548 41.7791V49.7519C132.548 50.2195 132.501 50.6326 132.408 50.9911C132.33 51.3496 132.143 51.7471 131.847 52.1835C131.566 52.62 131.153 52.9941 130.607 53.3058C130.077 53.6175 129.485 53.7734 128.831 53.7734C128.456 53.7734 128.098 53.7267 127.755 53.6332C127.412 53.524 127.093 53.3838 126.796 53.2123C126.5 53.0408 126.235 52.846 126.001 52.6278C125.783 52.4096 125.612 52.1835 125.487 51.9497C125.253 51.4665 125.113 51.0769 125.066 50.7807C125.019 50.4845 124.996 50.1416 124.996 49.7519V41.7791C124.996 41.3115 125.043 40.8984 125.136 40.5399C125.245 40.1658 125.425 39.7995 125.674 39.441ZM130.023 40.6802C129.727 40.2438 129.322 40.0256 128.807 40.0256C128.542 40.0256 128.277 40.1035 128.012 40.2593C127.763 40.3996 127.584 40.5633 127.474 40.7504C127.381 40.9374 127.319 41.1245 127.287 41.3115C127.256 41.4986 127.241 41.6544 127.241 41.7791V49.7519C127.241 49.8298 127.241 49.9155 127.241 50.0091C127.241 50.087 127.248 50.1727 127.264 50.2663C127.28 50.4221 127.404 50.6794 127.638 51.0379C127.872 51.3652 128.262 51.5288 128.807 51.5288C129.088 51.5288 129.337 51.4665 129.555 51.3418C129.789 51.2015 129.953 51.0456 130.046 50.8742C130.155 50.6871 130.226 50.5157 130.257 50.3598C130.288 50.204 130.304 50.0013 130.304 49.7519V41.7791C130.304 41.4673 130.288 41.2491 130.257 41.1244C130.241 40.9997 130.163 40.8517 130.023 40.6802H130.023Z" fill="white"/>
<path d="M133.49 53.6329L136.997 37.9677H138.938L142.445 53.6329H140.037L139.406 50.266H136.506L135.852 53.6329H133.49ZM136.904 48.1851H139.008L137.956 42.4802L136.904 48.1851Z" fill="white"/>
<path d="M150.186 53.6329H143.499V37.9678H145.744V51.3883H150.186V53.6329Z" fill="white"/>
<path d="M152.528 49.7284C152.528 49.8843 152.528 50.0168 152.528 50.1259C152.528 50.235 152.536 50.3285 152.551 50.4065C152.582 50.5623 152.699 50.7884 152.902 51.0846C153.12 51.3963 153.51 51.5521 154.071 51.5521C154.383 51.5521 154.671 51.4898 154.936 51.3651C155.201 51.2248 155.396 51.0455 155.521 50.8273C155.614 50.6558 155.669 50.4922 155.684 50.3364C155.715 50.1805 155.731 50.0402 155.731 49.9155V49.705V48.6062V48.3957C155.731 48.0528 155.669 47.7878 155.544 47.6008C155.419 47.3982 155.139 47.1722 154.702 46.9228C154.406 46.7669 153.876 46.5487 153.112 46.2681C152.348 45.9876 151.709 45.5433 151.195 44.9354C150.681 44.3275 150.424 43.5014 150.424 42.4571V41.7556C150.424 40.6801 150.782 39.7605 151.499 38.9967C152.232 38.2173 153.12 37.8276 154.164 37.8276C155.255 37.8276 156.16 38.2095 156.877 38.9733C157.609 39.7371 157.975 40.6645 157.975 41.7556V42.4571H155.731V41.7556C155.731 41.6465 155.723 41.5452 155.708 41.4517C155.708 41.3582 155.7 41.2724 155.684 41.1944C155.668 41.1165 155.63 41.023 155.567 40.9139C155.505 40.8048 155.419 40.6723 155.31 40.5164C155.092 40.2047 154.725 40.0488 154.211 40.0488C153.759 40.0488 153.385 40.2125 153.089 40.5398C152.808 40.8671 152.668 41.2724 152.668 41.7556V42.4571V42.6675C152.668 42.9792 152.715 43.2286 152.808 43.4157C152.917 43.5871 153.167 43.782 153.556 44.0002C153.681 44.0626 153.868 44.1483 154.118 44.2574C154.383 44.3509 154.702 44.4678 155.076 44.608C155.824 44.8574 156.495 45.3017 157.087 45.9408C157.679 46.5799 157.975 47.4215 157.975 48.4659V49.7284C157.975 50.274 157.921 50.7338 157.812 51.1079C157.718 51.482 157.399 52.0276 156.853 52.7446C156.308 53.4304 155.396 53.7733 154.118 53.7733C152.762 53.7733 151.78 53.3369 151.172 52.464C150.564 51.5755 150.26 50.6637 150.26 49.7284V49.1673H152.528V49.7284Z" fill="white"/>
<path d="M22.2263 53.8281V21.9384L16.8555 25.9666V20.2601L22.2263 16.3438H27.5413V53.8281H22.2263Z" fill="white"/>
<path d="M35.611 25.7428H30.8555V16.3438H46.8563V21.2112L38.1286 53.8281H32.422L41.5413 21.323H35.611V25.7428Z" fill="white"/>
<path fill-rule="evenodd" clip-rule="evenodd" d="M94 113.5C94 116.323 93.4309 119.119 92.3253 121.728C91.2197 124.336 89.5993 126.706 87.5564 128.703C85.5135 130.699 83.0882 132.283 80.4191 133.363C77.7499 134.444 74.8891 135 72 135C66.1652 135 60.5694 132.735 56.4436 128.703C52.3178 124.671 50 119.202 50 113.5C50 107.798 52.3178 102.329 56.4436 98.2972C60.5694 94.2651 66.1652 92 72 92C77.8348 92 83.4306 94.2651 87.5564 98.2972C91.6822 102.329 94 107.798 94 113.5V113.5Z" stroke="white" stroke-width="4" stroke-linecap="round" stroke-linejoin="round"/>
<path fill-rule="evenodd" clip-rule="evenodd" d="M116 97.5C116 103.202 113.735 108.671 109.703 112.703C105.671 116.735 100.202 119 94.5 119C88.7978 119 83.3292 116.735 79.2972 112.703C75.2651 108.671 73 103.202 73 97.5C73 94.6766 73.5561 91.8808 74.6366 89.2723C75.7171 86.6638 77.3007 84.2936 79.2972 82.2972C81.2936 80.3007 83.6638 78.7171 86.2723 77.6366C88.8808 76.5561 91.6766 76 94.5 76C100.202 76 105.671 78.2651 109.703 82.2972C113.735 86.3292 116 91.7978 116 97.5V97.5Z" stroke="white" stroke-width="4" stroke-linecap="round" stroke-linejoin="round"/>
<path fill-rule="evenodd" clip-rule="evenodd" d="M129 138.5C129 144.202 126.735 149.671 122.703 153.703C118.671 157.735 113.202 160 107.5 160C104.677 160 101.881 159.444 99.2723 158.363C96.6638 157.283 94.2936 155.699 92.2972 153.703C90.3007 151.706 88.7171 149.336 87.6366 146.728C86.5561 144.119 86 141.323 86 138.5C86 132.798 88.2651 127.329 92.2972 123.297C96.3292 119.265 101.798 117 107.5 117C113.202 117 118.671 119.265 122.703 123.297C126.735 127.329 129 132.798 129 138.5V138.5Z" stroke="white" stroke-width="4" stroke-linecap="round" stroke-linejoin="round"/>
<path fill-rule="evenodd" clip-rule="evenodd" d="M138 113.5C138 116.323 137.431 119.119 136.325 121.728C135.22 124.336 133.599 126.706 131.556 128.703C129.513 130.699 127.088 132.283 124.419 133.363C121.75 134.444 118.889 135 116 135C113.111 135 110.25 134.444 107.581 133.363C104.912 132.283 102.487 130.699 100.444 128.703C98.4007 126.706 96.7802 124.336 95.6746 121.728C94.569 119.119 94 116.323 94 113.5C94 110.677 94.569 107.881 95.6746 105.272C96.7802 102.664 98.4007 100.294 100.444 98.2972C102.487 96.3007 104.912 94.717 107.581 93.6365C110.25 92.5561 113.111 92 116 92C118.889 92 121.75 92.5561 124.419 93.6365C127.088 94.717 129.513 96.3007 131.556 98.2972C133.599 100.294 135.22 102.664 136.325 105.272C137.431 107.881 138 110.677 138 113.5V113.5Z" stroke="white" stroke-width="4" stroke-linecap="round" stroke-linejoin="round"/>
<path fill-rule="evenodd" clip-rule="evenodd" d="M102 138.5C102 141.323 101.444 144.119 100.363 146.728C99.283 149.336 97.6993 151.706 95.7028 153.703C93.7064 155.699 91.3362 157.283 88.7277 158.363C86.1192 159.444 83.3234 160 80.5 160C77.6766 160 74.8808 159.444 72.2723 158.363C69.6638 157.283 67.2936 155.699 65.2972 153.703C63.3007 151.706 61.7171 149.336 60.6366 146.728C59.5561 144.119 59 141.323 59 138.5C59 135.677 59.5561 132.881 60.6366 130.272C61.7171 127.664 63.3007 125.294 65.2972 123.297C67.2936 121.301 69.6638 119.717 72.2723 118.637C74.8808 117.556 77.6766 117 80.5 117C83.3234 117 86.1192 117.556 88.7277 118.637C91.3362 119.717 93.7064 121.301 95.7028 123.297C97.6993 125.294 99.283 127.664 100.363 130.272C101.444 132.881 102 135.677 102 138.5Z" stroke="white" stroke-width="4" stroke-linecap="round" stroke-linejoin="round"/>
</svg>
