<svg width="185" height="186" viewBox="0 0 185 186" fill="none" xmlns="http://www.w3.org/2000/svg">
<path fill-rule="evenodd" clip-rule="evenodd" d="M1.03275 0H183.967C184.539 0 185 0.462361 185 1.03668V184.963C185 185.538 184.539 186 183.967 186H1.03275C0.460588 186 0 185.538 0 184.963V1.03668C0 0.462361 0.460588 0 1.03275 0Z" fill="#00AED9"/>
<path d="M61.337 28.7954C61.337 29.2942 61.3058 29.7229 61.2434 30.0814C61.1967 30.4399 61.0408 30.8296 60.7758 31.2504C60.6355 31.4686 60.4563 31.6791 60.238 31.8817C60.0354 32.0687 59.8016 32.2402 59.5366 32.3961C59.2872 32.5363 59.0145 32.6533 58.7183 32.7468C58.4221 32.8403 58.1338 32.8871 57.8532 32.8871C57.1518 32.8871 56.5127 32.739 55.9359 32.4428C55.3748 32.1467 54.9618 31.7726 54.6968 31.3206C54.4318 30.8685 54.2604 30.4477 54.1824 30.058C54.1201 29.6683 54.0889 29.2475 54.0889 28.7954V20.7291C54.0889 20.2926 54.1278 19.903 54.2058 19.56C54.2993 19.2015 54.4863 18.8197 54.7669 18.4144C55.0475 18.0091 55.4449 17.6662 55.9593 17.3856C56.4736 17.0895 57.0114 16.9414 57.5726 16.9414C58.6481 16.9414 59.5443 17.2999 60.2614 18.0169C60.9784 18.7183 61.3368 19.6224 61.3368 20.7291V21.5708H59.1157V20.7291C59.1157 20.2926 58.991 19.9263 58.7416 19.6302C58.5078 19.334 58.1571 19.186 57.6895 19.186C57.253 19.186 56.9101 19.334 56.6607 19.6302C56.4269 19.9263 56.31 20.2926 56.31 20.7291V29.4033C56.3412 29.6371 56.4503 29.9021 56.6374 30.1983C56.8556 30.51 57.2141 30.6659 57.7129 30.6659C58.2428 30.6659 58.5935 30.5256 58.7649 30.245C58.9364 29.9645 59.0377 29.7618 59.0689 29.6371C59.1 29.4969 59.1156 29.3098 59.1156 29.076V28.2811H61.3368L61.337 28.7954Z" fill="white"/>
<path d="M69.6254 32.7466H62.9385V17.0815H65.183V30.5021H69.6254V32.7466Z" fill="white"/>
<path d="M77.055 30.5019V32.7465H70.3447V17.0814H77.055V19.1389H72.5659V23.7683H76.4938V25.8959H72.5659V30.5019H77.055Z" fill="white"/>
<path d="M77.4775 32.7465L80.9846 17.0814H82.9252L86.4323 32.7465H84.0241L83.3928 29.3797H80.4936L79.839 32.7465H77.4775ZM80.8911 27.2988H82.9954L81.9432 21.5939L80.8911 27.2988Z" fill="white"/>
<path d="M93.1257 32.7466L89.642 23.2307V32.7466H87.3975V17.0815H89.525L92.9854 26.5741V17.0815H95.23V32.7466H93.1257Z" fill="white"/>
<path d="M106.536 32.7465L104.689 23.2072L102.889 32.7465H100.808L98.54 17.0814H100.925L102.047 26.5506L103.847 17.0814H105.508L107.355 26.5506L108.477 17.0814H110.838L108.641 32.7465H106.536Z" fill="white"/>
<path d="M110.272 32.7466L113.78 17.0815H115.72L119.227 32.7466H116.819L116.188 29.3798H113.289L112.634 32.7466H110.272ZM113.686 27.2989H115.79L114.738 21.594L113.686 27.2989Z" fill="white"/>
<path d="M120.931 32.7466V19.1624H118.289V17.0815H125.841V19.1624H123.152V32.7466H120.931Z" fill="white"/>
<path d="M133.841 30.5019V32.7465H127.131V17.0814H133.841V19.1389H129.352V23.7683H133.28V25.8959H129.352V30.5019H133.841Z" fill="white"/>
<path d="M134.99 32.7465V17.0814H138.918C139.947 17.0814 140.812 17.4399 141.513 18.1569C142.23 18.8739 142.589 19.7546 142.589 20.7989V22.2485C142.589 23.6982 141.973 24.8048 140.742 25.5686L143.127 32.7465H140.742L138.638 26.0362H137.235V32.7465H134.99ZM139.97 23.5579C140.111 23.3864 140.204 23.1916 140.251 22.9734C140.313 22.7551 140.344 22.5135 140.344 22.2485V20.7989C140.344 20.3157 140.212 19.9261 139.947 19.6299C139.682 19.3182 139.308 19.1623 138.825 19.1623H137.235V24.0489H138.801C139.269 24.0489 139.659 23.8852 139.97 23.5579Z" fill="white"/>
<path d="M53.5674 54.3492L57.0745 38.6841H59.0151L62.5222 54.3492H60.114L59.4827 50.9823H56.5835L55.9288 54.3492H53.5674ZM56.981 48.9014H59.0852L58.0331 43.1966L56.981 48.9014Z" fill="white"/>
<path d="M69.2155 54.3492L65.7318 44.8332V54.3492H63.4873V38.6841H65.615L69.0753 48.1767V38.6841H71.3198V54.3492H69.2155Z" fill="white"/>
<path d="M76.2541 38.6841C77.2672 38.6841 78.1323 39.0426 78.8493 39.7596C79.5819 40.461 79.9482 41.3183 79.9482 42.3315V50.468C79.9482 51.6214 79.5975 52.5567 78.8961 53.2737C78.1947 53.9907 77.2906 54.3492 76.1839 54.3492H72.7002V38.6841H76.2541ZM77.727 50.468V42.3315C77.727 41.8951 77.5634 41.5287 77.2361 41.2326C76.9243 40.9364 76.5424 40.7884 76.0904 40.7884H74.9213V52.2683H76.0202C77.1581 52.2683 77.727 51.6682 77.727 50.468Z" fill="white"/>
<path d="M86.5101 50.4447C86.5101 50.6006 86.5101 50.7331 86.5101 50.8422C86.5101 50.9514 86.518 51.0449 86.5336 51.1228C86.5647 51.2787 86.6816 51.5047 86.8843 51.8008C87.1025 52.1126 87.4922 52.2684 88.0533 52.2684C88.3651 52.2684 88.6534 52.2061 88.9184 52.0814C89.1834 51.9411 89.3782 51.7619 89.5029 51.5437C89.5965 51.3722 89.651 51.2085 89.6665 51.0527C89.6977 50.8968 89.7133 50.7565 89.7133 50.6318V50.4214V49.3225V49.112C89.7133 48.7691 89.651 48.5041 89.5263 48.3171C89.4016 48.1145 89.121 47.8885 88.6846 47.6391C88.3884 47.4832 87.8584 47.265 87.0946 46.9844C86.3309 46.7038 85.6918 46.2596 85.1775 45.6517C84.6631 45.0438 84.4059 44.2177 84.4059 43.1733V42.4719C84.4059 41.3964 84.7643 40.4768 85.4813 39.713C86.2139 38.9336 87.1025 38.5439 88.1468 38.5439C89.2379 38.5439 90.1419 38.9258 90.8589 39.6896C91.5915 40.4534 91.9579 41.3808 91.9579 42.4719V43.1733H89.7133V42.4719C89.7133 42.3628 89.7055 42.2615 89.6899 42.168C89.6899 42.0744 89.6821 41.9887 89.6665 41.9108C89.6509 41.8329 89.6119 41.7394 89.5496 41.6302C89.4872 41.5211 89.4015 41.3886 89.2924 41.2327C89.0742 40.921 88.7079 40.7651 88.1935 40.7651C87.7415 40.7651 87.3674 40.9288 87.0713 41.2561C86.7907 41.5835 86.6504 41.9887 86.6504 42.4719V43.1733V43.3838C86.6504 43.6955 86.6972 43.9449 86.7907 44.132C86.8998 44.3034 87.1491 44.4982 87.5388 44.7165C87.6635 44.7788 87.8506 44.8646 88.1 44.9737C88.3649 45.0672 88.6845 45.1841 89.0586 45.3244C89.8068 45.5738 90.477 46.018 91.0693 46.6571C91.6616 47.2962 91.9578 48.1378 91.9578 49.1822V50.4447C91.9578 50.9903 91.9032 51.4501 91.7941 51.8242C91.7006 52.1983 91.3811 52.7439 90.8355 53.4609C90.29 54.1467 89.3781 54.4896 88.1 54.4896C86.7439 54.4896 85.7619 54.0532 85.154 53.1803C84.5461 52.2918 84.2422 51.38 84.2422 50.4447V49.8836H86.5101V50.4447Z" fill="white"/>
<path d="M92.3896 54.3492L95.8967 38.6841H97.8374L101.344 54.3492H98.9363L98.305 50.9824H95.4058L94.7512 54.3492H92.3896ZM95.8032 48.9015H97.9075L96.8554 43.1966L95.8032 48.9015Z" fill="white"/>
<path d="M108.216 54.3492L104.732 44.8332V54.3492H102.487V38.6841H104.615L108.075 48.1766V38.6841H110.32V54.3492H108.216Z" fill="white"/>
<path d="M111.788 54.3492V38.6841H114.009V54.3492H111.788Z" fill="white"/>
<path d="M117.893 54.3492V40.765H115.251V38.6841H122.803V40.765H120.114V54.3492H117.893Z" fill="white"/>
<path d="M122.015 54.3492L125.522 38.6841H127.462L130.969 54.3492H128.561L127.93 50.9823H125.031L124.376 54.3492H122.015ZM125.428 48.9014H127.532L126.48 43.1966L125.428 48.9014Z" fill="white"/>
<path d="M132.938 54.3492V40.765H130.296V38.6841H137.848V40.765H135.159V54.3492H132.938Z" fill="white"/>
<path d="M139.05 54.3492V38.6841H141.271V54.3492H139.05Z" fill="white"/>
<path d="M143.779 40.1572C144.137 39.6585 144.589 39.2688 145.135 38.9882C145.696 38.692 146.273 38.5439 146.865 38.5439C147.442 38.5439 147.979 38.6608 148.478 38.8947C148.993 39.1285 149.421 39.448 149.764 39.8533C150.107 40.2585 150.341 40.6794 150.466 41.1158C150.59 41.5367 150.653 41.9965 150.653 42.4953V50.4681C150.653 50.9358 150.606 51.3488 150.512 51.7073C150.434 52.0658 150.247 52.4633 149.951 52.8997C149.671 53.3362 149.258 53.7103 148.712 54.022C148.182 54.3338 147.59 54.4896 146.935 54.4896C146.561 54.4896 146.202 54.4429 145.86 54.3493C145.517 54.2402 145.197 54.0999 144.901 53.9285C144.605 53.757 144.34 53.5622 144.106 53.344C143.888 53.1257 143.716 52.8997 143.592 52.6659C143.358 52.1827 143.218 51.793 143.171 51.4969C143.124 51.2007 143.101 50.8578 143.101 50.4681V42.4953C143.101 42.0277 143.147 41.6146 143.241 41.2561C143.35 40.882 143.529 40.5158 143.779 40.1572ZM148.127 41.3964C147.831 40.96 147.426 40.7417 146.912 40.7417C146.647 40.7417 146.382 40.8197 146.117 40.9756C145.867 41.1158 145.688 41.2795 145.579 41.4665C145.485 41.6536 145.423 41.8406 145.392 42.0277C145.361 42.2147 145.345 42.3706 145.345 42.4953V50.4681C145.345 50.546 145.345 50.6318 145.345 50.7253C145.345 50.8032 145.353 50.889 145.369 50.9825C145.384 51.1384 145.509 51.3956 145.743 51.7541C145.977 52.0814 146.366 52.2451 146.912 52.2451C147.192 52.2451 147.442 52.1827 147.66 52.058C147.894 51.9177 148.057 51.7619 148.151 51.5904C148.26 51.4034 148.33 51.2319 148.361 51.076C148.392 50.9201 148.408 50.7175 148.408 50.4681V42.4953C148.408 42.1836 148.392 41.9654 148.361 41.8407C148.346 41.716 148.268 41.5679 148.128 41.3964H148.127Z" fill="white"/>
<path d="M158.274 54.3492L154.79 44.8332V54.3492H152.546V38.6841H154.674L158.134 48.1767V38.6841H160.378V54.3492H158.274Z" fill="white"/>
<path d="M35.4768 34.4464C35.7752 34.9686 35.9617 35.5094 36.0363 36.0689C36.1482 36.6284 36.2042 37.3183 36.2042 38.1389V45.3001C36.2042 46.158 36.1109 47.0158 35.9244 47.8736C35.7379 48.6942 35.1785 49.8504 34.246 51.3424C33.2763 52.8716 31.4487 53.7481 28.7633 53.9718C27.0848 53.9718 25.5556 53.6175 24.1756 52.9089C22.8329 52.1629 21.8818 51.2864 21.3223 50.2794C20.8002 49.235 20.4645 48.3585 20.3153 47.6499C20.2034 46.9412 20.1475 46.158 20.1475 45.3001V39.4257C20.1475 38.6051 20.1661 38.027 20.2034 37.6913C20.2407 37.3183 20.3713 36.8335 20.5951 36.2367L28.036 16.1519H34.0782L28.036 31.8729C28.7074 31.6118 29.5092 31.4813 30.4417 31.4813H30.9452C32.9966 31.7796 34.5071 32.768 35.4768 34.4464ZM30.3856 37.2997C29.8262 36.5538 29.0803 36.1808 28.1478 36.1808C27.3273 36.1808 26.6932 36.4792 26.2456 37.0759C25.7981 37.6727 25.5743 38.4559 25.5743 39.4257V45.3001C25.5743 46.0833 25.7607 46.8293 26.1337 47.538C26.544 48.2093 27.234 48.545 28.2037 48.545H28.5394C29.5091 48.545 30.1432 48.2093 30.4416 47.538C30.74 46.8666 30.8892 46.1207 30.8892 45.3001V39.4257C30.8892 38.9408 30.8519 38.5492 30.7774 38.2508C30.74 37.9151 30.6095 37.5981 30.3857 37.2997H30.3856Z" fill="white"/>
<path d="M59.5878 76C58.701 76 57.8343 76.7765 58.0272 77.9462L68.9491 144.176C69.0904 145.034 69.6357 145.83 70.5097 145.83H83.7713L84.7482 156.625H79.0919L92.5 170L105.908 156.625H100.252L101.229 145.83H114.49C115.364 145.83 115.91 145.034 116.051 144.176L126.973 77.9462C127.166 76.7765 126.299 76 125.412 76H59.5878ZM61.6051 79.3004H123.395L121.57 90.366C114.409 89.5393 103.671 98.689 91.6061 92.6434C76.7572 85.2026 76.4355 93.2236 63.7885 92.546L61.6051 79.3004ZM92.4512 102.455C98.2813 112.526 103.258 116.405 103.258 123.219C103.258 127.774 100.376 133.673 92.4512 133.673C84.5261 133.673 81.6441 127.774 81.6441 123.219C81.6441 116.405 86.621 112.526 92.4512 102.455Z" fill="white"/>
</svg>
