<svg width="186" height="186" viewBox="0 0 186 186" fill="none" xmlns="http://www.w3.org/2000/svg">
<path fill-rule="evenodd" clip-rule="evenodd" d="M1.03838 0H184.962C185.537 0 186 0.462348 186 1.03668V184.963C186 185.538 185.537 186 184.962 186H1.03838C0.463103 186 0 185.538 0 184.963V1.03668C0 0.462348 0.463103 0 1.03838 0Z" fill="#8F1838"/>
<path d="M53.9982 16.2611C55.0114 16.2611 55.8765 16.6196 56.5935 17.3366C57.3261 18.038 57.6923 18.8953 57.6923 19.9085V28.045C57.6923 29.1985 57.3416 30.1337 56.6402 30.8507C55.9388 31.5677 55.0347 31.9262 53.9281 31.9262H50.4443V16.2611H53.9982ZM55.4712 28.045V19.9085C55.4712 19.4721 55.3075 19.1058 54.9802 18.8096C54.6684 18.5134 54.2866 18.3654 53.8345 18.3654H52.6655V29.8453H53.7644C54.9022 29.8453 55.4712 29.2452 55.4712 28.045Z" fill="white"/>
<path d="M66.3323 29.6817V31.9262H59.6221V16.2611H66.3323V18.3186H61.8432V22.948H65.7712V25.0757H61.8432V29.6817H66.3323Z" fill="white"/>
<path d="M74.5333 27.9751C74.5333 28.4739 74.5021 28.9026 74.4397 29.2611C74.3929 29.6196 74.2371 30.0093 73.9721 30.4301C73.8318 30.6483 73.6525 30.8588 73.4343 31.0614C73.2317 31.2484 72.9979 31.4199 72.7329 31.5758C72.4835 31.7161 72.2107 31.833 71.9146 31.9265C71.6184 32.02 71.3301 32.0668 71.0495 32.0668C70.3481 32.0668 69.709 31.9187 69.1323 31.6225C68.5711 31.3264 68.1581 30.9523 67.8931 30.5002C67.6281 30.0482 67.4567 29.6274 67.3787 29.2377C67.3164 28.848 67.2852 28.4272 67.2852 27.9751V19.9088C67.2852 19.4724 67.3241 19.0827 67.402 18.7397C67.4955 18.3812 67.6826 17.9994 67.9631 17.5941C68.2437 17.1888 68.6412 16.8459 69.1556 16.5653C69.6699 16.2692 70.2077 16.1211 70.7688 16.1211C71.8443 16.1211 72.7406 16.4796 73.4576 17.1966C74.1746 17.898 74.5331 18.8021 74.5331 19.9088V20.7505H72.312V19.9088C72.312 19.4724 72.1873 19.106 71.9379 18.8099C71.7041 18.5137 71.3534 18.3657 70.8857 18.3657C70.4493 18.3657 70.1064 18.5137 69.857 18.8099C69.6232 19.106 69.5063 19.4724 69.5063 19.9088V28.583C69.5374 28.8168 69.6465 29.0818 69.8336 29.378C70.0518 29.6897 70.4104 29.8456 70.9091 29.8456C71.4391 29.8456 71.7898 29.7053 71.9613 29.4247C72.1327 29.1442 72.234 28.9415 72.2652 28.8168C72.2963 28.6766 72.3119 28.4895 72.3119 28.2557V27.4608H74.5331L74.5333 27.9751Z" fill="white"/>
<path d="M82.7503 29.6817V31.9262H76.04V16.2611H82.7503V18.3186H78.2612V22.948H82.1892V25.0757H78.2612V29.6817H82.7503Z" fill="white"/>
<path d="M89.7868 31.9263L86.3031 22.4104V31.9263H84.0586V16.2612H86.1862L89.6465 25.7538V16.2612H91.8911V31.9263H89.7868Z" fill="white"/>
<path d="M95.0629 31.9262V18.342H92.4209V16.2611H99.9729V18.342H97.2841V31.9262H95.0629Z" fill="white"/>
<path d="M110.891 31.9262L109.044 22.3869L107.244 31.9262H105.163L102.895 16.2611H105.28L106.402 25.7303L108.203 16.2611H109.863L111.71 25.7303L112.832 16.2611H115.194L112.996 31.9262H110.891Z" fill="white"/>
<path d="M116.615 17.7344C116.973 17.2356 117.425 16.8459 117.971 16.5653C118.532 16.2692 119.109 16.1211 119.701 16.1211C120.278 16.1211 120.815 16.238 121.314 16.4718C121.828 16.7056 122.257 17.0252 122.6 17.4304C122.943 17.8357 123.177 18.2565 123.301 18.693C123.426 19.1138 123.488 19.5737 123.488 20.0725V28.0453C123.488 28.5129 123.442 28.9259 123.348 29.2844C123.27 29.6429 123.083 30.0405 122.787 30.4769C122.507 30.9133 122.093 31.2874 121.548 31.5992C121.018 31.9109 120.426 32.0668 119.771 32.0668C119.397 32.0668 119.038 32.02 118.695 31.9265C118.353 31.8174 118.033 31.6771 117.737 31.5056C117.441 31.3342 117.176 31.1393 116.942 30.9211C116.724 30.7029 116.552 30.4769 116.428 30.2431C116.194 29.7599 116.053 29.3702 116.007 29.074C115.96 28.7779 115.937 28.435 115.937 28.0453V20.0725C115.937 19.6049 115.983 19.1918 116.077 18.8333C116.186 18.4592 116.365 18.0929 116.615 17.7344ZM120.963 18.9736C120.667 18.5371 120.262 18.3189 119.748 18.3189C119.483 18.3189 119.218 18.3968 118.953 18.5527C118.703 18.693 118.524 18.8567 118.415 19.0437C118.321 19.2307 118.259 19.4178 118.228 19.6048C118.197 19.7919 118.181 19.9478 118.181 20.0725V28.0453C118.181 28.1232 118.181 28.2089 118.181 28.3025C118.181 28.3804 118.189 28.4661 118.205 28.5597C118.22 28.7155 118.345 28.9727 118.579 29.3312C118.812 29.6586 119.202 29.8222 119.748 29.8222C120.028 29.8222 120.278 29.7598 120.496 29.6352C120.73 29.4949 120.893 29.339 120.987 29.1676C121.096 28.9805 121.166 28.809 121.197 28.6532C121.228 28.4973 121.244 28.2947 121.244 28.0453V20.0725C121.244 19.7607 121.228 19.5425 121.197 19.4178C121.182 19.2931 121.104 19.145 120.963 18.9736H120.963Z" fill="white"/>
<path d="M125.392 31.9263V16.2612H129.32C130.348 16.2612 131.213 16.6197 131.915 17.3368C132.632 18.0538 132.99 18.9345 132.99 19.9788V21.4284C132.99 22.878 132.375 23.9847 131.143 24.7484L133.528 31.9263H131.143L129.039 25.2161H127.636V31.9263H125.392ZM130.372 22.7377C130.512 22.5663 130.605 22.3714 130.652 22.1532C130.715 21.935 130.746 21.6934 130.746 21.4284V19.9788C130.746 19.4956 130.613 19.1059 130.348 18.8097C130.083 18.498 129.709 18.3421 129.226 18.3421H127.636V23.2287H129.203C129.67 23.2287 130.06 23.065 130.372 22.7377H130.372Z" fill="white"/>
<path d="M140.248 31.9262L137.746 24.9354L136.507 27.25V31.9262H134.286V16.2611H136.531V23.4624L139.874 16.2611H142.095L139.032 22.5038L142.633 31.9262H140.248Z" fill="white"/>
<path d="M144.886 31.9262L148.394 16.2611H150.334L153.841 31.9262H151.433L150.802 28.5594H147.903L147.248 31.9262H144.886ZM148.3 26.4785H150.404L149.352 20.7736L148.3 26.4785Z" fill="white"/>
<path d="M160.712 31.9262L157.228 22.4103V31.9262H154.984V16.2611H157.111L160.572 25.7537V16.2611H162.816V31.9262H160.712Z" fill="white"/>
<path d="M167.948 16.2612C168.962 16.2612 169.827 16.6197 170.544 17.3368C171.276 18.0382 171.643 18.8955 171.643 19.9086V28.0451C171.643 29.1986 171.292 30.1338 170.59 30.8508C169.889 31.5678 168.985 31.9263 167.878 31.9263H164.395V16.2612H167.948ZM169.421 28.0451V19.9086C169.421 19.4722 169.258 19.1059 168.93 18.8097C168.619 18.5136 168.237 18.3655 167.785 18.3655H166.616V29.8455H167.715C168.852 29.8455 169.421 29.2454 169.421 28.0451Z" fill="white"/>
<path d="M57.1546 51.2843V53.5288H50.4443V37.8637H57.1546V39.9212H52.6655V44.5506H56.5935V46.6783H52.6655V51.2843H57.1546Z" fill="white"/>
<path d="M65.2608 49.5777C65.2608 50.0765 65.2296 50.5051 65.1672 50.8636C65.1205 51.2221 64.9646 51.6118 64.6996 52.0326C64.5594 52.2509 64.3801 52.4613 64.1619 52.6639C63.9592 52.851 63.7254 53.0224 63.4604 53.1783C63.211 53.3186 62.9383 53.4355 62.6421 53.529C62.346 53.6225 62.0576 53.6693 61.777 53.6693C61.0756 53.6693 60.4365 53.5212 59.8598 53.2251C59.2987 52.9289 58.8856 52.5548 58.6207 52.1028C58.3557 51.6508 58.1842 51.2299 58.1063 50.8402C58.0439 50.4506 58.0127 50.0297 58.0127 49.5777V41.5113C58.0127 41.0749 58.0517 40.6852 58.1296 40.3423C58.2231 39.9838 58.4101 39.6019 58.6907 39.1966C58.9713 38.7914 59.3688 38.4484 59.8831 38.1679C60.3975 37.8717 60.9353 37.7236 61.4964 37.7236C62.5719 37.7236 63.4682 38.0821 64.1852 38.7992C64.9022 39.5006 65.2607 40.4046 65.2607 41.5113V42.353H63.0395V41.5113C63.0395 41.0749 62.9148 40.7086 62.6654 40.4125C62.4316 40.1163 62.0809 39.9682 61.6133 39.9682C61.1769 39.9682 60.8339 40.1163 60.5846 40.4125C60.3507 40.7086 60.2338 41.0749 60.2338 41.5113V50.1856C60.265 50.4194 60.3741 50.6844 60.5612 50.9805C60.7794 51.2923 61.1379 51.4481 61.6367 51.4481C62.1666 51.4481 62.5174 51.3078 62.6888 51.0273C62.8603 50.7467 62.9616 50.5441 62.9928 50.4194C63.0239 50.2791 63.0395 50.0921 63.0395 49.8582V49.0633H65.2606L65.2608 49.5777Z" fill="white"/>
<path d="M67.556 39.3369C67.9145 38.8381 68.3665 38.4484 68.912 38.1679C69.4732 37.8717 70.0499 37.7236 70.6422 37.7236C71.219 37.7236 71.7567 37.8405 72.2555 38.0743C72.7699 38.3081 73.1985 38.6277 73.5414 39.033C73.8844 39.4382 74.1182 39.8591 74.2429 40.2955C74.3676 40.7164 74.4299 41.1762 74.4299 41.675V49.6478C74.4299 50.1154 74.3831 50.5285 74.2896 50.887C74.2117 51.2455 74.0247 51.643 73.7285 52.0794C73.4479 52.5158 73.0349 52.8899 72.4893 53.2017C71.9594 53.5134 71.367 53.6693 70.7124 53.6693C70.3383 53.6693 69.9798 53.6225 69.6369 53.529C69.2939 53.4199 68.9744 53.2796 68.6782 53.1082C68.3821 52.9367 68.1171 52.7419 67.8833 52.5236C67.6651 52.3054 67.4936 52.0794 67.3689 51.8456C67.1351 51.3624 66.9948 50.9727 66.9481 50.6766C66.9013 50.3804 66.8779 50.0375 66.8779 49.6478V41.675C66.8779 41.2074 66.9247 40.7943 67.0182 40.4358C67.1273 40.0617 67.3066 39.6954 67.556 39.3369ZM71.9048 40.5761C71.6086 40.1397 71.2034 39.9214 70.689 39.9214C70.424 39.9214 70.159 39.9994 69.894 40.1552C69.6446 40.2955 69.4654 40.4592 69.3563 40.6462C69.2628 40.8333 69.2004 41.0203 69.1692 41.2074C69.1381 41.3944 69.1225 41.5503 69.1225 41.675V49.6478C69.1225 49.7257 69.1225 49.8115 69.1225 49.905C69.1225 49.9829 69.1303 50.0687 69.1459 50.1622C69.1616 50.3181 69.2863 50.5753 69.52 50.9338C69.7538 51.2611 70.1435 51.4248 70.6891 51.4248C70.9696 51.4248 71.219 51.3624 71.4373 51.2377C71.6711 51.0974 71.8347 50.9416 71.9283 50.7701C72.0374 50.583 72.1075 50.4116 72.1387 50.2557C72.1698 50.0998 72.1854 49.8972 72.1854 49.6478V41.675C72.1854 41.3633 72.1698 41.145 72.1387 41.0203C72.1231 40.8956 72.0451 40.7476 71.9049 40.5761H71.9048Z" fill="white"/>
<path d="M81.9529 53.5289L78.4691 44.0129V53.5289H76.2246V37.8638H78.3522L81.8126 47.3564V37.8638H84.0571V53.5289H81.9529Z" fill="white"/>
<path d="M86.1055 39.337C86.464 38.8382 86.916 38.4485 87.4616 38.168C88.0227 37.8718 88.5995 37.7237 89.1918 37.7237C89.7685 37.7237 90.3063 37.8406 90.8051 38.0744C91.3194 38.3082 91.7481 38.6278 92.091 39.0331C92.4339 39.4383 92.6677 39.8592 92.7924 40.2956C92.9171 40.7165 92.9795 41.1763 92.9795 41.6751V49.6479C92.9795 50.1155 92.9327 50.5286 92.8392 50.8871C92.7613 51.2456 92.5742 51.6431 92.278 52.0795C91.9975 52.5159 91.5844 52.89 91.0389 53.2018C90.5089 53.5135 89.9166 53.6694 89.2619 53.6694C88.8878 53.6694 88.5293 53.6226 88.1864 53.5291C87.8435 53.42 87.524 53.2797 87.2278 53.1083C86.9317 52.9368 86.6667 52.7419 86.4329 52.5237C86.2147 52.3055 86.0432 52.0795 85.9185 51.8457C85.6847 51.3625 85.5444 50.9728 85.4976 50.6767C85.4509 50.3805 85.4275 50.0376 85.4275 49.6479V41.6751C85.4275 41.2075 85.4743 40.7944 85.5678 40.4359C85.6769 40.0618 85.8561 39.6955 86.1055 39.337ZM90.4543 40.5762C90.1582 40.1398 89.7529 39.9215 89.2385 39.9215C88.9736 39.9215 88.7086 39.9995 88.4436 40.1553C88.1942 40.2956 88.015 40.4593 87.9058 40.6463C87.8123 40.8334 87.75 41.0204 87.7188 41.2075C87.6877 41.3945 87.6721 41.5504 87.6721 41.6751V49.6479C87.6721 49.7258 87.6721 49.8115 87.6721 49.9051C87.6721 49.983 87.6799 50.0687 87.6955 50.1623C87.7111 50.3182 87.8358 50.5754 88.0696 50.9339C88.3034 51.2612 88.6931 51.4249 89.2386 51.4249C89.5192 51.4249 89.7686 51.3625 89.9868 51.2378C90.2206 51.0975 90.3843 50.9416 90.4778 50.7702C90.5869 50.5831 90.6571 50.4117 90.6882 50.2558C90.7194 50.0999 90.735 49.8973 90.735 49.6479V41.6751C90.735 41.3634 90.7194 41.1451 90.6882 41.0204C90.6726 40.8957 90.5947 40.7476 90.4544 40.5762H90.4543Z" fill="white"/>
<path d="M102.453 53.5288V43.9895L100.208 50.6764H99.0858L96.8647 43.9895V53.5288H94.6201V37.8637H96.7244L99.6937 46.2107L102.616 37.8637H104.674V53.5288H102.453Z" fill="white"/>
<path d="M106.028 53.5289V37.8638H108.249V53.5289H106.028Z" fill="white"/>
<path d="M117.49 49.5778C117.49 50.0766 117.459 50.5052 117.397 50.8637C117.35 51.2222 117.194 51.6119 116.929 52.0327C116.789 52.251 116.61 52.4614 116.391 52.664C116.189 52.8511 115.955 53.0225 115.69 53.1784C115.441 53.3187 115.168 53.4356 114.872 53.5291C114.575 53.6226 114.287 53.6694 114.007 53.6694C113.305 53.6694 112.666 53.5213 112.089 53.2252C111.528 52.929 111.115 52.5549 110.85 52.1029C110.585 51.6509 110.414 51.23 110.336 50.8403C110.273 50.4506 110.242 50.0298 110.242 49.5778V41.5114C110.242 41.075 110.281 40.6853 110.359 40.3424C110.453 39.9839 110.64 39.602 110.92 39.1967C111.201 38.7915 111.598 38.4485 112.113 38.168C112.627 37.8718 113.165 37.7237 113.726 37.7237C114.801 37.7237 115.698 38.0822 116.415 38.7992C117.132 39.5007 117.49 40.4047 117.49 41.5114V42.3531H115.269V41.5114C115.269 41.075 115.144 40.7087 114.895 40.4125C114.661 40.1164 114.31 39.9683 113.843 39.9683C113.406 39.9683 113.063 40.1164 112.814 40.4125C112.58 40.7087 112.463 41.075 112.463 41.5114V50.1857C112.494 50.4195 112.604 50.6845 112.791 50.9806C113.009 51.2924 113.367 51.4482 113.866 51.4482C114.396 51.4482 114.747 51.3079 114.918 51.0274C115.09 50.7468 115.191 50.5442 115.222 50.4195C115.253 50.2792 115.269 50.0921 115.269 49.8583V49.0634H117.49L117.49 49.5778Z" fill="white"/>
<path d="M128.59 51.8924C128.232 52.4535 127.772 52.8899 127.211 53.2017C126.65 53.5134 126.034 53.6693 125.364 53.6693C124.772 53.6693 124.195 53.529 123.634 53.2485C123.088 52.9679 122.66 52.625 122.348 52.2197C122.052 51.7988 121.849 51.378 121.74 50.9571C121.646 50.5363 121.6 50.0609 121.6 49.5309V41.6984C121.6 41.3087 121.639 40.919 121.716 40.5293C121.826 40.1397 122.114 39.5863 122.582 38.8693C123.065 38.1055 124.016 37.7236 125.434 37.7236C126.058 37.7236 126.642 37.8717 127.188 38.1679C127.733 38.464 128.146 38.8303 128.427 39.2668C128.723 39.6876 128.91 40.0929 128.988 40.4826C129.081 40.8567 129.128 41.2619 129.128 41.6984V42.353H126.907V41.6984C126.907 41.5737 126.899 41.4646 126.884 41.371C126.884 41.2619 126.876 41.1684 126.86 41.0905C126.845 40.9502 126.728 40.7242 126.509 40.4125C126.291 40.1007 125.925 39.9448 125.411 39.9448C124.803 39.9448 124.397 40.1085 124.195 40.4358C124.008 40.7631 123.899 41.0047 123.867 41.1606C123.836 41.3165 123.821 41.4957 123.821 41.6984V49.5309C123.821 49.6868 123.821 49.8193 123.821 49.9284C123.821 50.0375 123.828 50.131 123.844 50.209C123.86 50.3337 123.977 50.5753 124.195 50.9338C124.397 51.2611 124.795 51.4248 125.387 51.4248C125.995 51.4248 126.385 51.2611 126.556 50.9338C126.65 50.7623 126.72 50.622 126.767 50.5129C126.813 50.3882 126.845 50.2791 126.86 50.1856C126.891 50.092 126.907 49.9985 126.907 49.905C126.907 49.7959 126.907 49.6712 126.907 49.5309V46.7954H125.107V44.8314H129.128V49.5309C129.128 49.8583 129.12 50.1388 129.105 50.3726C129.089 50.5909 129.058 50.7857 129.011 50.9571C128.964 51.1286 128.902 51.2923 128.824 51.4481C128.762 51.5884 128.684 51.7365 128.59 51.8924H128.59Z" fill="white"/>
<path d="M130.725 53.5289V37.8638H134.653C135.681 37.8638 136.546 38.2223 137.248 38.9393C137.965 39.6563 138.323 40.537 138.323 41.5813V43.0309C138.323 44.4805 137.708 45.5872 136.476 46.351L138.861 53.5289H136.476L134.372 46.8186H132.969V53.5289H130.725ZM135.705 44.3403C135.845 44.1688 135.938 43.9739 135.985 43.7557C136.048 43.5375 136.079 43.2959 136.079 43.0309V41.5813C136.079 41.0981 135.946 40.7085 135.681 40.4123C135.416 40.1006 135.042 39.9447 134.559 39.9447H132.969V44.8312H134.536C135.003 44.8312 135.393 44.6676 135.705 44.3403H135.705Z" fill="white"/>
<path d="M140.186 39.3369C140.544 38.8381 140.996 38.4484 141.542 38.1679C142.103 37.8717 142.68 37.7236 143.272 37.7236C143.849 37.7236 144.387 37.8405 144.885 38.0743C145.4 38.3081 145.828 38.6277 146.171 39.033C146.514 39.4382 146.748 39.8591 146.873 40.2955C146.997 40.7164 147.06 41.1762 147.06 41.675V49.6478C147.06 50.1154 147.013 50.5285 146.92 50.887C146.842 51.2455 146.655 51.643 146.358 52.0794C146.078 52.5158 145.665 52.8899 145.119 53.2017C144.589 53.5134 143.997 53.6693 143.342 53.6693C142.968 53.6693 142.61 53.6225 142.267 53.529C141.924 53.4199 141.604 53.2796 141.308 53.1082C141.012 52.9367 140.747 52.7419 140.513 52.5236C140.295 52.3054 140.124 52.0794 139.999 51.8456C139.765 51.3624 139.625 50.9727 139.578 50.6766C139.531 50.3804 139.508 50.0375 139.508 49.6478V41.675C139.508 41.2074 139.555 40.7943 139.648 40.4358C139.757 40.0617 139.936 39.6954 140.186 39.3369ZM144.535 40.5761C144.239 40.1397 143.833 39.9214 143.319 39.9214C143.054 39.9214 142.789 39.9994 142.524 40.1552C142.275 40.2955 142.095 40.4592 141.986 40.6462C141.893 40.8333 141.83 41.0203 141.799 41.2074C141.768 41.3944 141.752 41.5503 141.752 41.675V49.6478C141.752 49.7257 141.752 49.8115 141.752 49.905C141.752 49.9829 141.76 50.0687 141.776 50.1622C141.791 50.3181 141.916 50.5753 142.15 50.9338C142.384 51.2611 142.773 51.4248 143.319 51.4248C143.6 51.4248 143.849 51.3624 144.067 51.2377C144.301 51.0974 144.465 50.9416 144.558 50.7701C144.667 50.583 144.737 50.4116 144.769 50.2557C144.8 50.0998 144.815 49.8972 144.815 49.6478V41.675C144.815 41.3633 144.8 41.145 144.769 41.0203C144.753 40.8956 144.675 40.7476 144.535 40.5761H144.535Z" fill="white"/>
<path d="M156.228 53.5289L154.381 43.9895L152.58 53.5289H150.499L148.231 37.8638H150.616L151.739 47.333L153.539 37.8638H155.199L157.046 47.333L158.168 37.8638H160.53L158.332 53.5289H156.228Z" fill="white"/>
<path d="M163.665 53.5288V39.9446H161.023V37.8637H168.575V39.9446H165.887V53.5288H163.665Z" fill="white"/>
<path d="M169.677 53.5289V37.8638H171.898V44.5507H174.75V37.8638H176.972V53.5289H174.75V46.538H171.898V53.5289H169.677Z" fill="white"/>
<path d="M35.6316 45.0954V45.4871C35.6316 46.3076 35.4451 47.1655 35.0722 48.0606C34.6992 48.9558 34.177 49.795 33.5056 50.5782C32.8343 51.3242 32.0324 51.9396 31.1 52.4245C30.1675 52.9093 29.1605 53.1518 28.0788 53.1518H27.911C27.1277 53.1518 26.3445 53.0399 25.5612 52.8161C24.8153 52.5923 24.1066 52.2939 23.4352 51.9209C22.8012 51.548 22.2417 51.1377 21.7568 50.6901C21.272 50.2052 20.9176 49.7017 20.6939 49.1796C20.209 48.1352 19.9106 47.2773 19.7987 46.606C19.6868 45.8973 19.6309 45.1887 19.6309 44.48V37.9342C19.6309 35.9947 20.526 34.3537 22.3163 33.0109C20.526 31.6682 19.6309 29.822 19.6309 27.4722V22.437C19.6309 21.6538 19.7614 20.9264 20.0225 20.2551C20.2836 19.5464 20.9549 18.4835 22.0366 17.0661C23.0809 15.6861 25.0017 14.9961 27.7991 14.9961C28.8061 14.9961 29.7945 15.2199 30.7643 15.6675C31.6967 16.115 32.741 16.9356 33.8973 18.1291C35.0535 19.2854 35.6316 20.9265 35.6316 23.0524V27.8639C35.6316 30.0271 34.7365 31.7428 32.9462 33.0109C34.7365 34.3164 35.6316 36.088 35.6316 38.3259V45.0954ZM27.6872 20.311C26.9039 20.311 26.2512 20.5908 25.7291 21.1502C25.2069 21.6724 24.9458 22.3065 24.9458 23.0524V27.8639C24.9458 28.7217 25.1696 29.4676 25.6172 30.1017C26.102 30.6985 26.7734 30.9968 27.6313 30.9968C28.5637 30.9968 29.235 30.7171 29.6453 30.1577C30.0929 29.5609 30.3167 28.7963 30.3167 27.8639V23.0524C30.3167 22.3438 30.0556 21.7097 29.5334 21.1502C29.0486 20.5908 28.4332 20.311 27.6872 20.311ZM27.6872 35.081C26.8666 35.081 26.1953 35.3607 25.6731 35.9202C25.1882 36.4424 24.9458 37.1137 24.9458 37.9342V44.48C24.9458 45.4498 25.1696 46.2517 25.6172 46.8858C26.0647 47.4825 26.792 47.7809 27.7991 47.7809C28.7688 47.7809 29.4215 47.4639 29.7572 46.8298C30.1302 46.1584 30.3167 45.3752 30.3167 44.48V37.9342C30.3167 37.1137 30.0743 36.4424 29.5894 35.9202C29.1418 35.3607 28.5078 35.081 27.6872 35.081Z" fill="white"/>
<path d="M138.141 67.0001C138.063 66.9993 137.982 67.0077 137.901 67.0298L122.399 71.1905C121.75 71.3648 121.534 72.178 122.01 72.6527L125.36 76.0091L92.2604 109.193L79.0854 95.996C77.8467 94.7555 75.839 94.7555 74.6004 95.996L48 122.646L52.4875 127.139L76.8429 102.736L90.0155 115.936C91.2544 117.178 93.264 117.178 94.503 115.936L129.845 80.5025L133.357 84.0202C133.523 84.1873 133.75 84.2795 133.986 84.2759C134.376 84.2709 134.715 84.0074 134.816 83.6305L138.969 68.0998C139.122 67.5312 138.687 67.0056 138.141 67V67.0001ZM129.845 89.4918L108.962 110.429V161.575C108.962 162.919 110.043 164 111.385 164H129.147C130.489 164 131.57 162.919 131.57 161.575V91.2196L129.845 89.4918ZM76.2209 112.348L53.6149 134.999V161.575C53.6149 162.919 54.6961 164 56.0383 164H73.8C75.1423 164 76.2209 162.919 76.2209 161.575V112.348ZM103.894 115.509L94.503 124.925C93.264 126.167 91.2544 126.167 90.0155 124.925L81.2883 116.179V161.575C81.2883 162.919 82.3694 164 83.7117 164H101.473C102.816 164 103.894 162.919 103.894 161.575V115.509Z" fill="white"/>
<path d="M138.141 67.0001C138.063 66.9992 137.982 67.0078 137.901 67.0302L122.399 71.2505C121.75 71.4272 121.534 72.2521 122.01 72.7336L125.36 76.1381L92.2604 109.797L79.0854 96.4109C77.8467 95.1527 75.839 95.1527 74.6004 96.4109L48 123.442L52.4875 128L76.8429 103.247L90.0155 116.636C91.2544 117.896 93.264 117.896 94.503 116.636L129.845 80.6957L133.357 84.2638C133.523 84.4332 133.75 84.5268 133.986 84.5232C134.376 84.518 134.715 84.2508 134.816 83.8685L138.969 68.1155C139.122 67.5388 138.687 67.0057 138.141 67V67.0001Z" fill="white"/>
</svg>
