<svg width="186" height="186" viewBox="0 0 186 186" fill="none" xmlns="http://www.w3.org/2000/svg">
<path fill-rule="evenodd" clip-rule="evenodd" d="M1.03837 0H184.962C185.537 0 186 0.462361 186 1.03668V184.963C186 185.538 185.537 186 184.962 186H1.03837C0.463116 186 0 185.538 0 184.963V1.03668C0 0.462361 0.463116 0 1.03837 0Z" fill="#279B48"/>
<path d="M61.5553 31.1101C61.1968 31.6713 60.737 32.1077 60.1758 32.4194C59.6147 32.7312 58.999 32.8871 58.3288 32.8871C57.7364 32.8871 57.1597 32.7468 56.5986 32.4662C56.053 32.1856 55.6244 31.8427 55.3126 31.4375C55.0165 31.0166 54.8138 30.5958 54.7047 30.1749C54.6112 29.754 54.5645 29.2786 54.5645 28.7487V20.9161C54.5645 20.5265 54.6034 20.1368 54.6813 19.7471C54.7904 19.3574 55.0788 18.8041 55.5464 18.0871C56.0296 17.3233 56.9804 16.9414 58.3989 16.9414C59.0224 16.9414 59.6069 17.0895 60.1524 17.3856C60.698 17.6818 61.111 18.0481 61.3916 18.4845C61.6878 18.9054 61.8748 19.3107 61.9527 19.7003C62.0463 20.0744 62.093 20.4797 62.093 20.9161V21.5708H59.8718V20.9161C59.8718 20.7914 59.864 20.6823 59.8484 20.5888C59.8484 20.4797 59.8406 20.3862 59.825 20.3082C59.8094 20.1679 59.6925 19.9419 59.4743 19.6302C59.2561 19.3184 58.8898 19.1626 58.3754 19.1626C57.7675 19.1626 57.3622 19.3262 57.1596 19.6536C56.9725 19.9809 56.8634 20.2225 56.8323 20.3784C56.8011 20.5342 56.7856 20.7135 56.7856 20.9161V28.7487C56.7856 28.9045 56.7856 29.037 56.7856 29.1461C56.7856 29.2553 56.7933 29.3488 56.809 29.4267C56.8246 29.5514 56.9415 29.793 57.1597 30.1515C57.3623 30.4788 57.7598 30.6425 58.3521 30.6425C58.96 30.6425 59.3497 30.4788 59.5211 30.1515C59.6147 29.9801 59.6848 29.8398 59.7316 29.7307C59.7783 29.606 59.8095 29.4969 59.8251 29.4033C59.8563 29.3098 59.8718 29.2163 59.8718 29.1228C59.8718 29.0136 59.8718 28.889 59.8718 28.7487V26.0131H58.0715V24.0491H62.093V28.7487C62.093 29.076 62.0852 29.3566 62.0696 29.5904C62.054 29.8086 62.0228 30.0034 61.976 30.1749C61.9293 30.3464 61.8669 30.51 61.789 30.6659C61.7266 30.8062 61.6487 30.9542 61.5552 31.1101H61.5553Z" fill="white"/>
<path d="M64.5667 18.5547C64.9252 18.0559 65.3772 17.6662 65.9228 17.3856C66.4839 17.0895 67.0606 16.9414 67.6529 16.9414C68.2297 16.9414 68.7674 17.0583 69.2662 17.2921C69.7806 17.5259 70.2092 17.8455 70.5521 18.2507C70.8951 18.656 71.1289 19.0768 71.2536 19.5133C71.3783 19.9341 71.4406 20.394 71.4406 20.8927V28.8656C71.4406 29.3332 71.3939 29.7463 71.3004 30.1048C71.2224 30.4633 71.0354 30.8607 70.7392 31.2972C70.4587 31.7336 70.0456 32.1077 69.5 32.4194C68.9701 32.7312 68.3777 32.8871 67.7231 32.8871C67.349 32.8871 66.9905 32.8403 66.6476 32.7468C66.3047 32.6377 65.9851 32.4974 65.689 32.3259C65.3928 32.1545 65.1279 31.9596 64.8941 31.7414C64.6758 31.5232 64.5044 31.2972 64.3797 31.0634C64.1459 30.5802 64.0056 30.1905 63.9588 29.8943C63.9121 29.5982 63.8887 29.2553 63.8887 28.8656V20.8927C63.8887 20.4251 63.9354 20.0121 64.029 19.6536C64.1381 19.2795 64.3173 18.9132 64.5667 18.5547ZM68.9155 19.7938C68.6193 19.3574 68.2141 19.1392 67.6997 19.1392C67.4347 19.1392 67.1698 19.2171 66.9048 19.373C66.6554 19.5133 66.4761 19.6769 66.367 19.864C66.2735 20.051 66.2111 20.2381 66.18 20.4251C66.1488 20.6122 66.1332 20.768 66.1332 20.8927V28.8656C66.1332 28.9435 66.1332 29.0292 66.1332 29.1228C66.1332 29.2007 66.1411 29.2864 66.1567 29.3799C66.1723 29.5358 66.297 29.793 66.5307 30.1515C66.7646 30.4788 67.1542 30.6425 67.6998 30.6425C67.9804 30.6425 68.2298 30.5802 68.448 30.4555C68.6818 30.3152 68.8454 30.1593 68.939 29.9878C69.0481 29.8008 69.1182 29.6294 69.1494 29.4735C69.1805 29.3176 69.1961 29.115 69.1961 28.8656V20.8927C69.1961 20.581 69.1805 20.3628 69.1494 20.2381C69.1338 20.1134 69.0558 19.9653 68.9156 19.7938H68.9155Z" fill="white"/>
<path d="M74.0257 18.5547C74.3842 18.0559 74.8362 17.6662 75.3818 17.3856C75.9429 17.0895 76.5196 16.9414 77.112 16.9414C77.6887 16.9414 78.2264 17.0583 78.7252 17.2921C79.2396 17.5259 79.6682 17.8455 80.0111 18.2507C80.3541 18.656 80.5879 19.0768 80.7126 19.5133C80.8373 19.9341 80.8996 20.394 80.8996 20.8927V28.8656C80.8996 29.3332 80.8529 29.7463 80.7593 30.1048C80.6814 30.4633 80.4944 30.8607 80.1982 31.2972C79.9176 31.7336 79.5046 32.1077 78.959 32.4194C78.429 32.7312 77.8368 32.8871 77.1821 32.8871C76.808 32.8871 76.4495 32.8403 76.1066 32.7468C75.7637 32.6377 75.4441 32.4974 75.148 32.3259C74.8518 32.1545 74.5868 31.9596 74.353 31.7414C74.1348 31.5232 73.9634 31.2972 73.8386 31.0634C73.6048 30.5802 73.4646 30.1905 73.4178 29.8943C73.371 29.5982 73.3477 29.2553 73.3477 28.8656V20.8927C73.3477 20.4251 73.3944 20.0121 73.4879 19.6536C73.5971 19.2795 73.7763 18.9132 74.0257 18.5547ZM78.3745 19.7938C78.0784 19.3574 77.6731 19.1392 77.1587 19.1392C76.8937 19.1392 76.6287 19.2171 76.3638 19.373C76.1144 19.5133 75.9351 19.6769 75.826 19.864C75.7325 20.051 75.6701 20.2381 75.6389 20.4251C75.6078 20.6122 75.5922 20.768 75.5922 20.8927V28.8656C75.5922 28.9435 75.5922 29.0292 75.5922 29.1228C75.5922 29.2007 75.6001 29.2864 75.6157 29.3799C75.6313 29.5358 75.756 29.793 75.9898 30.1515C76.2236 30.4788 76.6132 30.6425 77.1588 30.6425C77.4394 30.6425 77.6887 30.5802 77.907 30.4555C78.1408 30.3152 78.3044 30.1593 78.3979 29.9878C78.5071 29.8008 78.5772 29.6294 78.6084 29.4735C78.6396 29.3176 78.6551 29.115 78.6551 28.8656V20.8927C78.6551 20.581 78.6396 20.3628 78.6084 20.2381C78.5928 20.1134 78.5148 19.9653 78.3746 19.7938H78.3745Z" fill="white"/>
<path d="M86.5217 17.0815C87.5348 17.0815 88.3999 17.44 89.1169 18.157C89.8495 18.8585 90.2158 19.7158 90.2158 20.7289V28.8654C90.2158 30.0189 89.8651 30.9541 89.1637 31.6711C88.4623 32.3881 87.5582 32.7466 86.4515 32.7466H82.9678V17.0815H86.5217ZM87.9946 28.8654V20.7289C87.9946 20.2925 87.831 19.9262 87.5036 19.63C87.1919 19.3339 86.81 19.1858 86.358 19.1858H85.189V30.6657H86.2879C87.4257 30.6657 87.9946 30.0656 87.9946 28.8654Z" fill="white"/>
<path d="M94.498 32.7465V17.0814H96.7192V23.7683H99.5717V17.0814H101.793V32.7465H99.5717V25.7557H96.7192V32.7465H94.498Z" fill="white"/>
<path d="M110.581 30.5021V32.7466H103.871V17.0815H110.581V19.1391H106.092V23.7684H110.02V25.8961H106.092V30.5021H110.581Z" fill="white"/>
<path d="M110.915 32.7465L114.422 17.0814H116.363L119.87 32.7465H117.462L116.83 29.3797H113.931L113.277 32.7465H110.915ZM114.329 27.2988H116.433L115.381 21.5939L114.329 27.2988Z" fill="white"/>
<path d="M127.723 32.7465H121.036V17.0814H123.28V30.5019H127.723V32.7465Z" fill="white"/>
<path d="M128.736 32.7466V19.1624H126.094V17.0815H133.646V19.1624H130.957V32.7466H128.736Z" fill="white"/>
<path d="M134.847 32.7465V17.0814H137.068V23.7683H139.92V17.0814H142.141V32.7465H139.92V25.7557H137.068V32.7465H134.847Z" fill="white"/>
<path d="M53.5352 54.3492L57.0422 38.6841H58.9829L62.49 54.3492H60.0817L59.4505 50.9823H56.5513L55.8966 54.3492H53.5352ZM56.9487 48.9014H59.053L58.0009 43.1966L56.9487 48.9014Z" fill="white"/>
<path d="M69.3601 54.3492L65.8764 44.8332V54.3492H63.6318V38.6841H65.7595L69.2198 48.1767V38.6841H71.4644V54.3492H69.3601Z" fill="white"/>
<path d="M77.4611 38.6841C78.4743 38.6841 79.3393 39.0426 80.0564 39.7596C80.7889 40.461 81.1552 41.3183 81.1552 42.3315V50.468C81.1552 51.6214 80.8045 52.5566 80.1031 53.2736C79.4017 53.9906 78.4976 54.3492 77.391 54.3492H73.9072V38.6841H77.4611ZM78.9341 50.468V42.3315C78.9341 41.895 78.7704 41.5287 78.4431 41.2326C78.1314 40.9364 77.7495 40.7883 77.2974 40.7883H76.1284V52.2683H77.2273C78.3652 52.2683 78.9341 51.6682 78.9341 50.468Z" fill="white"/>
<path d="M92.7111 54.3492L90.864 44.8099L89.0637 54.3492H86.9828L84.7148 38.6841H87.0997L88.222 48.1533L90.0223 38.6841H91.6823L93.5294 48.1533L94.6517 38.6841H97.0131L94.8153 54.3492H92.7111Z" fill="white"/>
<path d="M104.881 52.1046V54.3492H98.1711V38.6841H104.881V40.7416H100.392V45.371H104.32V47.4986H100.392V52.1046H104.881Z" fill="white"/>
<path d="M112.411 54.3492H105.724V38.6841H107.968V52.1046H112.411V54.3492Z" fill="white"/>
<path d="M119.751 54.3492H113.064V38.6841H115.309V52.1046H119.751V54.3492Z" fill="white"/>
<path d="M127.085 38.6841C127.568 38.6841 128.02 38.7854 128.441 38.988C128.908 39.2062 129.384 39.5569 129.867 40.0401C130.381 40.5389 130.638 41.3183 130.638 42.3782V43.5706C130.638 44.7708 130.163 45.6126 129.212 46.0958C130.163 46.6569 130.638 47.5298 130.638 48.7144V50.5381C130.638 51.6448 130.28 52.5566 129.563 53.2736C128.861 53.9906 127.957 54.3492 126.851 54.3492H123.39V38.6841H127.085ZM128.417 43.3368V42.3782C128.417 41.895 128.277 41.5131 127.996 41.2326C127.716 40.9364 127.342 40.7883 126.874 40.7883H125.612V45.1138H126.944C127.459 45.1138 127.833 44.9579 128.067 44.6461C128.3 44.3188 128.417 43.8824 128.417 43.3368ZM128.417 50.5381V48.7144C128.417 48.2156 128.277 47.8259 127.996 47.5454C127.731 47.2492 127.357 47.1011 126.874 47.1011H125.612V52.128H126.897C127.35 52.128 127.716 51.9799 127.996 51.6838C128.277 51.372 128.417 50.9901 128.417 50.5381Z" fill="white"/>
<path d="M139.022 52.1046V54.3492H132.312V38.6841H139.022V40.7416H134.533V45.371H138.461V47.4986H134.533V52.1046H139.022Z" fill="white"/>
<path d="M140.019 54.3492V38.6841H142.24V54.3492H140.019Z" fill="white"/>
<path d="M149.872 54.3492L146.388 44.8332V54.3492H144.144V38.6841H146.271L149.732 48.1766V38.6841H151.976V54.3492H149.872Z" fill="white"/>
<path d="M160.184 52.7127C159.826 53.2738 159.366 53.7103 158.805 54.022C158.244 54.3338 157.628 54.4896 156.958 54.4896C156.365 54.4896 155.789 54.3493 155.227 54.0688C154.682 53.7882 154.253 53.4453 153.942 53.04C153.645 52.6192 153.443 52.1983 153.334 51.7774C153.24 51.3566 153.193 50.8812 153.193 50.3512V42.5187C153.193 42.129 153.232 41.7393 153.31 41.3497C153.419 40.96 153.708 40.4066 154.175 39.6896C154.659 38.9258 155.609 38.5439 157.028 38.5439C157.651 38.5439 158.236 38.692 158.781 38.9882C159.327 39.2843 159.74 39.6507 160.02 40.0871C160.317 40.508 160.504 40.9132 160.582 41.3029C160.675 41.677 160.722 42.0822 160.722 42.5187V43.1733H158.501V42.5187C158.501 42.394 158.493 42.2849 158.477 42.1914C158.477 42.0823 158.47 41.9887 158.454 41.9108C158.438 41.7705 158.321 41.5445 158.103 41.2327C157.885 40.921 157.519 40.7651 157.004 40.7651C156.396 40.7651 155.991 40.9288 155.788 41.2561C155.601 41.5835 155.492 41.8251 155.461 41.9809C155.43 42.1368 155.414 42.316 155.414 42.5187V50.3512C155.414 50.5071 155.414 50.6396 155.414 50.7487C155.414 50.8578 155.422 50.9513 155.438 51.0293C155.453 51.154 155.57 51.3956 155.789 51.7541C155.991 52.0814 156.389 52.2451 156.981 52.2451C157.589 52.2451 157.979 52.0814 158.15 51.7541C158.244 51.5826 158.314 51.4423 158.36 51.3332C158.407 51.2085 158.438 51.0994 158.454 51.0059C158.485 50.9124 158.501 50.8188 158.501 50.7253C158.501 50.6162 158.501 50.4915 158.501 50.3512V47.6157H156.7V45.6517H160.722V50.3512C160.722 50.6785 160.714 50.9591 160.698 51.1929C160.683 51.4112 160.652 51.606 160.605 51.7774C160.558 51.9489 160.496 52.1126 160.418 52.2684C160.355 52.4087 160.278 52.5568 160.184 52.7127H160.184Z" fill="white"/>
<path d="M36.4754 45.0206V45.692C36.4754 45.9531 36.4568 46.2515 36.4194 46.5872C36.4194 46.8855 36.3635 47.3331 36.2516 47.9299C35.7294 49.7202 34.741 51.1748 33.2864 52.2937C31.8691 53.4127 30.2094 53.9721 28.3072 53.9721C26.8153 53.9721 25.3979 53.5246 24.0552 52.6294C22.7125 51.697 21.8547 50.7831 21.4817 49.888C21.2579 49.4031 21.0714 48.9742 20.9222 48.6012C20.8103 48.2283 20.7171 47.8739 20.6425 47.5383C20.5679 47.2026 20.5119 46.8482 20.4746 46.4752C20.4746 46.065 20.4746 45.5801 20.4746 45.0206V42.8387H25.8455V45.9158C25.9201 46.4007 26.1252 46.9415 26.4609 47.5383C26.8339 48.2096 27.5053 48.5453 28.475 48.5453C29.4448 48.5453 30.1348 48.2096 30.545 47.5383C30.9553 46.8669 31.1604 46.0277 31.1604 45.0206V39.2581C31.1231 38.5495 30.9739 38.0087 30.7129 37.6357C30.4891 37.2627 30.2093 37.0016 29.8737 36.8524C29.538 36.6659 29.1836 36.5727 28.8107 36.5727C28.4377 36.5354 28.102 36.5167 27.8037 36.5167H26.8525V31.7612H27.8037C30.0415 31.7612 31.1604 30.7169 31.1604 28.6282V24.1525C31.1604 23.7049 31.1232 23.3319 31.0486 23.0335C31.0486 22.9216 30.9927 22.7538 30.8808 22.53C30.7689 22.3062 30.601 22.0824 30.3772 21.8586C30.1907 21.6349 29.9483 21.4484 29.6499 21.2992C29.3515 21.15 28.9972 21.0754 28.5869 21.0754C27.6545 21.0754 26.9645 21.3738 26.5169 21.9705C26.0693 22.53 25.8456 23.2573 25.8456 24.1525V26.8939H20.4746V24.1525C20.4746 21.8027 21.2393 19.8259 22.7685 18.2221C24.2604 16.6183 26.1999 15.8164 28.5869 15.8164C29.8924 15.8164 31.1419 16.1521 32.3354 16.8234C33.5662 17.4948 34.4613 18.2781 35.0208 19.1732C35.6176 20.0683 36.0092 20.9076 36.1957 21.6908C36.3822 22.4741 36.4754 23.2946 36.4754 24.1525V28.5163C36.4754 30.9407 35.4125 32.7869 33.2865 34.055C34.48 34.9129 35.3005 35.7707 35.7481 36.6286C36.233 37.4491 36.4754 38.5681 36.4754 39.9854V45.0206Z" fill="white"/>
<path d="M34 122.465H64.743L75.5446 98.5707L80.9454 135.04L93.8242 111.705L101.579 156L126.506 73L138 96.894" stroke="white" stroke-width="3.4" stroke-linecap="round" stroke-linejoin="round"/>
<path fill-rule="evenodd" clip-rule="evenodd" d="M141.696 135.624C141.696 135.624 150.284 126.976 154.615 122.689C155.946 121.371 157 119.352 157 116.935C157 112.671 155.142 107 148.752 107C145.114 107 142.076 110.469 141.746 110.836C141.249 111.389 140.672 111.361 140.254 110.836C139.947 110.45 136.886 107 133.248 107C126.858 107 125 112.671 125 116.935C125 119.352 126.054 121.371 127.385 122.689C131.716 126.976 140.304 135.624 140.304 135.624C140.776 136.121 141.149 136.13 141.696 135.624Z" fill="white"/>
</svg>
