<svg width="187" height="186" viewBox="0 0 187 186" fill="none" xmlns="http://www.w3.org/2000/svg">
<path fill-rule="evenodd" clip-rule="evenodd" d="M1.044 0H185.956C186.534 0 187 0.462361 187 1.03668V184.963C187 185.538 186.534 186 185.956 186H1.044C0.465644 186 0 185.538 0 184.963V1.03668C0 0.462361 0.465644 0 1.044 0Z" fill="#EF402B"/>
<path d="M62.6431 31.1101C62.2846 31.6713 61.8248 32.1077 61.2637 32.4194C60.7026 32.7312 60.0869 32.8871 59.4166 32.8871C58.8243 32.8871 58.2476 32.7468 57.6864 32.4662C57.1409 32.1856 56.7122 31.8427 56.4005 31.4375C56.1043 31.0166 55.9017 30.5958 55.7926 30.1749C55.6991 29.754 55.6523 29.2786 55.6523 28.7487V20.9161C55.6523 20.5265 55.6912 20.1368 55.7692 19.7471C55.8783 19.3574 56.1666 18.8041 56.6343 18.0871C57.1175 17.3233 58.0683 16.9414 59.4867 16.9414C60.1102 16.9414 60.6947 17.0895 61.2402 17.3856C61.7858 17.6818 62.1989 18.0481 62.4795 18.4845C62.7756 18.9054 62.9627 19.3107 63.0406 19.7003C63.1341 20.0744 63.1809 20.4797 63.1809 20.9161V21.5708H60.9597V20.9161C60.9597 20.7914 60.9519 20.6823 60.9363 20.5888C60.9363 20.4797 60.9285 20.3862 60.9129 20.3082C60.8973 20.1679 60.7803 19.9419 60.5621 19.6302C60.3439 19.3184 59.9776 19.1626 59.4632 19.1626C58.8553 19.1626 58.4501 19.3262 58.2475 19.6536C58.0604 19.9809 57.9513 20.2225 57.9201 20.3784C57.889 20.5342 57.8734 20.7135 57.8734 20.9161V28.7487C57.8734 28.9045 57.8734 29.037 57.8734 29.1461C57.8734 29.2553 57.8812 29.3488 57.8968 29.4267C57.9124 29.5514 58.0294 29.793 58.2476 30.1515C58.4502 30.4788 58.8476 30.6425 59.4399 30.6425C60.0478 30.6425 60.4375 30.4788 60.609 30.1515C60.7025 29.9801 60.7727 29.8398 60.8194 29.7307C60.8662 29.606 60.8973 29.4969 60.9129 29.4033C60.9441 29.3098 60.9597 29.2163 60.9597 29.1228C60.9597 29.0136 60.9597 28.889 60.9597 28.7487V26.0131H59.1594V24.0491H63.1809V28.7487C63.1809 29.076 63.173 29.3566 63.1574 29.5904C63.1418 29.8086 63.1107 30.0034 63.0639 30.1749C63.0171 30.3464 62.9548 30.51 62.8768 30.6659C62.8145 30.8062 62.7365 30.9542 62.6431 31.1101H62.6431Z" fill="white"/>
<path d="M72.1166 30.5021V32.7466H65.4062V17.0815H72.1166V19.1391H67.6275V23.7684H71.5554V25.8961H67.6275V30.5021H72.1166Z" fill="white"/>
<path d="M78.6638 32.7465L75.1801 23.2305V32.7465H72.9355V17.0814H75.0632L78.5235 26.574V17.0814H80.768V32.7465H78.6638Z" fill="white"/>
<path d="M85.8781 17.0815C86.8913 17.0815 87.7563 17.44 88.4733 18.157C89.2059 18.8585 89.5722 19.7158 89.5722 20.7289V28.8654C89.5722 30.0189 89.2215 30.9541 88.5201 31.6711C87.8187 32.3881 86.9146 32.7466 85.8079 32.7466H82.3242V17.0815H85.8781ZM87.351 28.8654V20.7289C87.351 20.2925 87.1874 19.9262 86.8601 19.63C86.5483 19.3339 86.1665 19.1858 85.7144 19.1858H84.5454V30.6657H85.6442C86.7821 30.6657 87.351 30.0656 87.351 28.8654Z" fill="white"/>
<path d="M97.8245 30.5021V32.7466H91.1143V17.0815H97.8245V19.1391H93.3354V23.7684H97.2633V25.8961H93.3354V30.5021H97.8245Z" fill="white"/>
<path d="M98.9736 32.7466V17.0815H102.902C103.93 17.0815 104.795 17.44 105.497 18.157C106.214 18.8741 106.572 19.7547 106.572 20.7991V22.2487C106.572 23.6983 105.957 24.805 104.725 25.5687L107.11 32.7466H104.725L102.621 26.0364H101.218V32.7466H98.9736ZM103.954 23.558C104.094 23.3866 104.188 23.1917 104.234 22.9735C104.297 22.7553 104.328 22.5137 104.328 22.2487V20.7991C104.328 20.3159 104.195 19.9262 103.93 19.63C103.665 19.3183 103.291 19.1624 102.808 19.1624H101.218V24.049H102.785C103.252 24.049 103.642 23.8853 103.954 23.558Z" fill="white"/>
<path d="M62.5267 52.1046V54.3492H55.8164V38.6841H62.5267V40.7416H58.0376V45.371H61.9656V47.4986H58.0376V52.1046H62.5267Z" fill="white"/>
<path d="M64.2468 53.1336C63.8883 52.744 63.6468 52.3309 63.5221 51.8945C63.413 51.458 63.3584 50.9436 63.3584 50.3513V42.5656C63.3584 41.4277 63.7169 40.4769 64.4339 39.7131C65.1665 38.9337 66.0862 38.5441 67.1928 38.5441C68.1904 38.5441 69.0711 38.9104 69.8348 39.643C70.583 40.3756 70.9571 41.2484 70.9571 42.2616V50.3513C70.9571 50.8033 70.9338 51.1385 70.887 51.3567C70.8559 51.5749 70.7935 51.7931 70.6999 52.0114L72.1729 53.2506L70.9337 54.7469L69.5309 53.6246C68.8451 54.1858 68.019 54.4663 67.0526 54.4663C66.5382 54.4663 66.0237 54.3417 65.5094 54.0923C65.0106 53.8429 64.5897 53.5233 64.2468 53.1336ZM67.9644 49.7668L68.7126 50.3513V42.5656C68.7126 42.0668 68.5723 41.6459 68.2917 41.303C68.0112 40.9445 67.6215 40.7652 67.1227 40.7652C66.8109 40.7652 66.5382 40.8432 66.3044 40.9991C66.0705 41.1549 65.899 41.342 65.7899 41.5602C65.6964 41.7784 65.6419 41.9499 65.6263 42.0746C65.6107 42.1837 65.6029 42.3474 65.6029 42.5656V50.3513V50.515C65.6029 50.967 65.7276 51.3723 65.977 51.7308C66.242 52.0737 66.6472 52.2529 67.1928 52.2685C67.3486 52.2685 67.5357 52.2218 67.7539 52.1283L66.7251 51.2632L67.9644 49.7668Z" fill="white"/>
<path d="M79.8918 52.7125C79.5489 53.2425 79.1046 53.6711 78.5591 53.9985C78.0291 54.3258 77.4368 54.4895 76.7822 54.4895C76.4548 54.4895 76.1275 54.4427 75.8002 54.3492C75.4884 54.2557 75.1923 54.1388 74.9117 53.9985C74.6311 53.8426 74.3817 53.6711 74.1635 53.4841C73.9453 53.2815 73.7816 53.071 73.6725 52.8528C73.4387 52.4164 73.2828 52.0345 73.2049 51.7071C73.1425 51.3798 73.1113 51.0291 73.1113 50.655V38.6841H75.3559V50.655C75.3559 50.7641 75.3559 50.8655 75.3559 50.959C75.3715 51.0369 75.387 51.1148 75.4026 51.1928C75.4182 51.3175 75.5351 51.5357 75.7533 51.8474C75.956 52.128 76.3066 52.2683 76.8054 52.2683C77.2574 52.2683 77.5926 52.1046 77.8108 51.7773C78.0446 51.4344 78.1615 51.0603 78.1615 50.655V38.6841H80.4061V50.655C80.4061 51.0291 80.3671 51.3876 80.2892 51.7305C80.2113 52.0735 80.0788 52.4008 79.8917 52.7125H79.8918Z" fill="white"/>
<path d="M80.8906 54.3492L84.3978 38.6841H86.3384L89.8455 54.3492H87.4372L86.806 50.9824H83.9068L83.2521 54.3492H80.8906ZM84.3042 48.9015H86.4085L85.3564 43.1966L84.3042 48.9015Z" fill="white"/>
<path d="M97.6986 54.3492H91.0117V38.6841H93.2563V52.1046H97.6986V54.3492Z" fill="white"/>
<path d="M98.3291 54.3492V38.6841H100.55V54.3492H98.3291Z" fill="white"/>
<path d="M104.433 54.3492V40.765H101.791V38.6841H109.343V40.765H106.654V54.3492H104.433Z" fill="white"/>
<path d="M112.628 54.3492V47.6155L109.589 38.6841H111.927L113.751 44.8099L115.598 38.6841H117.959L114.849 47.6155V54.3492H112.628Z" fill="white"/>
<path d="M30.7938 29.5231C31.7262 29.5231 32.6587 29.7842 33.5911 30.3064C34.5609 30.8286 35.2695 31.444 35.7171 32.1526C36.202 32.8613 36.519 33.6072 36.6682 34.3905C36.8547 35.1364 36.9479 35.9383 36.9479 36.7962V45.1882C36.9479 46.0088 36.9107 46.7174 36.8361 47.3142C36.7988 47.8736 36.5936 48.6569 36.2207 49.664C35.8477 50.671 34.9339 51.6407 33.4793 52.5732C32.0993 53.5056 30.5701 53.9718 28.8917 53.9718C27.6236 53.9718 26.4114 53.6735 25.2552 53.0767C24.0989 52.4426 23.2037 51.678 22.5697 50.7829C21.9356 49.8877 21.5067 48.9739 21.2829 48.0415C21.0591 47.109 20.9473 46.158 20.9473 45.1882V44.2371H26.43V46.3071C26.43 46.4936 26.4859 46.7174 26.5978 46.9785C26.7097 47.2396 26.859 47.5007 27.0454 47.7617C27.2319 47.9855 27.493 48.1907 27.8287 48.3772C28.1643 48.5264 28.556 48.601 29.0035 48.601C30.0106 48.601 30.682 48.3212 31.0176 47.7617C31.3533 47.2023 31.5398 46.7733 31.5771 46.475C31.6144 46.1393 31.6331 45.785 31.6331 45.412V37.5235C31.6331 37.337 31.6331 37.1692 31.6331 37.02C31.6331 36.8335 31.6144 36.647 31.5771 36.4605C31.5771 36.274 31.5212 36.0503 31.4093 35.7892C31.3347 35.5281 31.1855 35.2856 30.9617 35.0618C30.7752 34.8008 30.5141 34.5956 30.1785 34.4464C29.8801 34.2599 29.5071 34.1667 29.0595 34.1667C27.7541 34.1667 26.8776 34.8381 26.43 36.1808H21.6186V16.1519H36.948V21.1311H26.43V31.2015C27.6981 30.0826 29.1528 29.5231 30.7939 29.5231H30.7938Z" fill="white"/>
<path fill-rule="evenodd" clip-rule="evenodd" d="M78.5302 103.943V111.36H106.872V103.943H78.5302ZM78.5302 115.447V123.213H106.872V115.447H78.5302ZM112.051 71V79.0641H121.686L111.422 89.2852C106.048 85.0723 99.41 82.7756 92.57 82.7625C84.4623 82.7626 76.6868 85.9694 70.9538 91.6773C65.2209 97.3853 62.0001 105.127 62 113.199C62.0089 120.579 64.7102 127.704 69.6011 133.248C74.4921 138.793 81.2397 142.379 88.5883 143.34V152.271H78.9531V161.239H88.5883V170H97.526V161.239H107.092V152.271H97.526V143.198C104.673 142.029 111.17 138.371 115.861 132.877C120.552 127.384 123.131 120.41 123.14 113.199C123.126 106.934 121.171 100.825 117.541 95.7069L127.693 85.5991V94.429H136V71H112.051ZM92.57 91.0679C98.4651 91.0682 104.119 93.4 108.287 97.5504C112.456 101.701 114.798 107.33 114.798 113.199C114.798 119.069 112.457 124.699 108.288 128.85C104.12 133.001 98.4656 135.333 92.57 135.333C89.6505 135.333 86.7596 134.761 84.0624 133.649C81.3652 132.536 78.9145 130.906 76.8502 128.851C74.7858 126.795 73.1483 124.355 72.0312 121.67C70.9141 118.984 70.3391 116.106 70.3393 113.199C70.3396 107.329 72.682 101.7 76.851 97.5495C81.0201 93.3991 86.6743 91.0676 92.57 91.0679Z" fill="white"/>
</svg>
