<svg width="186" height="186" viewBox="0 0 186 186" fill="none" xmlns="http://www.w3.org/2000/svg">
<path fill-rule="evenodd" clip-rule="evenodd" d="M1.03841 0H184.962C185.537 0 186 0.462399 186 1.03672V184.963C186 185.538 185.537 186 184.962 186H1.03841C0.463142 186 0 185.538 0 184.963V1.03672C0 0.462399 0.463142 0 1.03841 0Z" fill="#02558B"/>
<path d="M59.5596 32.0303V16.3652H63.2303H63.2771C63.7447 16.3652 64.1889 16.4666 64.6098 16.6692C65.0306 16.8562 65.4047 17.1056 65.7321 17.4173C66.0594 17.7291 66.3166 18.0876 66.5037 18.4929C66.7063 18.8826 66.8153 19.2878 66.8309 19.7086V21.9766V22.2104C66.8309 22.7247 66.7296 23.208 66.527 23.66C66.3399 24.0964 66.0828 24.4783 65.7554 24.8056C65.4281 25.133 65.0384 25.3902 64.5864 25.5772C64.1499 25.7643 63.6823 25.8578 63.1836 25.8578H62.9732H61.8041V32.0303H59.5596ZM64.3059 23.2859C64.4462 23.1456 64.5319 22.9976 64.5631 22.8417C64.6098 22.6858 64.6332 22.491 64.6332 22.2572V19.9424C64.6332 19.506 64.5007 19.1475 64.2357 18.8669C63.9707 18.5708 63.6123 18.4227 63.1602 18.4227H61.8042V23.7302H62.9732C63.2849 23.7302 63.5343 23.7067 63.7214 23.66C63.924 23.5976 64.1189 23.4729 64.3059 23.2859Z" fill="white"/>
<path d="M75.1283 29.7856V32.0302H68.418V16.3651H75.1283V18.4226H70.6391V23.052H74.5671V25.1797H70.6391V29.7856H75.1283Z" fill="white"/>
<path d="M75.7695 32.0302L79.2767 16.3651H81.2173L84.7244 32.0302H82.3162L81.6848 28.6634H78.7857L78.131 32.0302H75.7695ZM79.1831 26.5825H81.2874L80.2353 20.8776L79.1831 26.5825Z" fill="white"/>
<path d="M92.8624 28.0791C92.8624 28.5779 92.8312 29.0066 92.7688 29.3651C92.722 29.7236 92.5661 30.1133 92.3012 30.5341C92.1609 30.7523 91.9816 30.9627 91.7634 31.1654C91.5608 31.3524 91.327 31.5238 91.062 31.6797C90.8126 31.82 90.5398 31.9369 90.2437 32.0304C89.9475 32.124 89.6592 32.1707 89.3786 32.1707C88.6772 32.1707 88.0381 32.0226 87.4613 31.7265C86.9002 31.4303 86.4872 31.0562 86.2222 30.6042C85.9572 30.1522 85.7858 29.7313 85.7078 29.3417C85.6455 28.952 85.6143 28.5311 85.6143 28.0791V20.0128C85.6143 19.5763 85.6532 19.1866 85.7311 18.8437C85.8246 18.4852 86.0116 18.1033 86.2922 17.698C86.5728 17.2928 86.9703 16.9499 87.4847 16.6693C87.999 16.3732 88.5368 16.2251 89.098 16.2251C90.1735 16.2251 91.0697 16.5836 91.7867 17.3006C92.5037 18.002 92.8622 18.9061 92.8622 20.0128V20.8545H90.6411V20.0128C90.6411 19.5763 90.5163 19.21 90.2669 18.9139C90.0331 18.6177 89.6825 18.4696 89.2148 18.4696C88.7784 18.4696 88.4355 18.6177 88.1861 18.9139C87.9523 19.21 87.8353 19.5763 87.8353 20.0128V28.687C87.8665 28.9208 87.9756 29.1858 88.1627 29.4819C88.3809 29.7937 88.7395 29.9496 89.2382 29.9496C89.7682 29.9496 90.1189 29.8093 90.2903 29.5287C90.4618 29.2482 90.5631 29.0455 90.5943 28.9208C90.6254 28.7805 90.641 28.5935 90.641 28.3597V27.5648H92.8621L92.8624 28.0791Z" fill="white"/>
<path d="M101.171 29.7858V32.0303H94.4609V16.3652H101.171V18.4227H96.6821V23.0521H100.61V25.1798H96.6821V29.7858H101.171Z" fill="white"/>
<path d="M102.26 33.6903V29.8091H104.504V32.0303L102.26 33.6903Z" fill="white"/>
<path d="M114.744 30.4636C114.401 30.978 113.957 31.3911 113.411 31.7028C112.866 32.0145 112.289 32.1704 111.681 32.1704C111.089 32.1704 110.528 32.0458 109.998 31.7964C109.483 31.5314 109.023 31.1728 108.618 30.7208L110.348 29.318C110.722 29.7077 111.151 29.9025 111.634 29.9025C112.289 29.9025 112.694 29.7311 112.85 29.3882C113.022 29.0297 113.115 28.7802 113.131 28.64C113.146 28.4997 113.154 28.336 113.154 28.1489V16.3651H115.352V27.9385C115.352 28.6711 115.305 29.1855 115.211 29.4817C115.149 29.7622 114.993 30.0896 114.744 30.4636H114.744Z" fill="white"/>
<path d="M124.179 30.3937C123.836 30.9236 123.392 31.3522 122.846 31.6796C122.316 32.0069 121.724 32.1706 121.069 32.1706C120.742 32.1706 120.415 32.1238 120.087 32.0303C119.776 31.9368 119.479 31.8198 119.199 31.6796C118.918 31.5237 118.669 31.3523 118.451 31.1652C118.232 30.9626 118.069 30.7522 117.96 30.534C117.726 30.0975 117.57 29.7156 117.492 29.3883C117.43 29.061 117.398 28.7102 117.398 28.3361V16.3652H119.643V28.3361C119.643 28.4452 119.643 28.5466 119.643 28.6401C119.659 28.718 119.674 28.7959 119.69 28.8739C119.705 28.9986 119.822 29.2168 120.04 29.5286C120.243 29.8092 120.594 29.9494 121.093 29.9494C121.545 29.9494 121.88 29.7857 122.098 29.4584C122.332 29.1155 122.449 28.7414 122.449 28.3361V16.3652H124.693V28.3361C124.693 28.7102 124.654 29.0687 124.576 29.4116C124.498 29.7545 124.366 30.0819 124.179 30.3937Z" fill="white"/>
<path d="M128.403 28.1259C128.403 28.2818 128.403 28.4142 128.403 28.5234C128.403 28.6325 128.411 28.726 128.426 28.8039C128.457 28.9598 128.574 29.1858 128.777 29.4819C128.995 29.7937 129.385 29.9496 129.946 29.9496C130.258 29.9496 130.546 29.8872 130.811 29.7625C131.076 29.6222 131.271 29.443 131.396 29.2248C131.489 29.0533 131.544 28.8896 131.559 28.7337C131.59 28.5779 131.606 28.4376 131.606 28.3129V28.1025V27.0036V26.7932C131.606 26.4502 131.544 26.1853 131.419 25.9982C131.294 25.7956 131.014 25.5696 130.577 25.3202C130.281 25.1643 129.751 24.9461 128.987 24.6655C128.223 24.3849 127.584 23.9408 127.07 23.3329C126.556 22.725 126.298 21.8988 126.298 20.8545V20.153C126.298 19.0775 126.657 18.1579 127.374 17.3942C128.107 16.6148 128.995 16.2251 130.039 16.2251C131.13 16.2251 132.035 16.607 132.752 17.3708C133.484 18.1345 133.85 19.0619 133.85 20.153V20.8545H131.606V20.153C131.606 20.0439 131.598 19.9426 131.583 19.8491C131.583 19.7556 131.575 19.6698 131.559 19.5919C131.543 19.514 131.505 19.4205 131.442 19.3113C131.38 19.2022 131.294 19.0698 131.185 18.9139C130.967 18.6021 130.6 18.4462 130.086 18.4462C129.634 18.4462 129.26 18.6099 128.964 18.9373C128.683 19.2646 128.543 19.6698 128.543 20.153V20.8545V21.0649C128.543 21.3767 128.59 21.626 128.683 21.8131C128.792 21.9845 129.042 22.1794 129.431 22.3976C129.556 22.46 129.743 22.5457 129.993 22.6548C130.258 22.7483 130.577 22.8652 130.951 23.0055C131.699 23.2549 132.37 23.6991 132.962 24.3382C133.554 24.9772 133.85 25.819 133.85 26.8633V28.1259C133.85 28.6714 133.796 29.1312 133.687 29.5053C133.593 29.8794 133.274 30.4249 132.728 31.142C132.183 31.8278 131.271 32.1707 129.993 32.1707C128.637 32.1707 127.655 31.7343 127.047 30.8614C126.439 29.9729 126.135 29.0611 126.135 28.1259V27.5648H128.403L128.403 28.1259Z" fill="white"/>
<path d="M136.731 32.0303V18.4461H134.089V16.3652H141.641V18.4461H138.952V32.0303H136.731Z" fill="white"/>
<path d="M142.86 32.0303V16.3652H145.081V32.0303H142.86Z" fill="white"/>
<path d="M154.178 28.0791C154.178 28.5779 154.147 29.0066 154.084 29.3651C154.037 29.7236 153.882 30.1133 153.617 30.5341C153.476 30.7523 153.297 30.9627 153.079 31.1654C152.876 31.3524 152.642 31.5238 152.377 31.6797C152.128 31.82 151.855 31.9369 151.559 32.0304C151.263 32.124 150.975 32.1707 150.694 32.1707C149.993 32.1707 149.353 32.0226 148.777 31.7265C148.216 31.4303 147.803 31.0562 147.538 30.6042C147.273 30.1522 147.101 29.7313 147.023 29.3417C146.961 28.952 146.93 28.5311 146.93 28.0791V20.0128C146.93 19.5763 146.969 19.1866 147.047 18.8437C147.14 18.4852 147.327 18.1033 147.608 17.698C147.888 17.2928 148.286 16.9499 148.8 16.6693C149.314 16.3732 149.852 16.2251 150.413 16.2251C151.489 16.2251 152.385 16.5836 153.102 17.3006C153.819 18.002 154.178 18.9061 154.178 20.0128V20.8545H151.957V20.0128C151.957 19.5763 151.832 19.21 151.582 18.9139C151.349 18.6177 150.998 18.4696 150.53 18.4696C150.094 18.4696 149.751 18.6177 149.502 18.9139C149.268 19.21 149.151 19.5763 149.151 20.0128V28.687C149.182 28.9208 149.291 29.1858 149.478 29.4819C149.696 29.7937 150.055 29.9496 150.554 29.9496C151.084 29.9496 151.434 29.8093 151.606 29.5287C151.777 29.2482 151.879 29.0455 151.91 28.9208C151.941 28.7805 151.956 28.5935 151.956 28.3597V27.5648H154.178L154.178 28.0791Z" fill="white"/>
<path d="M162.598 29.7858V32.0303H155.888V16.3652H162.598V18.4227H158.109V23.0521H162.037V25.1798H158.109V29.7858H162.598Z" fill="white"/>
<path d="M58.8164 53.6329L62.3235 37.9677H64.2642L67.7712 53.6329H65.363L64.7317 50.266H61.8325L61.1778 53.6329H58.8164ZM62.23 48.1851H64.3343L63.2822 42.4802L62.23 48.1851Z" fill="white"/>
<path d="M74.6413 53.6329L71.1576 44.1169V53.6329H68.9131V37.9678H71.0407L74.501 47.4604V37.9678H76.7456V53.6329H74.6413Z" fill="white"/>
<path d="M81.9572 37.9678C82.9704 37.9678 83.8355 38.3263 84.5525 39.0433C85.2851 39.7448 85.6514 40.602 85.6514 41.6151V49.7517C85.6514 50.9051 85.3006 51.8403 84.5992 52.5574C83.8978 53.2744 82.9938 53.6329 81.8871 53.6329H78.4033V37.9678H81.9572ZM83.4302 49.7517V41.6151C83.4302 41.1787 83.2665 40.8124 82.9392 40.5163C82.6274 40.2201 82.2455 40.072 81.7935 40.072H80.6245V51.552H81.7234C82.8613 51.552 83.4302 50.9519 83.4302 49.7517Z" fill="white"/>
<path d="M91.809 49.7284C91.809 49.8843 91.809 50.0168 91.809 50.1259C91.809 50.235 91.8168 50.3285 91.8324 50.4065C91.8636 50.5623 91.9805 50.7884 92.1832 51.0846C92.4014 51.3963 92.791 51.5521 93.3521 51.5521C93.6639 51.5521 93.9523 51.4898 94.2172 51.3651C94.4822 51.2248 94.6771 51.0455 94.8018 50.8273C94.8953 50.6558 94.9499 50.4922 94.9654 50.3364C94.9966 50.1805 95.0122 50.0402 95.0122 49.9155V49.705V48.6062V48.3957C95.0122 48.0528 94.9498 47.7878 94.8251 47.6008C94.7004 47.3982 94.4198 47.1722 93.9834 46.9228C93.6872 46.7669 93.1573 46.5487 92.3936 46.2681C91.6298 45.9876 90.9907 45.5433 90.4763 44.9354C89.9619 44.3275 89.7048 43.5014 89.7048 42.4571V41.7556C89.7048 40.6801 90.0632 39.7605 90.7803 38.9967C91.5128 38.2173 92.4013 37.8276 93.4456 37.8276C94.5367 37.8276 95.4408 38.2095 96.1578 38.9733C96.8904 39.7371 97.2567 40.6645 97.2567 41.7556V42.4571H95.0122V41.7556C95.0122 41.6465 95.0044 41.5452 94.9888 41.4517C94.9888 41.3582 94.9809 41.2724 94.9653 41.1944C94.9497 41.1165 94.9108 41.023 94.8485 40.9139C94.7861 40.8048 94.7003 40.6723 94.5912 40.5164C94.373 40.2047 94.0067 40.0488 93.4924 40.0488C93.0403 40.0488 92.6662 40.2125 92.3701 40.5398C92.0895 40.8671 91.9492 41.2724 91.9492 41.7556V42.4571V42.6675C91.9492 42.9792 91.996 43.2286 92.0895 43.4157C92.1986 43.5871 92.448 43.782 92.8377 44.0002C92.9624 44.0626 93.1495 44.1483 93.3989 44.2574C93.6638 44.3509 93.9834 44.4678 94.3574 44.608C95.1056 44.8574 95.7759 45.3017 96.3682 45.9408C96.9605 46.5799 97.2566 47.4215 97.2566 48.4659V49.7284C97.2566 50.274 97.2021 50.7338 97.093 51.1079C96.9995 51.482 96.6799 52.0276 96.1343 52.7446C95.5888 53.4304 94.677 53.7733 93.3989 53.7733C92.0428 53.7733 91.0608 53.3369 90.4529 52.464C89.845 51.5755 89.541 50.6637 89.541 49.7284V49.1673H91.8089L91.809 49.7284Z" fill="white"/>
<path d="M100.476 53.6329V40.0486H97.834V37.9677H105.386V40.0486H102.697V53.6329H100.476Z" fill="white"/>
<path d="M106.355 53.6329V37.9677H110.283C111.312 37.9677 112.177 38.3263 112.879 39.0433C113.596 39.7603 113.954 40.641 113.954 41.6853V43.1349C113.954 44.5845 113.339 45.6912 112.107 46.4549L114.492 53.6329H112.107L110.003 46.9226H108.6V53.6329H106.355ZM111.336 44.4443C111.476 44.2728 111.569 44.078 111.616 43.8597C111.679 43.6415 111.71 43.3999 111.71 43.1349V41.6853C111.71 41.2021 111.577 40.8124 111.312 40.5162C111.047 40.2045 110.673 40.0486 110.19 40.0486H108.6V44.9352H110.167C110.634 44.9352 111.024 44.7716 111.336 44.4443H111.336Z" fill="white"/>
<path d="M115.902 39.441C116.26 38.9422 116.712 38.5525 117.258 38.272C117.819 37.9758 118.396 37.8277 118.988 37.8277C119.565 37.8277 120.102 37.9447 120.601 38.1785C121.116 38.4123 121.544 38.7318 121.887 39.1371C122.23 39.5423 122.464 39.9632 122.589 40.3996C122.713 40.8205 122.776 41.2803 122.776 41.7791V49.7519C122.776 50.2195 122.729 50.6326 122.635 50.9911C122.557 51.3496 122.37 51.7471 122.074 52.1835C121.794 52.62 121.381 52.9941 120.835 53.3058C120.305 53.6175 119.713 53.7734 119.058 53.7734C118.684 53.7734 118.325 53.7267 117.983 53.6332C117.64 53.524 117.32 53.3838 117.024 53.2123C116.728 53.0408 116.463 52.846 116.229 52.6278C116.011 52.4096 115.839 52.1835 115.715 51.9497C115.481 51.4665 115.34 51.0769 115.294 50.7807C115.247 50.4845 115.224 50.1416 115.224 49.7519V41.7791C115.224 41.3115 115.27 40.8984 115.364 40.5399C115.473 40.1658 115.652 39.7995 115.902 39.441ZM120.25 40.6802C119.954 40.2438 119.549 40.0256 119.035 40.0256C118.77 40.0256 118.505 40.1035 118.24 40.2593C117.99 40.3996 117.811 40.5633 117.702 40.7504C117.608 40.9374 117.546 41.1245 117.515 41.3115C117.484 41.4986 117.468 41.6544 117.468 41.7791V49.7519C117.468 49.8298 117.468 49.9155 117.468 50.0091C117.468 50.087 117.476 50.1727 117.492 50.2663C117.507 50.4221 117.632 50.6794 117.866 51.0379C118.1 51.3652 118.489 51.5288 119.035 51.5288C119.315 51.5288 119.565 51.4665 119.783 51.3418C120.017 51.2015 120.18 51.0456 120.274 50.8742C120.383 50.6871 120.453 50.5157 120.484 50.3598C120.516 50.204 120.531 50.0013 120.531 49.7519V41.7791C120.531 41.4673 120.516 41.2491 120.484 41.1244C120.469 40.9997 120.391 40.8517 120.251 40.6802H120.25Z" fill="white"/>
<path d="M130.414 53.6329L126.93 44.1169V53.6329H124.686V37.9678H126.813L130.274 47.4604V37.9678H132.518V53.6329H130.414Z" fill="white"/>
<path d="M140.889 51.9964C140.531 52.5575 140.071 52.994 139.51 53.3057C138.949 53.6175 138.333 53.7733 137.663 53.7733C137.07 53.7733 136.494 53.6331 135.933 53.3525C135.387 53.0719 134.958 52.729 134.647 52.3237C134.35 51.9029 134.148 51.482 134.039 51.0612C133.945 50.6403 133.898 50.1649 133.898 49.6349V41.8024C133.898 41.4127 133.937 41.023 134.015 40.6333C134.124 40.2436 134.413 39.6903 134.88 38.9733C135.364 38.2095 136.314 37.8276 137.733 37.8276C138.356 37.8276 138.941 37.9757 139.486 38.2719C140.032 38.568 140.445 38.9343 140.726 39.3708C141.022 39.7916 141.209 40.1969 141.287 40.5866C141.38 40.9607 141.427 41.3659 141.427 41.8024V42.4571H139.206V41.8024C139.206 41.6777 139.198 41.5685 139.182 41.475C139.182 41.3659 139.175 41.2724 139.159 41.1944C139.143 41.0542 139.026 40.8282 138.808 40.5164C138.59 40.2047 138.224 40.0488 137.709 40.0488C137.101 40.0488 136.696 40.2125 136.494 40.5398C136.307 40.8671 136.197 41.1088 136.166 41.2646C136.135 41.4205 136.12 41.5997 136.12 41.8024V49.6349C136.12 49.7908 136.12 49.9233 136.12 50.0324C136.12 50.1415 136.127 50.235 136.143 50.313C136.159 50.4377 136.275 50.6793 136.494 51.0378C136.696 51.3651 137.094 51.5287 137.686 51.5287C138.294 51.5287 138.684 51.3651 138.855 51.0378C138.949 50.8663 139.019 50.726 139.066 50.6169C139.112 50.4922 139.144 50.3831 139.159 50.2896C139.19 50.196 139.206 50.1025 139.206 50.009C139.206 49.8999 139.206 49.7752 139.206 49.6349V46.8994H137.406V44.9354H141.427V49.6349C141.427 49.9623 141.419 50.2428 141.404 50.4766C141.388 50.6949 141.357 50.8897 141.31 51.0612C141.263 51.2326 141.201 51.3963 141.123 51.5521C141.061 51.6924 140.983 51.8405 140.889 51.9964H140.889Z" fill="white"/>
<path d="M59.5596 75.2354V59.5703H61.7808V75.2354H59.5596Z" fill="white"/>
<path d="M69.3855 75.2354L65.9018 65.7194V75.2354H63.6572V59.5703H65.7849L69.2453 69.0629V59.5703H71.4898V75.2354H69.3855Z" fill="white"/>
<path d="M74.6938 71.331C74.6938 71.4868 74.6938 71.6193 74.6938 71.7284C74.6938 71.8375 74.7016 71.9311 74.7172 72.009C74.7483 72.1649 74.8653 72.3909 75.0679 72.687C75.2862 72.9988 75.6758 73.1547 76.2369 73.1547C76.5487 73.1547 76.837 73.0923 77.102 72.9676C77.367 72.8273 77.5618 72.6481 77.6865 72.4299C77.7801 72.2584 77.8346 72.0947 77.8502 71.9388C77.8814 71.7829 77.8969 71.6427 77.8969 71.518V71.3076V70.2086V69.9982C77.8969 69.6553 77.8345 69.3904 77.7099 69.2033C77.5851 69.0007 77.3046 68.7746 76.8681 68.5252C76.572 68.3693 76.0421 68.1512 75.2783 67.8706C74.5146 67.59 73.8754 67.1458 73.3611 66.5379C72.8467 65.93 72.5895 65.1039 72.5895 64.0595V63.3581C72.5895 62.2826 72.948 61.3629 73.665 60.5992C74.3976 59.8198 75.2861 59.4302 76.3304 59.4302C77.4215 59.4302 78.3256 59.8121 79.0426 60.5758C79.7752 61.3396 80.1415 62.267 80.1415 63.3581V64.0595H77.8969V63.3581C77.8969 63.249 77.8891 63.1477 77.8735 63.0542C77.8735 62.9606 77.8657 62.8749 77.8501 62.797C77.8344 62.7191 77.7955 62.6256 77.7332 62.5164C77.6709 62.4073 77.5852 62.2748 77.4761 62.119C77.2579 61.8072 76.8915 61.6513 76.3771 61.6513C75.9251 61.6513 75.551 61.815 75.2548 62.1424C74.9743 62.4697 74.834 62.8749 74.834 63.3581V64.0595V64.27C74.834 64.5817 74.8808 64.8311 74.9743 65.0181C75.0834 65.1896 75.3328 65.3844 75.7225 65.6027C75.8472 65.665 76.0342 65.7508 76.2836 65.8598C76.5486 65.9534 76.8681 66.0703 77.2422 66.2106C77.9904 66.46 78.6607 66.9042 79.253 67.5432C79.8453 68.1823 80.1415 69.024 80.1415 70.0683V71.331C80.1415 71.8765 80.0869 72.3363 79.9778 72.7104C79.8843 73.0845 79.5647 73.63 79.0192 74.347C78.4736 75.0329 77.5618 75.3758 76.2836 75.3758C74.9275 75.3758 73.9456 74.9393 73.3377 74.0665C72.7298 73.178 72.4258 72.2662 72.4258 71.331V70.7698H74.6937L74.6938 71.331Z" fill="white"/>
<path d="M83.2484 75.2354V61.6512H80.6064V59.5704H88.1584V61.6512H85.4697V75.2354H83.2484Z" fill="white"/>
<path d="M89.2637 75.2354V59.5703H91.4849V75.2354H89.2637Z" fill="white"/>
<path d="M95.2729 75.2354V61.6512H92.6309V59.5704H100.183V61.6512H97.494V75.2354H95.2729Z" fill="white"/>
<path d="M108.182 73.5987C107.839 74.1287 107.395 74.5574 106.849 74.8847C106.319 75.212 105.727 75.3757 105.072 75.3757C104.745 75.3757 104.418 75.329 104.09 75.2354C103.778 75.1419 103.482 75.025 103.202 74.8847C102.921 74.7288 102.672 74.5574 102.454 74.3703C102.235 74.1677 102.072 73.9573 101.963 73.739C101.729 73.3026 101.573 72.9208 101.495 72.5934C101.433 72.2661 101.401 71.9154 101.401 71.5413V59.5704H103.646V71.5413C103.646 71.6504 103.646 71.7517 103.646 71.8452C103.662 71.9231 103.677 72.0011 103.693 72.079C103.708 72.2037 103.825 72.422 104.043 72.7337C104.246 73.0143 104.597 73.1546 105.096 73.1546C105.548 73.1546 105.883 72.9909 106.101 72.6635C106.335 72.3206 106.452 71.9465 106.452 71.5413V59.5704H108.696V71.5413C108.696 71.9154 108.657 72.2738 108.579 72.6168C108.501 72.9597 108.369 73.287 108.182 73.5987H108.182Z" fill="white"/>
<path d="M112.322 75.2354V61.6512H109.68V59.5703H117.232V61.6512H114.543V75.2354H112.322Z" fill="white"/>
<path d="M118.338 75.2354V59.5704H120.559V75.2354H118.338Z" fill="white"/>
<path d="M123.174 61.0434C123.533 60.5446 123.985 60.155 124.53 59.8744C125.091 59.5783 125.668 59.4302 126.26 59.4302C126.837 59.4302 127.375 59.547 127.874 59.7808C128.388 60.0147 128.817 60.3342 129.16 60.7394C129.503 61.1447 129.736 61.5656 129.861 62.0021C129.986 62.4229 130.048 62.8827 130.048 63.3815V71.3543C130.048 71.8219 130.001 72.235 129.908 72.5935C129.83 72.952 129.643 73.3495 129.347 73.7859C129.066 74.2223 128.653 74.5964 128.107 74.9082C127.577 75.2199 126.985 75.3758 126.331 75.3758C125.956 75.3758 125.598 75.329 125.255 75.2355C124.912 75.1264 124.593 74.9861 124.296 74.8147C124 74.6432 123.735 74.4484 123.501 74.2301C123.283 74.0119 123.112 73.7859 122.987 73.5521C122.753 73.0689 122.613 72.6792 122.566 72.3831C122.52 72.0869 122.496 71.744 122.496 71.3543V63.3815C122.496 62.9139 122.543 62.5009 122.636 62.1424C122.745 61.7683 122.925 61.4019 123.174 61.0434ZM127.523 62.2826C127.227 61.8462 126.822 61.6279 126.307 61.6279C126.042 61.6279 125.777 61.7059 125.512 61.8618C125.263 62.0021 125.084 62.1657 124.974 62.3527C124.881 62.5398 124.819 62.7268 124.787 62.9139C124.756 63.1009 124.741 63.2568 124.741 63.3815V71.3543C124.741 71.4322 124.741 71.518 124.741 71.6115C124.741 71.6894 124.748 71.7752 124.764 71.8687C124.78 72.0246 124.904 72.2817 125.138 72.6402C125.372 72.9676 125.762 73.1313 126.307 73.1313C126.588 73.1313 126.837 73.0689 127.055 72.9442C127.289 72.8039 127.453 72.648 127.546 72.4766C127.655 72.2895 127.726 72.1181 127.757 71.9622C127.788 71.8063 127.804 71.6037 127.804 71.3543V63.3815C127.804 63.0698 127.788 62.8515 127.757 62.7268C127.741 62.6021 127.663 62.4541 127.523 62.2826H127.523Z" fill="white"/>
<path d="M137.462 75.2354L133.978 65.7195V75.2354H131.733V59.5704H133.861L137.321 69.063V59.5704H139.566V75.2354H137.462Z" fill="white"/>
<path d="M142.882 71.3312C142.882 71.4871 142.882 71.6195 142.882 71.7286C142.882 71.8378 142.89 71.9313 142.906 72.0092C142.937 72.1651 143.054 72.3911 143.256 72.6872C143.475 72.999 143.864 73.1549 144.425 73.1549C144.737 73.1549 145.025 73.0925 145.29 72.9678C145.555 72.8275 145.75 72.6483 145.875 72.4301C145.969 72.2586 146.023 72.0949 146.039 71.939C146.07 71.7832 146.085 71.6429 146.085 71.5182V71.3078V70.2088V69.9985C146.085 69.6555 146.023 69.3906 145.898 69.2035C145.774 69.0009 145.493 68.7748 145.057 68.5254C144.76 68.3696 144.23 68.1514 143.467 67.8708C142.703 67.5902 142.064 67.146 141.55 66.5381C141.035 65.9302 140.778 65.1041 140.778 64.0598V63.3583C140.778 62.2828 141.136 61.3631 141.853 60.5994C142.586 59.82 143.475 59.4304 144.519 59.4304C145.61 59.4304 146.514 59.8123 147.231 60.5761C147.964 61.3398 148.33 62.2672 148.33 63.3583V64.0598H146.085V63.3583C146.085 63.2492 146.078 63.1479 146.062 63.0544C146.062 62.9608 146.054 62.8751 146.039 62.7972C146.023 62.7193 145.984 62.6258 145.922 62.5166C145.859 62.4075 145.774 62.275 145.664 62.1192C145.446 61.8074 145.08 61.6515 144.566 61.6515C144.114 61.6515 143.739 61.8152 143.443 62.1426C143.163 62.4699 143.022 62.8751 143.022 63.3583V64.0598V64.2702C143.022 64.582 143.069 64.8313 143.163 65.0183C143.272 65.1898 143.521 65.3846 143.911 65.6029C144.036 65.6652 144.223 65.751 144.472 65.86C144.737 65.9536 145.057 66.0705 145.431 66.2108C146.179 66.4602 146.849 66.9044 147.441 67.5435C148.034 68.1825 148.33 69.0242 148.33 70.0686V71.3312C148.33 71.8767 148.275 72.3365 148.166 72.7106C148.073 73.0847 147.753 73.6302 147.208 74.3472C146.662 75.0331 145.75 75.376 144.472 75.376C143.116 75.376 142.134 74.9396 141.526 74.0667C140.918 73.1782 140.614 72.2664 140.614 71.3312V70.7701H142.882V71.3312Z" fill="white"/>
<path d="M20.7918 53.8281V21.9384L15.4209 25.9666V20.2601L20.7918 16.3438H26.1068V53.8281H20.7918Z" fill="white"/>
<path d="M45.8753 34.6384C46.1737 35.1605 46.3601 35.7014 46.4347 36.2608C46.5466 36.8203 46.6026 37.5103 46.6026 38.3308V45.492C46.6026 46.3499 46.5094 47.2078 46.3229 48.0656C46.1364 48.8862 45.5769 50.0424 44.6444 51.5343C43.6747 53.0635 41.8471 53.94 39.1617 54.1638C37.4833 54.1638 35.954 53.8094 34.574 53.1008C33.2313 52.3548 32.2802 51.4783 31.7208 50.4713C31.1986 49.427 30.8629 48.5504 30.7137 47.8418C30.6018 47.1331 30.5459 46.3499 30.5459 45.492V39.6176C30.5459 38.7971 30.5645 38.219 30.6019 37.8833C30.6392 37.5103 30.7697 37.0254 30.9935 36.4286L38.4344 16.3438H44.4766L38.4344 32.0649C39.1057 31.8038 39.9077 31.6732 40.8401 31.6732H41.3436C43.395 31.9716 44.9055 32.9599 45.8753 34.6384ZM40.7841 37.4917C40.2246 36.7457 39.4787 36.3727 38.5463 36.3727C37.7257 36.3727 37.0916 36.6711 36.6441 37.2679C36.1965 37.8646 35.9727 38.6479 35.9727 39.6176V45.492C35.9727 46.2753 36.1592 47.0213 36.5322 47.7299C36.9424 48.4013 37.6324 48.7369 38.6022 48.7369H38.9378C39.9076 48.7369 40.5417 48.4013 40.84 47.7299C41.1384 47.0586 41.2877 46.3126 41.2877 45.492V39.6176C41.2877 39.1327 41.2504 38.7411 41.1758 38.4428C41.1385 38.1071 41.0079 37.79 40.7842 37.4917H40.7841Z" fill="white"/>
<path fill-rule="evenodd" clip-rule="evenodd" d="M135.772 84.0005C131.512 83.962 130.867 86.3876 130.778 89.1932C135.038 89.2317 135.683 86.806 135.772 84.0005ZM124.321 84.6626C121.853 88.0931 123.5 90.0031 125.779 91.6792C128.247 88.2487 126.6 86.3387 124.321 84.6626ZM119.354 89.7995C116.902 93.2409 118.558 95.1429 120.845 96.8089C123.297 93.3675 121.641 91.4655 119.354 89.7995ZM129.192 90.4738C129.045 90.4721 128.903 90.5269 128.797 90.6266C125.465 93.65 122.582 96.8436 120.999 100.493C120.627 101.351 120.336 102.238 120.123 103.149C117.906 100.963 117.1 98.6293 114.238 98.6788C107.385 98.7974 103.819 109.328 94.2927 109.394C80.8297 109.488 81.8969 93.3476 56.57 93.2169C71.7405 105.211 56.3545 116.232 78.8255 124.744C69.2896 126.505 69.079 134.561 56.5037 130.57C62.3647 132.817 68.6864 140.13 80.4876 140.553V149.296C67.056 148.901 54.029 148.365 54.029 148.365V153.912C54.029 153.912 85.3729 152.573 101.115 152.573C106.324 152.573 110.655 153.613 112.517 154.14V157.649C112.517 158.936 113.567 159.971 114.869 159.971H128.129C129.431 159.971 130.481 158.936 130.481 157.649V144.695C130.481 143.409 129.431 142.374 128.129 142.374H114.869C113.567 142.374 112.517 143.409 112.517 144.695V148.135C110.655 148.662 106.324 149.704 101.115 149.704C97.5776 149.704 93.2047 149.632 88.6238 149.527V140.182C111.604 137.561 110.822 123.074 110.739 119.765C110.466 108.755 115.653 106.392 119.769 105.771C119.664 108.002 120.05 110.378 121.098 112.925C121.126 112.993 121.167 113.055 121.219 113.108C121.271 113.16 121.334 113.201 121.402 113.23C121.471 113.258 121.544 113.273 121.618 113.274C121.693 113.274 121.766 113.26 121.835 113.232C121.904 113.205 121.967 113.164 122.02 113.112C122.072 113.061 122.115 112.999 122.143 112.931C122.172 112.864 122.187 112.791 122.188 112.718C122.188 112.644 122.174 112.571 122.146 112.503C121.124 110.018 120.768 107.76 120.896 105.649C121.898 105.559 122.822 105.521 123.477 105.455C122.529 105.035 121.756 104.542 121.095 104.022C121.295 102.96 121.605 101.93 122.038 100.932C123.518 97.5193 126.285 94.4262 129.563 91.4512C129.648 91.3763 129.709 91.2774 129.737 91.1677C129.765 91.0579 129.758 90.9424 129.718 90.8365C129.677 90.7306 129.606 90.6393 129.512 90.5745C129.418 90.5097 129.306 90.4746 129.192 90.4738ZM132.418 92.7124C131.059 92.7838 129.887 93.6982 128.762 94.8201C131.855 97.7146 134.001 96.3731 136 94.3786C134.647 93.1123 133.475 92.6569 132.418 92.7124ZM127.913 98.0555C126.719 98.0558 125.54 98.6817 124.368 99.4744C126.851 102.894 129.214 101.976 131.559 100.391C130.317 98.6813 129.107 98.0552 127.913 98.0555ZM113.293 135.991C111.99 135.991 110.941 137.028 110.941 138.314V138.787C110.941 140.074 111.99 141.108 113.293 141.108H129.597C130.899 141.108 131.947 140.074 131.947 138.787V138.314C131.947 137.028 130.899 135.991 129.597 135.991H113.293ZM86.0313 140.417V149.464C85.0412 149.439 84.0791 149.402 83.0802 149.374V140.558C84.1003 140.53 85.0848 140.483 86.0313 140.417ZM49.352 146.718C48.0497 146.718 47 147.753 47 149.039V152.971C47 154.257 48.0497 155.292 49.352 155.292H50.0149C51.3171 155.292 52.3644 154.257 52.3644 152.971V149.039C52.3644 147.753 51.3171 146.718 50.0149 146.718H49.352ZM113.293 160.88C111.99 160.88 110.941 161.917 110.941 163.204V163.676C110.941 164.963 111.99 166 113.293 166H129.597C130.899 166 131.947 164.963 131.947 163.676V163.204C131.947 161.917 130.899 160.88 129.597 160.88H113.293Z" fill="white"/>
</svg>
