<svg width="186" height="186" viewBox="0 0 186 186" fill="none" xmlns="http://www.w3.org/2000/svg">
<path fill-rule="evenodd" clip-rule="evenodd" d="M1.03837 0H184.962C185.537 0 186 0.462399 186 1.03672V184.963C186 185.538 185.537 186 184.962 186H1.03837C0.463116 186 0 185.538 0 184.963V1.03672C0 0.462399 0.463116 0 1.03837 0Z" fill="#3EB049"/>
<path d="M66.5072 32.3823H59.8203V16.7173H62.0649V30.1378H66.5072V32.3823Z" fill="white"/>
<path d="M66.9512 32.3823V16.7173H69.1723V32.3823H66.9512Z" fill="white"/>
<path d="M70.5996 32.3823V16.7173H77.2865V18.8215H72.8208V23.5211H76.7253V25.6253H72.8208V32.3823H70.5996Z" fill="white"/>
<path d="M84.763 30.1378V32.3823H78.0527V16.7173H84.763V18.7748H80.2739V23.4042H84.2019V25.5318H80.2739V30.1378H84.763Z" fill="white"/>
<path d="M60.3109 39.7927C60.6694 39.2939 61.1214 38.9042 61.6669 38.6236C62.2281 38.3274 62.8048 38.1794 63.3971 38.1794C63.9738 38.1794 64.5116 38.2963 65.0104 38.5301C65.5248 38.7639 65.9534 39.0834 66.2963 39.4887C66.6392 39.894 66.873 40.3148 66.9977 40.7513C67.1224 41.1721 67.1848 41.6319 67.1848 42.1307V50.1036C67.1848 50.5712 67.138 50.9842 67.0445 51.3427C66.9666 51.7012 66.7795 52.0987 66.4834 52.5352C66.2028 52.9716 65.7897 53.3457 65.2442 53.6574C64.7142 53.9692 64.1219 54.1251 63.4673 54.1251C63.0932 54.1251 62.7347 54.0783 62.3917 53.9848C62.0488 53.8757 61.7293 53.7354 61.4331 53.5639C61.137 53.3925 60.872 53.1976 60.6382 52.9794C60.42 52.7612 60.2485 52.5351 60.1238 52.3013C59.89 51.8181 59.7497 51.4285 59.703 51.1323C59.6562 50.8362 59.6328 50.4932 59.6328 50.1036V42.1307C59.6328 41.6631 59.6796 41.25 59.7731 40.8915C59.8822 40.5174 60.0615 40.1512 60.3109 39.7927ZM64.6597 41.0318C64.3635 40.5954 63.9582 40.3772 63.4439 40.3772C63.1789 40.3772 62.9139 40.4551 62.649 40.611C62.3996 40.7513 62.2203 40.915 62.1112 41.102C62.0176 41.289 61.9553 41.4761 61.9241 41.6631C61.893 41.8502 61.8774 42.006 61.8774 42.1307V50.1036C61.8774 50.1815 61.8774 50.2672 61.8774 50.3607C61.8774 50.4386 61.8852 50.5243 61.9008 50.6179C61.9164 50.7738 62.0411 51.031 62.2749 51.3895C62.5087 51.7168 62.8984 51.8805 63.4439 51.8805C63.7245 51.8805 63.9739 51.8182 64.1921 51.6935C64.426 51.5532 64.5896 51.3973 64.6831 51.2258C64.7922 51.0388 64.8624 50.8673 64.8936 50.7115C64.9247 50.5556 64.9403 50.3529 64.9403 50.1036V42.1307C64.9403 41.8189 64.9247 41.6008 64.8936 41.4761C64.878 41.3514 64.8 41.2033 64.6597 41.0318H64.6597Z" fill="white"/>
<path d="M74.3064 53.9851L70.8227 44.4691V53.9851H68.5781V38.3199H70.7057L74.1661 47.8125V38.3199H76.4107V53.9851H74.3064Z" fill="white"/>
<path d="M89.5277 53.985H82.8408V38.3198H85.0854V51.7403H89.5277V53.985Z" fill="white"/>
<path d="M89.6484 53.9851L93.1556 38.3199H95.0961L98.6033 53.9851H96.1951L95.5638 50.6182H92.6646L92.0099 53.9851H89.6484ZM93.062 48.5373H95.1663L94.1142 42.8324L93.062 48.5373Z" fill="white"/>
<path d="M105 53.985L101.516 44.469V53.985H99.2715V38.3198H101.399L104.859 47.8124V38.3198H107.104V53.985H105Z" fill="white"/>
<path d="M112.151 38.3199C113.164 38.3199 114.029 38.6785 114.746 39.3955C115.478 40.0969 115.845 40.9541 115.845 41.9673V50.1038C115.845 51.2573 115.494 52.1925 114.793 52.9095C114.091 53.6265 113.187 53.9851 112.08 53.9851H108.597V38.3199H112.151ZM113.624 50.1038V41.9673C113.624 41.5309 113.46 41.1646 113.133 40.8684C112.821 40.5723 112.439 40.4242 111.987 40.4242H110.818V51.9041H111.917C113.055 51.9041 113.624 51.304 113.624 50.1038Z" fill="white"/>
<path d="M18.783 54.1806V22.291L13.4121 26.3191V20.6126L18.783 16.6963H24.0979V54.1806H18.783Z" fill="white"/>
<path d="M37.9716 30.0676C38.904 30.0676 39.8364 30.3287 40.7689 30.8509C41.7386 31.373 42.4473 31.9885 42.8949 32.6971C43.3798 33.4058 43.6968 34.1517 43.846 34.9349C44.0325 35.6809 44.1257 36.4829 44.1257 37.3407V45.7326C44.1257 46.5532 44.0884 47.2619 44.0138 47.8587C43.9765 48.4182 43.7714 49.2014 43.3985 50.2084C43.0255 51.2155 42.1117 52.1852 40.657 53.1176C39.277 54.0501 37.7478 54.5163 36.0694 54.5163C34.8013 54.5163 33.5891 54.2179 32.4329 53.6212C31.2767 52.9871 30.3815 52.2225 29.7474 51.3273C29.1134 50.4322 28.6844 49.5184 28.4606 48.5859C28.2369 47.6535 28.125 46.7024 28.125 45.7326V44.7815H33.6078V46.8516C33.6078 47.0381 33.6637 47.2619 33.7756 47.523C33.8875 47.7841 34.0367 48.0451 34.2232 48.3062C34.4097 48.53 34.6708 48.7351 35.0064 48.9216C35.3421 49.0708 35.7337 49.1454 36.1813 49.1454C37.1883 49.1454 37.8597 48.8657 38.1954 48.3062C38.5311 47.7468 38.7175 47.3178 38.7548 47.0194C38.7922 46.6838 38.8108 46.3295 38.8108 45.9565V38.068C38.8108 37.8815 38.8108 37.7137 38.8108 37.5645C38.8108 37.378 38.7922 37.1915 38.7548 37.005C38.7548 36.8185 38.6989 36.5947 38.587 36.3336C38.5125 36.0726 38.3633 35.8301 38.1395 35.6063C37.953 35.3452 37.6919 35.1401 37.3562 34.9909C37.0578 34.8044 36.6848 34.7112 36.2373 34.7112C34.9318 34.7112 34.0553 35.3826 33.6078 36.7253H28.7963V16.6963H44.1258V21.6756H33.6078V31.746C34.8759 30.6271 36.3305 30.0676 37.9716 30.0676H37.9716Z" fill="white"/>
<path d="M61.8777 87.1393C47.7154 88.1048 49.1903 101.635 56.0818 105.487C50.2583 114.478 56.0381 123 63.0086 123H85.7683C98.2962 123 107.099 102.091 87.5354 93.4636C94.6735 69.1447 61.6733 70.7897 61.8777 87.1393Z" fill="white"/>
<path d="M107.308 112.511C113.483 109.655 121.013 116 121.013 116C121.013 116 127.468 110.009 134.523 112.608C136.337 113.276 136.198 111.394 135.592 110.96C131.991 108.381 127.482 105.896 121.207 110.863C113.626 106.026 109.427 108.22 106.434 110.863C105.649 111.556 105.923 113.152 107.308 112.511Z" fill="white"/>
<path d="M98.1434 90.8889C103.076 87.7516 109.814 93 109.814 93C109.814 93 114.75 86.9458 120.817 88.7733C122.377 89.2433 122.123 87.5174 121.586 87.1655C118.398 85.0758 114.459 83.1467 109.598 88.2416C102.928 84.3897 99.5922 86.7558 97.2937 89.4387C96.6908 90.1424 97.0366 91.5928 98.1434 90.8889Z" fill="white"/>
<path d="M115.769 77.1701C120.437 76.462 124.191 82.3276 124.191 82.3276C124.191 82.3276 129.664 79.5297 133.841 82.7341C134.915 83.5582 135.194 82.2418 134.877 81.8219C132.992 79.3285 130.484 76.7159 125.333 78.8497C121.248 74.0061 118.023 74.6602 115.512 75.8653C114.854 76.1814 114.722 77.329 115.769 77.1701Z" fill="white"/>
<path fill-rule="evenodd" clip-rule="evenodd" d="M73.9232 127H78.0768C78.5883 127 79 127.446 79 128.001V139.999C79 140.554 78.5883 141 78.0768 141H73.9232C73.4117 141 73 140.554 73 139.999V128.001C73 127.446 73.4117 127 73.9232 127Z" fill="white"/>
<path fill-rule="evenodd" clip-rule="evenodd" d="M49.0259 147H136.974C137.542 147 138 147.498 138 148.117V152.883C138 153.502 137.542 154 136.974 154H49.0259C48.4576 154 48 153.502 48 152.883V148.117C48 147.498 48.4576 147 49.0259 147Z" fill="white"/>
<path fill-rule="evenodd" clip-rule="evenodd" d="M49.0259 157H136.974C137.542 157 138 157.498 138 158.117V162.883C138 163.502 137.542 164 136.974 164H49.0259C48.4576 164 48 163.502 48 162.883V158.117C48 157.498 48.4576 157 49.0259 157Z" fill="white"/>
</svg>
