<svg width="186" height="186" viewBox="0 0 186 186" fill="none" xmlns="http://www.w3.org/2000/svg">
<path fill-rule="evenodd" clip-rule="evenodd" d="M1.03837 0H184.962C185.537 0 186 0.462348 186 1.03668V184.963C186 185.538 185.537 186 184.962 186H1.03837C0.463116 186 0 185.538 0 184.963V1.03668C0 0.462348 0.463116 0 1.03837 0Z" fill="#F36D25"/>
<path d="M44.448 31.4984V15.8334H46.6691V31.4984H44.448Z" fill="white"/>
<path d="M53.282 31.4986L49.7983 21.9826V31.4986H47.5537V15.8335H49.6814L53.1417 25.326V15.8335H55.3862V31.4986H53.282Z" fill="white"/>
<path d="M60.0444 15.8334C61.0575 15.8334 61.9226 16.1918 62.6396 16.9088C63.3722 17.6103 63.7385 18.4676 63.7385 19.4807V27.6172C63.7385 28.7707 63.3878 29.7059 62.6864 30.4229C61.9849 31.1399 61.0809 31.4984 59.9742 31.4984H56.4905V15.8334H60.0444ZM61.5173 27.6172V19.4807C61.5173 19.0443 61.3537 18.678 61.0263 18.3818C60.7146 18.0857 60.3327 17.9376 59.8807 17.9376H58.7116V29.4175H59.8105C60.9484 29.4175 61.5173 28.8174 61.5173 27.6172Z" fill="white"/>
<path d="M71.8058 29.8618C71.4629 30.3917 71.0187 30.8204 70.4731 31.1477C69.9432 31.475 69.3509 31.6387 68.6962 31.6387C68.3689 31.6387 68.0415 31.5919 67.7142 31.4984C67.4025 31.4049 67.1063 31.288 66.8258 31.1477C66.5452 30.9918 66.2958 30.8204 66.0776 30.6333C65.8593 30.4307 65.6957 30.2203 65.5866 30.0021C65.3528 29.5656 65.1969 29.1837 65.119 28.8564C65.0566 28.5291 65.0254 28.1784 65.0254 27.8043V15.8334H67.27V27.8043C67.27 27.9134 67.27 28.0147 67.27 28.1082C67.2856 28.1861 67.3011 28.2641 67.3167 28.342C67.3323 28.4667 67.4492 28.6849 67.6674 28.9967C67.87 29.2772 68.2207 29.4175 68.7195 29.4175C69.1715 29.4175 69.5067 29.2539 69.7249 28.9265C69.9587 28.5836 70.0756 28.2095 70.0756 27.8043V15.8334H72.3201V27.8043C72.3201 28.1784 72.2812 28.5369 72.2033 28.8798C72.1254 29.2227 71.9929 29.55 71.8058 29.8618H71.8058Z" fill="white"/>
<path d="M75.4555 27.5941C75.4555 27.75 75.4555 27.8825 75.4555 27.9916C75.4555 28.1007 75.4633 28.1943 75.4789 28.2722C75.51 28.4281 75.627 28.654 75.8296 28.9502C76.0478 29.2619 76.4375 29.4178 76.9986 29.4178C77.3104 29.4178 77.5987 29.3555 77.8637 29.2308C78.1287 29.0905 78.3236 28.9113 78.4483 28.693C78.5418 28.5216 78.5963 28.3579 78.6119 28.202C78.643 28.0462 78.6586 27.9059 78.6586 27.7812V27.5707V26.4718V26.2614C78.6586 25.9185 78.5963 25.6535 78.4716 25.4665C78.3469 25.2638 78.0663 25.0378 77.6299 24.7884C77.3337 24.6326 76.8037 24.4143 76.04 24.1338C75.2762 23.8532 74.6371 23.409 74.1227 22.8011C73.6084 22.1932 73.3512 21.3671 73.3512 20.3227V19.6213C73.3512 18.5458 73.7097 17.6262 74.4267 16.8624C75.1593 16.083 76.0477 15.6934 77.0921 15.6934C78.1832 15.6934 79.0873 16.0752 79.8043 16.839C80.5369 17.6028 80.9032 18.5302 80.9032 19.6213V20.3227H78.6586V19.6213C78.6586 19.5122 78.6508 19.4109 78.6352 19.3173C78.6352 19.2238 78.6274 19.1381 78.6118 19.0602C78.5962 18.9823 78.5572 18.8887 78.4949 18.7796C78.4325 18.6705 78.3468 18.538 78.2377 18.3821C78.0195 18.0704 77.6532 17.9145 77.1388 17.9145C76.6868 17.9145 76.3127 18.0782 76.0166 18.4055C75.736 18.7328 75.5957 19.1381 75.5957 19.6213V20.3227V20.5331C75.5957 20.8449 75.6425 21.0943 75.736 21.2813C75.8451 21.4528 76.0945 21.6476 76.4842 21.8658C76.6089 21.9282 76.7959 22.014 77.0453 22.1231C77.3103 22.2166 77.6298 22.3335 78.0039 22.4738C78.7521 22.7232 79.4223 23.1674 80.0147 23.8065C80.607 24.4455 80.9031 25.2872 80.9031 26.3316V27.5941C80.9031 28.1397 80.8486 28.5995 80.7395 28.9736C80.6459 29.3477 80.3264 29.8932 79.7809 30.6103C79.2353 31.2961 78.3234 31.639 77.0453 31.639C75.6892 31.639 74.7072 31.2026 74.0993 30.3297C73.4914 29.4412 73.1875 28.5293 73.1875 27.5941V27.033H75.4554L75.4555 27.5941Z" fill="white"/>
<path d="M83.2387 31.4984V17.9142H80.5967V15.8334H88.1486V17.9142H85.4599V31.4984H83.2387Z" fill="white"/>
<path d="M88.6101 31.4984V15.8334H92.5381C93.5668 15.8334 94.4319 16.1918 95.1333 16.9088C95.8504 17.6259 96.2089 18.5065 96.2089 19.5509V21.0005C96.2089 22.4501 95.5932 23.5568 94.3618 24.3206L96.7466 31.4984H94.3618L92.2575 24.7882H90.8546V31.4984H88.6101ZM93.5902 22.3098C93.7305 22.1383 93.824 21.9435 93.8708 21.7253C93.9332 21.507 93.9643 21.2654 93.9643 21.0005V19.5509C93.9643 19.0677 93.8318 18.678 93.5669 18.3818C93.3019 18.0701 92.9278 17.9142 92.4446 17.9142H90.8547V22.8008H92.4212C92.8888 22.8008 93.2785 22.6371 93.5903 22.3098H93.5902Z" fill="white"/>
<path d="M98.9204 31.4986V24.7649L95.8809 15.8335H98.2189L100.043 21.9592L101.89 15.8335H104.251L101.141 24.7649V31.4986H98.9204Z" fill="white"/>
<path d="M102.887 33.1586V29.2774H105.131V31.4986L102.887 33.1586Z" fill="white"/>
<path d="M108.537 31.4986V15.8335H110.758V31.4986H108.537Z" fill="white"/>
<path d="M117.637 31.4984L114.153 21.9825V31.4984H111.908V15.8334H114.036L117.496 25.3259V15.8334H119.741V31.4984H117.637Z" fill="white"/>
<path d="M126.094 31.4984L122.611 21.9825V31.4984H120.366V15.8334H122.494L125.954 25.3259V15.8334H128.198V31.4984H126.094Z" fill="white"/>
<path d="M129.566 17.3066C129.924 16.8078 130.376 16.4181 130.922 16.1376C131.483 15.8414 132.06 15.6934 132.652 15.6934C133.229 15.6934 133.766 15.8103 134.265 16.0441C134.78 16.2779 135.208 16.5974 135.551 17.0027C135.894 17.4079 136.128 17.8288 136.253 18.2652C136.377 18.6861 136.44 19.1459 136.44 19.6447V27.6175C136.44 28.0851 136.393 28.4982 136.299 28.8567C136.221 29.2152 136.034 29.6126 135.738 30.0491C135.458 30.4855 135.045 30.8597 134.499 31.1714C133.969 31.4831 133.377 31.639 132.722 31.639C132.348 31.639 131.99 31.5922 131.647 31.4987C131.304 31.3896 130.984 31.2493 130.688 31.0779C130.392 30.9064 130.127 30.7115 129.893 30.4933C129.675 30.2751 129.503 30.0491 129.379 29.8153C129.145 29.3321 129.005 28.9424 128.958 28.6462C128.911 28.3501 128.888 28.0072 128.888 27.6175V19.6447C128.888 19.1771 128.934 18.764 129.028 18.4055C129.137 18.0314 129.316 17.6651 129.566 17.3066ZM133.915 18.5458C133.618 18.1093 133.213 17.8911 132.699 17.8911C132.434 17.8911 132.169 17.9691 131.904 18.1249C131.654 18.2652 131.475 18.4289 131.366 18.6159C131.273 18.803 131.21 18.99 131.179 19.1771C131.148 19.3641 131.132 19.52 131.132 19.6447V27.6175C131.132 27.6954 131.132 27.7811 131.132 27.8747C131.132 27.9526 131.14 28.0384 131.156 28.1319C131.171 28.2878 131.296 28.545 131.53 28.9035C131.764 29.2308 132.153 29.3945 132.699 29.3945C132.979 29.3945 133.229 29.3321 133.447 29.2074C133.681 29.0671 133.845 28.9112 133.938 28.7398C134.047 28.5527 134.117 28.3813 134.148 28.2254C134.18 28.0695 134.195 27.8669 134.195 27.6175V19.6447C134.195 19.333 134.18 19.1147 134.148 18.99C134.133 18.8653 134.055 18.7172 133.915 18.5458H133.915Z" fill="white"/>
<path d="M139.905 31.4986L136.702 15.8335H139.04L140.864 26.7055L142.711 15.8335H145.096L141.823 31.4986H139.905Z" fill="white"/>
<path d="M144.128 31.4986L147.635 15.8335H149.576L153.083 31.4986H150.675L150.043 28.1318H147.144L146.489 31.4986H144.128ZM147.542 26.0509H149.646L148.594 20.346L147.542 26.0509Z" fill="white"/>
<path d="M154.587 31.4986V17.9144H151.945V15.8335H159.497V17.9144H156.809V31.4986H154.587Z" fill="white"/>
<path d="M159.916 31.4986V15.8335H162.137V31.4986H159.916Z" fill="white"/>
<path d="M163.803 17.3066C164.162 16.8078 164.614 16.4181 165.159 16.1376C165.72 15.8414 166.297 15.6934 166.889 15.6934C167.466 15.6934 168.004 15.8103 168.503 16.0441C169.017 16.2779 169.446 16.5974 169.789 17.0027C170.131 17.4079 170.365 17.8288 170.49 18.2652C170.615 18.6861 170.677 19.1459 170.677 19.6447V27.6175C170.677 28.0851 170.63 28.4982 170.537 28.8567C170.459 29.2152 170.272 29.6126 169.976 30.0491C169.695 30.4855 169.282 30.8597 168.736 31.1714C168.206 31.4831 167.614 31.639 166.959 31.639C166.585 31.639 166.227 31.5922 165.884 31.4987C165.541 31.3896 165.221 31.2493 164.925 31.0779C164.629 30.9064 164.364 30.7115 164.13 30.4933C163.912 30.2751 163.741 30.0491 163.616 29.8153C163.382 29.3321 163.242 28.9424 163.195 28.6462C163.148 28.3501 163.125 28.0072 163.125 27.6175V19.6447C163.125 19.1771 163.172 18.764 163.265 18.4055C163.374 18.0314 163.554 17.6651 163.803 17.3066ZM168.152 18.5458C167.856 18.1093 167.45 17.8911 166.936 17.8911C166.671 17.8911 166.406 17.9691 166.141 18.1249C165.892 18.2652 165.712 18.4289 165.603 18.6159C165.51 18.803 165.447 18.99 165.416 19.1771C165.385 19.3641 165.37 19.52 165.37 19.6447V27.6175C165.37 27.6954 165.37 27.7811 165.37 27.8747C165.37 27.9526 165.377 28.0384 165.393 28.1319C165.409 28.2878 165.533 28.545 165.767 28.9035C166.001 29.2308 166.391 29.3945 166.936 29.3945C167.217 29.3945 167.466 29.3321 167.684 29.2074C167.918 29.0671 168.082 28.9112 168.175 28.7398C168.284 28.5527 168.355 28.3813 168.386 28.2254C168.417 28.0695 168.432 27.8669 168.432 27.6175V19.6447C168.432 19.333 168.417 19.1147 168.386 18.99C168.37 18.8653 168.292 18.7172 168.152 18.5458H168.152Z" fill="white"/>
<path d="M177.743 31.4986L174.259 21.9826V31.4986H172.015V15.8335H174.142L177.603 25.326V15.8335H179.847V31.4986H177.743Z" fill="white"/>
<path d="M43.709 53.1011L47.2161 37.436H49.1567L52.6638 53.1011H50.2556L49.6243 49.7343H46.7251L46.0705 53.1011H43.709ZM47.1226 47.6534H49.2268L48.1747 41.9485L47.1226 47.6534Z" fill="white"/>
<path d="M58.5503 53.1011L55.0666 43.5852V53.1011H52.822V37.436H54.9497L58.41 46.9286V37.436H60.6546V53.1011H58.5503Z" fill="white"/>
<path d="M65.3644 37.436C66.3776 37.436 67.2427 37.7945 67.9597 38.5115C68.6923 39.2129 69.0586 40.0703 69.0586 41.0834V49.2199C69.0586 50.3734 68.7078 51.3086 68.0064 52.0256C67.305 52.7426 66.401 53.1011 65.2943 53.1011H61.8105V37.436H65.3644ZM66.8374 49.2199V41.0834C66.8374 40.647 66.6737 40.2807 66.3464 39.9845C66.0347 39.6883 65.6528 39.5403 65.2007 39.5403H64.0317V51.0202H65.1306C66.2685 51.0202 66.8374 50.4201 66.8374 49.2199Z" fill="white"/>
<path d="M72.2849 53.1011V37.436H74.5061V53.1011H72.2849Z" fill="white"/>
<path d="M81.3103 53.1011L77.8266 43.5852V53.1011H75.582V37.436H77.7097L81.17 46.9286V37.436H83.4146V53.1011H81.3103Z" fill="white"/>
<path d="M84.1143 53.1011V37.436H90.8011V39.5403H86.3354V44.2398H90.24V46.3441H86.3354V53.1011H84.1143Z" fill="white"/>
<path d="M91.1328 53.1011V37.436H95.0608C96.0895 37.436 96.9546 37.7945 97.656 38.5116C98.373 39.2286 98.7315 40.1093 98.7315 41.1536V42.6032C98.7315 44.0528 98.1158 45.1595 96.8844 45.9232L99.2693 53.1011H96.8844L94.7802 46.3909H93.3774V53.1011H91.1328ZM96.1129 43.9125C96.2532 43.7411 96.3467 43.5462 96.3935 43.328C96.4558 43.1098 96.487 42.8682 96.487 42.6032V41.1536C96.487 40.6704 96.3545 40.2807 96.0896 39.9845C95.8246 39.6728 95.4505 39.5169 94.9673 39.5169H93.3774V44.4035H94.9439C95.4115 44.4035 95.8012 44.2398 96.1129 43.9125H96.1129Z" fill="white"/>
<path d="M98.9648 53.1011L102.472 37.436H104.413L107.92 53.1011H105.511L104.88 49.7343H101.981L101.326 53.1011H98.9648ZM102.378 47.6534H104.483L103.431 41.9485L102.378 47.6534Z" fill="white"/>
<path d="M109.736 49.1968C109.736 49.3527 109.736 49.4852 109.736 49.5943C109.736 49.7034 109.744 49.7969 109.759 49.8749C109.79 50.0307 109.907 50.2567 110.11 50.5529C110.328 50.8646 110.718 51.0205 111.279 51.0205C111.591 51.0205 111.879 50.9581 112.144 50.8334C112.409 50.6932 112.604 50.5139 112.729 50.2957C112.822 50.1242 112.877 49.9606 112.892 49.8047C112.923 49.6488 112.939 49.5086 112.939 49.3839V49.1734V48.0745V47.8641C112.939 47.5212 112.877 47.2562 112.752 47.0691C112.627 46.8665 112.347 46.6405 111.91 46.3911C111.614 46.2352 111.084 46.017 110.32 45.7364C109.556 45.4559 108.917 45.0116 108.403 44.4037C107.889 43.7959 107.631 42.9697 107.631 41.9254V41.224C107.631 40.1485 107.99 39.2288 108.707 38.465C109.44 37.6857 110.328 37.296 111.372 37.296C112.463 37.296 113.368 37.6779 114.085 38.4417C114.817 39.2054 115.183 40.1329 115.183 41.224V41.9254H112.939V41.224C112.939 41.1149 112.931 41.0135 112.915 40.92C112.915 40.8265 112.908 40.7408 112.892 40.6628C112.876 40.5849 112.837 40.4914 112.775 40.3823C112.713 40.2732 112.627 40.1406 112.518 39.9848C112.3 39.673 111.933 39.5172 111.419 39.5172C110.967 39.5172 110.593 39.6808 110.297 40.0082C110.016 40.3355 109.876 40.7408 109.876 41.224V41.9254V42.1358C109.876 42.4476 109.923 42.697 110.016 42.884C110.125 43.0555 110.375 43.2503 110.764 43.4685C110.889 43.5309 111.076 43.6166 111.326 43.7257C111.591 43.8192 111.91 43.9361 112.284 44.0764C113.032 44.3258 113.703 44.77 114.295 45.4091C114.887 46.0482 115.183 46.8899 115.183 47.9342V49.1968C115.183 49.7423 115.129 50.2022 115.02 50.5763C114.926 50.9504 114.607 51.4959 114.061 52.2129C113.516 52.8988 112.604 53.2417 111.326 53.2417C109.969 53.2417 108.988 52.8052 108.38 51.9324C107.772 51.0439 107.468 50.132 107.468 49.1968V48.6357H109.736L109.736 49.1968Z" fill="white"/>
<path d="M117.451 53.1011V39.5169H114.809V37.436H122.361V39.5169H119.672V53.1011H117.451Z" fill="white"/>
<path d="M122.758 53.1011V37.436H126.686C127.715 37.436 128.58 37.7945 129.281 38.5115C129.998 39.2285 130.357 40.1092 130.357 41.1536V42.6032C130.357 44.0528 129.741 45.1594 128.509 45.9232L130.894 53.1011H128.509L126.405 46.3908H125.002V53.1011H122.758ZM127.738 43.9125C127.878 43.741 127.972 43.5462 128.018 43.328C128.081 43.1097 128.112 42.8682 128.112 42.6032V41.1536C128.112 40.6704 127.98 40.2807 127.715 39.9845C127.45 39.6728 127.076 39.5169 126.592 39.5169H125.002V44.4035H126.569C127.037 44.4035 127.426 44.2398 127.738 43.9125H127.738Z" fill="white"/>
<path d="M137.653 51.4645C137.31 51.9944 136.866 52.4231 136.32 52.7504C135.79 53.0777 135.198 53.2414 134.543 53.2414C134.216 53.2414 133.888 53.1946 133.561 53.1011C133.249 53.0076 132.953 52.8907 132.673 52.7504C132.392 52.5945 132.143 52.4231 131.924 52.236C131.706 52.0334 131.543 51.823 131.433 51.6047C131.2 51.1683 131.044 50.7864 130.966 50.4591C130.904 50.1317 130.872 49.781 130.872 49.4069V37.436H133.117V49.4069C133.117 49.516 133.117 49.6174 133.117 49.7109C133.132 49.7888 133.148 49.8668 133.164 49.9447C133.179 50.0694 133.296 50.2876 133.514 50.5994C133.717 50.8799 134.068 51.0202 134.566 51.0202C135.018 51.0202 135.354 50.8565 135.572 50.5292C135.806 50.1863 135.922 49.8122 135.922 49.4069V37.436H138.167V49.4069C138.167 49.781 138.128 50.1396 138.05 50.4825C137.972 50.8254 137.84 51.1527 137.653 51.4645H137.653Z" fill="white"/>
<path d="M146.677 49.15C146.677 49.6488 146.646 50.0775 146.583 50.436C146.536 50.7945 146.381 51.1842 146.116 51.605C145.975 51.8232 145.796 52.0337 145.578 52.2363C145.375 52.4233 145.141 52.5948 144.876 52.7507C144.627 52.891 144.354 53.0079 144.058 53.1014C143.762 53.1949 143.474 53.2417 143.193 53.2417C142.492 53.2417 141.853 53.0936 141.276 52.7974C140.715 52.5013 140.302 52.1272 140.037 51.6751C139.772 51.2231 139.6 50.8023 139.522 50.4126C139.46 50.0229 139.429 49.6021 139.429 49.15V41.0837C139.429 40.6473 139.468 40.2576 139.546 39.9146C139.639 39.5561 139.826 39.1743 140.107 38.769C140.387 38.3637 140.785 38.0208 141.299 37.7402C141.814 37.4441 142.351 37.296 142.912 37.296C143.988 37.296 144.884 37.6545 145.601 38.3715C146.318 39.0729 146.677 39.977 146.677 41.0837V41.9254H144.456V41.0837C144.456 40.6473 144.331 40.2809 144.081 39.9848C143.848 39.6886 143.497 39.5406 143.029 39.5406C142.593 39.5406 142.25 39.6886 142.001 39.9848C141.767 40.2809 141.65 40.6473 141.65 41.0837V49.7579C141.681 49.9917 141.79 50.2567 141.977 50.5529C142.195 50.8646 142.554 51.0205 143.053 51.0205C143.583 51.0205 143.933 50.8802 144.105 50.5996C144.276 50.3191 144.378 50.1164 144.409 49.9917C144.44 49.8515 144.455 49.6644 144.455 49.4306V48.6357H146.677L146.677 49.15Z" fill="white"/>
<path d="M149.502 53.1011V39.5169H146.86V37.436H154.412V39.5169H151.724V53.1011H149.502Z" fill="white"/>
<path d="M161.538 51.4645C161.195 51.9944 160.751 52.4231 160.206 52.7504C159.676 53.0778 159.083 53.2414 158.429 53.2414C158.101 53.2414 157.774 53.1947 157.447 53.1011C157.135 53.0076 156.839 52.8907 156.558 52.7504C156.278 52.5946 156.028 52.4231 155.81 52.236C155.592 52.0334 155.428 51.823 155.319 51.6048C155.085 51.1683 154.929 50.7864 154.851 50.4591C154.789 50.1318 154.758 49.7811 154.758 49.407V37.436H157.002V49.407C157.002 49.5161 157.002 49.6174 157.002 49.7109C157.018 49.7888 157.034 49.8668 157.049 49.9448C157.065 50.0694 157.182 50.2876 157.4 50.5994C157.602 50.88 157.953 51.0202 158.452 51.0202C158.904 51.0202 159.239 50.8566 159.457 50.5292C159.691 50.1863 159.808 49.8122 159.808 49.407V37.436H162.053V49.407C162.053 49.7811 162.014 50.1396 161.936 50.4825C161.858 50.8254 161.725 51.1527 161.538 51.4645H161.538Z" fill="white"/>
<path d="M163.128 53.1011V37.436H167.056C168.085 37.436 168.95 37.7945 169.651 38.5115C170.368 39.2285 170.727 40.1092 170.727 41.1536V42.6032C170.727 44.0528 170.111 45.1594 168.88 45.9232L171.264 53.1011H168.88L166.775 46.3908H165.372V53.1011H163.128ZM168.108 43.9125C168.248 43.741 168.342 43.5462 168.389 43.328C168.451 43.1097 168.482 42.8682 168.482 42.6032V41.1536C168.482 40.6704 168.35 40.2807 168.085 39.9845C167.82 39.6728 167.446 39.5169 166.962 39.5169H165.373V44.4035H166.939C167.407 44.4035 167.796 44.2398 168.108 43.9125Z" fill="white"/>
<path d="M178.105 50.8566V53.1011H171.394V37.436H178.105V39.4935H173.615V44.1229H177.543V46.2506H173.615V50.8566H178.105Z" fill="white"/>
<path d="M18.8486 33.8501C18.5875 33.328 18.4196 32.8431 18.345 32.3955C18.3077 31.9106 18.2891 31.202 18.2891 30.2695V22.6608C18.2891 21.8402 18.4196 21.0943 18.6807 20.4229C18.8299 20.05 19.0537 19.6024 19.352 19.0802C19.6877 18.5581 20.1166 17.924 20.6388 17.178C21.6831 15.7234 23.548 14.9961 26.2335 14.9961C28.7697 14.9961 30.7279 15.8539 32.1079 17.5696C33.5625 19.248 34.2898 21.1875 34.2898 23.3881V29.4863C34.2898 30.9409 33.9914 32.3955 33.3947 33.8501L26.3454 52.8161H20.2472L26.5132 37.0391C25.5435 37.2629 24.7975 37.3748 24.2754 37.3748C23.0818 37.3748 21.9815 37.0577 20.9745 36.4237C20.0047 35.7523 19.2961 34.8945 18.8485 33.8501H18.8486ZM26.4014 20.2551C25.5062 20.2551 24.8348 20.5721 24.3873 21.2062C23.9397 21.8029 23.7159 22.5303 23.7159 23.3881V29.4863C23.7159 30.4187 23.9584 31.1833 24.4432 31.7801C24.9281 32.3769 25.6368 32.6752 26.5692 32.6752C27.3898 32.6752 27.9865 32.3955 28.3595 31.8361C28.7698 31.2393 28.9749 30.456 28.9749 29.4863V23.3881C28.9749 22.4557 28.7698 21.7097 28.3595 21.1502C27.9865 20.5535 27.3338 20.2551 26.4014 20.2551Z" fill="white"/>
<path d="M118 83.25V109.75L95 123L72 109.75V83.25L95 70L118 83.25Z" stroke="white" stroke-width="2.6" stroke-linejoin="round"/>
<path d="M140 122.5V149.5L117.5 163L95 149.5V122.5L117.5 109L140 122.5Z" stroke="white" stroke-width="2.6" stroke-linejoin="round"/>
<path d="M95 122.5V149.5L72.5 163L50 149.5V122.5L72.5 109L95 122.5Z" stroke="white" stroke-width="2.6" stroke-linejoin="round"/>
<path d="M72 163V109.217L94.4079 96L140 122.892L94.8342 149.532L72.0762 136.108L72 163" stroke="white" stroke-width="2.6" stroke-linejoin="round"/>
<path d="M95 96V123" stroke="white" stroke-width="2.6" stroke-linejoin="round"/>
<path d="M94.8156 96L118 82.8958L95.1844 70L72 83.1042L94.8156 96Z" fill="white" stroke="white" stroke-width="2.6" stroke-linejoin="round"/>
<path d="M72.3196 136L95 122.392L72.6804 109L50 122.608L72.3196 136Z" fill="white" stroke="white" stroke-width="2.6" stroke-linejoin="round"/>
<path d="M95 149.524L118 163V136.476L95 123V149.524Z" fill="white" stroke="white" stroke-width="2.6" stroke-linejoin="round"/>
</svg>
