<svg width="186" height="186" viewBox="0 0 186 186" fill="none" xmlns="http://www.w3.org/2000/svg">
<path fill-rule="evenodd" clip-rule="evenodd" d="M1.03838 0H184.962C185.537 0 186 0.462361 186 1.03668V184.963C186 185.538 185.537 186 184.962 186H1.03838C0.463118 186 0 185.538 0 184.963V1.03668C0 0.462361 0.463118 0 1.03838 0Z" fill="#EB1C2D"/>
<path d="M58.6814 32.7465L55.1977 23.2305V32.7465H52.9531V17.0814H55.0808L58.5411 26.574V17.0814H60.7857V32.7465H58.6814Z" fill="white"/>
<path d="M63.2034 18.5547C63.5619 18.0559 64.014 17.6662 64.5595 17.3856C65.1206 17.0895 65.6974 16.9414 66.2897 16.9414C66.8664 16.9414 67.4042 17.0583 67.9029 17.2921C68.4173 17.5259 68.846 17.8455 69.1889 18.2507C69.5318 18.656 69.7656 19.0768 69.8903 19.5133C70.015 19.9341 70.0774 20.394 70.0774 20.8927V28.8656C70.0774 29.3332 70.0306 29.7463 69.9371 30.1048C69.8592 30.4633 69.6721 30.8607 69.3759 31.2972C69.0954 31.7336 68.6823 32.1077 68.1368 32.4194C67.6068 32.7312 67.0145 32.8871 66.3598 32.8871C65.9857 32.8871 65.6272 32.8403 65.2843 32.7468C64.9414 32.6377 64.6219 32.4974 64.3257 32.3259C64.0295 32.1545 63.7646 31.9596 63.5308 31.7414C63.3125 31.5232 63.1411 31.2972 63.0164 31.0634C62.7826 30.5802 62.6423 30.1905 62.5955 29.8943C62.5488 29.5982 62.5254 29.2553 62.5254 28.8656V20.8927C62.5254 20.4251 62.5722 20.0121 62.6657 19.6536C62.7748 19.2795 62.954 18.9132 63.2034 18.5547ZM67.5522 19.7938C67.2561 19.3574 66.8508 19.1392 66.3364 19.1392C66.0715 19.1392 65.8065 19.2171 65.5415 19.373C65.2921 19.5133 65.1128 19.6769 65.0037 19.864C64.9102 20.051 64.8479 20.2381 64.8167 20.4251C64.7855 20.6122 64.7699 20.768 64.7699 20.8927V28.8656C64.7699 28.9435 64.7699 29.0292 64.7699 29.1228C64.7699 29.2007 64.7777 29.2864 64.7933 29.3799C64.8089 29.5358 64.9336 29.793 65.1674 30.1515C65.4012 30.4788 65.7909 30.6425 66.3365 30.6425C66.617 30.6425 66.8664 30.5802 67.0846 30.4555C67.3184 30.3152 67.4821 30.1593 67.5756 29.9878C67.6847 29.8008 67.7549 29.6294 67.7861 29.4735C67.8172 29.3176 67.8328 29.115 67.8328 28.8656V20.8927C67.8328 20.581 67.8172 20.3628 67.7861 20.2381C67.7704 20.1134 67.6925 19.9653 67.5522 19.7938H67.5522Z" fill="white"/>
<path d="M52.9531 54.3492V38.6841H56.6239H56.6707C57.1383 38.6841 57.5825 38.7854 58.0034 38.988C58.4242 39.1751 58.7983 39.4244 59.1256 39.7362C59.453 40.0479 59.7102 40.4064 59.8972 40.8117C60.0998 41.2014 60.2089 41.6067 60.2245 42.0275V44.2954V44.5293C60.2245 45.0436 60.1232 45.5268 59.9206 45.9788C59.7335 46.4153 59.4763 46.7972 59.149 47.1245C58.8217 47.4518 58.432 47.709 57.98 47.8961C57.5435 48.0831 57.0759 48.1766 56.5771 48.1766H56.3667H55.1977V54.3492H52.9531ZM57.6994 45.6048C57.8397 45.4645 57.9254 45.3164 57.9566 45.1605C58.0034 45.0047 58.0267 44.8098 58.0267 44.576V42.2613C58.0267 41.8249 57.8943 41.4664 57.6293 41.1858C57.3643 40.8896 57.0058 40.7416 56.5538 40.7416H55.1977V46.049H56.3667C56.6785 46.049 56.9279 46.0256 57.1149 45.9788C57.3175 45.9165 57.5124 45.7918 57.6994 45.6048Z" fill="white"/>
<path d="M62.8577 40.1574C63.2162 39.6586 63.6683 39.2689 64.2138 38.9883C64.7749 38.6921 65.3517 38.5441 65.944 38.5441C66.5207 38.5441 67.0585 38.661 67.5573 38.8948C68.0716 39.1286 68.5003 39.4481 68.8432 39.8534C69.1861 40.2587 69.4199 40.6795 69.5446 41.1159C69.6693 41.5368 69.7317 41.9966 69.7317 42.4954V50.4682C69.7317 50.9359 69.6849 51.3489 69.5914 51.7074C69.5135 52.0659 69.3264 52.4634 69.0302 52.8999C68.7497 53.3363 68.3366 53.7104 67.7911 54.0221C67.2611 54.3339 66.6688 54.4897 66.0141 54.4897C65.64 54.4897 65.2815 54.443 64.9386 54.3494C64.5957 54.2403 64.2762 54.1 63.98 53.9286C63.6838 53.7571 63.4189 53.5623 63.1851 53.3441C62.9668 53.1258 62.7954 52.8998 62.6707 52.666C62.4369 52.1828 62.2966 51.7931 62.2498 51.497C62.2031 51.2008 62.1797 50.8579 62.1797 50.4682V42.4954C62.1797 42.0278 62.2264 41.6147 62.32 41.2562C62.4291 40.8821 62.6083 40.5159 62.8577 40.1574ZM67.2065 41.3965C66.9104 40.9601 66.5051 40.7418 65.9908 40.7418C65.7258 40.7418 65.4608 40.8198 65.1958 40.9757C64.9464 41.1159 64.7672 41.2796 64.658 41.4667C64.5645 41.6537 64.5022 41.8407 64.471 42.0278C64.4398 42.2148 64.4242 42.3707 64.4242 42.4954V50.4682C64.4242 50.5462 64.4242 50.6319 64.4242 50.7254C64.4242 50.8033 64.432 50.8891 64.4476 50.9826C64.4632 51.1385 64.5879 51.3957 64.8217 51.7542C65.0555 52.0815 65.4452 52.2452 65.9908 52.2452C66.2713 52.2452 66.5207 52.1828 66.7389 52.0581C66.9727 51.9178 67.1364 51.762 67.2299 51.5905C67.339 51.4035 67.4092 51.232 67.4404 51.0761C67.4715 50.9203 67.4871 50.7176 67.4871 50.4682V42.4954C67.4871 42.1837 67.4715 41.9655 67.4404 41.8408C67.4248 41.7161 67.3468 41.568 67.2065 41.3965Z" fill="white"/>
<path d="M74.1074 54.3492L70.9043 38.6841H73.2424L75.0661 49.5561L76.9131 38.6841H79.298L76.0247 54.3492H74.1074Z" fill="white"/>
<path d="M87.3655 52.1046V54.3492H80.6553V38.6841H87.3655V40.7416H82.8764V45.371H86.8044V47.4986H82.8764V52.1046H87.3655Z" fill="white"/>
<path d="M88.4248 54.3492V38.6841H92.3528C93.3815 38.6841 94.2466 39.0426 94.948 39.7596C95.665 40.4766 96.0235 41.3573 96.0235 42.4016V43.8512C96.0235 45.3008 95.4079 46.4075 94.1765 47.1713L96.5613 54.3492H94.1765L92.0722 47.6389H90.6694V54.3492H88.4248ZM93.4049 45.1605C93.5452 44.9891 93.6387 44.7942 93.6855 44.576C93.7478 44.3578 93.779 44.1162 93.779 43.8512V42.4016C93.779 41.9184 93.6465 41.5287 93.3816 41.2326C93.1166 40.9208 92.7425 40.765 92.2593 40.765H90.6694V45.6515H92.2359C92.7035 45.6515 93.0932 45.4879 93.4049 45.1605H93.4049Z" fill="white"/>
<path d="M99.2221 54.3492V40.765H96.5801V38.6841H104.132V40.765H101.443V54.3492H99.2221Z" fill="white"/>
<path d="M107.417 54.3492V47.6155L104.378 38.6841H106.716L108.54 44.8099L110.387 38.6841H112.748L109.639 47.6155V54.3492H107.417Z" fill="white"/>
<path d="M26.5867 53.6362V21.7465L21.2158 25.7747V20.0681L26.5867 16.1519H31.9016V53.6362H26.5867Z" fill="white"/>
<path fill-rule="evenodd" clip-rule="evenodd" d="M40.0572 89.2996C40.0572 90.6677 39.5137 91.9797 38.5463 92.9471C37.5789 93.9145 36.2668 94.458 34.8987 94.458C33.5306 94.458 32.2185 93.9145 31.2511 92.9471C30.2837 91.9797 29.7402 90.6677 29.7402 89.2996C29.7402 88.6222 29.8737 87.9514 30.1329 87.3255C30.3921 86.6997 30.7721 86.131 31.2511 85.652C31.7301 85.173 32.2988 84.793 32.9246 84.5338C33.5505 84.2746 34.2213 84.1411 34.8987 84.1411C35.5761 84.1411 36.2469 84.2746 36.8728 84.5338C37.4986 84.793 38.0673 85.173 38.5463 85.652C39.0253 86.131 39.4053 86.6997 39.6645 87.3255C39.9237 87.9514 40.0572 88.6222 40.0572 89.2996Z" fill="white"/>
<path fill-rule="evenodd" clip-rule="evenodd" d="M83.7407 92.155C83.7407 93.5232 83.1973 94.8352 82.2299 95.8026C81.2625 96.77 79.9504 97.3135 78.5823 97.3135C77.2142 97.3135 75.9021 96.77 74.9347 95.8026C73.9673 94.8352 73.4238 93.5232 73.4238 92.155C73.4238 90.7869 73.9673 89.4749 74.9347 88.5075C75.9021 87.5401 77.2142 86.9966 78.5823 86.9966C79.2597 86.9966 79.9305 87.13 80.5563 87.3893C81.1822 87.6485 81.7509 88.0285 82.2299 88.5075C82.7089 88.9865 83.0888 89.5551 83.3481 90.181C83.6073 90.8068 83.7408 91.4776 83.7407 92.155Z" fill="white"/>
<path fill-rule="evenodd" clip-rule="evenodd" d="M112.67 92.155C112.67 93.5232 112.127 94.8352 111.16 95.8026C110.192 96.77 108.88 97.3135 107.512 97.3135C106.144 97.3135 104.832 96.77 103.864 95.8026C102.897 94.8352 102.354 93.5232 102.354 92.155C102.354 90.7869 102.897 89.4749 103.864 88.5075C104.832 87.5401 106.144 86.9966 107.512 86.9966C108.189 86.9966 108.86 87.13 109.486 87.3893C110.112 87.6485 110.681 88.0285 111.16 88.5075C111.639 88.9865 112.019 89.5551 112.278 90.181C112.537 90.8068 112.67 91.4776 112.67 92.155Z" fill="white"/>
<path fill-rule="evenodd" clip-rule="evenodd" d="M153.188 89.4187C153.188 90.7868 152.645 92.0989 151.677 93.0663C150.71 94.0337 149.398 94.5772 148.03 94.5772C146.661 94.5772 145.349 94.0337 144.382 93.0663C143.415 92.0989 142.871 90.7868 142.871 89.4187C142.871 88.7413 143.005 88.0705 143.264 87.4447C143.523 86.8188 143.903 86.2501 144.382 85.7711C144.861 85.2921 145.43 84.9122 146.055 84.6529C146.681 84.3937 147.352 84.2603 148.03 84.2603C149.398 84.2603 150.71 84.8038 151.677 85.7712C152.645 86.7386 153.188 88.0506 153.188 89.4187Z" fill="white"/>
<path fill-rule="evenodd" clip-rule="evenodd" d="M59.7399 115.251C59.7399 116.345 59.3051 117.395 58.5312 118.169C57.7572 118.943 56.7076 119.378 55.6131 119.378C54.5186 119.378 53.469 118.943 52.695 118.169C51.9211 117.395 51.4863 116.345 51.4863 115.251C51.4863 114.709 51.5931 114.172 51.8005 113.672C52.0078 113.171 52.3118 112.716 52.695 112.333C53.0782 111.95 53.5332 111.646 54.0338 111.438C54.5345 111.231 55.0712 111.124 55.6131 111.124C56.155 111.124 56.6917 111.231 57.1923 111.438C57.693 111.646 58.148 111.95 58.5312 112.333C58.9144 112.716 59.2183 113.171 59.4257 113.672C59.6331 114.172 59.7399 114.709 59.7399 115.251Z" fill="white"/>
<path fill-rule="evenodd" clip-rule="evenodd" d="M132.803 115.251C132.803 115.793 132.697 116.329 132.489 116.83C132.282 117.331 131.978 117.786 131.595 118.169C131.211 118.552 130.756 118.856 130.256 119.063C129.755 119.271 129.219 119.378 128.677 119.378C127.582 119.378 126.532 118.943 125.759 118.169C124.985 117.395 124.55 116.345 124.55 115.251C124.55 114.709 124.657 114.172 124.864 113.672C125.071 113.171 125.375 112.716 125.758 112.333C126.142 111.95 126.597 111.646 127.097 111.438C127.598 111.231 128.135 111.124 128.677 111.124C129.219 111.124 129.755 111.231 130.256 111.438C130.756 111.646 131.211 111.95 131.595 112.333C131.978 112.716 132.282 113.171 132.489 113.672C132.697 114.172 132.803 114.709 132.803 115.251Z" fill="white"/>
<path fill-rule="evenodd" clip-rule="evenodd" d="M146.997 120.925V142.035C146.997 145.647 141.68 145.663 141.68 142.035V105.053C141.68 103.716 139.855 103.606 139.855 105.053V117.513C139.855 120.46 135.966 120.584 135.966 117.513V102.355C135.966 99.252 138.314 96.5615 141.759 96.5615H154.298C157.743 96.5615 160.092 99.252 160.092 102.355V117.513C160.092 120.584 156.203 120.46 156.203 117.513V105.053C156.203 103.606 154.378 103.716 154.378 105.053V142.035C154.378 145.663 149.06 145.647 149.06 142.035V120.925C149.06 119.757 146.997 119.717 146.997 120.925Z" fill="white"/>
<path fill-rule="evenodd" clip-rule="evenodd" d="M28.4592 96.5615C25.0142 96.5615 22.6662 99.2517 22.6662 102.355V117.512C22.6662 118.554 23.1148 119.219 23.7059 119.54L19.0162 142.986C18.7412 144.361 20.5809 144.662 20.8241 143.329L25.137 119.677C25.904 119.44 26.5535 118.715 26.5535 117.512V105.053C26.5535 103.605 28.3785 103.716 28.3785 105.053V142.035C28.3785 145.663 33.6969 145.646 33.6969 142.035V120.925C33.6969 119.717 35.7592 119.756 35.7592 120.925V142.035C35.7592 145.646 41.0775 145.663 41.0775 142.035V105.053C41.0775 103.716 42.9025 103.605 42.9025 105.053V117.512C42.9025 120.46 46.7898 120.583 46.7898 117.512V102.355C46.7898 99.2517 44.4418 96.5615 40.9968 96.5615H28.4592Z" fill="white"/>
<path fill-rule="evenodd" clip-rule="evenodd" d="M77.67 127.233V142.178C77.67 145.879 72.5052 145.818 72.5052 142.178V127.233H67.5552L73.1652 107.322C73.4188 106.423 71.9403 105.756 71.5702 106.937L68.1602 117.828C67.3538 120.403 63.8968 119.489 64.8052 116.508L69.0952 102.427C69.5851 100.819 71.225 99.5674 73.0002 99.5674H83.9485C85.7237 99.5674 87.3636 100.819 87.8535 102.427L92.1436 116.508C93.052 119.489 89.5949 120.403 88.7885 117.828L85.3785 106.937C85.0084 105.756 83.5299 106.423 83.7835 107.322L89.3935 127.233H84.4435V142.178C84.4435 145.818 79.2788 145.879 79.2788 142.178V127.233H77.67Z" fill="white"/>
<path fill-rule="evenodd" clip-rule="evenodd" d="M106.761 127.233V142.177C106.761 145.878 101.596 145.818 101.596 142.177V127.233H96.6463L102.256 107.322C102.51 106.422 101.031 105.756 100.661 106.937L97.2513 117.827C96.4449 120.403 92.9878 119.489 93.8962 116.507L98.1863 102.427C98.6762 100.819 100.316 99.5673 102.091 99.5673H113.04C114.815 99.5673 116.455 100.819 116.945 102.427L121.235 116.507C122.143 119.489 118.686 120.403 117.88 117.827L114.47 106.937C114.1 105.756 112.621 106.422 112.875 107.322L118.485 127.233H113.535V142.177C113.535 145.818 108.37 145.878 108.37 142.177V127.233H106.761Z" fill="white"/>
<path fill-rule="evenodd" clip-rule="evenodd" d="M129.669 136.308V142.523C129.669 145.162 133.299 145.493 133.299 142.523V127.7C133.299 126.915 134.141 126.892 134.427 127.646L136.328 132.662C136.976 134.371 138.967 133.643 138.253 131.892L134.482 122.64C134.155 121.838 133.356 121.183 132.282 121.183H125.223C124.149 121.183 123.35 121.838 123.023 122.64L119.252 131.892C118.538 133.643 120.529 134.371 121.177 132.662L123.078 127.646C123.364 126.892 124.206 126.915 124.206 127.7V142.523C124.206 145.493 127.836 145.162 127.836 142.523V136.308C127.836 135.206 129.669 135.127 129.669 136.308Z" fill="white"/>
<path fill-rule="evenodd" clip-rule="evenodd" d="M54.8657 136.686V143.036C54.8657 145.316 51.5445 145.702 51.5445 143.036V136.051H49.249L51.2515 128.774C51.5957 127.523 51.3312 126.246 50.7142 125.16L47.2466 119.055C46.2072 117.225 48.7366 116.206 49.5421 117.492L52.0818 121.546C52.4571 122.145 52.9229 122.083 53.4982 122.083H58.2334C58.8086 122.083 59.2744 122.145 59.6498 121.546L62.1895 117.492C62.995 116.206 65.5244 117.225 64.485 119.055L61.0173 125.16C60.4004 126.246 60.1358 127.523 60.48 128.774L62.4825 136.051H60.187V143.036C60.187 145.702 56.8658 145.316 56.8658 143.036V136.686C56.8658 135.252 54.8657 135.291 54.8657 136.686Z" fill="white"/>
</svg>
