<svg width="186" height="186" viewBox="0 0 186 186" fill="none" xmlns="http://www.w3.org/2000/svg">
<path fill-rule="evenodd" clip-rule="evenodd" d="M1.03838 0H184.962C185.537 0 186 0.462399 186 1.03672V184.963C186 185.538 185.537 186 184.962 186H1.03838C0.463103 186 0 185.538 0 184.963V1.03672C0 0.462399 0.463103 0 1.03838 0Z" fill="#007DBC"/>
<path d="M67.1507 32.3823H60.4639V16.7173H62.7084V30.1378H67.1507V32.3823Z" fill="white"/>
<path d="M67.8789 32.3823V16.7173H70.1001V32.3823H67.8789Z" fill="white"/>
<path d="M72.002 32.3823V16.7173H78.6888V18.8215H74.2231V23.5211H78.1277V25.6253H74.2231V32.3823H72.002Z" fill="white"/>
<path d="M86.1673 30.1378V32.3823H79.457V16.7173H86.1673V18.7748H81.6782V23.4042H85.6062V25.5318H81.6782V30.1378H86.1673Z" fill="white"/>
<path d="M64.1346 38.3199C64.6178 38.3199 65.0698 38.4213 65.4906 38.6239C65.9583 38.8421 66.4337 39.1928 66.9169 39.6761C67.4312 40.1748 67.6884 40.9542 67.6884 42.0141V43.2065C67.6884 44.4068 67.213 45.2485 66.2622 45.7316C67.213 46.2928 67.6884 47.1656 67.6884 48.3503V50.1739C67.6884 51.2806 67.3299 52.1925 66.6129 52.9095C65.9115 53.6265 65.0075 53.9851 63.9008 53.9851H60.4404V38.3199H64.1346ZM65.4673 42.9727V42.0141C65.4673 41.5309 65.327 41.149 65.0464 40.8684C64.7659 40.5723 64.3917 40.4242 63.9241 40.4242H62.6616V44.7497H63.9943C64.5086 44.7497 64.8828 44.5938 65.1166 44.282C65.3504 43.9547 65.4673 43.5182 65.4673 42.9727ZM65.4673 50.1739V48.3503C65.4673 47.8515 65.327 47.4618 65.0464 47.1813C64.7815 46.8851 64.4073 46.737 63.9241 46.737H62.6616V51.7638H63.9475C64.3995 51.7638 64.7659 51.6158 65.0464 51.3196C65.327 51.0079 65.4673 50.626 65.4673 50.1739Z" fill="white"/>
<path d="M76.6038 51.7405V53.9851H69.8936V38.3199H76.6038V40.3775H72.1147V45.0068H76.0427V47.1345H72.1147V51.7405H76.6038Z" fill="white"/>
<path d="M84.1937 53.9851H77.5068V38.3199H79.7514V51.7405H84.1937V53.9851Z" fill="white"/>
<path d="M85.1155 39.7925C85.474 39.2937 85.9261 38.904 86.4716 38.6234C87.0328 38.3273 87.6095 38.1792 88.2018 38.1792C88.7785 38.1792 89.3163 38.2961 89.8151 38.5299C90.3294 38.7638 90.7581 39.0833 91.101 39.4885C91.4439 39.8938 91.6777 40.3147 91.8024 40.7511C91.9271 41.1719 91.9895 41.6317 91.9895 42.1305V50.1034C91.9895 50.571 91.9427 50.9841 91.8492 51.3426C91.7713 51.7011 91.5842 52.0986 91.288 52.535C91.0075 52.9714 90.5944 53.3455 90.0489 53.6573C89.5189 53.969 88.9266 54.1249 88.2719 54.1249C87.8979 54.1249 87.5393 54.0781 87.1964 53.9846C86.8535 53.8755 86.534 53.7352 86.2378 53.5638C85.9416 53.3923 85.6767 53.1975 85.4429 52.9792C85.2247 52.761 85.0532 52.535 84.9285 52.3011C84.6947 51.8179 84.5544 51.4283 84.5076 51.1322C84.4609 50.836 84.4375 50.4931 84.4375 50.1034V42.1305C84.4375 41.6629 84.4843 41.2499 84.5778 40.8914C84.6869 40.5173 84.8661 40.151 85.1155 39.7925ZM89.4644 41.0317C89.1682 40.5952 88.7629 40.377 88.2486 40.377C87.9836 40.377 87.7186 40.4549 87.4536 40.6108C87.2042 40.7511 87.025 40.9148 86.9159 41.1018C86.8223 41.2889 86.76 41.4759 86.7288 41.663C86.6976 41.85 86.6821 42.0058 86.6821 42.1305V50.1034C86.6821 50.1813 86.6821 50.267 86.6821 50.3606C86.6821 50.4385 86.6899 50.5242 86.7055 50.6177C86.7211 50.7736 86.8458 51.0308 87.0796 51.3893C87.3134 51.7167 87.7031 51.8803 88.2486 51.8803C88.5292 51.8803 88.7786 51.818 88.9968 51.6933C89.2306 51.553 89.3943 51.3971 89.4878 51.2257C89.5969 51.0386 89.667 50.8672 89.6982 50.7113C89.7294 50.5554 89.745 50.3528 89.745 50.1034V42.1305C89.745 41.8188 89.7294 41.6006 89.6982 41.4759C89.6826 41.3512 89.6047 41.2031 89.4644 41.0317H89.4644Z" fill="white"/>
<path d="M101.158 53.9851L99.3112 44.4457L97.5109 53.9851H95.4301L93.1621 38.3199H95.547L96.6692 47.7891L98.4695 38.3199H100.13L101.977 47.7891L103.099 38.3199H105.46L103.263 53.9851H101.158Z" fill="white"/>
<path d="M116.372 53.985L114.525 44.4456L112.725 53.985H110.644L108.376 38.3198H110.761L111.883 47.789L113.683 38.3198H115.343L117.19 47.789L118.313 38.3198H120.674L118.476 53.985H116.372Z" fill="white"/>
<path d="M120.176 53.9851L123.683 38.3199H125.623L129.131 53.9851H126.722L126.091 50.6182H123.192L122.537 53.9851H120.176ZM123.589 48.5373H125.694L124.642 42.8324L123.589 48.5373Z" fill="white"/>
<path d="M131.001 53.9851V40.4008H128.359V38.3199H135.911V40.4008H133.223V53.9851H131.001Z" fill="white"/>
<path d="M143.857 51.7403V53.985H137.146V38.3198H143.857V40.3774H139.368V45.0067H143.296V47.1344H139.368V51.7403H143.857Z" fill="white"/>
<path d="M144.714 53.985V38.3198H148.642C149.671 38.3198 150.536 38.6784 151.237 39.3954C151.954 40.1124 152.313 40.993 152.313 42.0374V43.487C152.313 44.9366 151.697 46.0433 150.466 46.807L152.85 53.985H150.466L148.361 47.2747H146.958V53.985H144.714ZM149.694 44.7963C149.834 44.6249 149.928 44.43 149.975 44.2118C150.037 43.9936 150.068 43.752 150.068 43.487V42.0374C150.068 41.5542 149.936 41.1645 149.671 40.8683C149.406 40.5566 149.032 40.4007 148.548 40.4007H146.958V45.2873H148.525C148.993 45.2873 149.382 45.1237 149.694 44.7963H149.694Z" fill="white"/>
<path d="M18.2166 54.1806V22.291L12.8457 26.3191V20.6126L18.2166 16.6963H23.5315V54.1806H18.2166Z" fill="white"/>
<path d="M37.7024 54.1806V48.4741H27.0166V43.4389L34.7932 16.6963H40.4438L32.4434 43.4389H37.7024V32.7531H43.0733V43.4389H45.7028V48.4741H43.0733V54.1806H37.7024Z" fill="white"/>
<path d="M104.215 114.072C91.5841 114.362 79.1999 120.967 66.9102 129.99C61.4991 120.788 54.3639 114.241 43 114.207C53.8612 130.214 51.6809 144.472 43 157.855C54.3639 157.821 61.4991 151.274 66.9102 142.072C91.4895 160.118 116.446 168.487 143 136.032C129.723 119.805 116.846 113.781 104.215 114.072ZM116.445 126.697C117.241 126.697 118.029 126.852 118.764 127.154C119.499 127.455 120.167 127.897 120.73 128.454C121.292 129.011 121.738 129.672 122.043 130.4C122.347 131.128 122.504 131.908 122.504 132.696C122.503 134.286 121.865 135.812 120.729 136.936C119.592 138.061 118.052 138.692 116.445 138.692C114.839 138.692 113.299 138.06 112.163 136.935C111.027 135.811 110.389 134.286 110.389 132.696C110.388 131.105 111.026 129.58 112.162 128.455C113.298 127.33 114.838 126.698 116.445 126.697ZM142.067 93.1861L142.503 98.118C133.074 104.541 126.071 101.989 119.775 96.8234C111.995 102.507 103.427 104.198 93.0002 96.4535C85.3055 101.117 77.4281 105.187 65.6647 96.6384C59.526 101.379 53.3659 106.048 43.4975 98.4262L43.2484 93.2478C52.3164 98.5052 59.4512 95.5074 66.2252 90.1654C75.2124 96.1864 84.0948 97.952 92.7511 90.5353C102.79 99.6484 111.224 95.753 119.464 90.2887C125.501 94.1164 131.063 99.0226 142.067 93.1861ZM142.067 78.0208L142.503 82.9526C133.074 89.3755 126.071 86.8237 119.775 81.658C111.995 87.3415 103.427 89.0327 93.0002 81.2881C85.3055 85.9519 77.4281 90.022 65.6647 81.473C59.526 86.2133 53.3659 90.8826 43.4975 83.2608L43.2484 78.0824C52.3164 83.3399 59.4512 80.342 66.2252 75C75.2124 81.021 84.0948 82.7867 92.7511 75.3699C102.79 84.4831 111.224 80.5876 119.464 75.1233C125.501 78.951 131.063 83.8572 142.067 78.0208Z" fill="white"/>
</svg>
