<svg width="186" height="186" viewBox="0 0 186 186" fill="none" xmlns="http://www.w3.org/2000/svg">
<path fill-rule="evenodd" clip-rule="evenodd" d="M1.03841 0H184.962C185.537 0 186 0.462361 186 1.03668V184.963C186 185.538 185.537 186 184.962 186H1.03841C0.463142 186 0 185.538 0 184.963V1.03668C0 0.462361 0.463142 0 1.03841 0Z" fill="#C31F33"/>
<path d="M55.4646 31.531C55.1061 31.1413 54.8645 30.7282 54.7398 30.2918C54.6307 29.8554 54.5762 29.341 54.5762 28.7487V20.9629C54.5762 19.825 54.9346 18.8742 55.6517 18.1104C56.3842 17.3311 57.3039 16.9414 58.4105 16.9414C59.4081 16.9414 60.2888 17.3077 61.0526 18.0403C61.8008 18.7729 62.1749 19.6458 62.1749 20.6589V28.7487C62.1749 29.2007 62.1515 29.5358 62.1047 29.754C62.0736 29.9723 62.0113 30.1905 61.9177 30.4087L63.3907 31.6479L62.1515 33.1443L60.7487 32.022C60.0628 32.5831 59.2367 32.8637 58.2703 32.8637C57.7559 32.8637 57.2415 32.739 56.7271 32.4896C56.2284 32.2402 55.8075 31.9207 55.4646 31.531ZM59.1821 28.1642L59.9303 28.7487V20.9629C59.9303 20.4641 59.7901 20.0433 59.5095 19.7003C59.2289 19.3418 58.8392 19.1626 58.3404 19.1626C58.0287 19.1626 57.7559 19.2405 57.5221 19.3964C57.2883 19.5523 57.1168 19.7393 57.0077 19.9575C56.9142 20.1757 56.8597 20.3472 56.8441 20.4719C56.8285 20.581 56.8206 20.7447 56.8206 20.9629V28.7487V28.9123C56.8206 29.3644 56.9454 29.7696 57.1948 30.1281C57.4598 30.471 57.865 30.6503 58.4105 30.6659C58.5664 30.6659 58.7535 30.6191 58.9717 30.5256L57.9429 29.6605L59.1821 28.1642Z" fill="white"/>
<path d="M71.1105 31.11C70.7676 31.6399 70.3234 32.0686 69.7778 32.3959C69.2479 32.7232 68.6555 32.8869 68.0008 32.8869C67.6735 32.8869 67.3462 32.8401 67.0189 32.7466C66.7071 32.6531 66.411 32.5362 66.1304 32.3959C65.8499 32.2401 65.6005 32.0686 65.3822 31.8816C65.164 31.6789 65.0004 31.4685 64.8913 31.2503C64.6575 30.8138 64.5016 30.4319 64.4237 30.1046C64.3613 29.7773 64.3301 29.4266 64.3301 29.0525V17.0815H66.5746V29.0525C66.5746 29.1616 66.5746 29.2629 66.5746 29.3564C66.5902 29.4343 66.6058 29.5123 66.6213 29.5902C66.6369 29.7149 66.7539 29.9332 66.9721 30.2449C67.1747 30.5255 67.5254 30.6657 68.0242 30.6657C68.4762 30.6657 68.8113 30.5021 69.0295 30.1748C69.2634 29.8318 69.3803 29.4577 69.3803 29.0525V17.0815H71.6248V29.0525C71.6248 29.4266 71.5858 29.7851 71.5079 30.128C71.43 30.4709 71.2976 30.7982 71.1105 31.11Z" fill="white"/>
<path d="M72.8181 32.7465L76.3253 17.0814H78.2659L81.773 32.7465H79.3647L78.7335 29.3797H75.8343L75.1796 32.7465H72.8181ZM76.2317 27.2988H78.336L77.2839 21.5939L76.2317 27.2988Z" fill="white"/>
<path d="M89.6264 32.7466H82.9395V17.0815H85.184V30.5021H89.6264V32.7466Z" fill="white"/>
<path d="M90.2539 32.7466V17.0815H92.4751V32.7466H90.2539Z" fill="white"/>
<path d="M96.3605 32.7465V19.1623H93.7185V17.0814H101.271V19.1623H98.5816V32.7465H96.3605Z" fill="white"/>
<path d="M104.555 32.7465V26.0128L101.516 17.0814H103.854L105.677 23.2072L107.524 17.0814H109.886L106.776 26.0128V32.7465H104.555Z" fill="white"/>
<path d="M61.4505 52.1046V54.3492H54.7402V38.6841H61.4505V40.7416H56.9615V45.371H60.8894V47.4986H56.9615V52.1046H61.4505Z" fill="white"/>
<path d="M66.7072 38.6841C67.7204 38.6841 68.5854 39.0426 69.3024 39.7596C70.035 40.461 70.4014 41.3183 70.4014 42.3315V50.468C70.4014 51.6214 70.0506 52.5567 69.3492 53.2737C68.6478 53.9907 67.7437 54.3492 66.637 54.3492H63.1533V38.6841H66.7072ZM68.1801 50.468V42.3315C68.1801 41.8951 68.0165 41.5287 67.6892 41.2326C67.3774 40.9364 66.9955 40.7884 66.5435 40.7884H65.3745V52.2683H66.4733C67.6112 52.2683 68.1801 51.6682 68.1801 50.468Z" fill="white"/>
<path d="M79.0783 52.7125C78.7354 53.2425 78.2911 53.6711 77.7456 53.9984C77.2156 54.3258 76.6233 54.4894 75.9686 54.4894C75.6413 54.4894 75.314 54.4427 74.9866 54.3492C74.6749 54.2556 74.3788 54.1387 74.0982 53.9984C73.8177 53.8426 73.5682 53.6711 73.35 53.4841C73.1318 53.2814 72.9682 53.071 72.8591 52.8528C72.6253 52.4163 72.4694 52.0344 72.3914 51.7071C72.329 51.3798 72.2979 51.0291 72.2979 50.655V38.6841H74.5424V50.655C74.5424 50.7641 74.5424 50.8654 74.5424 50.959C74.558 51.0369 74.5736 51.1148 74.5891 51.1928C74.6047 51.3175 74.7217 51.5357 74.9398 51.8474C75.1425 52.128 75.4932 52.2683 75.9919 52.2683C76.444 52.2683 76.7791 52.1046 76.9973 51.7773C77.2311 51.4343 77.3481 51.0603 77.3481 50.655V38.6841H79.5926V50.655C79.5926 51.0291 79.5536 51.3876 79.4757 51.7305C79.3978 52.0734 79.2653 52.4008 79.0783 52.7125H79.0783Z" fill="white"/>
<path d="M88.7324 50.398C88.7324 50.8968 88.7012 51.3254 88.6388 51.6839C88.5921 52.0424 88.4363 52.4321 88.1713 52.853C88.031 53.0712 87.8517 53.2816 87.6335 53.4842C87.4308 53.6713 87.1971 53.8427 86.9321 53.9986C86.6827 54.1389 86.4099 54.2558 86.1137 54.3493C85.8176 54.4429 85.5293 54.4896 85.2487 54.4896C84.5473 54.4896 83.9082 54.3415 83.3315 54.0454C82.7703 53.7492 82.3573 53.3751 82.0923 52.9231C81.8273 52.4711 81.6558 52.0502 81.5779 51.6605C81.5155 51.2709 81.4844 50.85 81.4844 50.398V42.3316C81.4844 41.8952 81.5233 41.5055 81.6012 41.1626C81.6947 40.8041 81.8818 40.4222 82.1623 40.017C82.4429 39.6117 82.8404 39.2688 83.3548 38.9882C83.8691 38.692 84.4069 38.5439 84.968 38.5439C86.0435 38.5439 86.9398 38.9025 87.6568 39.6195C88.3738 40.3209 88.7323 41.225 88.7323 42.3316V43.1733H86.5111V42.3316C86.5111 41.8952 86.3865 41.5289 86.1371 41.2327C85.9032 40.9366 85.5525 40.7885 85.0849 40.7885C84.6484 40.7885 84.3056 40.9366 84.0562 41.2327C83.8224 41.5289 83.7054 41.8952 83.7054 42.3316V51.0059C83.7366 51.2397 83.8457 51.5047 84.0328 51.8008C84.251 52.1126 84.6095 52.2684 85.1083 52.2684C85.6382 52.2684 85.989 52.1281 86.1604 51.8476C86.3319 51.567 86.4332 51.3644 86.4644 51.2397C86.4956 51.0994 86.5111 50.9124 86.5111 50.6786V49.8836H88.7323L88.7324 50.398Z" fill="white"/>
<path d="M89.4746 54.3492L92.9817 38.6841H94.9224L98.4295 54.3492H96.0212L95.3899 50.9824H92.4907L91.836 54.3492H89.4746ZM92.8882 48.9015H94.9925L93.9403 43.1966L92.8882 48.9015Z" fill="white"/>
<path d="M100.309 54.3492V40.765H97.667V38.6841H105.219V40.765H102.53V54.3492H100.309Z" fill="white"/>
<path d="M106.421 54.3492V38.6841H108.642V54.3492H106.421Z" fill="white"/>
<path d="M111.342 40.1572C111.701 39.6585 112.153 39.2688 112.698 38.9882C113.259 38.692 113.836 38.5439 114.428 38.5439C115.005 38.5439 115.543 38.6608 116.042 38.8947C116.556 39.1285 116.985 39.448 117.328 39.8533C117.67 40.2585 117.904 40.6794 118.029 41.1158C118.154 41.5367 118.216 41.9965 118.216 42.4953V50.4681C118.216 50.9358 118.169 51.3488 118.076 51.7073C117.998 52.0658 117.811 52.4633 117.515 52.8997C117.234 53.3362 116.821 53.7103 116.275 54.022C115.745 54.3338 115.153 54.4896 114.498 54.4896C114.124 54.4896 113.766 54.4429 113.423 54.3493C113.08 54.2402 112.761 54.0999 112.464 53.9285C112.168 53.757 111.903 53.5622 111.669 53.344C111.451 53.1257 111.28 52.8997 111.155 52.6659C110.921 52.1827 110.781 51.793 110.734 51.4969C110.687 51.2007 110.664 50.8578 110.664 50.4681V42.4953C110.664 42.0277 110.711 41.6146 110.804 41.2561C110.913 40.882 111.093 40.5158 111.342 40.1572ZM115.691 41.3964C115.395 40.96 114.989 40.7417 114.475 40.7417C114.21 40.7417 113.945 40.8197 113.68 40.9756C113.431 41.1158 113.251 41.2795 113.142 41.4665C113.049 41.6536 112.986 41.8406 112.955 42.0277C112.924 42.2147 112.909 42.3706 112.909 42.4953V50.4681C112.909 50.546 112.909 50.6318 112.909 50.7253C112.909 50.8032 112.916 50.889 112.932 50.9825C112.948 51.1384 113.072 51.3956 113.306 51.7541C113.54 52.0814 113.93 52.2451 114.475 52.2451C114.756 52.2451 115.005 52.1827 115.223 52.058C115.457 51.9177 115.621 51.7619 115.714 51.5904C115.823 51.4034 115.894 51.2319 115.925 51.076C115.956 50.9201 115.971 50.7175 115.971 50.4681V42.4953C115.971 42.1836 115.956 41.9654 115.925 41.8407C115.909 41.716 115.831 41.5679 115.691 41.3964H115.691Z" fill="white"/>
<path d="M125.587 54.3492L122.103 44.8332V54.3492H119.858V38.6841H121.986L125.446 48.1766V38.6841H127.691V54.3492H125.587Z" fill="white"/>
<path d="M30.1106 53.6362V47.9296H19.4248V42.8944L27.2013 16.1519H32.852L24.8516 42.8944H30.1106V32.2086H35.4815V42.8944H38.111V47.9296H35.4815V53.6362H30.1106Z" fill="white"/>
<path fill-rule="evenodd" clip-rule="evenodd" d="M141.198 76.0001C139.296 76.0099 137.393 77.0354 137.393 79.0461V84.528H145V79.0461C145 76.9973 143.099 75.9906 141.198 76.0001ZM137.393 86.8846V141.68L141.198 153.958L145 141.68V86.8846H137.393ZM49.1432 81.5874V142.179L81.7859 152.082V100.263L49.1432 81.5874ZM81.5101 159L42 148.012V84.1208L45.4376 81.5395V145.518L82.306 156.098H85.3034L122.172 145.518V81.5395L125.609 84.1208V148.012L86.0992 159H81.5101ZM118.466 81.5874V142.179L85.8234 152.082V100.263L118.466 81.5874Z" fill="white"/>
</svg>
