<svg width="186" height="186" viewBox="0 0 186 186" fill="none" xmlns="http://www.w3.org/2000/svg">
<path fill-rule="evenodd" clip-rule="evenodd" d="M1.03838 0H184.962C185.537 0 186 0.462399 186 1.03672V184.963C186 185.538 185.537 186 184.962 186H1.03838C0.463118 186 0 185.538 0 184.963V1.03672C0 0.462399 0.463118 0 1.03838 0Z" fill="#48773E"/>
<path d="M65.5185 28.4312C65.5185 28.93 65.4874 29.3586 65.425 29.7171C65.3783 30.0756 65.2224 30.4653 64.9574 30.8862C64.8171 31.1044 64.6379 31.3148 64.4196 31.5174C64.217 31.7044 63.9832 31.8759 63.7182 32.0317C63.4688 32.172 63.1961 32.289 62.8999 32.3825C62.6037 32.476 62.3154 32.5228 62.0348 32.5228C61.3334 32.5228 60.6943 32.3747 60.1176 32.0785C59.5565 31.7824 59.1434 31.4083 58.8784 30.9563C58.6134 30.5042 58.442 30.0834 58.364 29.6937C58.3017 29.304 58.2705 28.8832 58.2705 28.4312V20.3648C58.2705 19.9284 58.3095 19.5387 58.3874 19.1958C58.4809 18.8373 58.668 18.4554 58.9485 18.0501C59.2291 17.6448 59.6266 17.302 60.141 17.0214C60.6553 16.7252 61.1931 16.5771 61.7542 16.5771C62.8297 16.5771 63.726 16.9356 64.443 17.6526C65.16 18.3541 65.5185 19.2581 65.5185 20.3648V21.2065H63.2974V20.3648C63.2974 19.9284 63.1727 19.5621 62.9233 19.2659C62.6895 18.9698 62.3387 18.8217 61.8711 18.8217C61.4347 18.8217 61.0918 18.9698 60.8424 19.2659C60.6086 19.5621 60.4917 19.9284 60.4917 20.3648V29.0391C60.5228 29.2729 60.632 29.5378 60.819 29.834C61.0372 30.1457 61.3957 30.3016 61.8945 30.3016C62.4245 30.3016 62.7752 30.1614 62.9466 29.8808C63.1181 29.6002 63.2194 29.3976 63.2506 29.2729C63.2818 29.1326 63.2974 28.9455 63.2974 28.7117V27.9168H65.5185L65.5185 28.4312Z" fill="white"/>
<path d="M73.7875 32.3823H67.1006V16.7173H69.3451V30.1378H73.7875V32.3823Z" fill="white"/>
<path d="M74.3037 32.3823V16.7173H76.5249V32.3823H74.3037Z" fill="white"/>
<path d="M86.312 32.3822V22.8428L84.0675 29.5298H82.9452L80.724 22.8428V32.3822H78.4795V16.7171H80.5838L83.5531 25.0641L86.4757 16.7171H88.5332V32.3822H86.312Z" fill="white"/>
<path d="M88.9502 32.3823L92.4573 16.7173H94.3979L97.905 32.3823H95.4968L94.8655 29.0155H91.9663L91.3116 32.3823H88.9502ZM92.3638 26.9347H94.468L93.4159 21.2298L92.3638 26.9347Z" fill="white"/>
<path d="M99.9379 32.3823V18.7981H97.2959V16.7173H104.848V18.7981H102.159V32.3823H99.9379Z" fill="white"/>
<path d="M112.631 30.1377V32.3822H105.921V16.7171H112.631V18.7746H108.142V23.4041H112.07V25.5317H108.142V30.1377H112.631Z" fill="white"/>
<path d="M57.3252 53.9849L60.8323 38.3198H62.7729L66.28 53.9849H63.8718L63.2405 50.618H60.3413L59.6866 53.9849H57.3252ZM60.7388 48.5372H62.843L61.7909 42.8323L60.7388 48.5372Z" fill="white"/>
<path d="M74.5293 50.0337C74.5293 50.5325 74.4981 50.9611 74.4357 51.3196C74.389 51.6781 74.2331 52.0679 73.9681 52.4887C73.8279 52.7069 73.6486 52.9174 73.4304 53.12C73.2278 53.3071 72.9939 53.4785 72.729 53.6344C72.4796 53.7747 72.2068 53.8916 71.9106 53.9851C71.6145 54.0786 71.3261 54.1254 71.0455 54.1254C70.3441 54.1254 69.7051 53.9773 69.1283 53.6812C68.5672 53.385 68.1541 53.0109 67.8892 52.5589C67.6242 52.1069 67.4527 51.6859 67.3748 51.2963C67.3124 50.9066 67.2812 50.4857 67.2812 50.0337V41.9673C67.2812 41.5309 67.3202 41.1413 67.3981 40.7984C67.4917 40.4399 67.6787 40.058 67.9593 39.6527C68.2399 39.2474 68.6373 38.9045 69.1517 38.6239C69.6661 38.3278 70.2038 38.1797 70.765 38.1797C71.8405 38.1797 72.7367 38.5382 73.4538 39.2552C74.1708 39.9567 74.5293 40.8607 74.5293 41.9673V42.8091H72.3081V41.9673C72.3081 41.5309 72.1834 41.1646 71.934 40.8685C71.7002 40.5723 71.3495 40.4242 70.8819 40.4242C70.4454 40.4242 70.1025 40.5723 69.8531 40.8685C69.6193 41.1646 69.5024 41.5309 69.5024 41.9673V50.6416C69.5336 50.8754 69.6427 51.1405 69.8298 51.4366C70.048 51.7484 70.4065 51.9042 70.9053 51.9042C71.4352 51.9042 71.7859 51.7639 71.9574 51.4833C72.1288 51.2028 72.2302 51.0001 72.2613 50.8754C72.2925 50.7351 72.3081 50.5481 72.3081 50.3143V49.5194H74.5292L74.5293 50.0337Z" fill="white"/>
<path d="M78.2651 53.985V40.4007H75.623V38.3198H83.175V40.4007H80.4862V53.985H78.2651Z" fill="white"/>
<path d="M84.3018 53.9849V38.3198H86.5229V53.9849H84.3018Z" fill="white"/>
<path d="M88.9398 39.793C89.2983 39.2942 89.7503 38.9045 90.2958 38.6239C90.857 38.3278 91.4337 38.1797 92.026 38.1797C92.6027 38.1797 93.1405 38.2966 93.6393 38.5304C94.1537 38.7642 94.5823 39.0838 94.9252 39.489C95.2681 39.8943 95.5019 40.3151 95.6266 40.7516C95.7513 41.1724 95.8137 41.6322 95.8137 42.131V50.1039C95.8137 50.5715 95.7669 50.9845 95.6734 51.343C95.5955 51.7016 95.4084 52.0991 95.1123 52.5355C94.8317 52.9719 94.4186 53.346 93.8731 53.6578C93.3431 53.9695 92.7508 54.1254 92.0962 54.1254C91.7221 54.1254 91.3636 54.0786 91.0206 53.9851C90.6777 53.876 90.3582 53.7357 90.062 53.5643C89.7659 53.3928 89.5009 53.198 89.2671 52.9797C89.0489 52.7615 88.8774 52.5354 88.7527 52.3016C88.5189 51.8184 88.3786 51.4288 88.3319 51.1327C88.2851 50.8365 88.2617 50.4936 88.2617 50.1039V42.131C88.2617 41.6634 88.3085 41.2504 88.402 40.8919C88.5111 40.5178 88.6904 40.1515 88.9398 39.793ZM93.2886 41.0321C92.9924 40.5957 92.5871 40.3775 92.0728 40.3775C91.8078 40.3775 91.5428 40.4554 91.2778 40.6113C91.0284 40.7516 90.8492 40.9153 90.7401 41.1023C90.6465 41.2894 90.5842 41.4764 90.553 41.6635C90.5219 41.8505 90.5063 42.0063 90.5063 42.131V50.1039C90.5063 50.1818 90.5063 50.2675 90.5063 50.3611C90.5063 50.439 90.5141 50.5247 90.5297 50.6182C90.5453 50.7741 90.67 51.0313 90.9038 51.3898C91.1376 51.7172 91.5273 51.8808 92.0729 51.8808C92.3534 51.8808 92.6028 51.8185 92.821 51.6938C93.0549 51.5535 93.2185 51.3976 93.312 51.2261C93.4212 51.0391 93.4913 50.8677 93.5225 50.7118C93.5536 50.5559 93.5692 50.3533 93.5692 50.1039V42.131C93.5692 41.8193 93.5536 41.6011 93.5225 41.4764C93.5069 41.3517 93.4289 41.2036 93.2887 41.0321H93.2886Z" fill="white"/>
<path d="M103.466 53.9849L99.9819 44.469V53.9849H97.7373V38.3198H99.865L103.325 47.8124V38.3198H105.57V53.9849H103.466Z" fill="white"/>
<path d="M18.6492 54.1808V22.2912L13.2783 26.3193V20.6128L18.6492 16.6965H23.9641V54.1808H18.6492Z" fill="white"/>
<path d="M44.0848 45.5646V46.236C44.0848 46.4971 44.0661 46.7954 44.0288 47.1311C44.0288 47.4295 43.9729 47.8771 43.861 48.4739C43.3388 50.2641 42.3504 51.7187 40.8958 52.8376C39.4785 53.9566 37.8187 54.5161 35.9165 54.5161C34.4246 54.5161 33.0073 54.0685 31.6646 53.1733C30.3219 52.2409 29.464 51.3271 29.091 50.4319C28.8672 49.9471 28.6808 49.5181 28.5316 49.1451C28.4197 48.7722 28.3264 48.4179 28.2518 48.0822C28.1772 47.7465 28.1213 47.3922 28.084 47.0192C28.084 46.6089 28.084 46.1241 28.084 45.5646V43.3827H33.4549V46.4597C33.5295 46.9446 33.7346 47.4854 34.0703 48.0822C34.4433 48.7536 35.1146 49.0892 36.0844 49.0892C37.0541 49.0892 37.7441 48.7536 38.1544 48.0822C38.5647 47.4108 38.7698 46.5716 38.7698 45.5646V39.8021C38.7325 39.0934 38.5833 38.5526 38.3222 38.1796C38.0985 37.8067 37.8187 37.5455 37.483 37.3963C37.1474 37.2098 36.793 37.1166 36.42 37.1166C36.0471 37.0793 35.7114 37.0606 35.413 37.0606H34.4619V32.3051H35.413C37.6509 32.3051 38.7698 31.2609 38.7698 29.1722V24.6964C38.7698 24.2488 38.7325 23.8759 38.6579 23.5775C38.6579 23.4656 38.602 23.2977 38.4901 23.0739C38.3782 22.8502 38.2104 22.6264 37.9866 22.4026C37.8001 22.1788 37.5576 21.9923 37.2593 21.8431C36.9609 21.6939 36.6065 21.6193 36.1963 21.6193C35.2638 21.6193 34.5738 21.9177 34.1262 22.5145C33.6787 23.074 33.4549 23.8013 33.4549 24.6964V27.4378H28.084V24.6964C28.084 22.3467 28.8486 20.3699 30.3778 18.766C31.8697 17.1622 33.8092 16.3604 36.1963 16.3604C37.5017 16.3604 38.7512 16.6961 39.9447 17.3674C41.1755 18.0388 42.0707 18.822 42.6301 19.7171C43.2269 20.6123 43.6185 21.4515 43.805 22.2348C43.9915 23.018 44.0848 23.8386 44.0848 24.6964V29.0603C44.0848 31.4846 43.0218 33.3309 40.8958 34.599C42.0893 35.4568 42.9099 36.3147 43.3574 37.1726C43.8423 37.9931 44.0848 39.112 44.0848 40.5294L44.0848 45.5646Z" fill="white"/>
<path d="M96.9733 83.0038C69.9848 82.7507 42.8168 95.125 27 118.499C57.6751 163.832 131.045 167.794 163 118.499C147.522 94.6225 122.326 83.2416 96.9733 83.0038ZM95.4201 89.7872C96.854 89.7877 98.2604 89.8703 98.8904 90.0376C99.4389 90.183 100.449 90.3948 101.135 90.5066C102.654 90.754 104.889 91.4281 105.785 91.9109C106.149 92.107 106.635 92.2693 106.864 92.2693C107.093 92.2693 107.447 92.4382 107.653 92.6449C107.859 92.8517 108.243 93.0206 108.508 93.0206C108.772 93.0206 108.989 93.1346 108.989 93.2759C108.989 93.4172 109.272 93.6419 109.619 93.7743C109.965 93.9067 110.386 94.1336 110.554 94.2776C110.722 94.4216 111.455 94.9783 112.186 95.5149C113.501 96.4815 116.967 99.6756 116.967 99.9218C116.967 99.9922 117.527 100.766 118.213 101.643C118.899 102.52 119.461 103.355 119.461 103.499C119.461 103.643 119.6 103.914 119.771 104.098C120.723 105.121 122.702 110.344 122.702 111.834C122.702 113.562 121.216 114.13 120.12 112.821C118.512 110.9 116.962 113 118.362 115.202C118.609 115.591 118.613 115.789 118.384 116.089C118.006 116.582 116.09 117.584 115.519 117.584C114.842 117.584 113.81 118.95 113.629 120.09C113.442 121.267 113.8 122.89 114.349 123.348C114.696 123.637 114.889 124.851 114.589 124.851C114.389 124.851 112.992 123.828 112.049 122.99C111.306 122.33 110.919 121.661 109.856 119.211C109.676 118.798 109.466 118.17 109.389 117.814C109.146 116.686 108.136 115.828 107.052 115.828C105.54 115.828 105.147 116.272 105.108 118.021C105.085 119.054 104.928 119.719 104.6 120.171C104.032 120.954 103.976 120.964 103.303 120.402C102.109 119.404 101.642 119.086 101.364 119.086C101.203 119.086 100.932 118.917 100.761 118.711C100.59 118.504 100.157 118.328 99.7964 118.32C98.4965 118.291 96.9401 117.28 96.3408 116.076C96.0325 115.457 95.778 114.837 95.7766 114.697C95.7741 114.473 93.4991 112.821 93.1928 112.821C93.128 112.821 92.4919 112.434 91.7788 111.962C90.3042 110.985 89.7908 111.032 89.7908 112.141C89.7908 112.776 90.1389 113.248 91.769 114.824C93.9442 116.927 94.3683 117.792 93.6275 118.615C93.1968 119.093 91.7523 119.837 91.2537 119.837C91.1317 119.837 90.1949 118.984 89.173 117.94C87.7624 116.498 87.178 116.061 86.7454 116.123C86.3275 116.183 86.1534 116.395 86.0934 116.923C86.0484 117.319 86.1335 117.764 86.2814 117.913C86.4293 118.061 86.5501 118.383 86.5501 118.625C86.5501 119.418 88.6921 122.094 89.3268 122.094C89.4428 122.094 89.8257 122.344 90.1767 122.651C91.018 123.386 90.8335 124.099 89.4367 125.523C88.3914 126.589 88.3614 126.665 88.2278 128.624C88.1526 129.729 87.9808 130.77 87.8469 130.937C87.713 131.104 87.5327 131.582 87.4439 131.995C87.3551 132.409 86.9497 133.129 86.5427 133.596C86.1173 134.084 85.8028 134.728 85.8028 135.113C85.8028 135.482 85.6378 136.002 85.4364 136.269C85.2351 136.537 85.0647 136.892 85.0603 137.057C85.0503 137.443 83.956 138.636 83.6121 138.636C83.4679 138.636 83.3071 138.763 83.2556 138.918C83.2039 139.074 82.5984 139.255 81.9099 139.321C80.7753 139.431 80.6206 139.383 80.2395 138.798V138.796C79.956 138.361 79.817 137.63 79.817 136.552C79.817 135.201 79.7213 134.839 79.1893 134.224C78.843 133.824 78.5046 133.243 78.4396 132.933C78.3746 132.623 78.2615 132.079 78.188 131.725C78.0979 131.291 77.7746 130.966 77.1916 130.721C76.7166 130.521 76.3271 130.256 76.3271 130.132C76.3271 130.007 75.8733 129.428 75.3185 128.848C74.3469 127.831 74.2668 127.798 73.1547 127.952C72.5197 128.039 71.8158 128.281 71.5893 128.487C71.3628 128.693 70.7934 128.858 70.3242 128.855C69.6002 128.85 69.4051 128.714 69.0348 127.966C68.7948 127.482 68.5976 126.869 68.5976 126.604C68.5976 126.338 68.4393 125.75 68.2459 125.298C67.7864 124.222 67.3387 121.296 67.1885 118.396C67.0712 116.132 67.0864 116.05 67.8332 114.937C68.254 114.31 68.5976 113.7 68.5976 113.579C68.5976 113.329 70.3421 112.68 70.7174 112.791C70.8546 112.832 71.6015 112.967 72.3757 113.093C73.1498 113.219 74.1016 113.492 74.493 113.697C74.8845 113.903 75.3741 114.075 75.5798 114.08C75.7855 114.085 76.1708 114.254 76.437 114.456C76.7032 114.658 77.1737 114.824 77.4823 114.824C77.7908 114.824 78.1025 114.924 78.1758 115.043C78.2491 115.162 78.7239 115.326 79.2309 115.409C80.8442 115.672 83.0472 114.295 83.0553 113.017C83.0603 112.065 82.1774 111.316 81.0478 111.316C80.5345 111.316 79.9902 111.15 79.817 110.94C79.6463 110.733 79.1089 110.565 78.6203 110.565C78.0648 110.565 77.5258 110.369 77.1819 110.044C76.4534 109.356 74.5786 109.259 73.902 109.875C73.6374 110.116 73.1711 110.314 72.8665 110.314C72.562 110.314 72.0109 110.469 71.6406 110.658C71.2703 110.847 70.4264 111.079 69.765 111.176L68.561 111.353L68.6416 110.646C68.7135 110.015 68.8447 109.921 69.8456 109.781C72.0321 109.476 73.2034 108.971 73.2939 108.299C73.3659 107.763 73.6279 107.457 74.957 106.357C75.0942 106.243 75.8071 105.952 76.542 105.711C77.7913 105.3 77.9838 105.299 79.4897 105.679C81.4463 106.172 82.3348 106.009 83.4216 104.962C83.8727 104.528 84.5363 103.919 84.8967 103.609C85.6503 102.963 85.6993 102.728 85.1751 102.291C84.5457 101.766 83.0686 102.17 82.225 103.099C81.5806 103.808 81.3175 103.919 80.3347 103.904C78.9643 103.884 77.1342 103.125 76.9352 102.495C76.5817 101.375 78.5762 100.413 81.7121 100.192C83.053 100.097 84.2699 99.9237 84.4156 99.804C84.7832 99.5019 88.0492 99.176 88.0349 99.4431C88.0287 99.5626 87.5514 99.8946 86.975 100.18C86.0487 100.638 85.9273 100.797 85.9273 101.554C85.9273 102.181 86.0473 102.436 86.3767 102.5C86.9042 102.602 88.841 101.738 89.9227 100.919C90.3385 100.604 90.8902 100.304 91.1487 100.253C91.4072 100.203 91.728 99.832 91.8618 99.4283C92.0809 98.7673 92.023 98.6193 91.261 97.943C90.0741 96.8896 89.5461 96.0261 89.5442 95.1344C89.5404 93.5637 89.2014 93.4115 85.3851 93.2513C83.4885 93.1718 82.175 93.0862 82.4667 93.0623C82.7585 93.0385 83.1386 92.8492 83.3093 92.6425C83.48 92.4357 83.8082 92.2669 84.0395 92.2669C84.2708 92.2669 84.6769 92.101 84.9431 91.8986C85.2093 91.6962 85.6347 91.5274 85.8882 91.523C86.1418 91.5179 86.7041 91.3498 87.1362 91.1473C87.5683 90.9448 88.5384 90.6686 89.2926 90.5336C90.0468 90.3985 91.169 90.1742 91.7861 90.0352C92.5258 89.8686 93.9861 89.7868 95.4201 89.7872ZM75.509 98.0314C76.4163 98.0314 76.2635 99.1189 75.2452 99.8997C74.2986 100.626 73.3354 100.746 73.3354 100.14C73.3354 99.5204 74.8699 98.0314 75.509 98.0314ZM73.206 102.824C73.3435 102.813 73.4794 102.815 73.6114 102.834C74.1546 102.911 74.04 103.081 72.3781 104.675C70.4111 106.562 70.0964 106.779 70.0898 106.261C70.0885 106.077 70.3406 105.411 70.6515 104.78C71.1909 103.687 72.2438 102.902 73.206 102.824ZM122.509 115.362C122.638 115.393 122.812 115.535 123.036 115.784C123.609 116.42 123.658 122.595 123.09 122.595C122.892 122.595 122.643 122.453 122.536 122.28C121.417 120.487 121.106 118.39 121.82 117.441C122.021 117.174 122.189 116.588 122.194 116.14C122.199 115.564 122.293 115.31 122.509 115.362ZM101.882 121.342C102.088 121.342 102.256 121.386 102.256 121.441C102.256 121.495 102.088 121.604 101.882 121.684C101.676 121.763 101.508 121.717 101.508 121.583C101.508 121.45 101.676 121.342 101.882 121.342ZM117.573 124.227C117.655 124.215 117.749 124.224 117.847 124.262C118.047 124.339 118.147 124.502 118.071 124.625C117.91 124.888 117.615 124.918 117.39 124.691C117.191 124.491 117.328 124.264 117.573 124.227ZM91.41 126.103C91.6828 126.103 91.5097 127.275 91.1316 127.983C90.9109 128.397 90.6404 129.016 90.5308 129.361C90.3795 129.837 90.3273 129.643 90.311 128.548C90.2943 127.422 90.3977 126.995 90.7872 126.604C91.0615 126.328 91.3414 126.103 91.41 126.103ZM120.596 126.147C120.881 126.186 121.108 126.535 121.351 127.24C121.65 128.106 121.643 128.345 121.3 129.11C120.587 130.698 119.932 131.983 119.446 132.746C119.183 133.16 118.861 133.74 118.731 134.035C118.6 134.331 118.403 134.612 118.291 134.661C118.179 134.71 117.764 135.229 117.368 135.815C116.972 136.401 116.553 136.881 116.435 136.881C116.317 136.881 116.218 137.05 116.218 137.256C116.218 137.463 116.023 137.643 115.783 137.657C113.221 137.796 112.751 137.747 112.64 137.32C112.5 136.783 111.65 136.746 111.143 137.256C110.937 137.463 110.479 137.632 110.127 137.632C109.59 137.632 109.487 137.519 109.487 136.93C109.487 136.543 109.322 136.007 109.121 135.739C108.9 135.446 108.752 134.677 108.747 133.804C108.738 132.258 109.32 131.001 110.515 129.987C111.08 129.507 114.225 128.349 114.938 128.357C115.807 128.365 119.237 127.043 120.005 126.402C120.234 126.212 120.426 126.124 120.596 126.147ZM110.625 140.669C110.989 140.695 111.246 140.818 111.336 141.052C111.422 141.278 111.464 141.477 111.426 141.491C111.389 141.506 111.131 141.663 110.857 141.84C110.583 142.017 110.052 142.296 109.675 142.459C109.298 142.622 108.989 142.833 108.989 142.93C108.989 143.027 108.66 143.18 108.259 143.269C107.857 143.358 107.394 143.591 107.23 143.789C107.067 143.987 106.771 144.15 106.573 144.15C106.376 144.15 105.967 144.286 105.667 144.455C105.006 144.827 103.464 145.296 101.135 145.829C99.2064 146.271 92.2318 146.519 91.4124 146.176H91.41C91.1358 146.061 90.2959 145.883 89.5417 145.78C88.0617 145.578 87.8064 145.373 87.8005 144.386C87.7967 143.688 89.1804 142.144 89.8104 142.144C90.0133 142.144 90.4297 141.967 90.736 141.752C91.7964 141.005 97.2714 141.509 99.3471 142.545C99.7353 142.738 100.274 142.896 100.544 142.896C100.814 142.896 101.338 143.051 101.709 143.239C102.574 143.679 104.014 143.912 104.527 143.694C104.747 143.6 105.448 143.08 106.087 142.54C107.474 141.367 109.532 140.589 110.625 140.669Z" fill="white"/>
</svg>
