<svg width="187" height="186" viewBox="0 0 187 186" fill="none" xmlns="http://www.w3.org/2000/svg">
<path fill-rule="evenodd" clip-rule="evenodd" d="M1.044 0H185.956C186.534 0 187 0.462348 187 1.03668V184.963C187 185.538 186.534 186 185.956 186H1.044C0.465644 186 0 185.538 0 184.963V1.03668C0 0.462348 0.465644 0 1.044 0Z" fill="#F99D26"/>
<path d="M53.9633 27.5941C53.9633 27.75 53.9633 27.8825 53.9633 27.9916C53.9633 28.1007 53.9711 28.1943 53.9867 28.2722C54.0179 28.4281 54.1348 28.654 54.3375 28.9502C54.5557 29.2619 54.9453 29.4178 55.5064 29.4178C55.8182 29.4178 56.1066 29.3555 56.3715 29.2308C56.6365 29.0905 56.8314 28.9113 56.9561 28.693C57.0496 28.5216 57.1042 28.3579 57.1197 28.202C57.1509 28.0462 57.1665 27.9059 57.1665 27.7812V27.5707V26.4718V26.2614C57.1665 25.9185 57.1042 25.6535 56.9795 25.4665C56.8548 25.2638 56.5741 25.0378 56.1377 24.7884C55.8415 24.6326 55.3116 24.4143 54.5478 24.1338C53.7841 23.8532 53.145 23.409 52.6306 22.8011C52.1162 22.1932 51.8591 21.3671 51.8591 20.3227V19.6213C51.8591 18.5458 52.2175 17.6262 52.9345 16.8624C53.6672 16.083 54.5556 15.6934 55.5999 15.6934C56.691 15.6934 57.5951 16.0752 58.3121 16.839C59.0447 17.6028 59.411 18.5302 59.411 19.6213V20.3227H57.1665V19.6213C57.1665 19.5122 57.1587 19.4109 57.1431 19.3173C57.1431 19.2238 57.1352 19.1381 57.1196 19.0602C57.104 18.9823 57.0651 18.8887 57.0028 18.7796C56.9404 18.6705 56.8547 18.538 56.7456 18.3821C56.5274 18.0704 56.161 17.9145 55.6466 17.9145C55.1946 17.9145 54.8205 18.0782 54.5244 18.4055C54.2438 18.7328 54.1035 19.1381 54.1035 19.6213V20.3227V20.5331C54.1035 20.8449 54.1503 21.0943 54.2438 21.2813C54.3529 21.4528 54.6023 21.6476 54.992 21.8658C55.1167 21.9282 55.3038 22.014 55.5532 22.1231C55.8181 22.2166 56.1377 22.3335 56.5117 22.4738C57.2599 22.7232 57.9302 23.1674 58.5225 23.8065C59.1148 24.4455 59.411 25.2872 59.411 26.3316V27.5941C59.411 28.1397 59.3564 28.5995 59.2473 28.9736C59.1538 29.3477 58.8343 29.8932 58.2887 30.6103C57.7432 31.2961 56.8313 31.639 55.5532 31.639C54.1971 31.639 53.2151 31.2026 52.6072 30.3297C51.9993 29.4412 51.6953 28.5293 51.6953 27.5941V27.033H53.9632L53.9633 27.5941Z" fill="white"/>
<path d="M67.717 29.8618C67.3741 30.3917 66.9298 30.8204 66.3843 31.1477C65.8543 31.475 65.262 31.6387 64.6074 31.6387C64.28 31.6387 63.9527 31.5919 63.6254 31.4984C63.3136 31.4049 63.0175 31.288 62.7369 31.1477C62.4563 30.9918 62.2069 30.8204 61.9887 30.6333C61.7705 30.4307 61.6068 30.2203 61.4977 30.0021C61.2639 29.5656 61.108 29.1837 61.0301 28.8564C60.9677 28.5291 60.9365 28.1784 60.9365 27.8043V15.8334H63.1811V27.8043C63.1811 27.9134 63.1811 28.0147 63.1811 28.1082C63.1967 28.1861 63.2122 28.2641 63.2278 28.342C63.2434 28.4667 63.3603 28.6849 63.5785 28.9967C63.7812 29.2772 64.1318 29.4175 64.6306 29.4175C65.0826 29.4175 65.4178 29.2539 65.636 28.9265C65.8698 28.5836 65.9867 28.2095 65.9867 27.8043V15.8334H68.2313V27.8043C68.2313 28.1784 68.1923 28.5369 68.1144 28.8798C68.0365 29.2227 67.904 29.55 67.7169 29.8618H67.717Z" fill="white"/>
<path d="M71.5209 27.5941C71.5209 27.75 71.5209 27.8825 71.5209 27.9916C71.5209 28.1007 71.5286 28.1943 71.5443 28.2722C71.5754 28.4281 71.6923 28.654 71.895 28.9502C72.1132 29.2619 72.5029 29.4178 73.0641 29.4178C73.3758 29.4178 73.6642 29.3555 73.9292 29.2308C74.1941 29.0905 74.389 28.9113 74.5137 28.693C74.6072 28.5216 74.6617 28.3579 74.6773 28.202C74.7084 28.0462 74.7241 27.9059 74.7241 27.7812V27.5707V26.4718V26.2614C74.7241 25.9185 74.6617 25.6535 74.537 25.4665C74.4123 25.2638 74.1317 25.0378 73.6953 24.7884C73.3991 24.6326 72.8692 24.4143 72.1054 24.1338C71.3416 23.8532 70.7026 23.409 70.1882 22.8011C69.6738 22.1932 69.4166 21.3671 69.4166 20.3227V19.6213C69.4166 18.5458 69.7751 17.6262 70.4921 16.8624C71.2247 16.083 72.1132 15.6934 73.1576 15.6934C74.2487 15.6934 75.1526 16.0752 75.8697 16.839C76.6023 17.6028 76.9686 18.5302 76.9686 19.6213V20.3227H74.7241V19.6213C74.7241 19.5122 74.7162 19.4109 74.7006 19.3173C74.7006 19.2238 74.6928 19.1381 74.6772 19.0602C74.6616 18.9823 74.6226 18.8887 74.5603 18.7796C74.4979 18.6705 74.4122 18.538 74.3031 18.3821C74.0849 18.0704 73.7186 17.9145 73.2043 17.9145C72.7522 17.9145 72.3781 18.0782 72.082 18.4055C71.8014 18.7328 71.6611 19.1381 71.6611 19.6213V20.3227V20.5331C71.6611 20.8449 71.7079 21.0943 71.8014 21.2813C71.9105 21.4528 72.1599 21.6476 72.5496 21.8658C72.6743 21.9282 72.8613 22.014 73.1107 22.1231C73.3757 22.2166 73.6953 22.3335 74.0694 22.4738C74.8175 22.7232 75.4878 23.1674 76.0801 23.8065C76.6724 24.4455 76.9685 25.2872 76.9685 26.3316V27.5941C76.9685 28.1397 76.914 28.5995 76.8049 28.9736C76.7113 29.3477 76.3918 29.8932 75.8463 30.6103C75.3007 31.2961 74.3888 31.639 73.1107 31.639C71.7546 31.639 70.7726 31.2026 70.1647 30.3297C69.5568 29.4412 69.2529 28.5293 69.2529 27.5941V27.033H71.5209V27.5941Z" fill="white"/>
<path d="M79.9906 31.4986V17.9144H77.3486V15.8335H84.9006V17.9144H82.2118V31.4986H79.9906Z" fill="white"/>
<path d="M83.752 31.4986L87.259 15.8335H89.1996L92.7067 31.4986H90.2985L89.6673 28.1318H86.768L86.1134 31.4986H83.752ZM87.1655 26.0509H89.2698L88.2176 20.346L87.1655 26.0509Z" fill="white"/>
<path d="M93.8477 31.4984V15.8334H96.0689V31.4984H93.8477Z" fill="white"/>
<path d="M103.477 31.4986L99.9936 21.9826V31.4986H97.749V15.8335H99.8767L103.337 25.326V15.8335H105.582V31.4986H103.477Z" fill="white"/>
<path d="M105.923 31.4984L109.43 15.8334H111.371L114.878 31.4984H112.469L111.838 28.1316H108.939L108.284 31.4984H105.923ZM109.336 26.0507H111.441L110.389 20.3458L109.336 26.0507Z" fill="white"/>
<path d="M119.412 15.8335C119.895 15.8335 120.347 15.9348 120.768 16.1374C121.236 16.3556 121.711 16.7064 122.194 17.1895C122.709 17.6883 122.966 18.4677 122.966 19.5276V20.72C122.966 21.9202 122.49 22.762 121.54 23.2452C122.49 23.8063 122.966 24.6792 122.966 25.8638V27.6875C122.966 28.7942 122.607 29.706 121.89 30.423C121.189 31.14 120.285 31.4986 119.178 31.4986H115.718V15.8335H119.412ZM120.745 20.4863V19.5276C120.745 19.0444 120.604 18.6625 120.324 18.382C120.043 18.0858 119.669 17.9378 119.202 17.9378H117.939V22.2632H119.272C119.786 22.2632 120.16 22.1073 120.394 21.7956C120.628 21.4682 120.745 21.0318 120.745 20.4863ZM120.745 27.6875V25.8638C120.745 25.365 120.604 24.9753 120.324 24.6948C120.059 24.3986 119.685 24.2506 119.202 24.2506H117.939V29.2774H119.225C119.677 29.2774 120.043 29.1293 120.324 28.8332C120.604 28.5214 120.745 28.1395 120.745 27.6875Z" fill="white"/>
<path d="M130.821 31.4986H124.134V15.8335H126.378V29.254H130.821V31.4986Z" fill="white"/>
<path d="M138.163 29.254V31.4986H131.453V15.8335H138.163V17.891H133.674V22.5204H137.602V24.648H133.674V29.254H138.163Z" fill="white"/>
<path d="M148.306 27.5474C148.306 28.0462 148.275 28.4748 148.212 28.8333C148.165 29.1918 148.01 29.5815 147.745 30.0023C147.604 30.2206 147.425 30.431 147.207 30.6336C147.004 30.8207 146.77 30.9921 146.505 31.148C146.256 31.2883 145.983 31.4052 145.687 31.4987C145.391 31.5922 145.103 31.639 144.822 31.639C144.121 31.639 143.481 31.4909 142.905 31.1947C142.344 30.8986 141.931 30.5245 141.666 30.0725C141.401 29.6204 141.229 29.1996 141.151 28.8099C141.089 28.4202 141.058 27.9994 141.058 27.5474V19.481C141.058 19.0446 141.097 18.6549 141.174 18.312C141.268 17.9535 141.455 17.5716 141.736 17.1663C142.016 16.7611 142.414 16.4181 142.928 16.1376C143.442 15.8414 143.98 15.6934 144.541 15.6934C145.617 15.6934 146.513 16.0518 147.23 16.7688C147.947 17.4703 148.306 18.3743 148.306 19.481V20.3227H146.084V19.481C146.084 19.0446 145.96 18.6783 145.71 18.3821C145.476 18.086 145.126 17.9379 144.658 17.9379C144.222 17.9379 143.879 18.086 143.629 18.3821C143.396 18.6783 143.279 19.0446 143.279 19.481V28.1553C143.31 28.3891 143.419 28.654 143.606 28.9502C143.824 29.2619 144.183 29.4178 144.682 29.4178C145.212 29.4178 145.562 29.2775 145.734 28.997C145.905 28.7164 146.006 28.5138 146.038 28.3891C146.069 28.2488 146.084 28.0617 146.084 27.8279V27.033H148.306L148.306 27.5474Z" fill="white"/>
<path d="M149.635 31.4984V15.8334H151.856V31.4984H149.635Z" fill="white"/>
<path d="M155.487 31.4986V17.9144H152.845V15.8335H160.397V17.9144H157.708V31.4986H155.487Z" fill="white"/>
<path d="M161.346 31.4986V15.8335H163.567V31.4986H161.346Z" fill="white"/>
<path d="M171.503 29.254V31.4986H164.793V15.8335H171.503V17.891H167.014V22.5204H170.942V24.648H167.014V29.254H171.503Z" fill="white"/>
<path d="M174.464 27.5941C174.464 27.75 174.464 27.8825 174.464 27.9916C174.464 28.1007 174.472 28.1943 174.488 28.2722C174.519 28.4281 174.636 28.654 174.838 28.9502C175.057 29.2619 175.446 29.4178 176.007 29.4178C176.319 29.4178 176.608 29.3555 176.873 29.2308C177.137 29.0905 177.332 28.9113 177.457 28.693C177.551 28.5216 177.605 28.3579 177.621 28.202C177.652 28.0462 177.667 27.9059 177.667 27.7812V27.5707V26.4718V26.2614C177.667 25.9185 177.605 25.6535 177.48 25.4665C177.356 25.2638 177.075 25.0378 176.639 24.7884C176.342 24.6326 175.813 24.4143 175.049 24.1338C174.285 23.8532 173.646 23.409 173.132 22.8011C172.617 22.1932 172.36 21.3671 172.36 20.3227V19.6213C172.36 18.5458 172.719 17.6262 173.436 16.8624C174.168 16.083 175.057 15.6934 176.101 15.6934C177.192 15.6934 178.096 16.0752 178.813 16.839C179.546 17.6028 179.912 18.5302 179.912 19.6213V20.3227H177.667V19.6213C177.667 19.5122 177.66 19.4109 177.644 19.3173C177.644 19.2238 177.636 19.1381 177.621 19.0602C177.605 18.9823 177.566 18.8887 177.504 18.7796C177.441 18.6705 177.356 18.538 177.247 18.3821C177.028 18.0704 176.662 17.9145 176.148 17.9145C175.696 17.9145 175.322 18.0782 175.025 18.4055C174.745 18.7328 174.605 19.1381 174.605 19.6213V20.3227V20.5331C174.605 20.8449 174.651 21.0943 174.745 21.2813C174.854 21.4528 175.103 21.6476 175.493 21.8658C175.618 21.9282 175.805 22.014 176.054 22.1231C176.319 22.2166 176.639 22.3335 177.013 22.4738C177.761 22.7232 178.431 23.1674 179.023 23.8065C179.616 24.4455 179.912 25.2872 179.912 26.3316V27.5941C179.912 28.1397 179.857 28.5995 179.748 28.9736C179.655 29.3477 179.335 29.8932 178.79 30.6103C178.244 31.2961 177.332 31.639 176.054 31.639C174.698 31.639 173.716 31.2026 173.108 30.3297C172.5 29.4412 172.196 28.5293 172.196 27.5941V27.033H174.464L174.464 27.5941Z" fill="white"/>
<path d="M51.7158 53.1011L55.2229 37.436H57.1636L60.6707 53.1011H58.2624L57.6311 49.7343H54.732L54.0773 53.1011H51.7158ZM55.1294 47.6534H57.2337L56.1816 41.9485L55.1294 47.6534Z" fill="white"/>
<path d="M67.24 53.1011L63.7563 43.5852V53.1011H61.5117V37.436H63.6393L67.0997 46.9286V37.436H69.3442V53.1011H67.24Z" fill="white"/>
<path d="M74.2795 37.436C75.2926 37.436 76.1577 37.7945 76.8747 38.5116C77.6073 39.213 77.9736 40.0703 77.9736 41.0834V49.2199C77.9736 50.3734 77.6229 51.3086 76.9215 52.0256C76.22 52.7426 75.316 53.1011 74.2093 53.1011H70.7256V37.436H74.2795ZM75.7524 49.2199V41.0834C75.7524 40.647 75.5888 40.2807 75.2615 39.9845C74.9497 39.6884 74.5678 39.5403 74.1158 39.5403H72.9467V51.0202H74.0457C75.1835 51.0202 75.7524 50.4202 75.7524 49.2199Z" fill="white"/>
<path d="M89.0655 49.15C89.0655 49.6488 89.0343 50.0775 88.9719 50.436C88.9252 50.7945 88.7693 51.1842 88.5044 51.605C88.3641 51.8232 88.1848 52.0337 87.9665 52.2363C87.7639 52.4233 87.5301 52.5948 87.2651 52.7507C87.0157 52.891 86.743 53.0079 86.4468 53.1014C86.1507 53.1949 85.8623 53.2417 85.5817 53.2417C84.8803 53.2417 84.2413 53.0936 83.6645 52.7974C83.1034 52.5013 82.6904 52.1272 82.4254 51.6751C82.1604 51.2231 81.9889 50.8023 81.911 50.4126C81.8486 50.0229 81.8174 49.6021 81.8174 49.15V41.0837C81.8174 40.6473 81.8564 40.2576 81.9343 39.9146C82.0278 39.5561 82.2148 39.1743 82.4954 38.769C82.776 38.3637 83.1735 38.0208 83.6879 37.7402C84.2022 37.4441 84.7399 37.296 85.3011 37.296C86.3766 37.296 87.2729 37.6545 87.9899 38.3715C88.7069 39.0729 89.0654 39.977 89.0654 41.0837V41.9254H86.8442V41.0837C86.8442 40.6473 86.7195 40.2809 86.4701 39.9848C86.2363 39.6886 85.8856 39.5406 85.418 39.5406C84.9815 39.5406 84.6387 39.6886 84.3893 39.9848C84.1555 40.2809 84.0385 40.6473 84.0385 41.0837V49.7579C84.0697 49.9917 84.1788 50.2567 84.3659 50.5529C84.5841 50.8646 84.9426 51.0205 85.4414 51.0205C85.9713 51.0205 86.3221 50.8802 86.4935 50.5996C86.665 50.3191 86.7662 50.1164 86.7974 49.9917C86.8286 49.8515 86.8442 49.6644 86.8442 49.4306V48.6357H89.0653L89.0655 49.15Z" fill="white"/>
<path d="M91.2113 38.9092C91.5698 38.4104 92.0218 38.0207 92.5674 37.7401C93.1285 37.444 93.7052 37.2959 94.2975 37.2959C94.8743 37.2959 95.412 37.4128 95.9108 37.6466C96.4251 37.8804 96.8538 38.2 97.1967 38.6052C97.5396 39.0105 97.7734 39.4313 97.8981 39.8678C98.0228 40.2886 98.0852 40.7485 98.0852 41.2473V49.2201C98.0852 49.6877 98.0384 50.1007 97.9449 50.4593C97.867 50.8178 97.68 51.2153 97.3838 51.6517C97.1032 52.0881 96.6902 52.4622 96.1446 52.774C95.6147 53.0857 95.0223 53.2416 94.3677 53.2416C93.9936 53.2416 93.6351 53.1948 93.2922 53.1013C92.9493 52.9922 92.6297 52.8519 92.3336 52.6804C92.0374 52.509 91.7724 52.3141 91.5386 52.0959C91.3204 51.8777 91.1489 51.6517 91.0242 51.4179C90.7904 50.9347 90.6501 50.545 90.6034 50.2488C90.5566 49.9527 90.5332 49.6098 90.5332 49.2201V41.2473C90.5332 40.7797 90.58 40.3666 90.6735 40.0081C90.7826 39.634 90.9619 39.2677 91.2113 38.9092ZM95.5601 40.1484C95.2639 39.7119 94.8586 39.4937 94.3443 39.4937C94.0793 39.4937 93.8143 39.5716 93.5493 39.7275C93.2999 39.8678 93.1207 40.0315 93.0116 40.2185C92.9181 40.4055 92.8557 40.5926 92.8245 40.7796C92.7934 40.9667 92.7778 41.1226 92.7778 41.2473V49.2201C92.7778 49.298 92.7778 49.3837 92.7778 49.4773C92.7778 49.5552 92.7856 49.6409 92.8012 49.7345C92.8168 49.8904 92.9416 50.1475 93.1754 50.506C93.4092 50.8334 93.7989 50.997 94.3444 50.997C94.625 50.997 94.8743 50.9347 95.0925 50.81C95.3263 50.6697 95.49 50.5138 95.5836 50.3424C95.6927 50.1553 95.7628 49.9838 95.794 49.828C95.8251 49.6721 95.8407 49.4695 95.8407 49.2201V41.2473C95.8407 40.9355 95.8251 40.7173 95.794 40.5926C95.7783 40.4679 95.7004 40.3198 95.5602 40.1484H95.5601Z" fill="white"/>
<path d="M106.803 53.1011V43.5618L104.559 50.2487H103.436L101.215 43.5618V53.1011H98.9707V37.436H101.075L104.044 45.783L106.967 37.436H109.024V53.1011H106.803Z" fill="white"/>
<path d="M117.755 53.1011V43.5618L115.511 50.2487H114.389L112.167 43.5618V53.1011H109.923V37.436H112.027L114.996 45.783L117.919 37.436H119.977V53.1011H117.755Z" fill="white"/>
<path d="M128.414 51.4645C128.071 51.9944 127.627 52.4231 127.082 52.7504C126.552 53.0778 125.959 53.2414 125.305 53.2414C124.977 53.2414 124.65 53.1947 124.323 53.1011C124.011 53.0076 123.715 52.8907 123.434 52.7504C123.154 52.5946 122.904 52.4231 122.686 52.236C122.468 52.0334 122.304 51.823 122.195 51.6048C121.961 51.1683 121.805 50.7864 121.727 50.4591C121.665 50.1318 121.634 49.7811 121.634 49.407V37.436H123.878V49.407C123.878 49.5161 123.878 49.6174 123.878 49.7109C123.894 49.7888 123.91 49.8668 123.925 49.9448C123.941 50.0694 124.058 50.2876 124.276 50.5994C124.478 50.88 124.829 51.0202 125.328 51.0202C125.78 51.0202 126.115 50.8566 126.333 50.5292C126.567 50.1863 126.684 49.8122 126.684 49.407V37.436H128.929V49.407C128.929 49.7811 128.89 50.1396 128.812 50.4825C128.734 50.8254 128.601 51.1527 128.414 51.4645H128.414Z" fill="white"/>
<path d="M135.983 53.1011L132.499 43.5852V53.1011H130.255V37.436H132.383L135.843 46.9286V37.436H138.087V53.1011H135.983Z" fill="white"/>
<path d="M139.318 53.1011V37.436H141.54V53.1011H139.318Z" fill="white"/>
<path d="M145.624 53.1011V39.5169H142.982V37.436H150.534V39.5169H147.846V53.1011H145.624Z" fill="white"/>
<path d="M151.03 53.1011V37.436H153.251V53.1011H151.03Z" fill="white"/>
<path d="M161.338 50.8566V53.1011H154.628V37.436H161.338V39.4935H156.849V44.1229H160.777V46.2506H156.849V50.8566H161.338Z" fill="white"/>
<path d="M163.997 49.1967C163.997 49.3526 163.997 49.4851 163.997 49.5942C163.997 49.7033 164.005 49.7968 164.021 49.8748C164.052 50.0306 164.169 50.2566 164.372 50.5528C164.59 50.8645 164.979 51.0204 165.541 51.0204C165.852 51.0204 166.141 50.9581 166.406 50.8334C166.671 50.6931 166.866 50.5138 166.99 50.2956C167.084 50.1242 167.138 49.9605 167.154 49.8046C167.185 49.6487 167.201 49.5085 167.201 49.3838V49.1733V48.0744V47.864C167.201 47.5211 167.138 47.2561 167.014 47.069C166.889 46.8664 166.608 46.6404 166.172 46.391C165.876 46.2351 165.346 46.0169 164.582 45.7364C163.818 45.4558 163.179 45.0116 162.665 44.4037C162.15 43.7958 161.893 42.9696 161.893 41.9253V41.2239C161.893 40.1484 162.252 39.2287 162.969 38.465C163.701 37.6856 164.59 37.2959 165.634 37.2959C166.725 37.2959 167.629 37.6778 168.346 38.4416C169.079 39.2053 169.445 40.1328 169.445 41.2239V41.9253H167.201V41.2239C167.201 41.1148 167.193 41.0134 167.177 40.9199C167.177 40.8264 167.169 40.7407 167.154 40.6627C167.138 40.5848 167.099 40.4913 167.037 40.3822C166.975 40.2731 166.889 40.1406 166.78 39.9847C166.561 39.6729 166.195 39.5171 165.681 39.5171C165.229 39.5171 164.855 39.6807 164.559 40.0081C164.278 40.3354 164.138 40.7407 164.138 41.2239V41.9253V42.1357C164.138 42.4475 164.184 42.6969 164.278 42.8839C164.387 43.0554 164.636 43.2502 165.026 43.4684C165.151 43.5308 165.338 43.6165 165.587 43.7256C165.852 43.8192 166.172 43.9361 166.546 44.0763C167.294 44.3257 167.964 44.77 168.557 45.409C169.149 46.0481 169.445 46.8898 169.445 47.9341V49.1967C169.445 49.7422 169.391 50.2021 169.281 50.5762C169.188 50.9503 168.868 51.4958 168.323 52.2128C167.777 52.8987 166.865 53.2416 165.587 53.2416C164.231 53.2416 163.249 52.8051 162.641 51.9323C162.033 51.0438 161.729 50.1319 161.729 49.1967V48.6356H163.997V49.1967Z" fill="white"/>
<path d="M19.1326 52.8163V20.9267L13.7617 24.9549V19.2483L19.1326 15.332H24.4476V52.8163H19.1326Z" fill="white"/>
<path d="M33.3445 52.8163V20.9267L27.9736 24.9549V19.2483L33.3445 15.332H38.6595V52.8163H33.3445Z" fill="white"/>
<path d="M47.85 122.396L61.0129 139.641C61.5024 140.283 61.3689 141.041 60.3229 141.041H33.4806C32.4347 141.041 32.3011 140.283 32.7906 139.641L45.9535 122.396C46.5911 121.561 47.2211 121.572 47.85 122.396ZM130.261 128.873H156.874C157.497 128.873 157.999 129.374 157.999 129.995V134.699C157.999 135.321 157.497 135.821 156.874 135.821H130.261C129.637 135.821 129.136 135.321 129.136 134.699V129.995C129.136 129.374 129.637 128.873 130.261 128.873ZM130.262 137.728C129.638 137.728 129.137 138.229 129.137 138.851V165.877C129.137 166.499 129.638 167 130.262 167H156.875C157.498 167 158 166.499 158 165.877V138.851C158 138.229 157.498 137.728 156.875 137.728H130.262ZM134.157 141.808H140.957C141.581 141.808 142.083 142.308 142.083 142.93V146.075C142.083 146.697 141.581 147.198 140.957 147.198H134.157C133.534 147.198 133.034 146.697 133.034 146.075V142.93C133.034 142.308 133.534 141.808 134.157 141.808ZM146.66 141.808H153.457C154.081 141.808 154.583 142.308 154.583 142.93V146.075C154.583 146.697 154.081 147.198 153.457 147.198H146.66C146.036 147.198 145.534 146.697 145.534 146.075V142.93C145.534 142.308 146.036 141.808 146.66 141.808ZM134.157 151.037H140.957C141.581 151.037 142.083 151.538 142.083 152.16V155.303C142.083 155.924 141.581 156.425 140.957 156.425H134.157C133.534 156.425 133.034 155.924 133.034 155.303V152.16C133.034 151.538 133.534 151.037 134.157 151.037ZM146.66 151.037H153.457C154.081 151.037 154.583 151.538 154.583 152.16V155.303C154.583 155.924 154.081 156.425 153.457 156.425H146.66C146.036 156.425 145.534 155.924 145.534 155.303V152.16C145.534 151.538 146.036 151.037 146.66 151.037ZM66.2959 73C65.6726 73 65.1707 73.5007 65.1707 74.1225V165.877C65.1707 166.499 65.6726 167 66.2959 167H92.2838C92.9071 167 93.409 166.499 93.409 165.877V74.1225C93.409 73.5007 92.9071 73 92.2838 73H66.2959ZM71.3729 85.8371H75.3418C75.9651 85.8371 76.467 86.3378 76.467 86.9596V91.7335C76.467 92.3553 75.9651 92.856 75.3418 92.856H71.3729C70.7495 92.856 70.2476 92.3553 70.2476 91.7335V86.9596C70.2476 86.3378 70.7495 85.8371 71.3729 85.8371ZM83.5002 85.8371H87.4691C88.0924 85.8371 88.5943 86.3378 88.5943 86.9596V91.7335C88.5943 92.3553 88.0924 92.856 87.4691 92.856H83.5002C82.8769 92.856 82.375 92.3553 82.375 91.7335V86.9596C82.375 86.3378 82.8769 85.8371 83.5002 85.8371ZM71.3729 101.724H75.3418C75.9651 101.724 76.467 102.225 76.467 102.846V107.62C76.467 108.242 75.9651 108.743 75.3418 108.743H71.3729C70.7495 108.743 70.2476 108.242 70.2476 107.62V102.846C70.2476 102.225 70.7495 101.724 71.3729 101.724ZM83.5002 101.724H87.4691C88.0924 101.724 88.5943 102.225 88.5943 102.846V107.62C88.5943 108.242 88.0924 108.743 87.4691 108.743H83.5002C82.8769 108.743 82.375 108.242 82.375 107.62V102.846C82.375 102.225 82.8769 101.724 83.5002 101.724ZM71.3729 117.611H75.3418C75.9651 117.611 76.467 118.111 76.467 118.733V123.507C76.467 124.129 75.9651 124.63 75.3418 124.63H71.3729C70.7495 124.63 70.2476 124.129 70.2476 123.507V118.733C70.2476 118.111 70.7495 117.611 71.3729 117.611ZM83.5002 117.611H87.4691C88.0924 117.611 88.5943 118.111 88.5943 118.733V123.507C88.5943 124.129 88.0924 124.63 87.4691 124.63H83.5002C82.8769 124.63 82.375 124.129 82.375 123.507V118.733C82.375 118.111 82.8769 117.611 83.5002 117.611ZM71.3729 133.497H75.3418C75.9651 133.497 76.467 133.998 76.467 134.62V139.394C76.467 140.016 75.9651 140.516 75.3418 140.516H71.3729C70.7495 140.516 70.2476 140.016 70.2476 139.394V134.62C70.2476 133.998 70.7495 133.497 71.3729 133.497ZM83.5002 133.497H87.4691C88.0924 133.497 88.5943 133.998 88.5943 134.62V139.394C88.5943 140.016 88.0924 140.516 87.4691 140.516H83.5002C82.8769 140.516 82.375 140.016 82.375 139.394V134.62C82.375 133.998 82.8769 133.497 83.5002 133.497ZM71.3729 149.384H75.3418C75.9651 149.384 76.467 149.885 76.467 150.507V155.283C76.467 155.905 75.9651 156.406 75.3418 156.406H71.3729C70.7495 156.406 70.2476 155.905 70.2476 155.283V150.507C70.2476 149.885 70.7495 149.384 71.3729 149.384ZM83.5002 149.384H87.4691C88.0924 149.384 88.5943 149.885 88.5943 150.507V155.283C88.5943 155.905 88.0924 156.406 87.4691 156.406H83.5002C82.8769 156.406 82.375 155.905 82.375 155.283V150.507C82.375 149.885 82.8769 149.384 83.5002 149.384ZM97.8412 125.686V165.877C97.8412 166.499 98.3431 167 98.9665 167H124.579C125.203 167 125.705 166.499 125.705 165.877V91.5819C125.705 90.96 124.88 90.0999 123.892 91.3481L98.8264 123.017C97.9713 124.098 97.8412 124.427 97.8412 125.686ZM121.861 100.545C122.316 100.543 122.393 101.632 122.393 102.098V108.86C122.393 109.482 121.891 109.983 121.267 109.983H116.031C115.364 109.983 114.228 109.7 114.906 108.86L121.267 100.975C121.515 100.669 121.709 100.546 121.861 100.545ZM114.469 113.822H121.267C121.891 113.822 122.393 114.323 122.393 114.945V118.088C122.393 118.709 121.891 119.21 121.267 119.21H114.469C113.846 119.21 113.344 118.709 113.344 118.088V114.945C113.344 114.323 113.846 113.822 114.469 113.822ZM109.334 116.305C109.781 116.212 109.89 117.231 109.89 117.943V127.569C109.89 128.191 109.388 128.692 108.765 128.692H102.32C101.697 128.692 100.752 128.198 101.195 127.569L108.765 116.821C108.997 116.491 109.185 116.335 109.334 116.305ZM114.469 123.023H121.267C121.891 123.023 122.393 123.523 122.393 124.145V127.29C122.393 127.912 121.891 128.413 121.267 128.413H114.469C113.846 128.413 113.344 127.912 113.344 127.29V124.145C113.344 123.523 113.846 123.023 114.469 123.023ZM102.32 132.253H108.765C109.388 132.253 109.89 132.753 109.89 133.375V136.52C109.89 137.142 109.388 137.643 108.765 137.643H102.32C101.697 137.643 101.195 137.142 101.195 136.52V133.375C101.195 132.753 101.697 132.253 102.32 132.253ZM114.469 132.253H121.267C121.891 132.253 122.393 132.753 122.393 133.375V136.52C122.393 137.142 121.891 137.643 121.267 137.643H114.469C113.846 137.643 113.344 137.142 113.344 136.52V133.375C113.344 132.753 113.846 132.253 114.469 132.253ZM102.32 141.808H108.765C109.388 141.808 109.89 142.308 109.89 142.93V146.075C109.89 146.697 109.388 147.198 108.765 147.198H102.32C101.697 147.198 101.195 146.697 101.195 146.075V142.93C101.195 142.308 101.697 141.808 102.32 141.808ZM114.469 141.808H121.267C121.891 141.808 122.393 142.308 122.393 142.93V146.075C122.393 146.697 121.891 147.198 121.267 147.198H114.469C113.846 147.198 113.344 146.697 113.344 146.075V142.93C113.344 142.308 113.846 141.808 114.469 141.808ZM102.32 151.037H108.765C109.388 151.037 109.89 151.538 109.89 152.16V155.303C109.89 155.924 109.388 156.425 108.765 156.425H102.32C101.697 156.425 101.195 155.924 101.195 155.303V152.16C101.195 151.538 101.697 151.037 102.32 151.037ZM114.469 151.037H121.267C121.891 151.037 122.393 151.538 122.393 152.16V155.303C122.393 155.924 121.891 156.425 121.267 156.425H114.469C113.846 156.425 113.344 155.924 113.344 155.303V152.16C113.344 151.538 113.846 151.037 114.469 151.037ZM33.1252 143.59C32.5019 143.59 32 144.091 32 144.713V165.877C32 166.499 32.5019 167 33.1252 167H42.2103C42.2078 166.958 42.1978 166.918 42.1978 166.875V154.554C42.1978 153.587 42.9785 152.808 43.9481 152.808H49.6673C50.6369 152.808 51.4177 153.587 51.4177 154.554V166.875C51.4177 166.918 51.4089 166.958 51.4051 167H59.9877C60.611 167 61.1129 166.499 61.1129 165.877V144.713C61.1129 144.091 60.611 143.59 59.9877 143.59H33.1252Z" fill="white"/>
</svg>
