<svg width="186" height="186" viewBox="0 0 186 186" fill="none" xmlns="http://www.w3.org/2000/svg">
<path fill-rule="evenodd" clip-rule="evenodd" d="M1.03838 0H184.962C185.537 0 186 0.462348 186 1.03668V184.963C186 185.538 185.537 186 184.962 186H1.03838C0.463118 186 0 185.538 0 184.963V1.03668C0 0.462348 0.463118 0 1.03838 0Z" fill="#FDB713"/>
<path d="M52.5781 31.9262L56.0852 16.2611H58.0258L61.5329 31.9262H59.1247L58.4934 28.5594H55.5942L54.9396 31.9262H52.5781ZM55.9917 26.4785H58.096L57.0438 20.7736L55.9917 26.4785Z" fill="white"/>
<path d="M62.5312 31.9262V16.2611H69.2181V18.3654H64.7524V23.0649H68.657V25.1691H64.7524V31.9262H62.5312Z" fill="white"/>
<path d="M70.2988 31.9262V16.2611H76.9857V18.3654H72.52V23.0649H76.4246V25.1691H72.52V31.9262H70.2988Z" fill="white"/>
<path d="M78.0013 17.7344C78.3598 17.2356 78.8118 16.8459 79.3574 16.5653C79.9185 16.2692 80.4952 16.1211 81.0875 16.1211C81.6643 16.1211 82.202 16.238 82.7008 16.4718C83.2152 16.7056 83.6438 17.0252 83.9867 17.4304C84.3297 17.8357 84.5635 18.2565 84.6882 18.693C84.8129 19.1138 84.8752 19.5737 84.8752 20.0725V28.0453C84.8752 28.5129 84.8285 28.9259 84.7349 29.2844C84.657 29.6429 84.47 30.0405 84.1738 30.4769C83.8932 30.9133 83.4802 31.2874 82.9346 31.5992C82.4047 31.9109 81.8123 32.0668 81.1577 32.0668C80.7836 32.0668 80.4251 32.02 80.0822 31.9265C79.7393 31.8174 79.4197 31.6771 79.1236 31.5056C78.8274 31.3342 78.5624 31.1393 78.3286 30.9211C78.1104 30.7029 77.9389 30.4769 77.8142 30.2431C77.5804 29.7599 77.4401 29.3702 77.3934 29.074C77.3466 28.7779 77.3232 28.435 77.3232 28.0453V20.0725C77.3232 19.6049 77.37 19.1918 77.4635 18.8333C77.5726 18.4592 77.7519 18.0929 78.0013 17.7344ZM82.3501 18.9736C82.054 18.5371 81.6487 18.3189 81.1343 18.3189C80.8693 18.3189 80.6043 18.3968 80.3394 18.5527C80.09 18.693 79.9107 18.8567 79.8016 19.0437C79.7081 19.2307 79.6457 19.4178 79.6146 19.6048C79.5834 19.7919 79.5678 19.9478 79.5678 20.0725V28.0453C79.5678 28.1232 79.5678 28.2089 79.5678 28.3025C79.5678 28.3804 79.5757 28.4661 79.5913 28.5597C79.6069 28.7155 79.7316 28.9727 79.9654 29.3312C80.1992 29.6586 80.5888 29.8222 81.1344 29.8222C81.415 29.8222 81.6644 29.7598 81.8826 29.6352C82.1164 29.4949 82.28 29.339 82.3736 29.1676C82.4827 28.9805 82.5528 28.809 82.584 28.6532C82.6151 28.4973 82.6307 28.2947 82.6307 28.0453V20.0725C82.6307 19.7607 82.6151 19.5425 82.584 19.4178C82.5684 19.2931 82.4904 19.145 82.3502 18.9736H82.3501Z" fill="white"/>
<path d="M86.8125 31.9263V16.2612H90.7405C91.7692 16.2612 92.6343 16.6197 93.3357 17.3368C94.0527 18.0538 94.4112 18.9345 94.4112 19.9788V21.4284C94.4112 22.878 93.7955 23.9847 92.5642 24.7484L94.949 31.9263H92.5642L90.4599 25.2161H89.057V31.9263H86.8125ZM91.7926 22.7377C91.9329 22.5663 92.0264 22.3714 92.0732 22.1532C92.1355 21.935 92.1667 21.6934 92.1667 21.4284V19.9788C92.1667 19.4956 92.0342 19.1059 91.7693 18.8097C91.5043 18.498 91.1302 18.3421 90.647 18.3421H89.0571V23.2287H90.6236C91.0912 23.2287 91.4809 23.065 91.7926 22.7377H91.7926Z" fill="white"/>
<path d="M99.351 16.2611C100.364 16.2611 101.229 16.6196 101.946 17.3366C102.679 18.038 103.045 18.8953 103.045 19.9085V28.045C103.045 29.1985 102.694 30.1337 101.993 30.8507C101.292 31.5677 100.388 31.9262 99.2808 31.9262H95.7971V16.2611H99.351ZM100.824 28.045V19.9085C100.824 19.4721 100.66 19.1058 100.333 18.8096C100.021 18.5134 99.6393 18.3654 99.1873 18.3654H98.0183V29.8453H99.1172C100.255 29.8453 100.824 29.2452 100.824 28.045Z" fill="white"/>
<path d="M104.103 31.9263L107.61 16.2612H109.55L113.057 31.9263H110.649L110.018 28.5595H107.119L106.464 31.9263H104.103ZM107.516 26.4786H109.62L108.568 20.7737L107.516 26.4786Z" fill="white"/>
<path d="M117.893 16.2612C118.377 16.2612 118.829 16.3626 119.249 16.5652C119.717 16.7834 120.192 17.1341 120.676 17.6173C121.19 18.1161 121.447 18.8955 121.447 19.9554V21.1478C121.447 22.3481 120.972 23.1897 120.021 23.673C120.972 24.2341 121.447 25.107 121.447 26.2916V28.1153C121.447 29.222 121.089 30.1338 120.372 30.8508C119.67 31.5678 118.766 31.9263 117.66 31.9263H114.199V16.2612H117.893ZM119.226 20.914V19.9554C119.226 19.4722 119.086 19.0903 118.805 18.8097C118.525 18.5136 118.151 18.3655 117.683 18.3655H116.42V22.691H117.753C118.267 22.691 118.642 22.5351 118.875 22.2233C119.109 21.896 119.226 21.4596 119.226 20.914ZM119.226 28.1153V26.2916C119.226 25.7928 119.086 25.4031 118.805 25.1225C118.54 24.8264 118.166 24.6783 117.683 24.6783H116.42V29.7051H117.706C118.158 29.7051 118.525 29.5571 118.805 29.2609C119.086 28.9492 119.226 28.5673 119.226 28.1153Z" fill="white"/>
<path d="M129.931 31.9262H123.244V16.2611H125.488V29.6817H129.931V31.9262Z" fill="white"/>
<path d="M137.325 29.6818V31.9263H130.614V16.2612H137.325V18.3187H132.835V22.9481H136.763V25.0758H132.835V29.6818H137.325Z" fill="white"/>
<path d="M139.753 31.9262L143.26 16.2611H145.2L148.707 31.9262H146.299L145.668 28.5594H142.769L142.114 31.9262H139.753ZM143.166 26.4785H145.271L144.218 20.7736L143.166 26.4785Z" fill="white"/>
<path d="M155.578 31.9262L152.094 22.4103V31.9262H149.85V16.2611H151.978L155.438 25.7537V16.2611H157.682V31.9262H155.578Z" fill="white"/>
<path d="M162.815 16.2612C163.828 16.2612 164.693 16.6197 165.41 17.3368C166.142 18.0382 166.509 18.8955 166.509 19.9086V28.0451C166.509 29.1986 166.158 30.1338 165.457 30.8508C164.755 31.5678 163.851 31.9263 162.744 31.9263H159.261V16.2612H162.815ZM164.288 28.0451V19.9086C164.288 19.4722 164.124 19.1059 163.797 18.8097C163.485 18.5136 163.103 18.3655 162.651 18.3655H161.482V29.8455H162.581C163.719 29.8455 164.288 29.2454 164.288 28.0451Z" fill="white"/>
<path d="M60.7341 49.5778C60.7341 50.0766 60.7029 50.5052 60.6406 50.8637C60.5938 51.2222 60.438 51.6119 60.173 52.0327C60.0327 52.251 59.8534 52.4614 59.6352 52.664C59.4326 52.8511 59.1988 53.0225 58.9338 53.1784C58.6844 53.3187 58.4116 53.4356 58.1155 53.5291C57.8193 53.6226 57.531 53.6694 57.2504 53.6694C56.549 53.6694 55.9099 53.5213 55.3332 53.2252C54.772 52.929 54.359 52.5549 54.094 52.1029C53.829 51.6509 53.6575 51.23 53.5796 50.8403C53.5173 50.4506 53.4861 50.0298 53.4861 49.5778V41.5114C53.4861 41.075 53.5251 40.6853 53.603 40.3424C53.6965 39.9839 53.8836 39.602 54.1641 39.1967C54.4447 38.7915 54.8422 38.4485 55.3565 38.168C55.8709 37.8718 56.4087 37.7237 56.9698 37.7237C58.0453 37.7237 58.9416 38.0822 59.6586 38.7992C60.3756 39.5007 60.7341 40.4047 60.7341 41.5114V42.3531H58.5129V41.5114C58.5129 41.075 58.3882 40.7087 58.1388 40.4125C57.905 40.1164 57.5543 39.9683 57.0867 39.9683C56.6503 39.9683 56.3074 40.1164 56.058 40.4125C55.8242 40.7087 55.7072 41.075 55.7072 41.5114V50.1857C55.7384 50.4195 55.8475 50.6845 56.0346 50.9806C56.2528 51.2924 56.6113 51.4482 57.1101 51.4482C57.6401 51.4482 57.9908 51.3079 58.1622 51.0274C58.3337 50.7468 58.435 50.5442 58.4662 50.4195C58.4973 50.2792 58.5129 50.0921 58.5129 49.8583V49.0634H60.7341L60.7341 49.5778Z" fill="white"/>
<path d="M68.9457 53.5289H62.2588V37.8638H64.5033V51.2843H68.9457V53.5289Z" fill="white"/>
<path d="M76.1966 51.2843V53.5289H69.4863V37.8638H76.1966V39.9213H71.7075V44.5507H75.6355V46.6783H71.7075V51.2843H76.1966Z" fill="white"/>
<path d="M76.4844 53.5289L79.9915 37.8638H81.9321L85.4392 53.5289H83.031L82.3997 50.1621H79.5005L78.8458 53.5289H76.4844ZM79.898 48.0812H82.0022L80.9501 42.3763L79.898 48.0812Z" fill="white"/>
<path d="M92.3113 53.5288L88.8276 44.0129V53.5288H86.583V37.8637H88.7107L92.171 47.3563V37.8637H94.4156V53.5288H92.3113Z" fill="white"/>
<path d="M104.988 51.2843V53.5288H98.2773V37.8637H104.988V39.9212H100.498V44.5506H104.426V46.6783H100.498V51.2843H104.988Z" fill="white"/>
<path d="M111.621 53.5289L108.137 44.0129V53.5289H105.893V37.8638H108.02L111.481 47.3564V37.8638H113.725V53.5289H111.621Z" fill="white"/>
<path d="M121.581 51.2843V53.5288H114.871V37.8637H121.581V39.9212H117.092V44.5506H121.02V46.6783H117.092V51.2843H121.581Z" fill="white"/>
<path d="M122.751 53.5288V37.8637H126.679C127.708 37.8637 128.573 38.2222 129.274 38.9393C129.991 39.6563 130.35 40.537 130.35 41.5813V43.0309C130.35 44.4805 129.734 45.5872 128.503 46.3509L130.887 53.5288H128.503L126.398 46.8186H124.996V53.5288H122.751ZM127.731 44.3402C127.871 44.1688 127.965 43.9739 128.012 43.7557C128.074 43.5375 128.105 43.2959 128.105 43.0309V41.5813C128.105 41.0981 127.973 40.7084 127.708 40.4123C127.443 40.1005 127.069 39.9446 126.585 39.9446H124.996V44.8312H126.562C127.03 44.8312 127.419 44.6676 127.731 44.3402H127.731Z" fill="white"/>
<path d="M138.707 51.8924C138.348 52.4535 137.888 52.8899 137.327 53.2017C136.766 53.5134 136.15 53.6693 135.48 53.6693C134.888 53.6693 134.311 53.529 133.75 53.2485C133.204 52.9679 132.776 52.625 132.464 52.2197C132.168 51.7988 131.965 51.378 131.856 50.9571C131.763 50.5363 131.716 50.0609 131.716 49.5309V41.6984C131.716 41.3087 131.755 40.919 131.833 40.5293C131.942 40.1397 132.23 39.5863 132.698 38.8693C133.181 38.1055 134.132 37.7236 135.55 37.7236C136.174 37.7236 136.758 37.8717 137.304 38.1679C137.849 38.464 138.262 38.8303 138.543 39.2668C138.839 39.6876 139.026 40.0929 139.104 40.4826C139.198 40.8567 139.244 41.2619 139.244 41.6984V42.353H137.023V41.6984C137.023 41.5737 137.015 41.4646 137 41.371C137 41.2619 136.992 41.1684 136.976 41.0905C136.961 40.9502 136.844 40.7242 136.626 40.4125C136.407 40.1007 136.041 39.9448 135.527 39.9448C134.919 39.9448 134.514 40.1085 134.311 40.4358C134.124 40.7631 134.015 41.0047 133.984 41.1606C133.952 41.3165 133.937 41.4957 133.937 41.6984V49.5309C133.937 49.6868 133.937 49.8193 133.937 49.9284C133.937 50.0375 133.945 50.131 133.96 50.209C133.976 50.3337 134.093 50.5753 134.311 50.9338C134.514 51.2611 134.911 51.4248 135.503 51.4248C136.111 51.4248 136.501 51.2611 136.672 50.9338C136.766 50.7623 136.836 50.622 136.883 50.5129C136.93 50.3882 136.961 50.2791 136.976 50.1856C137.008 50.092 137.023 49.9985 137.023 49.905C137.023 49.7959 137.023 49.6712 137.023 49.5309V46.7954H135.223V44.8314H139.244V49.5309C139.244 49.8583 139.237 50.1388 139.221 50.3726C139.205 50.5909 139.174 50.7857 139.127 50.9571C139.081 51.1286 139.018 51.2923 138.94 51.4481C138.878 51.5884 138.8 51.7365 138.707 51.8924H138.707Z" fill="white"/>
<path d="M142.624 53.5288V46.7952L139.585 37.8637H141.923L143.747 43.9895L145.594 37.8637H147.955L144.846 46.7952V53.5288H142.624Z" fill="white"/>
<path d="M23.8717 24.7311H19.1162V15.332H35.117V20.1994L26.3893 52.8163H20.6827L29.802 20.3113H23.8717V24.7311Z" fill="white"/>
<path fill-rule="evenodd" clip-rule="evenodd" d="M55.4655 92.1521L65.5313 97.9635C66.6789 98.6261 67.0694 100.083 66.4068 101.231C65.7442 102.379 64.2869 102.769 63.1392 102.107L53.0735 96.2952C51.9258 95.6326 51.5353 94.1753 52.1979 93.0276C52.8605 91.88 54.3178 91.4895 55.4655 92.1521ZM72.9576 76.5438L78.7691 86.6096C79.4317 87.7572 79.0412 89.2146 77.8935 89.8772C76.7459 90.5398 75.2886 90.1493 74.626 89.0017L68.8145 78.9359C68.1519 77.7882 68.5424 76.3309 69.69 75.6683C70.8377 75.0057 72.295 75.3962 72.9576 76.5438ZM95.9104 71.7728L95.9104 83.3958C95.9103 84.721 94.8435 85.7878 93.5183 85.7878C92.1931 85.7878 91.1263 84.7209 91.1263 83.3958L91.1263 71.7728C91.1263 70.4476 92.1932 69.3808 93.5183 69.3808C94.8435 69.3808 95.9104 70.4477 95.9104 71.7728ZM118.174 79.1174L112.362 89.1832C111.699 90.3308 110.242 90.7213 109.095 90.0587C107.947 89.3961 107.556 87.9388 108.219 86.7911L114.03 76.7254C114.693 75.5777 116.15 75.1872 117.298 75.8498C118.446 76.5124 118.836 77.9697 118.174 79.1174ZM133.782 96.6095L123.716 102.421C122.568 103.084 121.111 102.693 120.448 101.545C119.786 100.398 120.176 98.9404 121.324 98.2778L131.39 92.4664C132.537 91.8038 133.995 92.1943 134.657 93.3419C135.32 94.4896 134.929 95.9469 133.782 96.6095ZM138.553 119.562L126.93 119.562C125.605 119.562 124.538 118.495 124.538 117.17C124.538 115.845 125.605 114.778 126.93 114.778L138.553 114.778C139.878 114.778 140.945 115.845 140.945 117.17C140.945 118.495 139.878 119.562 138.553 119.562ZM131.208 141.825L121.142 136.014C119.995 135.351 119.604 133.894 120.267 132.746C120.93 131.599 122.387 131.208 123.535 131.871L133.6 137.682C134.748 138.345 135.138 139.802 134.476 140.95C133.813 142.098 132.356 142.488 131.208 141.825ZM113.716 157.434L107.905 147.368C107.242 146.22 107.633 144.763 108.78 144.1C109.928 143.438 111.385 143.828 112.048 144.976L117.859 155.042C118.522 156.189 118.131 157.647 116.984 158.309C115.836 158.972 114.379 158.581 113.716 157.434ZM90.7634 162.205L90.7634 150.582C90.7634 149.257 91.8302 148.19 93.1554 148.19C94.4806 148.19 95.5474 149.257 95.5474 150.582L95.5474 162.205C95.5474 163.53 94.4806 164.597 93.1554 164.597C91.8302 164.597 90.7634 163.53 90.7634 162.205ZM68.5002 154.86L74.3116 144.794C74.9742 143.647 76.4316 143.256 77.5792 143.919C78.7269 144.581 79.1173 146.039 78.4547 147.186L72.6433 157.252C71.9807 158.4 70.5234 158.79 69.3757 158.128C68.2281 157.465 67.8376 156.008 68.5002 154.86ZM52.8919 137.368L62.9577 131.557C64.1054 130.894 65.5627 131.284 66.2253 132.432C66.8879 133.58 66.4974 135.037 65.3497 135.7L55.284 141.511C54.1364 142.174 52.679 141.783 52.0164 140.636C51.3538 139.488 51.7443 138.031 52.8919 137.368ZM48.1209 114.415L59.7439 114.415C61.0691 114.415 62.1359 115.482 62.1359 116.807C62.1359 118.132 61.0691 119.199 59.7439 119.199L48.1209 119.199C46.7958 119.199 45.7289 118.132 45.7289 116.807C45.7289 115.482 46.7957 114.415 48.1209 114.415ZM93.3358 89.5487C86.0584 89.5492 79.0792 92.4405 73.9336 97.5867C68.7879 102.733 65.8972 109.712 65.8974 116.99C65.8979 124.267 68.7889 131.245 73.9345 136.391C79.0801 141.537 86.0588 144.428 93.3358 144.428C100.613 144.428 107.593 141.538 112.739 136.392C117.885 131.246 120.776 124.267 120.777 116.99C120.777 113.386 120.067 109.818 118.688 106.488C117.309 103.159 115.288 100.134 112.74 97.5858C110.192 95.0377 107.166 93.0164 103.837 91.6374C100.508 90.2584 96.9395 89.5487 93.3358 89.5487ZM93.2331 98.8719C94.1298 98.8719 94.8502 99.5947 94.8502 100.491L94.8502 109.739C94.8502 110.635 94.1298 111.358 93.2331 111.358C92.3364 111.358 91.6136 110.635 91.6136 109.739L91.6136 100.491C91.6136 99.5947 92.3364 98.8719 93.2331 98.8719ZM89.0107 103.615L89.0107 108.4C87.4198 109.202 86.0827 110.429 85.1484 111.946C84.214 113.462 83.7193 115.208 83.7192 116.99C83.7194 119.54 84.7327 121.986 86.5361 123.789C88.3395 125.593 90.7854 126.606 93.3358 126.606C94.5989 126.607 95.8496 126.358 97.0166 125.875C98.1836 125.392 99.244 124.683 100.137 123.79C101.03 122.897 101.739 121.837 102.222 120.67C102.706 119.503 102.955 118.253 102.955 116.99C102.953 115.219 102.463 113.484 101.538 111.974C100.613 110.465 99.289 109.24 97.7124 108.435L97.7124 103.642C100.527 104.564 102.979 106.35 104.718 108.747C106.458 111.143 107.396 114.028 107.4 116.99C107.4 118.836 107.036 120.665 106.329 122.371C105.622 124.077 104.586 125.628 103.28 126.934C101.974 128.239 100.424 129.275 98.7177 129.982C97.0114 130.688 95.1827 131.052 93.3359 131.051C89.6065 131.051 86.0299 129.57 83.3928 126.933C80.7558 124.296 79.2743 120.719 79.2741 116.99C79.2754 114.017 80.2184 111.122 81.9677 108.719C83.717 106.316 86.1826 104.53 89.0107 103.615Z" fill="white"/>
</svg>
