<svg width="185" height="186" viewBox="0 0 185 186" fill="none" xmlns="http://www.w3.org/2000/svg">
<path fill-rule="evenodd" clip-rule="evenodd" d="M1.03275 0H183.967C184.539 0 185 0.462348 185 1.03668V184.963C185 185.538 184.539 186 183.967 186H1.03275C0.460588 186 0 185.538 0 184.963V1.03668C0 0.462348 0.460588 0 1.03275 0Z" fill="#CF8D2A"/>
<path d="M59.6064 31.4984V15.8334H63.5344C64.5631 15.8334 65.4282 16.1918 66.1296 16.9088C66.8466 17.6259 67.2052 18.5065 67.2052 19.5509V21.0005C67.2052 22.4501 66.5895 23.5568 65.3581 24.3206L67.7429 31.4984H65.3581L63.2538 24.7882H61.851V31.4984H59.6064ZM64.5865 22.3098C64.7268 22.1383 64.8203 21.9435 64.867 21.7253C64.9294 21.507 64.9606 21.2654 64.9606 21.0005V19.5509C64.9606 19.0677 64.8281 18.678 64.5632 18.3818C64.2982 18.0701 63.9241 17.9142 63.4409 17.9142H61.851V22.8008H63.4175C63.8851 22.8008 64.2748 22.6371 64.5866 22.3098H64.5865Z" fill="white"/>
<path d="M75.058 29.2539V31.4984H68.3477V15.8334H75.058V17.8908H70.5688V22.5202H74.4967V24.6479H70.5688V29.2539H75.058Z" fill="white"/>
<path d="M77.5991 27.5941C77.5991 27.75 77.5991 27.8825 77.5991 27.9916C77.5991 28.1007 77.6068 28.1943 77.6225 28.2722C77.6536 28.4281 77.7705 28.654 77.9732 28.9502C78.1914 29.2619 78.581 29.4178 79.1422 29.4178C79.4539 29.4178 79.7423 29.3555 80.0073 29.2308C80.2723 29.0905 80.4671 28.9113 80.5918 28.693C80.6853 28.5216 80.7399 28.3579 80.7555 28.202C80.7866 28.0462 80.8022 27.9059 80.8022 27.7812V27.5707V26.4718V26.2614C80.8022 25.9185 80.7398 25.6535 80.6151 25.4665C80.4904 25.2638 80.2099 25.0378 79.7734 24.7884C79.4773 24.6326 78.9474 24.4143 78.1836 24.1338C77.4198 23.8532 76.7807 23.409 76.2663 22.8011C75.752 22.1932 75.4948 21.3671 75.4948 20.3227V19.6213C75.4948 18.5458 75.8533 17.6262 76.5703 16.8624C77.3029 16.083 78.1913 15.6934 79.2357 15.6934C80.3268 15.6934 81.2308 16.0752 81.9479 16.839C82.6805 17.6028 83.0467 18.5302 83.0467 19.6213V20.3227H80.8022V19.6213C80.8022 19.5122 80.7944 19.4109 80.7788 19.3173C80.7788 19.2238 80.7709 19.1381 80.7553 19.0602C80.7397 18.9823 80.7008 18.8887 80.6385 18.7796C80.5761 18.6705 80.4904 18.538 80.3813 18.3821C80.1631 18.0704 79.7968 17.9145 79.2824 17.9145C78.8304 17.9145 78.4563 18.0782 78.1601 18.4055C77.8796 18.7328 77.7393 19.1381 77.7393 19.6213V20.3227V20.5331C77.7393 20.8449 77.786 21.0943 77.8796 21.2813C77.9887 21.4528 78.2381 21.6476 78.6278 21.8658C78.7525 21.9282 78.9395 22.014 79.1889 22.1231C79.4539 22.2166 79.7734 22.3335 80.1475 22.4738C80.8957 22.7232 81.5659 23.1674 82.1582 23.8065C82.7506 24.4455 83.0467 25.2872 83.0467 26.3316V27.5941C83.0467 28.1397 82.9922 28.5995 82.8831 28.9736C82.7895 29.3477 82.4699 29.8932 81.9244 30.6103C81.3788 31.2961 80.467 31.639 79.1889 31.639C77.8328 31.639 76.8508 31.2026 76.2429 30.3297C75.635 29.4412 75.3311 28.5293 75.3311 27.5941V27.033H77.599L77.5991 27.5941Z" fill="white"/>
<path d="M84.0645 31.4984V15.8334H87.7352H87.7819C88.2495 15.8334 88.6937 15.9347 89.1146 16.1373C89.5354 16.3243 89.9096 16.5737 90.2369 16.8855C90.5643 17.1972 90.8214 17.5557 91.0085 17.961C91.2111 18.3507 91.3202 18.7559 91.3358 19.1768V21.4447V21.6785C91.3358 22.1929 91.2345 22.6761 91.0319 23.1281C90.8448 23.5645 90.5876 23.9464 90.2603 24.2738C89.9329 24.6011 89.5433 24.8583 89.0913 25.0453C88.6548 25.2324 88.1872 25.3259 87.6884 25.3259H87.478H86.3089V31.4984H84.0645ZM88.8107 22.754C88.951 22.6138 89.0367 22.4657 89.0679 22.3098C89.1146 22.1539 89.1381 21.9591 89.1381 21.7253V19.4106C89.1381 18.9742 89.0056 18.6156 88.7406 18.3351C88.4756 18.0389 88.1171 17.8908 87.665 17.8908H86.309V23.1983H87.478C87.7898 23.1983 88.0391 23.1749 88.2262 23.1281C88.4288 23.0657 88.6237 22.9411 88.8107 22.754Z" fill="white"/>
<path d="M93.1155 17.3066C93.474 16.8078 93.9261 16.4181 94.4717 16.1376C95.0328 15.8414 95.6095 15.6934 96.2018 15.6934C96.7785 15.6934 97.3163 15.8103 97.8151 16.0441C98.3294 16.2779 98.7581 16.5974 99.101 17.0027C99.4439 17.4079 99.6777 17.8288 99.8024 18.2652C99.9271 18.6861 99.9895 19.1459 99.9895 19.6447V27.6175C99.9895 28.0851 99.9427 28.4982 99.8492 28.8567C99.7713 29.2152 99.5843 29.6126 99.2881 30.0491C99.0075 30.4855 98.5944 30.8597 98.0488 31.1714C97.5189 31.4831 96.9266 31.639 96.2719 31.639C95.8979 31.639 95.5394 31.5922 95.1965 31.4987C94.8535 31.3896 94.534 31.2493 94.2379 31.0779C93.9417 30.9064 93.6767 30.7115 93.4429 30.4933C93.2247 30.2751 93.0532 30.0491 92.9285 29.8153C92.6947 29.3321 92.5544 28.9424 92.5077 28.6462C92.4609 28.3501 92.4375 28.0072 92.4375 27.6175V19.6447C92.4375 19.1771 92.4843 18.764 92.5778 18.4055C92.6869 18.0314 92.8661 17.6651 93.1155 17.3066ZM97.4644 18.5458C97.1682 18.1093 96.7629 17.8911 96.2486 17.8911C95.9836 17.8911 95.7186 17.9691 95.4536 18.1249C95.2042 18.2652 95.025 18.4289 94.9159 18.6159C94.8224 18.803 94.76 18.99 94.7288 19.1771C94.6977 19.3641 94.6821 19.52 94.6821 19.6447V27.6175C94.6821 27.6954 94.6821 27.7811 94.6821 27.8747C94.6821 27.9526 94.6899 28.0384 94.7055 28.1319C94.7211 28.2878 94.8459 28.545 95.0797 28.9035C95.3135 29.2308 95.7031 29.3945 96.2486 29.3945C96.5292 29.3945 96.7786 29.3321 96.9968 29.2074C97.2306 29.0671 97.3943 28.9112 97.4879 28.7398C97.597 28.5527 97.6671 28.3813 97.6983 28.2254C97.7294 28.0695 97.745 27.8669 97.745 27.6175V19.6447C97.745 19.333 97.7294 19.1147 97.6983 18.99C97.6826 18.8653 97.6047 18.7172 97.4645 18.5458H97.4644Z" fill="white"/>
<path d="M107.323 31.4986L103.839 21.9826V31.4986H101.595V15.8335H103.722L107.183 25.326V15.8335H109.427V31.4986H107.323Z" fill="white"/>
<path d="M112.351 27.5941C112.351 27.75 112.351 27.8825 112.351 27.9916C112.351 28.1007 112.359 28.1943 112.374 28.2722C112.406 28.4281 112.522 28.654 112.725 28.9502C112.943 29.2619 113.333 29.4178 113.894 29.4178C114.206 29.4178 114.494 29.3555 114.759 29.2308C115.024 29.0905 115.219 28.9113 115.344 28.693C115.437 28.5216 115.492 28.3579 115.507 28.202C115.539 28.0462 115.554 27.9059 115.554 27.7812V27.5707V26.4718V26.2614C115.554 25.9185 115.492 25.6535 115.367 25.4665C115.242 25.2638 114.962 25.0378 114.525 24.7884C114.229 24.6326 113.699 24.4143 112.935 24.1338C112.172 23.8532 111.533 23.409 111.018 22.8011C110.504 22.1932 110.247 21.3671 110.247 20.3227V19.6213C110.247 18.5458 110.605 17.6262 111.322 16.8624C112.055 16.083 112.943 15.6934 113.988 15.6934C115.079 15.6934 115.983 16.0752 116.7 16.839C117.432 17.6028 117.799 18.5302 117.799 19.6213V20.3227H115.554V19.6213C115.554 19.5122 115.546 19.4109 115.531 19.3173C115.531 19.2238 115.523 19.1381 115.507 19.0602C115.492 18.9823 115.453 18.8887 115.39 18.7796C115.328 18.6705 115.242 18.538 115.133 18.3821C114.915 18.0704 114.549 17.9145 114.034 17.9145C113.582 17.9145 113.208 18.0782 112.912 18.4055C112.632 18.7328 112.491 19.1381 112.491 19.6213V20.3227V20.5331C112.491 20.8449 112.538 21.0943 112.632 21.2813C112.741 21.4528 112.99 21.6476 113.38 21.8658C113.504 21.9282 113.691 22.014 113.941 22.1231C114.206 22.2166 114.525 22.3335 114.899 22.4738C115.648 22.7232 116.318 23.1674 116.91 23.8065C117.503 24.4455 117.799 25.2872 117.799 26.3316V27.5941C117.799 28.1397 117.744 28.5995 117.635 28.9736C117.541 29.3477 117.222 29.8932 116.676 30.6103C116.131 31.2961 115.219 31.639 113.941 31.639C112.585 31.639 111.603 31.2026 110.995 30.3297C110.387 29.4412 110.083 28.5293 110.083 27.5941V27.033H112.351V27.5941Z" fill="white"/>
<path d="M119.03 31.4984V15.8334H121.251V31.4984H119.03Z" fill="white"/>
<path d="M126.525 15.8335C127.008 15.8335 127.46 15.9348 127.881 16.1374C128.349 16.3556 128.824 16.7064 129.307 17.1895C129.822 17.6883 130.079 18.4677 130.079 19.5276V20.72C130.079 21.9202 129.604 22.762 128.653 23.2452C129.604 23.8063 130.079 24.6792 130.079 25.8638V27.6875C130.079 28.7942 129.721 29.706 129.004 30.423C128.302 31.14 127.398 31.4986 126.291 31.4986H122.831V15.8335H126.525ZM127.858 20.4863V19.5276C127.858 19.0444 127.718 18.6625 127.437 18.382C127.156 18.0858 126.782 17.9378 126.315 17.9378H125.052V22.2632H126.385C126.899 22.2632 127.273 22.1073 127.507 21.7956C127.741 21.4682 127.858 21.0318 127.858 20.4863ZM127.858 27.6875V25.8638C127.858 25.365 127.718 24.9753 127.437 24.6948C127.172 24.3986 126.798 24.2506 126.315 24.2506H125.052V29.2774H126.338C126.79 29.2774 127.156 29.1293 127.437 28.8332C127.718 28.5214 127.858 28.1395 127.858 27.6875Z" fill="white"/>
<path d="M137.924 31.4984H131.237V15.8334H133.482V29.2539H137.924V31.4984Z" fill="white"/>
<path d="M145.256 29.254V31.4986H138.546V15.8335H145.256V17.891H140.767V22.5204H144.695V24.648H140.767V29.254H145.256Z" fill="white"/>
<path d="M66.7393 49.1499C66.7393 49.6487 66.7081 50.0774 66.6458 50.4359C66.599 50.7944 66.4432 51.1841 66.1782 51.6049C66.0379 51.8231 65.8586 52.0336 65.6404 52.2362C65.4377 52.4232 65.2039 52.5947 64.939 52.7506C64.6896 52.8909 64.4168 53.0078 64.1206 53.1013C63.8245 53.1948 63.5361 53.2416 63.2556 53.2416C62.5541 53.2416 61.9151 53.0935 61.3384 52.7973C60.7772 52.5012 60.3642 52.1271 60.0992 51.6751C59.8342 51.223 59.6627 50.8022 59.5848 50.4125C59.5224 50.0228 59.4912 49.602 59.4912 49.1499V41.0836C59.4912 40.6472 59.5302 40.2575 59.6081 39.9145C59.7016 39.556 59.8887 39.1742 60.1692 38.7689C60.4498 38.3637 60.8473 38.0207 61.3617 37.7401C61.8761 37.444 62.4138 37.2959 62.9749 37.2959C64.0504 37.2959 64.9467 37.6544 65.6637 38.3714C66.3807 39.0728 66.7393 39.9769 66.7393 41.0836V41.9253H64.518V41.0836C64.518 40.6472 64.3934 40.2808 64.144 39.9847C63.9102 39.6885 63.5595 39.5405 63.0919 39.5405C62.6554 39.5405 62.3125 39.6885 62.0631 39.9847C61.8293 40.2808 61.7124 40.6472 61.7124 41.0836V49.7578C61.7435 49.9916 61.8526 50.2566 62.0397 50.5528C62.2579 50.8645 62.6164 51.0204 63.1152 51.0204C63.6452 51.0204 63.9959 50.8801 64.1674 50.5995C64.3388 50.319 64.4401 50.1164 64.4713 49.9917C64.5025 49.8514 64.518 49.6643 64.518 49.4305V48.6356H66.7392L66.7393 49.1499Z" fill="white"/>
<path d="M69.1879 38.9093C69.5464 38.4105 69.9984 38.0208 70.5439 37.7402C71.1051 37.4441 71.6818 37.296 72.2741 37.296C72.8508 37.296 73.3886 37.4129 73.8874 37.6467C74.4018 37.8805 74.8304 38.2001 75.1733 38.6053C75.5162 39.0106 75.75 39.4314 75.8747 39.8679C75.9994 40.2887 76.0618 40.7486 76.0618 41.2474V49.2202C76.0618 49.6878 76.015 50.1008 75.9215 50.4593C75.8436 50.8178 75.6565 51.2153 75.3604 51.6518C75.0798 52.0882 74.6667 52.4623 74.1212 52.7741C73.5912 53.0858 72.9989 53.2417 72.3442 53.2417C71.9701 53.2417 71.6116 53.1949 71.2687 53.1014C70.9258 52.9923 70.6063 52.852 70.3101 52.6805C70.014 52.5091 69.749 52.3142 69.5151 52.096C69.2969 51.8778 69.1255 51.6518 69.0008 51.418C68.767 50.9348 68.6267 50.5451 68.5799 50.2489C68.5332 49.9528 68.5098 49.6099 68.5098 49.2202V41.2474C68.5098 40.7798 68.5566 40.3667 68.6501 40.0082C68.7592 39.6341 68.9385 39.2678 69.1879 38.9093ZM73.5367 40.1485C73.2405 39.712 72.8353 39.4938 72.3209 39.4938C72.0559 39.4938 71.7909 39.5717 71.5259 39.7276C71.2765 39.8679 71.0973 40.0315 70.9882 40.2186C70.8946 40.4056 70.8323 40.5927 70.8011 40.7797C70.7699 40.9668 70.7544 41.1227 70.7544 41.2474V49.2202C70.7544 49.2981 70.7544 49.3838 70.7544 49.4774C70.7544 49.5553 70.7622 49.641 70.7779 49.7346C70.7935 49.8904 70.9181 50.1476 71.1519 50.5061C71.3857 50.8335 71.7754 50.9971 72.321 50.9971C72.6015 50.9971 72.8509 50.9347 73.0691 50.8101C73.3029 50.6698 73.4666 50.5139 73.5601 50.3425C73.6692 50.1554 73.7393 49.9839 73.7705 49.8281C73.8017 49.6722 73.8173 49.4696 73.8173 49.2202V41.2474C73.8173 40.9356 73.8017 40.7174 73.7705 40.5927C73.7549 40.468 73.677 40.3199 73.5367 40.1485H73.5367Z" fill="white"/>
<path d="M83.2878 53.1011L79.8041 43.5852V53.1011H77.5596V37.436H79.6872L83.1475 46.9286V37.436H85.3921V53.1011H83.2878Z" fill="white"/>
<path d="M88.2094 49.1968C88.2094 49.3527 88.2094 49.4852 88.2094 49.5943C88.2094 49.7034 88.2172 49.7969 88.2328 49.8749C88.264 50.0307 88.3808 50.2567 88.5835 50.5529C88.8017 50.8646 89.1914 51.0205 89.7525 51.0205C90.0643 51.0205 90.3527 50.9581 90.6176 50.8334C90.8826 50.6932 91.0775 50.5139 91.2022 50.2957C91.2957 50.1242 91.3503 49.9606 91.3658 49.8047C91.397 49.6488 91.4125 49.5086 91.4125 49.3839V49.1734V48.0745V47.8641C91.4125 47.5212 91.3502 47.2562 91.2255 47.0691C91.1008 46.8665 90.8202 46.6405 90.3838 46.3911C90.0876 46.2352 89.5576 46.017 88.7939 45.7364C88.0301 45.4559 87.3911 45.0116 86.8767 44.4037C86.3623 43.7959 86.1051 42.9697 86.1051 41.9254V41.224C86.1051 40.1485 86.4636 39.2288 87.1806 38.465C87.9132 37.6857 88.8017 37.296 89.846 37.296C90.9371 37.296 91.8412 37.6779 92.5582 38.4417C93.2908 39.2054 93.6571 40.1329 93.6571 41.224V41.9254H91.4125V41.224C91.4125 41.1149 91.4047 41.0135 91.3891 40.92C91.3891 40.8265 91.3813 40.7408 91.3657 40.6628C91.3501 40.5849 91.3111 40.4914 91.2488 40.3823C91.1864 40.2732 91.1007 40.1406 90.9916 39.9848C90.7734 39.673 90.4071 39.5172 89.8927 39.5172C89.4407 39.5172 89.0666 39.6808 88.7705 40.0082C88.4899 40.3355 88.3496 40.7408 88.3496 41.224V41.9254V42.1358C88.3496 42.4476 88.3964 42.697 88.4899 42.884C88.599 43.0555 88.8484 43.2503 89.2381 43.4685C89.3628 43.5309 89.5498 43.6166 89.7992 43.7257C90.0642 43.8192 90.3837 43.9361 90.7578 44.0764C91.506 44.3258 92.1763 44.77 92.7686 45.4091C93.3609 46.0482 93.657 46.8899 93.657 47.9342V49.1968C93.657 49.7423 93.6025 50.2022 93.4934 50.5763C93.3999 50.9504 93.0803 51.4959 92.5347 52.2129C91.9892 52.8988 91.0774 53.2417 89.7992 53.2417C88.4432 53.2417 87.4612 52.8052 86.8533 51.9324C86.2454 51.0439 85.9414 50.132 85.9414 49.1968V48.6357H88.2093L88.2094 49.1968Z" fill="white"/>
<path d="M101.454 51.4645C101.111 51.9944 100.667 52.4231 100.122 52.7504C99.5916 53.0777 98.9993 53.2414 98.3446 53.2414C98.0173 53.2414 97.6899 53.1946 97.3626 53.1011C97.0509 53.0076 96.7548 52.8907 96.4742 52.7504C96.1936 52.5945 95.9442 52.4231 95.726 52.236C95.5078 52.0334 95.3441 51.823 95.235 51.6047C95.0012 51.1683 94.8453 50.7864 94.7674 50.4591C94.705 50.1317 94.6738 49.781 94.6738 49.4069V37.436H96.9184V49.4069C96.9184 49.516 96.9184 49.6174 96.9184 49.7109C96.934 49.7888 96.9495 49.8668 96.9651 49.9447C96.9807 50.0694 97.0976 50.2876 97.3158 50.5994C97.5185 50.8799 97.8691 51.0202 98.3679 51.0202C98.8199 51.0202 99.1551 50.8565 99.3733 50.5292C99.6071 50.1863 99.724 49.8122 99.724 49.4069V37.436H101.969V49.4069C101.969 49.781 101.93 50.1396 101.852 50.4825C101.774 50.8254 101.641 51.1527 101.454 51.4645H101.454Z" fill="white"/>
<path d="M110.582 53.1011V43.5618L108.337 50.2487H107.215L104.994 43.5618V53.1011H102.749V37.436H104.853L107.823 45.783L110.745 37.436H112.803V53.1011H110.582Z" fill="white"/>
<path d="M114.36 53.1011V37.436H118.031H118.078C118.545 37.436 118.99 37.5374 119.411 37.74C119.831 37.927 120.206 38.1764 120.533 38.4882C120.86 38.7999 121.117 39.1584 121.304 39.5637C121.507 39.9534 121.616 40.3586 121.632 40.7795V43.0474V43.2812C121.632 43.7956 121.53 44.2788 121.328 44.7308C121.141 45.1673 120.884 45.5492 120.556 45.8765C120.229 46.2038 119.839 46.461 119.387 46.648C118.951 46.8351 118.483 46.9286 117.984 46.9286H117.774H116.605V53.1011H114.36ZM119.107 44.3568C119.247 44.2165 119.333 44.0684 119.364 43.9125C119.411 43.7566 119.434 43.5618 119.434 43.328V41.0133C119.434 40.5769 119.301 40.2184 119.037 39.9378C118.772 39.6416 118.413 39.4935 117.961 39.4935H116.605V44.801H117.774C118.086 44.801 118.335 44.7776 118.522 44.7308C118.725 44.6684 118.92 44.5438 119.107 44.3568Z" fill="white"/>
<path d="M124.698 53.1011V39.5169H122.056V37.436H129.608V39.5169H126.919V53.1011H124.698Z" fill="white"/>
<path d="M130.414 53.1011V37.436H132.635V53.1011H130.414Z" fill="white"/>
<path d="M134.943 38.9092C135.301 38.4104 135.753 38.0207 136.299 37.7401C136.86 37.444 137.437 37.2959 138.029 37.2959C138.606 37.2959 139.143 37.4128 139.642 37.6466C140.157 37.8804 140.585 38.2 140.928 38.6052C141.271 39.0105 141.505 39.4313 141.63 39.8678C141.754 40.2886 141.817 40.7485 141.817 41.2473V49.2201C141.817 49.6877 141.77 50.1007 141.676 50.4593C141.598 50.8178 141.411 51.2153 141.115 51.6517C140.835 52.0881 140.422 52.4622 139.876 52.774C139.346 53.0857 138.754 53.2416 138.099 53.2416C137.725 53.2416 137.367 53.1948 137.024 53.1013C136.681 52.9922 136.361 52.8519 136.065 52.6804C135.769 52.509 135.504 52.3141 135.27 52.0959C135.052 51.8777 134.88 51.6517 134.756 51.4179C134.522 50.9347 134.382 50.545 134.335 50.2488C134.288 49.9527 134.265 49.6098 134.265 49.2201V41.2473C134.265 40.7797 134.311 40.3666 134.405 40.0081C134.514 39.634 134.693 39.2677 134.943 38.9092ZM139.292 40.1484C138.995 39.7119 138.59 39.4937 138.076 39.4937C137.811 39.4937 137.546 39.5716 137.281 39.7275C137.031 39.8678 136.852 40.0315 136.743 40.2185C136.65 40.4055 136.587 40.5926 136.556 40.7796C136.525 40.9667 136.509 41.1226 136.509 41.2473V49.2201C136.509 49.298 136.509 49.3837 136.509 49.4773C136.509 49.5552 136.517 49.6409 136.533 49.7345C136.548 49.8904 136.673 50.1475 136.907 50.506C137.141 50.8334 137.53 50.997 138.076 50.997C138.356 50.997 138.606 50.9347 138.824 50.81C139.058 50.6697 139.221 50.5138 139.315 50.3424C139.424 50.1553 139.494 49.9838 139.525 49.828C139.557 49.6721 139.572 49.4695 139.572 49.2201V41.2473C139.572 40.9355 139.557 40.7173 139.525 40.5926C139.51 40.4679 139.432 40.3198 139.292 40.1484H139.292Z" fill="white"/>
<path d="M149.258 53.1011L145.774 43.5852V53.1011H143.529V37.436H145.657L149.117 46.9286V37.436H151.362V53.1011H149.258Z" fill="white"/>
<path d="M58.7598 74.7037L62.2669 59.0386H64.2075L67.7146 74.7037H65.3064L64.6751 71.3369H61.7759L61.1212 74.7037H58.7598ZM62.1734 69.256H64.2776L63.2255 63.5511L62.1734 69.256Z" fill="white"/>
<path d="M74.4773 74.7037L70.9936 65.1878V74.7037H68.749V59.0386H70.8767L74.337 68.5312V59.0386H76.5815V74.7037H74.4773Z" fill="white"/>
<path d="M81.4015 59.0386C82.4147 59.0386 83.2798 59.3971 83.9968 60.1142C84.7294 60.8156 85.0957 61.6729 85.0957 62.686V70.8225C85.0957 71.976 84.745 72.9112 84.0435 73.6282C83.3421 74.3452 82.4381 74.7037 81.3314 74.7037H77.8477V59.0386H81.4015ZM82.8746 70.8225V62.686C82.8746 62.2496 82.7109 61.8833 82.3835 61.5871C82.0718 61.291 81.6899 61.1429 81.2379 61.1429H80.0689V72.6228H81.1678C82.3056 72.6228 82.8746 72.0228 82.8746 70.8225Z" fill="white"/>
<path d="M88.8252 74.7037V59.0386H92.496H92.5427C93.0103 59.0386 93.4545 59.14 93.8753 59.3426C94.2962 59.5296 94.6703 59.7791 94.9977 60.0908C95.325 60.4025 95.5822 60.761 95.7692 61.1663C95.9718 61.556 96.081 61.9612 96.0966 62.3821V64.65V64.8838C96.0966 65.3982 95.9952 65.8814 95.7926 66.3334C95.6055 66.7699 95.3483 67.1518 95.021 67.4791C94.6937 67.8064 94.304 68.0636 93.852 68.2506C93.4156 68.4377 92.948 68.5312 92.4492 68.5312H92.2387H91.0697V74.7037H88.8252ZM93.5714 65.9593C93.7117 65.819 93.7975 65.671 93.8286 65.5151C93.8754 65.3592 93.8988 65.1644 93.8988 64.9306V62.6159C93.8988 62.1795 93.7663 61.821 93.5013 61.5404C93.2364 61.2442 92.8778 61.0961 92.4258 61.0961H91.0697V66.4036H92.2388C92.5505 66.4036 92.7999 66.3802 92.9869 66.3334C93.1896 66.271 93.3844 66.1463 93.5714 65.9593Z" fill="white"/>
<path d="M97.4463 74.7037V59.0386H101.374C102.403 59.0386 103.268 59.3971 103.97 60.1142C104.687 60.8312 105.045 61.7119 105.045 62.7562V64.2058C105.045 65.6554 104.429 66.7621 103.198 67.5258L105.583 74.7037H103.198L101.094 67.9935H99.6908V74.7037H97.4463ZM102.426 65.5151C102.567 65.3437 102.66 65.1488 102.707 64.9306C102.769 64.7124 102.801 64.4708 102.801 64.2058V62.7562C102.801 62.273 102.668 61.8833 102.403 61.5871C102.138 61.2754 101.764 61.1195 101.281 61.1195H99.6909V66.0061H101.257C101.725 66.0061 102.115 65.8424 102.426 65.5151H102.426Z" fill="white"/>
<path d="M106.702 60.512C107.061 60.0132 107.513 59.6235 108.058 59.3429C108.62 59.0467 109.196 58.8987 109.789 58.8987C110.365 58.8987 110.903 59.0156 111.402 59.2494C111.916 59.4832 112.345 59.8027 112.688 60.208C113.031 60.6133 113.265 61.0341 113.389 61.4705C113.514 61.8914 113.576 62.3512 113.576 62.85V70.8228C113.576 71.2905 113.53 71.7035 113.436 72.062C113.358 72.4205 113.171 72.818 112.875 73.2544C112.594 73.6909 112.181 74.0649 111.636 74.3767C111.106 74.6884 110.514 74.8443 109.859 74.8443C109.485 74.8443 109.126 74.7976 108.783 74.704C108.44 74.5949 108.121 74.4546 107.825 74.2832C107.529 74.1117 107.264 73.9169 107.03 73.6987C106.812 73.4804 106.64 73.2544 106.515 73.0206C106.282 72.5374 106.141 72.1477 106.095 71.8516C106.048 71.5554 106.024 71.2125 106.024 70.8228V62.85C106.024 62.3824 106.071 61.9693 106.165 61.6108C106.274 61.2367 106.453 60.8705 106.702 60.512ZM111.051 61.7511C110.755 61.3147 110.35 61.0964 109.835 61.0964C109.57 61.0964 109.305 61.1744 109.04 61.3303C108.791 61.4705 108.612 61.6342 108.503 61.8213C108.409 62.0083 108.347 62.1953 108.316 62.3824C108.285 62.5694 108.269 62.7253 108.269 62.85V70.8228C108.269 70.9008 108.269 70.9865 108.269 71.08C108.269 71.1579 108.277 71.2437 108.292 71.3372C108.308 71.4931 108.433 71.7503 108.666 72.1088C108.9 72.4361 109.29 72.5998 109.836 72.5998C110.116 72.5998 110.366 72.5374 110.584 72.4127C110.818 72.2724 110.981 72.1166 111.075 71.9451C111.184 71.7581 111.254 71.5866 111.285 71.4307C111.316 71.2749 111.332 71.0722 111.332 70.8228V62.85C111.332 62.5383 111.316 62.3201 111.285 62.1954C111.27 62.0707 111.192 61.9226 111.051 61.7511H111.051Z" fill="white"/>
<path d="M118.628 59.0386C119.641 59.0386 120.506 59.3971 121.223 60.1142C121.956 60.8156 122.322 61.6729 122.322 62.686V70.8225C122.322 71.976 121.972 72.9112 121.27 73.6282C120.569 74.3452 119.665 74.7037 118.558 74.7037H115.074V59.0386H118.628ZM120.101 70.8225V62.686C120.101 62.2496 119.937 61.8833 119.61 61.5871C119.298 61.291 118.916 61.1429 118.464 61.1429H117.295V72.6228H118.394C119.532 72.6228 120.101 72.0228 120.101 70.8225Z" fill="white"/>
<path d="M130.926 73.067C130.583 73.597 130.139 74.0256 129.593 74.353C129.063 74.6803 128.471 74.844 127.816 74.844C127.489 74.844 127.162 74.7972 126.834 74.7037C126.523 74.6102 126.226 74.4933 125.946 74.353C125.665 74.1971 125.416 74.0256 125.198 73.8386C124.979 73.6359 124.816 73.4255 124.707 73.2073C124.473 72.7709 124.317 72.389 124.239 72.0616C124.177 71.7343 124.146 71.3836 124.146 71.0095V59.0386H126.39V71.0095C126.39 71.1186 126.39 71.22 126.39 71.3135C126.406 71.3914 126.421 71.4693 126.437 71.5473C126.452 71.672 126.569 71.8902 126.788 72.2019C126.99 72.4825 127.341 72.6228 127.84 72.6228C128.292 72.6228 128.627 72.4591 128.845 72.1318C129.079 71.7889 129.196 71.4148 129.196 71.0095V59.0386H131.44V71.0095C131.44 71.3836 131.401 71.7421 131.323 72.085C131.245 72.428 131.113 72.7553 130.926 73.067H130.926Z" fill="white"/>
<path d="M140.398 70.7527C140.398 71.2515 140.366 71.6801 140.304 72.0386C140.257 72.3971 140.101 72.7868 139.836 73.2077C139.696 73.4259 139.517 73.6363 139.299 73.8389C139.096 74.026 138.862 74.1975 138.597 74.3533C138.348 74.4936 138.075 74.6105 137.779 74.704C137.483 74.7976 137.194 74.8443 136.914 74.8443C136.212 74.8443 135.573 74.6962 134.996 74.4001C134.435 74.1039 134.022 73.7298 133.757 73.2778C133.492 72.8258 133.321 72.4049 133.243 72.0153C133.181 71.6256 133.149 71.2047 133.149 70.7527V62.6863C133.149 62.2499 133.188 61.8602 133.266 61.5173C133.36 61.1588 133.547 60.7769 133.827 60.3717C134.108 59.9664 134.505 59.6235 135.02 59.3429C135.534 59.0467 136.072 58.8987 136.633 58.8987C137.709 58.8987 138.605 59.2572 139.322 59.9742C140.039 60.6756 140.397 61.5797 140.397 62.6863V63.5281H138.176V62.6863C138.176 62.2499 138.051 61.8836 137.802 61.5874C137.568 61.2913 137.218 61.1432 136.75 61.1432C136.314 61.1432 135.971 61.2913 135.721 61.5874C135.487 61.8836 135.37 62.2499 135.37 62.6863V71.3606C135.402 71.5944 135.511 71.8594 135.698 72.1555C135.916 72.4673 136.275 72.6231 136.773 72.6231C137.303 72.6231 137.654 72.4829 137.825 72.2023C137.997 71.9217 138.098 71.7191 138.129 71.5944C138.161 71.4541 138.176 71.2671 138.176 71.0333V70.2383H140.397L140.398 70.7527Z" fill="white"/>
<path d="M143.383 74.7037V61.1195H140.741V59.0386H148.293V61.1195H145.604V74.7037H143.383Z" fill="white"/>
<path d="M149.206 74.7037V59.0386H151.427V74.7037H149.206Z" fill="white"/>
<path d="M153.523 60.512C153.881 60.0132 154.333 59.6235 154.879 59.3429C155.44 59.0467 156.017 58.8987 156.609 58.8987C157.186 58.8987 157.724 59.0156 158.222 59.2494C158.737 59.4832 159.165 59.8027 159.508 60.208C159.851 60.6133 160.085 61.0341 160.21 61.4705C160.334 61.8914 160.397 62.3512 160.397 62.85V70.8228C160.397 71.2905 160.35 71.7035 160.256 72.062C160.178 72.4205 159.991 72.818 159.695 73.2544C159.415 73.6909 159.002 74.0649 158.456 74.3767C157.926 74.6884 157.334 74.8443 156.679 74.8443C156.305 74.8443 155.947 74.7976 155.604 74.704C155.261 74.5949 154.941 74.4546 154.645 74.2832C154.349 74.1117 154.084 73.9169 153.85 73.6987C153.632 73.4804 153.46 73.2544 153.336 73.0206C153.102 72.5374 152.962 72.1477 152.915 71.8516C152.868 71.5554 152.845 71.2125 152.845 70.8228V62.85C152.845 62.3824 152.891 61.9693 152.985 61.6108C153.094 61.2367 153.273 60.8705 153.523 60.512ZM157.872 61.7511C157.575 61.3147 157.17 61.0964 156.656 61.0964C156.391 61.0964 156.126 61.1744 155.861 61.3303C155.611 61.4705 155.432 61.6342 155.323 61.8213C155.23 62.0083 155.167 62.1953 155.136 62.3824C155.105 62.5694 155.089 62.7253 155.089 62.85V70.8228C155.089 70.9008 155.089 70.9865 155.089 71.08C155.089 71.1579 155.097 71.2437 155.113 71.3372C155.128 71.4931 155.253 71.7503 155.487 72.1088C155.721 72.4361 156.11 72.5998 156.656 72.5998C156.936 72.5998 157.186 72.5374 157.404 72.4127C157.638 72.2724 157.801 72.1166 157.895 71.9451C158.004 71.7581 158.074 71.5866 158.105 71.4307C158.137 71.2749 158.152 71.0722 158.152 70.8228V62.85C158.152 62.5383 158.137 62.3201 158.105 62.1954C158.09 62.0707 158.012 61.9226 157.872 61.7511H157.872Z" fill="white"/>
<path d="M167.622 74.7037L164.138 65.1878V74.7037H161.894V59.0386H164.021L167.482 68.5312V59.0386H169.726V74.7037H167.622Z" fill="white"/>
<path d="M19.074 52.8165V20.9269L13.7031 24.9551V19.2485L19.074 15.3322H24.389V52.8165H19.074Z" fill="white"/>
<path d="M44.8253 52.8161H28.8805V47.8928L38.8389 28.5352C39.2865 27.64 39.5103 26.7263 39.5103 25.7938V22.9965C39.5103 22.2505 39.2493 21.6165 38.7271 21.0943C38.2049 20.5348 37.5708 20.2551 36.8249 20.2551C36.1535 20.2551 35.5381 20.4975 34.9787 20.9824C34.4565 21.4673 34.1954 22.0641 34.1954 22.7727V26.0735H28.7686V23.3881C28.7686 21.9335 29.3094 20.1618 30.391 18.0732C31.51 16.0218 33.7478 14.9961 37.1046 14.9961C39.2306 14.9961 41.0395 15.798 42.5314 17.4018C44.0606 19.0429 44.8253 20.9078 44.8253 22.9965V26.4092C44.8253 27.9384 44.415 29.4676 43.5944 30.9968L35.2024 47.5011H44.8253V52.8161Z" fill="white"/>
<path fill-rule="evenodd" clip-rule="evenodd" d="M85.9063 127.251L69.3649 132.656C68.6339 132.895 68.4396 133.822 69.0151 134.326L82.0428 145.712C82.6184 146.215 83.5321 145.918 83.6887 145.176L87.2023 128.386C87.3588 127.643 86.6384 127.012 85.9063 127.251ZM121.705 91C108.28 91 99.5709 100.498 95.2819 105.437C95.2819 105.437 98.5644 112.125 100.401 113.121C100.401 113.121 108.937 99.4938 121.705 99.4938C126.207 99.4938 131.176 100.945 134.883 104.213C138.59 107.481 141.364 112.56 141.364 121.081C141.364 126.207 139.646 131.204 136.685 134.748C133.723 138.292 129.704 140.506 124.122 140.506C118.105 140.506 113.338 138.811 108.751 135.203C104.165 131.594 99.8291 125.912 95.6559 118.054C93.5144 114.021 90.0594 107.49 84.6507 101.807C79.2421 96.1233 71.5318 91.1731 61.5892 91.1731C54.9286 91.1731 48.0005 93.211 42.7004 98.1042C37.4002 102.997 34.0458 110.631 34.0003 120.629C33.924 137.406 46.8774 148.736 61.6772 148.736C72.3289 148.736 79.4952 142.273 79.4952 142.273L73.7066 135.97C73.7066 135.97 68.7928 140.242 61.6772 140.242C51.0683 140.242 42.5765 133.38 42.6344 120.667C42.6718 112.444 45.1827 107.463 48.6112 104.297C52.0397 101.132 56.705 99.6669 61.5892 99.6669C68.6857 99.6669 73.9606 103.002 78.3463 107.61C82.7321 112.219 85.8783 117.988 88.0022 121.987C92.5121 130.479 97.4198 137.163 103.356 141.833C109.293 146.504 116.329 149 124.122 149C132.191 149 138.95 145.413 143.356 140.141C147.762 134.868 150 128.03 150 121.081C150 110.634 146.214 102.798 140.647 97.8903C135.081 92.9829 128.059 91 121.705 91Z" fill="white"/>
</svg>
