<svg width="186" height="186" viewBox="0 0 186 186" fill="none" xmlns="http://www.w3.org/2000/svg">
<path fill-rule="evenodd" clip-rule="evenodd" d="M1.03841 0H184.962C185.537 0 186 0.462348 186 1.03668V184.963C186 185.538 185.537 186 184.962 186H1.03841C0.463142 186 0 185.538 0 184.963V1.03668C0 0.462348 0.463142 0 1.03841 0Z" fill="#E11484"/>
<path d="M60.0293 31.4984V15.8334H63.9572C64.986 15.8334 65.851 16.1918 66.5525 16.9088C67.2695 17.6259 67.628 18.5065 67.628 19.5509V21.0005C67.628 22.4501 67.0123 23.5568 65.7809 24.3206L68.1658 31.4984H65.7809L63.6767 24.7882H62.2738V31.4984H60.0293ZM65.0093 22.3098C65.1496 22.1383 65.2431 21.9435 65.2899 21.7253C65.3523 21.507 65.3835 21.2654 65.3835 21.0005V19.5509C65.3835 19.0677 65.251 18.678 64.986 18.3818C64.721 18.0701 64.3469 17.9142 63.8637 17.9142H62.2738V22.8008H63.8404C64.308 22.8008 64.6977 22.6371 65.0094 22.3098H65.0093Z" fill="white"/>
<path d="M75.8391 29.2539V31.4984H69.1289V15.8334H75.8391V17.8908H71.3501V22.5202H75.278V24.6479H71.3501V29.2539H75.8391Z" fill="white"/>
<path d="M80.466 15.8334C81.4792 15.8334 82.3443 16.1918 83.0613 16.9088C83.7939 17.6103 84.1602 18.4676 84.1602 19.4807V27.6172C84.1602 28.7707 83.8094 29.7059 83.108 30.4229C82.4066 31.1399 81.5026 31.4984 80.3959 31.4984H76.9121V15.8334H80.466ZM81.939 27.6172V19.4807C81.939 19.0443 81.7753 18.678 81.448 18.3818C81.1362 18.0857 80.7543 17.9376 80.3023 17.9376H79.1333V29.4175H80.2322C81.3701 29.4175 81.939 28.8174 81.939 27.6172Z" fill="white"/>
<path d="M93.1916 29.8619C92.8487 30.3919 92.4044 30.8205 91.8589 31.1479C91.3289 31.4752 90.7366 31.6388 90.082 31.6388C89.7546 31.6388 89.4273 31.5921 89.1 31.4986C88.7883 31.405 88.4921 31.2881 88.2115 31.1479C87.9309 30.992 87.6815 30.8205 87.4633 30.6335C87.2451 30.4308 87.0815 30.2204 86.9723 30.0022C86.7385 29.5657 86.5826 29.1839 86.5047 28.8565C86.4423 28.5292 86.4111 28.1785 86.4111 27.8044V15.8335H88.6557V27.8044C88.6557 27.9135 88.6557 28.0148 88.6557 28.1084C88.6713 28.1863 88.6869 28.2642 88.7024 28.3422C88.718 28.4669 88.8349 28.6851 89.0531 28.9968C89.2558 29.2774 89.6064 29.4177 90.1052 29.4177C90.5572 29.4177 90.8924 29.254 91.1106 28.9267C91.3444 28.5837 91.4613 28.2097 91.4613 27.8044V15.8335H93.7059V27.8044C93.7059 28.1785 93.6669 28.537 93.589 28.8799C93.5111 29.2228 93.3786 29.5502 93.1915 29.8619H93.1916Z" fill="white"/>
<path d="M102.744 27.5474C102.744 28.0462 102.713 28.4748 102.651 28.8333C102.604 29.1918 102.448 29.5815 102.183 30.0023C102.043 30.2206 101.863 30.431 101.645 30.6336C101.443 30.8207 101.209 30.9921 100.944 31.148C100.694 31.2883 100.422 31.4052 100.126 31.4987C99.8294 31.5922 99.541 31.639 99.2604 31.639C98.559 31.639 97.9199 31.4909 97.3432 31.1947C96.782 30.8986 96.369 30.5245 96.104 30.0725C95.839 29.6204 95.6676 29.1996 95.5897 28.8099C95.5273 28.4202 95.4961 27.9994 95.4961 27.5474V19.481C95.4961 19.0446 95.535 18.6549 95.6129 18.312C95.7064 17.9535 95.8935 17.5716 96.174 17.1663C96.4546 16.7611 96.8521 16.4181 97.3665 16.1376C97.8809 15.8414 98.4187 15.6934 98.9798 15.6934C100.055 15.6934 100.952 16.0518 101.669 16.7688C102.386 17.4703 102.744 18.3743 102.744 19.481V20.3227H100.523V19.481C100.523 19.0446 100.398 18.6783 100.149 18.3821C99.915 18.086 99.5643 17.9379 99.0967 17.9379C98.6602 17.9379 98.3173 18.086 98.0679 18.3821C97.8341 18.6783 97.7172 19.0446 97.7172 19.481V28.1553C97.7483 28.3891 97.8574 28.654 98.0445 28.9502C98.2627 29.2619 98.6213 29.4178 99.1201 29.4178C99.65 29.4178 100.001 29.2775 100.172 28.997C100.344 28.7164 100.445 28.5138 100.476 28.3891C100.507 28.2488 100.523 28.0617 100.523 27.8279V27.033H102.744L102.744 27.5474Z" fill="white"/>
<path d="M111.161 29.2539V31.4984H104.451V15.8334H111.161V17.8908H106.672V22.5202H110.6V24.6479H106.672V29.2539H111.161Z" fill="white"/>
<path d="M115.79 15.8335C116.803 15.8335 117.668 16.192 118.385 16.909C119.118 17.6104 119.484 18.4677 119.484 19.4809V27.6174C119.484 28.7708 119.134 29.706 118.432 30.423C117.731 31.14 116.827 31.4986 115.72 31.4986H112.236V15.8335H115.79ZM117.263 27.6174V19.4809C117.263 19.0444 117.1 18.6781 116.772 18.382C116.46 18.0858 116.079 17.9378 115.627 17.9378H114.458V29.4177H115.556C116.694 29.4177 117.263 28.8176 117.263 27.6174Z" fill="white"/>
<path d="M60.3555 53.1011V37.436H62.5766V53.1011H60.3555Z" fill="white"/>
<path d="M70.1368 53.1011L66.653 43.5852V53.1011H64.4084V37.436H66.5361L69.9965 46.9286V37.436H72.241V53.1011H70.1368Z" fill="white"/>
<path d="M80.3323 50.8566V53.1011H73.6221V37.436H80.3323V39.4935H75.8432V44.1229H79.7712V46.2506H75.8432V50.8566H80.3323Z" fill="white"/>
<path d="M81.9803 51.8856C81.6218 51.4959 81.3802 51.0829 81.2555 50.6464C81.1464 50.21 81.0918 49.6956 81.0918 49.1033V41.3175C81.0918 40.1796 81.4503 39.2288 82.1674 38.465C82.8999 37.6857 83.8196 37.296 84.9262 37.296C85.9238 37.296 86.8045 37.6623 87.5682 38.3949C88.3164 39.1275 88.6905 40.0004 88.6905 41.0135V49.1033C88.6905 49.5553 88.6672 49.8904 88.6204 50.1086C88.5893 50.3268 88.5269 50.5451 88.4333 50.7633L89.9064 52.0025L88.6672 53.4988L87.2644 52.3766C86.5785 52.9377 85.7524 53.2183 84.786 53.2183C84.2716 53.2183 83.7572 53.0936 83.2428 52.8442C82.744 52.5948 82.3232 52.2753 81.9803 51.8856ZM85.6978 48.5188L86.446 49.1033V41.3175C86.446 40.8187 86.3057 40.3978 86.0251 40.0549C85.7446 39.6964 85.3549 39.5172 84.8561 39.5172C84.5444 39.5172 84.2716 39.5951 84.0378 39.751C83.8039 39.9069 83.6325 40.0939 83.5234 40.3121C83.4299 40.5304 83.3753 40.7018 83.3597 40.8265C83.3441 40.9356 83.3363 41.0993 83.3363 41.3175V49.1033V49.2669C83.3363 49.719 83.461 50.1242 83.7104 50.4827C83.9754 50.8257 84.3807 51.0049 84.9262 51.0205C85.0821 51.0205 85.2692 50.9737 85.4874 50.8802L84.4586 50.0151L85.6978 48.5188Z" fill="white"/>
<path d="M97.2473 51.4645C96.9044 51.9944 96.4601 52.4231 95.9145 52.7504C95.3846 53.0777 94.7923 53.2414 94.1376 53.2414C93.8103 53.2414 93.483 53.1946 93.1557 53.1011C92.8439 53.0076 92.5477 52.8907 92.2672 52.7504C91.9866 52.5945 91.7373 52.4231 91.519 52.236C91.3008 52.0334 91.1371 51.823 91.028 51.6047C90.7942 51.1683 90.6383 50.7864 90.5604 50.4591C90.498 50.1317 90.4668 49.781 90.4668 49.4069V37.436H92.7113V49.4069C92.7113 49.516 92.7113 49.6174 92.7113 49.7109C92.727 49.7888 92.7426 49.8668 92.7581 49.9447C92.7737 50.0694 92.8906 50.2876 93.1088 50.5994C93.3114 50.8799 93.6622 51.0202 94.161 51.0202C94.613 51.0202 94.9481 50.8565 95.1663 50.5292C95.4001 50.1863 95.517 49.8122 95.517 49.4069V37.436H97.7615V49.4069C97.7615 49.781 97.7226 50.1396 97.6447 50.4825C97.5668 50.8254 97.4343 51.1527 97.2472 51.4645H97.2473Z" fill="white"/>
<path d="M98.6526 53.1011L102.16 37.436H104.1L107.607 53.1011H105.199L104.568 49.7343H101.669L101.014 53.1011H98.6526ZM102.066 47.6534H104.17L103.118 41.9485L102.066 47.6534Z" fill="white"/>
<path d="M115.46 53.1011H108.773V37.436H111.018V50.8566H115.46V53.1011Z" fill="white"/>
<path d="M115.941 53.1011V37.436H118.162V53.1011H115.941Z" fill="white"/>
<path d="M122.248 53.1011V39.5169H119.606V37.436H127.158V39.5169H124.47V53.1011H122.248Z" fill="white"/>
<path d="M127.881 53.1011V37.436H130.102V53.1011H127.881Z" fill="white"/>
<path d="M138.719 50.8566V53.1011H132.009V37.436H138.719V39.4935H134.23V44.1229H138.158V46.2506H134.23V50.8566H138.719Z" fill="white"/>
<path d="M141.527 49.1968C141.527 49.3527 141.527 49.4852 141.527 49.5943C141.527 49.7034 141.535 49.7969 141.551 49.8749C141.582 50.0307 141.699 50.2567 141.902 50.5529C142.12 50.8646 142.51 51.0205 143.071 51.0205C143.382 51.0205 143.671 50.9581 143.936 50.8334C144.201 50.6932 144.396 50.5139 144.52 50.2957C144.614 50.1242 144.668 49.9606 144.684 49.8047C144.715 49.6488 144.731 49.5086 144.731 49.3839V49.1734V48.0745V47.8641C144.731 47.5212 144.668 47.2562 144.544 47.0691C144.419 46.8665 144.138 46.6405 143.702 46.3911C143.406 46.2352 142.876 46.017 142.112 45.7364C141.348 45.4559 140.709 45.0116 140.195 44.4037C139.68 43.7959 139.423 42.9697 139.423 41.9254V41.224C139.423 40.1485 139.782 39.2288 140.499 38.465C141.231 37.6857 142.12 37.296 143.164 37.296C144.255 37.296 145.159 37.6779 145.876 38.4417C146.609 39.2054 146.975 40.1329 146.975 41.224V41.9254H144.731V41.224C144.731 41.1149 144.723 41.0135 144.707 40.92C144.707 40.8265 144.699 40.7408 144.684 40.6628C144.668 40.5849 144.629 40.4914 144.567 40.3823C144.505 40.2732 144.419 40.1406 144.31 39.9848C144.092 39.673 143.725 39.5172 143.211 39.5172C142.759 39.5172 142.385 39.6808 142.089 40.0082C141.808 40.3355 141.668 40.7408 141.668 41.224V41.9254V42.1358C141.668 42.4476 141.714 42.697 141.808 42.884C141.917 43.0555 142.167 43.2503 142.556 43.4685C142.681 43.5309 142.868 43.6166 143.117 43.7257C143.382 43.8192 143.702 43.9361 144.076 44.0764C144.824 44.3258 145.494 44.77 146.087 45.4091C146.679 46.0482 146.975 46.8899 146.975 47.9342V49.1968C146.975 49.7423 146.921 50.2022 146.812 50.5763C146.718 50.9504 146.398 51.4959 145.853 52.2129C145.307 52.8988 144.396 53.2417 143.117 53.2417C141.761 53.2417 140.779 52.8052 140.171 51.9324C139.564 51.0439 139.26 50.132 139.26 49.1968V48.6357H141.527V49.1968Z" fill="white"/>
<path d="M18.407 52.8165V20.9269L13.0361 24.9551V19.2485L18.407 15.3322H23.722V52.8165H18.407Z" fill="white"/>
<path d="M36.7174 52.928C32.7638 52.2193 30.47 49.9068 29.8359 45.9906V21.8776C30.3208 18.931 31.6076 16.9542 33.6963 15.9472C35.0763 15.3131 36.5123 14.9961 38.0042 14.9961C38.9366 14.9961 39.9063 15.108 40.9134 15.3318C42.2561 16.1523 43.3378 17.0288 44.1583 17.9613C44.9789 18.8564 45.5383 20.1619 45.8367 21.8776V45.8787C45.3145 49.5339 43.375 51.865 40.0182 52.872H38.9553C38.7688 52.9094 38.0228 52.928 36.7174 52.928V52.928ZM37.2769 47.5571C38.918 47.5571 39.9623 46.8112 40.4099 45.3192V22.7167C40.1861 22.0081 39.9436 21.43 39.6826 20.9824C39.0485 20.4975 38.4331 20.2551 37.8363 20.2551C37.2022 20.2551 36.6801 20.4975 36.2698 20.9824C35.8595 21.43 35.5426 22.0081 35.3188 22.7167V45.2073C35.5426 46.3635 36.1952 47.1468 37.2769 47.5571Z" fill="white"/>
<path fill-rule="evenodd" clip-rule="evenodd" d="M75.9213 99.252V111.146H111.203V99.252H75.9213ZM75.9213 121.266V133.35H111.203V121.266H75.9213ZM93.5257 67L75.9994 84.7069H111.052L93.5257 67ZM62.4896 98.3561L45 116.026L62.4896 133.696V98.3561ZM124.635 98.4301V133.518L142 115.974L124.635 98.4301ZM76.3244 147.673L93.4743 165L110.624 147.673H76.3244Z" fill="white"/>
</svg>
