<svg width="186" height="186" viewBox="0 0 186 186" fill="none" xmlns="http://www.w3.org/2000/svg">
<path fill-rule="evenodd" clip-rule="evenodd" d="M1.03838 0H184.962C185.537 0 186 0.462361 186 1.03668V184.963C186 185.538 185.537 186 184.962 186H1.03838C0.463103 186 0 185.538 0 184.963V1.03668C0 0.462361 0.463103 0 1.03838 0Z" fill="#D3A029"/>
<path d="M53.9531 32.7465V30.7358L58.1617 19.1623H54.2571V17.0814H60.6634V18.8817L56.4783 30.5019H60.6634V32.7465H53.9531Z" fill="white"/>
<path d="M69.2591 30.5021V32.7466H62.5488V17.0815H69.2591V19.1391H64.77V23.7684H68.698V25.8961H64.77V30.5021H69.2591Z" fill="white"/>
<path d="M70.4082 32.7466V17.0815H74.3361C75.3649 17.0815 76.23 17.44 76.9314 18.157C77.6484 18.8741 78.0069 19.7547 78.0069 20.7991V22.2487C78.0069 23.6983 77.3912 24.805 76.1598 25.5687L78.5447 32.7466H76.1598L74.0556 26.0364H72.6527V32.7466H70.4082ZM75.3883 23.558C75.5286 23.3866 75.6221 23.1917 75.6688 22.9735C75.7312 22.7553 75.7624 22.5137 75.7624 22.2487V20.7991C75.7624 20.3159 75.6299 19.9262 75.365 19.63C75.1 19.3183 74.7259 19.1624 74.2427 19.1624H72.6528V24.049H74.2193C74.6869 24.049 75.0766 23.8853 75.3883 23.558H75.3883Z" fill="white"/>
<path d="M80.0071 18.5547C80.3656 18.0559 80.8177 17.6662 81.3632 17.3856C81.9244 17.0895 82.5011 16.9414 83.0934 16.9414C83.6701 16.9414 84.2078 17.0583 84.7066 17.2921C85.221 17.5259 85.6497 17.8455 85.9926 18.2507C86.3355 18.656 86.5693 19.0768 86.694 19.5133C86.8187 19.9341 86.8811 20.394 86.8811 20.8927V28.8656C86.8811 29.3332 86.8343 29.7463 86.7408 30.1048C86.6629 30.4633 86.4758 30.8607 86.1796 31.2972C85.8991 31.7336 85.486 32.1077 84.9405 32.4194C84.4105 32.7312 83.8182 32.8871 83.1635 32.8871C82.7894 32.8871 82.4309 32.8403 82.088 32.7468C81.7451 32.6377 81.4256 32.4974 81.1294 32.3259C80.8332 32.1545 80.5682 31.9596 80.3344 31.7414C80.1162 31.5232 79.9448 31.2972 79.8201 31.0634C79.5863 30.5802 79.446 30.1905 79.3992 29.8943C79.3525 29.5982 79.3291 29.2553 79.3291 28.8656V20.8927C79.3291 20.4251 79.3759 20.0121 79.4694 19.6536C79.5785 19.2795 79.7577 18.9132 80.0071 18.5547ZM84.3559 19.7938C84.0598 19.3574 83.6545 19.1392 83.1401 19.1392C82.8751 19.1392 82.6102 19.2171 82.3452 19.373C82.0958 19.5133 81.9165 19.6769 81.8074 19.864C81.7139 20.051 81.6516 20.2381 81.6204 20.4251C81.5892 20.6122 81.5737 20.768 81.5737 20.8927V28.8656C81.5737 28.9435 81.5737 29.0292 81.5737 29.1228C81.5737 29.2007 81.5815 29.2864 81.5971 29.3799C81.6127 29.5358 81.7374 29.793 81.9712 30.1515C82.205 30.4788 82.5947 30.6425 83.1402 30.6425C83.4208 30.6425 83.6702 30.5802 83.8884 30.4555C84.1222 30.3152 84.2859 30.1593 84.3794 29.9878C84.4885 29.8008 84.5586 29.6294 84.5898 29.4735C84.621 29.3176 84.6366 29.115 84.6366 28.8656V20.8927C84.6366 20.581 84.621 20.3628 84.5898 20.2381C84.5742 20.1134 84.4963 19.9653 84.356 19.7938H84.3559Z" fill="white"/>
<path d="M54.4199 54.3492V38.6841H56.6411V45.371H59.4935V38.6841H61.7147V54.3492H59.4935V47.3584H56.6411V54.3492H54.4199Z" fill="white"/>
<path d="M70.9269 52.7125C70.584 53.2425 70.1398 53.6711 69.5942 53.9984C69.0643 54.3258 68.472 54.4894 67.8173 54.4894C67.49 54.4894 67.1626 54.4427 66.8353 54.3492C66.5236 54.2556 66.2274 54.1387 65.9468 53.9984C65.6662 53.8426 65.4169 53.6711 65.1987 53.4841C64.9804 53.2814 64.8168 53.071 64.7077 52.8528C64.4739 52.4163 64.318 52.0344 64.24 51.7071C64.1776 51.3798 64.1465 51.0291 64.1465 50.655V38.6841H66.391V50.655C66.391 50.7641 66.391 50.8654 66.391 50.959C66.4066 51.0369 66.4222 51.1148 66.4377 51.1928C66.4533 51.3175 66.5703 51.5357 66.7884 51.8474C66.9911 52.128 67.3418 52.2683 67.8406 52.2683C68.2926 52.2683 68.6277 52.1046 68.846 51.7773C69.0798 51.4343 69.1967 51.0603 69.1967 50.655V38.6841H71.4412V50.655C71.4412 51.0291 71.4023 51.3876 71.3243 51.7305C71.2464 52.0734 71.114 52.4008 70.9269 52.7125H70.9269Z" fill="white"/>
<path d="M78.5828 54.3492L75.0991 44.8332V54.3492H72.8545V38.6841H74.9821L78.4425 48.1767V38.6841H80.687V54.3492H78.5828Z" fill="white"/>
<path d="M89.3375 52.7128C88.979 53.2739 88.5192 53.7104 87.9581 54.0221C87.3969 54.3339 86.7812 54.4897 86.111 54.4897C85.5187 54.4897 84.9419 54.3494 84.3808 54.0689C83.8352 53.7883 83.4066 53.4454 83.0948 53.0401C82.7987 52.6193 82.5961 52.1984 82.487 51.7775C82.3934 51.3567 82.3467 50.8813 82.3467 50.3513V42.5188C82.3467 42.1291 82.3856 41.7394 82.4635 41.3498C82.5726 40.9601 82.861 40.4067 83.3286 39.6897C83.8118 38.9259 84.7627 38.5441 86.1811 38.5441C86.8046 38.5441 87.3891 38.6921 87.9346 38.9883C88.4802 39.2845 88.8933 39.6508 89.1738 40.0872C89.47 40.5081 89.657 40.9133 89.735 41.303C89.8285 41.6771 89.8753 42.0823 89.8753 42.5188V43.1735H87.6541V42.5188C87.6541 42.3941 87.6463 42.285 87.6306 42.1915C87.6306 42.0824 87.6228 41.9888 87.6072 41.9109C87.5916 41.7706 87.4747 41.5446 87.2565 41.2328C87.0383 40.9211 86.672 40.7652 86.1576 40.7652C85.5497 40.7652 85.1444 40.9289 84.9418 41.2562C84.7548 41.5836 84.6457 41.8252 84.6145 41.981C84.5834 42.1369 84.5677 42.3161 84.5677 42.5188V50.3513C84.5677 50.5072 84.5677 50.6397 84.5677 50.7488C84.5677 50.8579 84.5756 50.9514 84.5912 51.0294C84.6068 51.1541 84.7237 51.3957 84.9419 51.7542C85.1445 52.0815 85.542 52.2452 86.1343 52.2452C86.7422 52.2452 87.1319 52.0815 87.3034 51.7542C87.3969 51.5827 87.467 51.4425 87.5138 51.3333C87.5605 51.2086 87.5917 51.0995 87.6074 51.006C87.6385 50.9125 87.6541 50.8189 87.6541 50.7254C87.6541 50.6163 87.6541 50.4916 87.6541 50.3513V47.6158H85.8537V45.6518H89.8753V50.3513C89.8753 50.6786 89.8674 50.9592 89.8518 51.1931C89.8362 51.4113 89.805 51.6061 89.7582 51.7775C89.7115 51.949 89.6491 52.1127 89.5712 52.2685C89.5088 52.4088 89.4309 52.5569 89.3374 52.7128H89.3375Z" fill="white"/>
<path d="M98.2789 52.1046V54.3492H91.5686V38.6841H98.2789V40.7416H93.7897V45.371H97.7177V47.4986H93.7897V52.1046H98.2789Z" fill="white"/>
<path d="M99.251 54.3492V38.6841H103.179C104.208 38.6841 105.073 39.0426 105.774 39.7596C106.491 40.4766 106.85 41.3573 106.85 42.4016V43.8512C106.85 45.3008 106.234 46.4075 105.003 47.1713L107.387 54.3492H105.003L102.898 47.6389H101.496V54.3492H99.251ZM104.231 45.1605C104.371 44.9891 104.465 44.7942 104.512 44.576C104.574 44.3578 104.605 44.1162 104.605 43.8512V42.4016C104.605 41.9184 104.473 41.5287 104.208 41.2326C103.943 40.9208 103.569 40.765 103.085 40.765H101.496V45.6515H103.062C103.53 45.6515 103.919 45.4879 104.231 45.1605H104.231Z" fill="white"/>
<path d="M36.1114 53.6364H20.1666V48.7131L30.1251 29.3555C30.5727 28.4604 30.7965 27.5466 30.7965 26.6141V23.8168C30.7965 23.0708 30.5354 22.4368 30.0132 21.9146C29.491 21.3552 28.857 21.0754 28.111 21.0754C27.4397 21.0754 26.8243 21.3179 26.2648 21.8027C25.7426 22.2876 25.4815 22.8844 25.4815 23.593V26.8939H20.0547V24.2084C20.0547 22.7538 20.5955 20.9822 21.6771 18.8935C22.7961 16.8421 25.0339 15.8164 28.3908 15.8164C30.5167 15.8164 32.3257 16.6183 33.8176 18.2221C35.3468 19.8632 36.1114 21.7281 36.1114 23.8168V27.2295C36.1114 28.7587 35.7011 30.288 34.8806 31.8172L26.4885 48.3214H36.1114V53.6364Z" fill="white"/>
<path fill-rule="evenodd" clip-rule="evenodd" d="M105.279 161C106.743 161 107.004 159.427 106.932 158.408C106.845 157.17 108.051 156.974 108.683 156.776C115.81 154.546 123.286 150.267 129.201 144.105C134.872 138.197 139.347 132.067 140.968 121.833C141.164 120.594 140.456 119.625 139.217 119.625H42.7829C41.5438 119.625 40.8361 120.594 41.0325 121.833C42.6534 132.067 47.1283 138.197 52.799 144.105C58.7141 150.267 66.1903 154.546 73.3174 156.776C73.9494 156.974 75.1553 157.17 75.0678 158.408C74.9959 159.427 75.257 161 76.721 161H105.279ZM72.3954 115.442H78.7902C78.7902 115.442 81.7211 107.357 74.7332 100.441C72.4976 98.228 71.0808 94.9114 71.0808 91.7862C71.0808 85.8421 73.7829 82.4 74.5816 81.1306C76.6403 77.8582 71.7338 75.5565 69.6222 78.0587C66.3605 81.9236 64.4682 87.2359 64.4682 92.2662C64.4682 97.9352 67.2564 100.814 70.1084 104.17C75.4048 110.402 72.3954 115.442 72.3954 115.442ZM110.904 115.442H117.299C117.299 115.442 120.23 107.357 113.242 100.441C111.006 98.228 109.589 94.9114 109.589 91.7862C109.589 85.8421 112.291 82.4 113.09 81.1306C115.149 77.8582 110.242 75.5565 108.131 78.0587C104.869 81.9236 102.977 87.2359 102.977 92.2662C102.977 97.9352 105.765 100.814 108.617 104.17C113.913 110.402 110.904 115.442 110.904 115.442ZM91.7468 115.442H98.1417C98.1417 115.442 101.073 107.357 94.0848 100.441C91.8491 98.228 90.4323 94.9114 90.4323 91.7862C90.4323 85.8421 93.1345 82.4 93.9331 81.1306C95.9918 77.8582 91.0853 75.5565 88.9736 78.0587C85.712 81.9236 83.8197 87.2359 83.8197 92.2662C83.8197 97.9352 86.6079 100.814 89.4599 104.17C94.7563 110.402 91.7468 115.442 91.7468 115.442Z" fill="white"/>
</svg>
