<svg width="186" height="186" viewBox="0 0 186 186" fill="none" xmlns="http://www.w3.org/2000/svg">
<path fill-rule="evenodd" clip-rule="evenodd" d="M1.03841 0H184.962C185.537 0 186 0.462399 186 1.03672V184.963C186 185.538 185.537 186 184.962 186H1.03841C0.463154 186 0 185.538 0 184.963V1.03672C0 0.462399 0.463154 0 1.03841 0Z" fill="white"/>
<path d="M90.495 29C87.9378 29 85.5254 29.6053 83.3831 30.6815L83.5567 31.0178C85.6218 29.9801 87.9185 29.4131 90.3021 29.3843V32.2381C88.3624 32.2669 86.5192 32.7377 84.8884 33.5449L85.0621 33.8812C86.6737 33.0837 88.4589 32.6513 90.3021 32.6225V35.2072C88.8546 35.2361 87.4939 35.5819 86.2684 36.1777C85.3517 36.6197 84.5217 37.2058 83.7979 37.8976L81.9645 36.0623C82.8909 35.1687 83.9427 34.4385 85.0718 33.8812L84.898 33.5449C83.7207 34.131 82.64 34.8901 81.7039 35.7933L79.6678 33.7659C80.8355 32.6321 82.1478 31.7097 83.5663 30.9986L83.3927 30.6623C80.2951 32.2093 77.7764 34.7364 76.2421 37.8304C75.1999 39.9347 74.6016 42.308 74.6016 44.8159C74.6016 46.3533 74.8235 47.8522 75.2385 49.2743L75.6148 49.1781C75.2192 47.8329 75.0069 46.43 74.9876 44.9983H77.844C77.8633 46.1898 78.0466 47.3621 78.3843 48.4767L78.7607 48.3805C78.4326 47.2947 78.2493 46.1609 78.23 44.9886H80.8258C80.8346 45.373 80.8644 45.7477 80.9127 46.1129C80.7293 46.1321 80.5652 46.1898 80.5652 46.1898L80.488 46.4492C80.3143 46.478 80.1985 46.7759 80.1985 46.7759C80.0538 46.824 79.938 47.0065 79.9862 47.0546C80.0345 47.1027 79.909 47.1218 79.909 47.1218V47.4773L79.8318 47.5926L79.8512 47.977C79.9478 47.977 79.9283 48.1596 79.9283 48.1596C79.7643 48.1788 79.8029 48.3902 79.8029 48.3902L79.4651 48.5055L79.3976 48.6016L78.9827 48.5824L78.8668 48.6977C78.8283 48.5921 78.7993 48.4863 78.7607 48.3806L78.3844 48.4768C78.3933 48.5152 78.4037 48.5538 78.4229 48.5922H77.9501L77.9212 48.5153L77.7571 48.4865L77.7378 48.304L77.4965 48.3232L77.4482 48.4194L77.1877 48.4387C77.207 48.602 76.9271 48.8423 76.8981 48.775C76.8692 48.7078 76.6859 48.5348 76.7727 48.4964C76.85 48.4675 77.0622 48.4291 77.0622 48.4291V48.3138L76.464 48.2945L76.3964 48.3907L76.1552 48.41V48.6694L76.0394 48.6982C75.9622 48.7463 76.0587 48.9288 76.0587 48.9288C76.1746 49.0442 76.0394 49.2171 76.0394 49.2171C75.9428 49.3133 76.1166 49.4958 76.1166 49.4958C76.242 49.5246 76.0394 49.6207 76.0394 49.6207C76.0683 49.784 76.1648 49.8321 76.1648 49.8321C76.0682 49.9954 76.2323 50.0723 76.2323 50.0723L76.2517 50.3509L76.3675 50.4181V50.6007L76.435 50.7161H76.6956L76.6867 50.3317C76.4648 50.0722 76.8797 50.005 76.899 50.1011C76.9183 50.1973 77.092 50.2452 77.092 50.2452C77.121 50.4855 77.4008 50.6295 77.478 50.3893C77.5553 50.1491 77.6227 50.2932 77.671 50.4086C77.7193 50.5239 78.028 50.8026 78.028 50.8026H78.2693L78.2982 51.0332C78.5684 51.0139 78.6553 51.0524 78.7615 51.4175C78.8773 51.7922 79.1764 51.8884 79.1764 51.8884L79.3983 51.8691C79.3983 51.6769 79.6203 51.8979 79.6203 52.0036C79.6203 52.0997 80.0545 52.4745 80.0545 52.4745L80.4888 52.5706L80.566 52.6378C80.8362 52.9741 81.1161 53.2913 81.4152 53.6083L79.3887 55.6261C77.5938 53.7908 76.3201 51.5713 75.6156 49.1787L75.2392 49.2749C75.9823 51.7923 77.3333 54.1273 79.244 56.0394C80.5371 57.327 82.0232 58.3743 83.6347 59.1334L83.8277 58.7971C82.303 58.0764 80.9038 57.106 79.6589 55.8953L81.6854 53.8774C82.7373 54.896 83.9435 55.7127 85.2366 56.2988L85.4296 55.9625C84.1558 55.386 82.9881 54.5981 81.9556 53.6084L82.332 53.2337C82.3513 53.2721 82.3706 53.3106 82.3706 53.3682C82.3995 53.6085 82.5153 53.5603 82.5153 53.5603L83.4321 53.5411L83.7505 53.2625L84.5708 53.2432C84.9857 53.2239 84.7348 52.657 84.648 52.657C84.5997 52.6186 84.5901 52.5417 84.5997 52.4552C85.2559 52.9549 85.9603 53.3681 86.7034 53.6852L86.8964 53.3488C86.0375 52.9933 85.2269 52.4937 84.5032 51.8884L84.0689 51.4848L86.0857 49.4766C86.7419 50.0915 87.4946 50.5527 88.3149 50.841C88.5368 50.9179 88.7684 50.9851 89 51.0428C88.9615 51.0812 88.9421 51.1101 88.9517 51.1293C88.9807 51.2062 88.8263 51.2926 88.8263 51.2926L88.6816 51.3407L88.585 51.4849L88.392 51.5521L88.363 51.8884L88.2664 51.9556V52.0998L88.1506 52.1286V52.2055L87.9866 52.2248L88.0831 52.465L88.2086 52.5322C88.4306 52.5611 88.334 52.8397 88.334 52.8397L88.4594 52.859L88.5269 53.0415L88.6524 53.3009C88.7007 53.4931 88.8454 53.4451 88.913 53.4354C88.9805 53.4162 89.0384 53.6276 89.0384 53.6276L89.6753 53.6469C89.6753 53.6469 89.6463 53.7142 89.7525 53.7431C89.8104 53.7624 90.0613 53.7815 90.2832 53.7815V54.0698C89.0963 54.0505 87.9576 53.7911 86.8961 53.3491L86.7031 53.6854C87.8225 54.1562 89.0287 54.4349 90.2832 54.4541V57.0388C88.5752 57.01 86.9251 56.6353 85.41 55.9531L85.217 56.2894C86.7899 57.0004 88.5077 57.3944 90.2832 57.4232V60.2769C88.0059 60.2481 85.8057 59.7389 83.8081 58.7876L83.6151 59.1239C85.7285 60.1328 88.0638 60.6613 90.4763 60.6613C93.0045 60.6613 95.446 60.0751 97.6462 58.9701C99.1323 58.2207 100.512 57.231 101.728 56.0299C103.002 54.7615 104.034 53.3106 104.797 51.7444C105.829 49.6209 106.379 47.2668 106.379 44.8358C106.379 42.7699 105.984 40.7617 105.221 38.8976C104.43 36.9567 103.253 35.1695 101.718 33.6417C100.174 32.1043 98.3796 30.932 96.411 30.1441C94.5679 29.3946 92.5606 29.0007 90.4956 29.0007L90.495 29ZM90.688 29.3843C92.6373 29.4036 94.5383 29.7879 96.2946 30.499C98.1474 31.2388 99.8555 32.3438 101.332 33.7755L99.6142 35.4859C99.5563 35.5051 99.4888 35.5051 99.4502 35.4859C99.3343 35.4378 99.4985 35.3225 99.4985 35.3225V35.1976L99.4018 35.1014C99.4018 35.1014 99.1317 35.1303 99.1124 35.0822C99.093 35.0341 99.0448 34.8227 99.0448 34.8227L99.0256 34.5441L98.9097 34.496L98.8903 34.3998L98.7166 34.419V34.2269L98.6201 34.198L98.5235 34.1499L98.5041 33.9578L98.1471 33.9385L98.0313 33.7752L97.9058 33.583L97.5005 33.5542L97.4039 33.458L97.2398 33.4292L97.124 33.381L97.0758 33.458L96.7669 33.4773L96.7476 33.5735C96.651 33.6216 96.3906 33.6216 96.1879 33.6216C95.8695 33.4582 95.5703 33.2948 95.2422 33.1603L95.1071 33.5158C95.3773 33.6215 95.5993 33.7561 95.8598 33.8906C95.8405 33.9483 95.8213 33.9867 95.7826 33.9867C95.7053 33.9867 95.7343 34.1982 95.7343 34.1982C95.7343 34.1982 95.9466 34.1981 96.0045 34.2174C96.072 34.2367 96.072 34.4 96.072 34.4C96.3132 34.3807 96.4097 34.7075 96.3808 34.794C96.3518 34.8709 96.4774 34.8709 96.4774 34.8709C96.4774 34.8709 96.4774 35.1303 96.4484 35.1975C96.4195 35.2648 96.6607 35.3129 96.7186 35.409C96.7861 35.5052 96.6897 35.8317 96.6414 35.8509C96.5931 35.8702 96.7668 35.9182 96.7572 35.9951C96.7379 36.072 96.8055 35.9951 96.8247 36.1296C96.8441 36.2545 96.873 36.5331 96.873 36.5331L97.095 36.5524C97.1239 36.341 97.5389 36.3314 97.6064 36.3602C97.8766 36.4564 98.0889 36.8791 98.0889 36.9752C98.0889 37.0714 97.9152 37.0906 97.9152 37.0906L97.9241 37.1961L97.3643 37.7535C97.3064 37.7151 97.2486 37.6958 97.2196 37.7247C97.1425 37.7728 97.1713 37.3883 97.1713 37.3883C97.1713 37.3883 97.3161 37.2921 97.3836 37.3402C97.4511 37.3883 96.8432 36.5331 96.7081 36.61C96.5827 36.6869 96.2932 36.5332 96.3028 36.3794C96.3222 36.2353 95.7239 35.7452 95.7239 35.7452C95.7239 35.7452 95.5308 35.6203 95.5018 35.7164C95.4729 35.8126 95.4052 35.8797 95.5018 35.9278C95.5984 35.9759 95.5791 35.8508 95.6948 35.9566C95.8107 36.0719 96.0133 36.2161 95.9361 36.3121C95.859 36.4083 95.7624 36.437 95.7624 36.437L95.8782 36.5716H96.0519L96.0809 36.8502C96.0809 36.8502 96.2739 36.9464 96.3222 37.0616C96.3511 37.1385 96.3607 37.1864 96.3511 37.2345C95.9941 36.9654 95.6177 36.7157 95.2317 36.4946C95.2317 36.4658 95.2406 36.437 95.2317 36.4082C95.2028 36.2929 95.3572 36.2448 95.444 36.3793L95.6081 36.3601L95.637 36.2159L95.4151 36.0334H95.2414C95.2414 36.0334 95.2221 36.1582 95.116 36.1103C95.0002 36.0622 95.0676 36.0814 94.9712 36.0622C94.8843 36.0429 94.9037 36.2255 94.923 36.312C94.6721 36.1871 94.4211 36.0718 94.1606 35.9661C93.0701 35.5241 91.9025 35.2743 90.6866 35.2551V33.7849C90.7927 33.7849 90.841 33.7465 90.8506 33.708C90.87 33.6408 90.8796 33.6311 90.9761 33.6118C91.0726 33.5925 90.9567 33.4004 90.8603 33.4196C90.7928 33.4284 90.7252 33.4108 90.6866 33.362V32.6221C92.2306 32.6414 93.7167 32.9488 95.1062 33.5158L95.2414 33.1602C93.8132 32.5837 92.2691 32.2666 90.6769 32.2474L90.688 29.3843ZM93.3707 30.0666L93.2163 30.1627L93.1102 30.0955L93.0619 30.182L93.1873 30.2589L93.2164 30.2782L93.2454 30.2589L93.4191 30.1436L93.3707 30.0666ZM94.1042 30.4509L93.9787 30.5565L93.9014 30.47L93.8339 30.5372L93.9497 30.6526L93.9787 30.6814L94.0077 30.6526L94.1717 30.5277L94.1042 30.4509ZM78.6352 30.5374C77.043 31.1524 75.3253 31.7865 74.2928 33.42C73.6849 34.3713 73.598 35.5051 73.1252 36.4852C74.0129 35.6589 75.0358 35.0439 75.7886 34.0638C76.686 32.8819 77.4676 31.5559 78.6352 30.5374ZM102.345 30.5374C103.513 31.5655 104.304 32.8819 105.202 34.0638C105.954 35.0535 106.977 35.6589 107.865 36.4852C107.392 35.4955 107.296 34.3713 106.697 33.42C105.655 31.7865 103.947 31.1524 102.345 30.5374ZM92.9461 30.7392C92.8786 30.748 92.811 30.7776 92.8014 30.8064C92.7821 30.8737 92.6856 30.8833 92.6856 30.8833L92.3188 30.9122C92.2899 31.0083 92.0969 31.0755 92.0776 31.0084C92.039 30.8642 91.8364 31.1909 92.0487 31.2486C92.2609 31.3158 92.4636 31.2486 92.4636 31.2486L92.5119 31.1524L93.3128 31.1717C93.3803 31.1044 93.4094 31.0083 93.4094 31.0083C93.4094 31.0083 93.6024 30.9411 93.6796 30.9795C93.7569 31.0083 93.699 30.7489 93.6121 30.7873C93.5348 30.8161 93.3709 30.8066 93.3709 30.8066H93.0814C93.0814 30.7489 93.0138 30.7296 92.9463 30.7393L92.9461 30.7392ZM91.5662 31.0658L91.3539 31.1428L91.1319 31.2869L90.8907 31.3157L90.7653 31.4599L91.2767 31.508L91.3733 31.6713L91.74 31.7002L91.9813 31.9404C92.1936 32.0076 92.2418 31.9115 92.1067 31.7962L91.8944 31.5848V31.4023L91.8269 31.335L91.7593 31.1044L91.5662 31.0658ZM74.3314 32.6994C73.5208 32.9108 72.8357 33.4296 72.2277 34.1022C70.9539 35.5147 71.06 37.5902 71.2337 39.4446C71.282 40.0212 71.2531 40.5016 71.1952 41.0877C71.5812 40.2998 72.2085 39.5503 72.9612 38.993C74.621 37.7439 76.4351 36.1296 76.464 34.0157C75.914 35.5435 74.2446 36.1777 73.1348 37.2154C72.5462 37.7631 72.0926 38.4261 71.8321 39.1179L71.7935 39.0891C71.9286 38.4741 72.1892 37.9264 72.3725 37.3307C72.8357 35.7068 72.7489 33.7755 74.3315 32.6993L74.3314 32.6994ZM106.659 32.6994C108.232 33.7755 108.145 35.7068 108.627 37.3307C108.801 37.9168 109.062 38.4741 109.206 39.0891L109.168 39.1181C108.907 38.4262 108.454 37.7632 107.865 37.2155C106.755 36.1682 105.086 35.5436 104.536 34.0158C104.565 36.1394 106.379 37.7536 108.039 38.9931C108.782 39.5504 109.419 40.2999 109.805 41.0879C109.737 40.5017 109.708 40.0117 109.766 39.4447C109.94 37.5903 110.046 35.5148 108.772 34.1024C108.155 33.4298 107.469 32.9012 106.659 32.6995L106.659 32.6994ZM97.9448 33.0164C97.8194 33.0164 97.6263 33.1029 97.6456 33.199C97.665 33.2759 97.7229 33.3624 97.8579 33.3912L98.0992 33.4681C98.0992 33.4681 98.3984 33.8237 98.3887 33.6507C98.3598 33.1607 98.1281 33.151 98.0509 33.0549C98.0316 33.0357 97.993 33.0165 97.9448 33.0165V33.0164ZM92.9172 33.2182L92.8496 33.3624L92.9365 33.4007L93.0041 33.2566L92.9172 33.2182ZM93.2163 33.372C93.2074 33.3632 93.1197 33.4873 93.0523 33.5257C93.1295 33.5641 93.2357 33.6219 93.2357 33.6219C93.3611 33.6219 93.4479 33.718 93.4479 33.766C93.4479 33.814 93.6216 33.7948 93.6216 33.7948L93.641 33.6795L93.5156 33.5161L93.3997 33.4392C93.3997 33.448 93.2164 33.4304 93.2164 33.372H93.2163ZM93.0523 33.5257C92.975 33.4873 92.9268 33.468 93.0137 33.5257C93.0226 33.5345 93.0427 33.5345 93.0523 33.5257ZM92.5215 33.4776L92.5127 33.5738L92.6477 33.5826L92.7444 33.7364L92.8216 33.6883L92.7058 33.5057L92.697 33.4864H92.6776C92.6776 33.4952 92.5232 33.4776 92.5232 33.4776H92.5215ZM88.816 33.8811C88.7291 33.8811 88.6519 33.9004 88.6519 33.9292C88.6712 34.006 88.7967 34.1118 88.7967 34.1118C88.7967 34.1118 89.0379 34.1311 89.0572 34.1791C89.0765 34.2272 89.2309 34.2463 89.2502 34.1983C89.2696 34.1503 89.3275 34.0542 89.1827 34.0542C89.0379 34.0542 89.0668 33.9772 89.0186 33.9196C88.9897 33.8908 88.9028 33.8813 88.816 33.8813V33.8811ZM101.602 34.0445C103.04 35.505 104.14 37.2057 104.893 39.0506C105.607 40.809 105.993 42.702 106.012 44.6429H103.146C103.127 43.0863 102.818 41.5777 102.258 40.1749C102.181 39.9731 102.094 39.7713 101.998 39.5695C102.027 39.483 102.075 39.3965 102.181 39.4254C102.345 39.4735 102.229 39.0698 102.229 39.0698C102.229 39.0698 102.007 38.9065 102.017 38.8297C102.036 38.7528 101.795 38.5894 101.805 38.5222C101.824 38.4549 101.593 38.33 101.612 38.2627C101.631 38.1955 101.496 38.0225 101.496 38.0225L101.255 37.7919L101.226 37.6478L101.033 37.6285L100.647 37.1576L100.666 37.0232L100.55 37.0039V36.8213L100.434 36.7541L100.261 36.7349L99.9038 36.3505L99.8748 36.1679H99.7011L99.7301 35.8893L101.602 34.0445ZM92.8882 34.0445V34.1887L93.0619 34.2079L93.0136 34.0734L92.8882 34.0445ZM79.388 34.0445L81.4145 36.0719C80.4688 37.0424 79.6774 38.157 79.0888 39.3965C78.3168 40.9916 77.8729 42.7692 77.844 44.6525H74.9779C75.0069 42.3176 75.5569 40.0692 76.5605 38.0321C77.2746 36.5812 78.2203 35.236 79.388 34.0445ZM93.6699 34.8036C93.6506 34.8036 93.6409 34.8124 93.6409 34.8229C93.6409 34.8709 93.7084 34.871 93.7375 34.967C93.7665 35.0632 93.7569 35.2264 93.9016 35.2552C94.0463 35.2841 94.0753 35.3225 94.0946 35.3801C94.1139 35.4473 94.2875 35.457 94.2875 35.457L94.413 35.5243L94.7989 35.851V35.7261C94.7989 35.7261 94.7797 35.6012 94.7024 35.6012C94.6251 35.6012 94.4804 35.505 94.5094 35.4378C94.5383 35.3706 94.2392 35.313 94.2392 35.313C94.2392 35.313 93.969 35.0535 94.0655 35.0824C94.1621 35.1112 94.1138 34.967 94.1138 34.967C94.1138 34.967 93.9208 34.9959 93.8726 34.9863C93.8243 34.967 93.8435 34.8229 93.8435 34.8229C93.8435 34.8229 93.7182 34.7941 93.6699 34.8036V34.8036ZM84.8498 34.9189L84.7823 34.9861L84.8789 35.0824L84.9464 35.0151L84.8498 34.9189ZM70.9635 35.5915C70.925 35.5827 70.896 35.6204 70.8669 35.6299C69.7668 37.0328 69.0335 38.5605 69.0335 40.4342C69.0335 42.7499 70.3748 44.3738 70.5389 46.5454C70.8863 44.2777 72.7969 42.6634 73.7909 40.6552C74.1768 39.8769 74.4182 38.993 74.5243 38.1378C74.3796 38.5029 74.1576 38.8392 73.8488 39.1274C72.5557 40.3477 71.0407 41.5393 70.7512 43.2688C70.7126 43.5187 70.6836 43.7684 70.616 44.0087C70.5581 44.0375 70.5581 43.9703 70.5388 43.951L70.7029 41.8179C70.8573 39.7425 69.7475 37.4268 70.9634 35.5915H70.9635ZM110.027 35.5915C111.242 37.4268 110.133 39.7425 110.287 41.8275L110.451 43.9607C110.432 43.98 110.432 44.0375 110.374 44.0183C110.306 43.7781 110.277 43.5283 110.239 43.2785C109.949 41.5585 108.425 40.3574 107.141 39.1371C106.832 38.8489 106.61 38.5126 106.466 38.1475C106.572 39.0026 106.813 39.8866 107.199 40.6649C108.193 42.6635 110.104 44.2778 110.451 46.5551C110.615 44.3739 111.956 42.7596 111.956 40.4439C111.956 38.5702 111.223 37.0329 110.123 35.6396C110.084 35.6108 110.065 35.5819 110.026 35.5915H110.027ZM90.3021 35.5915V38.4453C89.4046 38.4741 88.5457 38.6855 87.7737 39.0411L87.9475 39.3773C88.6809 39.041 89.4722 38.8489 90.3021 38.8201V41.4144C89.9643 41.4336 89.6362 41.5009 89.3274 41.6162L89.308 41.4336L89.3853 41.3855L89.2599 41.3374L89.1632 41.4623L89.1342 41.6065L88.9702 41.6353V41.7122H88.8543V41.8084C88.6227 41.9333 88.4008 42.087 88.1981 42.2696L86.355 40.4344C86.8278 39.9924 87.3682 39.6272 87.9472 39.3582L87.7735 39.0219C87.1559 39.3101 86.5866 39.6945 86.0945 40.1653L84.068 38.1475C84.7821 37.4652 85.583 36.9176 86.4515 36.4948C87.6287 35.9375 88.9411 35.6108 90.3018 35.5916L90.3021 35.5915ZM90.688 35.5915C91.846 35.6108 92.9751 35.8509 94.0173 36.2737C94.3067 36.389 94.5866 36.5236 94.8568 36.6677C94.8657 36.6765 94.8858 36.6869 94.9051 36.6965C95.3587 36.9367 95.7929 37.225 96.1982 37.5421C96.2175 37.6574 96.3429 37.7055 96.3429 37.7055L96.4202 37.7142C96.4685 37.7526 96.5263 37.8008 96.5746 37.8392V37.9736C96.6904 37.9448 96.8641 38.0793 96.893 38.185L94.8955 40.174C94.3261 39.636 93.67 39.2228 92.9655 38.925C92.2515 38.6271 91.4794 38.4637 90.6785 38.4349L90.688 35.5915ZM81.6846 36.3314L83.5278 38.1667C82.7847 38.9354 82.1768 39.8289 81.7136 40.7994C81.1732 41.9717 80.8547 43.2689 80.8258 44.6429H78.23C78.259 42.8557 78.6642 41.1357 79.4266 39.5695C79.9863 38.3877 80.7486 37.2922 81.6846 36.3314ZM98.0702 37.5613C98.2922 37.6958 98.4659 37.9937 98.437 38.0513C98.408 38.1186 98.63 38.0994 98.63 38.0994C98.6589 37.8112 98.9387 37.9072 98.9484 38.0032C98.9677 38.0994 99.0159 38.3108 99.0159 38.3108L99.0932 38.4548L99.209 38.5702L99.3827 38.5509L99.4309 38.6471L99.6432 38.6759C99.6432 38.6759 99.8169 38.8681 99.8363 38.9161C99.8556 38.9642 100.097 38.945 100.155 38.9642C100.222 38.9835 100.319 39.0315 100.328 39.1084C100.348 39.1853 100.444 39.3198 100.444 39.3198C100.444 39.3198 100.637 39.3679 100.657 39.4351C100.676 39.5024 100.753 39.6464 100.753 39.6464L100.917 39.781L100.937 39.9251L101.11 39.9444L101.159 40.1365L101.448 40.1173L101.612 40.002C101.66 39.9732 101.709 39.9443 101.747 39.9155C101.805 40.05 101.863 40.1845 101.911 40.319C102.452 41.6739 102.751 43.1344 102.77 44.6333H100.174C100.165 44.1721 100.126 43.7206 100.049 43.2786C100.068 43.2113 100.078 43.1537 100.049 43.1344C100 43.0863 100.097 42.8558 100.097 42.8558C100.097 42.8558 100.165 42.7212 100.097 42.5963C100.03 42.4618 100.116 42.3177 100.165 42.26L100.039 42.1928L99.9137 42.1735L99.8172 42.1928C99.7882 42.0872 99.7593 41.991 99.7206 41.8853L99.7978 41.9045V41.8083L99.682 41.7795C99.6626 41.7123 99.6337 41.645 99.6145 41.5777L99.5952 41.2415L99.4793 41.1645L99.5083 41.0397L99.3829 40.9916L99.4504 40.7802L99.3346 40.5496H99.1705C99.0932 40.3959 99.0161 40.2421 98.9292 40.098C98.9486 40.0892 98.9678 40.0786 98.9968 40.0691C99.0836 40.0498 99.1126 40.0403 99.1222 40.0403L99.1029 39.8674L98.9581 39.7712L98.9098 39.579C98.9098 39.579 98.7361 39.6078 98.7457 39.7038C98.7457 39.7231 98.7369 39.7423 98.7168 39.7519C98.601 39.5694 98.4852 39.3964 98.3598 39.2235C98.3598 39.2147 98.3686 39.2042 98.3686 39.1946C98.4361 39.0793 98.3975 39.0121 98.2913 38.9833C98.1755 38.9545 98.1756 38.9544 98.1466 38.8199C98.1177 38.695 97.9826 38.6565 97.9826 38.6565L97.9342 38.4644L97.8184 38.5413C97.7509 38.4644 97.693 38.3972 97.6254 38.3203L97.6834 38.1378C97.6158 38.129 97.5869 38.0897 97.5675 38.0513L98.0702 37.5613ZM99.1028 40.0307C99.1028 40.0395 99.1221 40.0307 99.1028 40.0307V40.0307ZM87.7641 37.9457L87.7062 38.0224L87.8028 38.0994L87.8607 38.0224L87.7641 37.9457ZM87.3974 38.0129L87.4167 38.1954H87.658C87.7546 38.1954 87.5807 38.0801 87.5807 38.0801C87.5807 38.0801 87.3781 38.0994 87.3974 38.0129H87.3974ZM98.0606 38.0417L97.9641 38.0505L97.9835 38.1946L98.08 38.1858L98.0606 38.0417ZM83.7883 38.4356L85.8148 40.4534C85.3902 40.8954 85.0332 41.4047 84.7533 41.9524C84.6858 41.9524 84.6182 41.9612 84.5989 42.0197C84.5506 42.1446 84.3384 42.1159 84.3384 42.1159L84.3094 42.1831L84.1454 42.2119L84.1164 42.3081L83.9234 42.3369L84.4059 42.3177C84.5313 42.2984 84.3576 42.5963 84.2805 42.5771L84.0586 42.5964L83.9813 42.6733H83.769L83.6724 42.8078L83.3636 42.7885C83.3636 42.7885 83.1899 42.9327 83.1995 42.9807C83.2189 43.0288 83.1706 43.1729 83.1223 43.1729C83.074 43.1729 82.9775 43.317 83.0065 43.365C83.0354 43.4131 82.9098 43.5764 82.9098 43.5764L82.8809 43.7398L82.7843 43.7688V44.2108L82.5913 44.3356V44.5278L82.5044 44.624H81.2017C81.2306 43.3365 81.5201 42.097 82.0413 40.9631C82.4755 40.0503 83.0642 39.1855 83.7879 38.436L83.7883 38.4356ZM97.1631 38.4646C97.2307 38.5318 97.2211 38.5511 97.3176 38.6184C97.3465 38.6376 97.3754 38.6568 97.4044 38.6568C97.4527 38.7144 97.5105 38.7721 97.5588 38.8298L97.5203 38.8778C97.5203 39.0603 97.6071 39.0123 97.6939 38.9931C97.7229 39.022 97.7422 39.0604 97.7712 39.0893C97.78 39.195 97.78 39.3488 97.9545 39.3295C97.9545 39.3295 97.9546 39.3295 97.9634 39.3295C98.1661 39.6082 98.359 39.8965 98.5327 40.1847L98.5416 40.204C98.5706 40.2521 98.5994 40.3002 98.6188 40.3481C98.5803 40.3769 98.561 40.4153 98.561 40.4153L98.3004 40.4441V40.7036L98.175 40.7517L98.1943 40.915L98.368 40.8958C98.368 40.8958 98.368 41.0879 98.4163 41.0111C98.4646 40.9342 98.8698 41.0304 98.8312 41.2225C98.8224 41.2994 99.2365 41.5107 99.1883 41.7701C99.2173 41.779 99.2462 41.7895 99.2654 41.799C99.3427 42.02 99.4102 42.2506 99.4681 42.4716L99.4391 42.5293C99.4391 42.5293 99.4681 42.5486 99.4969 42.5774C99.5452 42.7792 99.5935 42.981 99.6223 43.1828C99.6135 43.3557 99.5741 43.5286 99.4776 43.5766C99.2846 43.692 99.4969 43.6248 99.4969 43.6248L99.468 43.9803C99.5163 44.1437 99.5934 44.0571 99.6417 43.9803C99.6707 43.9419 99.69 43.9131 99.7189 43.8841C99.7479 44.1243 99.7575 44.3741 99.7673 44.6239H97.8276C97.8364 44.6151 97.8565 44.5758 97.8565 44.5758L97.9337 44.3453L98.2039 44.2683L98.2328 44.057L98.0881 44.0377C98.0881 44.0377 98.2522 43.7495 98.3294 43.7495C98.4066 43.7495 98.9373 43.7494 98.9856 43.7206C99.0339 43.6917 99.1303 43.4324 99.1303 43.3843C99.1303 43.3362 99.2557 43.3171 99.304 43.3074C99.3523 43.2881 99.468 43.1633 99.497 43.096C99.526 43.0288 99.4197 42.6252 99.3522 42.6924C99.2847 42.7596 99.1399 42.7886 99.1399 42.7886L99.0917 42.9712L99.0145 43.0384C99.0145 43.0384 99.0339 43.0865 99.0145 43.2017C98.9952 43.3171 98.8505 43.3843 98.8505 43.3843L98.783 43.4612C98.783 43.4612 98.397 43.4805 98.3487 43.4612C98.204 43.394 98.3005 43.2018 98.3971 43.221C98.4937 43.2403 98.3777 42.9423 98.3777 42.9423L98.5031 42.9231C98.5031 42.9231 98.5224 42.6349 98.5706 42.6349C98.6189 42.6349 98.5513 42.5386 98.4934 42.4907C98.4258 42.4426 98.3486 42.2793 98.2811 42.2985C98.2135 42.3178 97.9626 42.2985 97.9626 42.2985L97.9143 42.3947L97.7406 42.4235C97.7406 42.4235 97.7599 42.5485 97.7213 42.5869C97.6247 42.7022 97.2581 42.9424 97.4125 42.5388L97.4608 42.4426V42.2984L97.1713 42.2792C97.1713 42.2792 97.0265 42.2311 97.0265 42.1639C97.0265 42.0967 97.0072 42.0197 97.0072 42.0197L96.6695 41.645L96.2641 41.5969L96.2352 41.52L95.994 41.4911C95.9554 41.4719 95.9264 41.4624 95.8879 41.4528C95.772 41.2702 95.6562 41.0973 95.5211 40.9339C95.5211 40.9251 95.5123 40.9051 95.5123 40.8955C95.5035 40.8379 95.3193 40.588 95.2228 40.5784C95.1842 40.54 95.1553 40.5015 95.1167 40.4631L97.1631 38.4646ZM98.7361 38.6664C98.7167 38.6664 98.6975 38.6857 98.6975 38.7145C98.6975 38.7817 98.7748 38.8107 98.7458 38.8971C98.7168 38.974 98.7748 39.0411 98.8424 39.0411C98.9099 39.0411 98.9583 39.07 99.0161 39.1084C99.0837 39.1372 99.132 39.1853 99.1802 39.2525L99.3442 39.2044C99.3442 39.2044 99.3635 39.0411 99.2959 39.0891C99.2284 39.1372 99.1801 38.9738 99.1222 38.993C99.0547 39.0122 99.0256 38.9257 98.9582 38.8488C98.8907 38.772 98.9099 38.7526 98.8328 38.7047C98.7942 38.6758 98.7652 38.6566 98.7362 38.6663L98.7361 38.6664ZM90.688 38.8298C91.4311 38.849 92.1548 39.0123 92.8303 39.291C93.4866 39.5696 94.0945 39.954 94.6252 40.4536L94.5191 40.5593C94.4708 40.5112 94.2972 40.4727 94.2972 40.4151C94.2972 40.3479 94.1332 40.2709 94.1525 40.367C94.1718 40.4632 94.0366 40.5111 94.0077 40.4823C93.9787 40.4535 93.8823 40.5784 93.8823 40.5784C93.8823 40.6265 93.8533 40.6938 93.9498 40.7129C94.0464 40.7322 94.22 40.6457 94.2393 40.7418C94.2481 40.7706 94.2482 40.7994 94.2587 40.8282L93.6217 41.4624C93.5349 41.4624 93.4577 41.4536 93.4577 41.4536C93.4094 41.5978 93.1875 41.4344 93.2454 41.3383C93.3129 41.2421 93.3129 41.1749 93.3129 41.1749L93.2357 41.1556L93.139 41.3382C92.9171 41.3382 92.8495 41.4631 92.8978 41.5496C92.9461 41.6265 92.8302 41.5304 92.8012 41.6458C92.7722 41.7611 92.8205 41.7612 92.917 41.8092C93.0136 41.8573 92.8687 41.8573 92.9364 41.9341C92.9749 41.9821 93.0715 41.9725 93.1004 41.9822L92.975 42.107C92.8689 42.1454 92.7337 42.1159 92.7337 42.1159C92.7337 42.1447 92.7144 42.1735 92.6854 42.1831C92.4249 41.9717 92.1451 41.7987 91.8363 41.6738C91.8846 41.6354 91.9713 41.6354 92.0099 41.5297C92.0774 41.3471 92.1065 41.0589 92.1065 41.0589C92.1065 41.0589 91.846 41.0396 91.8364 41.1261C91.817 41.2028 91.6626 41.251 91.6626 41.251C91.6626 41.251 91.5372 41.299 91.5855 41.3663C91.6338 41.4335 91.4889 41.4625 91.4889 41.4625C91.4889 41.4625 91.4978 41.5106 91.4978 41.549C91.2469 41.4721 90.9767 41.4241 90.7065 41.4144L90.688 38.8298ZM99.2186 39.3774L99.0256 39.3967C99.0739 39.4639 99.1703 39.512 99.1703 39.5793C99.1703 39.6465 99.1414 39.6946 99.2379 39.7041C99.3345 39.7234 99.4019 39.6849 99.4309 39.7714C99.4598 39.8483 99.4598 39.9828 99.4502 40.05C99.4308 40.1172 99.4695 40.2134 99.5468 40.2134C99.624 40.2134 99.6434 40.2327 99.6434 40.2806C99.6434 40.3287 99.74 40.098 99.74 40.098C99.6628 40.0308 99.5952 39.8867 99.5952 39.8867C99.5952 39.8867 99.518 39.656 99.518 39.6272C99.518 39.5984 99.4022 39.56 99.3539 39.5503C99.296 39.5215 99.2188 39.3773 99.2188 39.3773L99.2186 39.3774ZM97.6939 39.4446L97.5299 39.4639L97.5387 39.5601L97.7027 39.5409L97.6939 39.4446ZM97.7905 39.56V39.6369H97.8871V39.56H97.7905ZM97.6651 39.7138C97.6651 39.7138 97.5685 39.8387 97.3756 39.781C97.3756 39.781 97.3466 40.0884 97.2501 40.1557H97.0282C97.0282 40.1557 97.0765 40.2326 97.1248 40.2902C97.1731 40.3383 97.2888 40.4344 97.1731 40.5016C97.0573 40.5689 97.1925 40.5497 97.1925 40.5497C97.1925 40.5497 97.1731 40.886 97.0284 40.838C96.8836 40.7899 96.8354 41.0205 96.8354 41.0782C96.8354 41.1454 97.4047 41.1647 97.3179 41.0782C97.2696 41.0301 97.3854 40.9148 97.3854 40.9148C97.3854 40.9148 97.7714 40.9437 97.8486 40.9437C97.9258 40.9437 97.9934 40.9244 97.9452 40.8475C97.8969 40.7707 97.7522 40.7803 97.7522 40.7803C97.7522 40.7803 97.5592 40.8283 97.3855 40.7322C97.2118 40.636 97.4144 40.6073 97.453 40.6073C97.482 40.6073 97.6267 40.4919 97.5688 40.4151C97.5013 40.3382 97.5688 40.1845 97.5688 40.2517C97.5688 40.319 97.7425 40.3479 97.7811 40.2998C97.8101 40.2517 97.7811 40.1077 97.7039 40.0596C97.6266 40.0115 97.8486 39.9827 97.7811 39.8963C97.6943 39.8195 97.6653 39.7138 97.6653 39.7138H97.6651ZM97.9835 40.2038V40.3191H98.08V40.2038H97.9835ZM98.1958 40.2614L98.1476 40.3576L98.2344 40.4057L98.2827 40.3095L98.1958 40.2614ZM99.7591 40.396C99.7205 40.4048 99.7881 40.5881 99.7503 40.617C99.702 40.6458 99.673 40.7132 99.6248 40.7611C99.5765 40.8092 99.7214 40.8764 99.7214 40.9244C99.7214 40.9725 99.7504 41.2127 99.7504 41.2127C99.7504 41.2127 99.8662 41.2608 99.8758 41.328C99.8952 41.3952 99.8759 41.5202 99.9242 41.5394C99.9725 41.5587 100.069 41.6163 100.04 41.6835C100.011 41.7508 100.011 41.8757 100.011 41.8757L100.078 42.0199L100.204 42.0968C100.204 42.0968 100.252 41.7125 100.175 41.6932C100.098 41.674 100.127 41.453 100.127 41.453C100.127 41.453 100.204 41.1456 100.078 41.1456C99.9529 41.1456 100.049 40.9822 99.9626 40.9342C99.8853 40.8861 99.9336 40.6555 99.8951 40.5978C99.8661 40.5306 99.8661 40.4537 99.7792 40.4056C99.7704 40.3968 99.7599 40.3864 99.7599 40.3968L99.7591 40.396ZM95.8605 40.7034L95.6965 40.7227L95.7053 40.8189L95.8693 40.7996L95.8605 40.7034ZM93.4287 40.7123C93.3804 40.7123 93.3321 40.7211 93.3321 40.7211L93.0716 40.7499L93.0522 40.8652L93.2259 40.8845C93.2259 40.8845 93.3031 40.9517 93.3031 40.9998C93.3031 41.0479 93.4189 41.096 93.4768 41.096C93.5443 41.096 93.718 40.9711 93.718 40.9711C93.718 40.9711 93.7951 40.7405 93.7374 40.7597C93.6698 40.779 93.5444 40.875 93.5251 40.779C93.5339 40.7213 93.4767 40.7117 93.4284 40.7117L93.4287 40.7123ZM86.0851 40.7211L87.6581 42.2873L87.5037 42.2785C87.4362 42.4226 87.2818 42.2593 87.2818 42.2593C87.2527 42.1631 87.0212 42.2593 87.0212 42.2593C87.0212 42.4418 86.7124 42.1823 86.7124 42.1823L86.1527 41.7788C85.8343 41.4905 85.3517 41.8556 85.3325 41.942C85.3413 42.0669 85.2359 42.067 85.1298 42.0477C85.3904 41.5673 85.7088 41.1253 86.0851 40.7217V40.7211ZM92.4058 40.7594L92.3093 40.7787L92.3382 40.9229L92.4348 40.9036L92.4058 40.7594ZM92.927 40.7883L92.5699 40.8075V40.9037L92.927 40.8845V40.7883ZM89.9161 40.8171V40.9133H90.0416V40.8171H89.9161ZM90.7364 40.8364L90.7275 40.9326L90.8434 40.9518L90.8522 40.8556L90.7364 40.8364ZM90.9487 40.8845L90.9398 40.9807L91.0557 41L91.0645 40.9037L90.9487 40.8845ZM89.646 40.9133L89.6371 41.0095L89.7529 41.0288L89.7618 40.9326L89.646 40.9133ZM92.2901 40.9221L92.2417 40.9414L92.2707 41.0376L92.319 41.0183L92.2901 40.9221ZM96.179 40.9605L96.1306 41.0759L96.2175 41.1142L96.2658 40.999L96.179 40.9605ZM94.9824 40.9798C94.9824 40.9798 95.079 40.999 95.1561 41.0182C95.2334 41.1144 95.3105 41.2103 95.378 41.3064L95.1754 41.2776L95.05 41.2584L94.8087 41.2391C94.5675 41.4024 94.5192 41.5946 94.5192 41.5946C94.4131 41.806 94.1718 41.5858 94.1718 41.4313L94.5964 41.0085C94.6254 41.0085 94.6447 41.0085 94.6735 41.0085C94.7701 41.0085 94.9824 40.9797 94.9824 40.9797V40.9798ZM91.161 41.0086V41.1048H91.2864V41.0086C91.2953 41.0086 91.161 41.0086 91.161 41.0086ZM89.5398 41.0278L89.5205 41.124L89.6459 41.1528L89.6652 41.0566C89.6741 41.0654 89.5398 41.0278 89.5398 41.0278V41.0278ZM89.5013 41.1624L89.4046 41.1817L89.424 41.2778L89.5206 41.2586L89.5013 41.1624ZM91.4023 41.1624H91.3057V41.2777H91.4023V41.1624ZM96.4492 41.2105C96.3913 41.2105 96.3141 41.2193 96.2755 41.2297C96.1982 41.249 96.208 41.3067 96.2755 41.3931L96.4685 41.3643C96.4685 41.3643 96.6133 41.297 96.5843 41.2489C96.5755 41.2105 96.5168 41.2105 96.4492 41.2105ZM95.378 41.3067C95.436 41.3932 95.4939 41.4796 95.5518 41.5565C95.5324 41.5949 95.5228 41.6527 95.5429 41.7102C95.5912 41.9504 95.6683 42.0466 95.514 42.0466C95.3499 42.0466 95.3209 41.9216 95.3209 41.9216C95.3209 41.9216 95.1955 41.8735 95.1955 41.9409C95.1955 42.0081 95.1472 42.1331 95.1955 42.2003C95.2438 42.2675 95.128 42.3637 95.0797 42.3157C95.0314 42.2676 94.906 42.1235 94.935 42.0754C94.964 42.0274 94.713 41.7199 94.9639 41.6719C95.2245 41.6238 94.9446 41.4797 95.0412 41.4413L95.1666 41.374H95.2921L95.378 41.3067ZM68.6092 41.3643C68.3486 41.9024 68.2521 42.5078 68.1169 43.0939C67.8275 44.6121 68.117 46.2167 68.5319 47.6196C69.053 49.3684 70.7611 50.6078 71.6392 52.2125L71.755 52.3087C71.6296 51.4439 71.562 50.5023 71.8129 49.6759C72.1893 48.3499 72.6621 47.0623 72.9034 45.6883C73.0964 44.6217 73.3183 43.4207 73.1928 42.3926C73.0481 42.9499 72.9034 43.4976 72.5946 43.978C71.427 45.7748 70.2304 47.8888 71.0506 50.1756C71.0313 50.2044 71.0023 50.2332 70.9733 50.214C70.6453 49.4549 70.568 48.5998 70.3557 47.7926C69.7864 45.6403 68.1266 43.8435 68.6091 41.3644L68.6092 41.3643ZM112.381 41.3643C112.864 43.8434 111.214 45.6402 110.644 47.783C110.432 48.5901 110.355 49.4549 110.027 50.2044C109.998 50.2236 109.969 50.1851 109.949 50.1659C110.77 47.8791 109.573 45.7747 108.405 43.9683C108.097 43.4975 107.952 42.9402 107.807 42.3829C107.682 43.4206 107.904 44.6121 108.097 45.6787C108.348 47.0527 108.811 48.3403 109.187 49.6663C109.438 50.4926 109.37 51.4246 109.245 52.299L109.361 52.2029C110.229 50.6079 111.947 49.3587 112.468 47.6099C112.883 46.2167 113.173 44.6024 112.883 43.0842C112.738 42.5173 112.632 41.9023 112.381 41.3643V41.3643ZM90.4662 41.7871L90.4952 42.1715L90.3215 42.1138H90.2057L90.1574 42.0176L90.0608 41.9984V42.3538L90.1574 42.4308L90.2346 42.5078L90.3987 42.527L90.4276 42.7192L90.833 42.7384L90.8813 42.8152L91.1225 42.8345L91.5857 43.3053L91.5568 43.4495L91.4795 43.4975C91.5085 43.6128 91.2672 43.5456 91.2672 43.5456V43.6418L91.383 43.6611L91.4988 43.7283L91.6629 43.4496C91.8366 43.3343 91.9234 43.4977 91.9331 43.5938C91.9524 43.69 91.8558 43.6707 91.8558 43.6707V43.9013L91.9524 43.9301C92.1165 44.1223 91.8849 44.2377 91.8849 44.2377L91.8366 44.401C91.7883 44.5451 91.6146 44.5163 91.6146 44.5163L91.5471 44.6125L91.3541 44.6606L91.7305 44.7087C91.769 44.5742 91.8656 44.5453 91.9138 44.6125C91.9621 44.6797 91.9621 44.7951 91.9621 44.7951L92.0588 44.8144L92.0394 44.9969L92.136 45.0258V45.5446L92.2518 45.6695C92.4448 45.5926 92.4448 45.7176 92.3484 45.7848C92.2518 45.852 92.3195 46.1404 92.3195 46.1404L92.2422 46.2173V46.3518L92.1456 46.419V46.6016C91.9815 46.5246 91.7885 46.5535 91.7403 46.6016C91.5955 46.5054 91.2867 46.5344 91.2867 46.6209C91.3833 46.7458 91.171 46.7842 91.171 46.7842L91.0551 46.9091C91.1324 47.0724 90.978 47.0917 90.978 47.0917V47.3991L90.785 47.5817L90.7938 47.8699C90.6972 47.8788 90.5912 47.8892 90.4947 47.8892C89.742 47.8892 89.0376 47.6201 88.4779 47.1301C88.4867 47.1213 88.4972 47.1213 88.5068 47.1013C88.5841 46.9764 88.7191 46.9572 88.7191 46.9572L88.7674 46.8419L89.2017 46.8611C89.2306 46.6785 89.4429 46.7458 89.4429 46.8323C89.4429 46.9091 89.607 46.8515 89.607 46.8515L89.7228 46.669H89.8965L89.9158 46.4768L89.9931 46.4287V46.1404C90.2536 46.0635 90.215 45.8138 90.215 45.8138L90.2826 45.7369L90.2536 45.6215C90.1282 45.5734 90.186 45.4581 90.2729 45.487C90.3502 45.5158 90.1571 45.3429 90.1571 45.3429C90.0605 45.4198 89.9834 45.2467 89.9834 45.2467H89.7422V45.0161L89.7132 44.8047L89.472 44.6893L89.2983 44.8527L89.2694 45.0833V45.2275L89.1053 45.2563L89.0763 45.6983L88.9509 45.7464L88.9702 45.9097L88.7965 45.9578L88.6228 46.0059L88.5553 46.1981L88.4299 46.275L88.3623 46.4672L88.2852 46.9284C88.0633 46.6882 87.8703 46.4287 87.7352 46.1404C87.7641 46.0251 87.7641 45.9194 87.7641 45.9194C87.6193 45.8522 87.6966 45.6312 87.8607 45.8233C88.0248 46.0155 87.7641 45.4293 87.7641 45.4293L87.6387 45.314L87.4747 45.2947C87.4457 45.141 87.4361 44.9776 87.4361 44.8143C87.4361 44.7471 87.4361 44.6797 87.4449 44.6125C87.4932 44.5644 87.5415 44.5933 87.5415 44.5933L87.6381 44.6702L87.7828 44.7855L87.8022 44.8817L87.7056 44.9298L87.6863 45.0643L87.7346 45.2469H87.86C87.9083 44.9875 88.246 44.9874 88.3425 45.1507L88.4391 44.9201C88.2172 44.8048 88.4391 44.6318 88.497 44.7087C88.5645 44.7856 88.7093 44.4973 88.7093 44.4973C88.7093 44.4973 88.8251 44.6414 88.7093 44.4492C88.5935 44.257 88.7866 44.161 88.7866 44.161C88.7576 43.9688 88.9989 43.9976 88.9989 43.9976L89.0182 43.7382L88.7963 43.7189C88.748 43.9495 88.555 43.7478 88.6515 43.6997C88.7481 43.6516 88.8445 43.5555 88.8445 43.5555V43.4114L88.9411 43.3825L88.9604 43.2192H89.2017L89.414 43.123L89.4623 43.0462L89.6842 43.027L90.0027 42.7387L89.9737 42.6138C89.7807 42.6138 89.9737 42.4697 89.9737 42.4697L90.0027 42.2294H89.829L89.8001 41.8836C90.0124 41.8163 90.2343 41.7874 90.4659 41.7874L90.4662 41.7871ZM100.232 42.7288L100.213 42.8536L100.309 42.8625L100.329 42.7279L100.232 42.7288ZM100.174 43.1612L100.126 43.2574L100.213 43.3055L100.261 43.2093L100.174 43.1612ZM83.5279 43.805C83.6823 43.7961 83.7885 43.8819 83.7885 43.8819L84.0104 43.8626C84.0683 43.901 84.107 43.9395 84.1262 43.9875C84.1069 44.1412 84.0877 44.2854 84.0877 44.4391C84.0683 44.4775 84.0491 44.5064 84.0491 44.5064C84.0298 44.5353 84.0202 44.5833 84.0106 44.6312H83.4026V44.6224L83.2289 44.6031C83.036 44.4878 83.1323 44.0651 83.1323 44.0651C83.2674 43.8825 83.4122 43.8153 83.528 43.8056L83.5279 43.805ZM89.0959 44.1124L89.067 44.1893H88.9898L88.9704 44.3239H89.067L89.0863 44.4201L89.0188 44.4872L88.9898 44.5642L88.8644 44.5931L88.5749 44.8717L88.5556 44.9966L88.4783 45.1119L88.3817 45.3521L88.044 45.3714L87.9765 45.6596L88.0248 45.8998L88.3143 46.0152L88.3432 45.8518L88.4398 45.8037L88.4592 45.6403L88.5266 45.525L88.6233 45.4097L88.6522 45.2752L88.8163 45.179L89.0093 45.1502L89.0865 45.054L89.1155 44.8618L89.1243 44.7177L89.1919 44.6215L89.3849 44.5446V44.2371H89.2883L89.2689 44.1218L89.0959 44.1124ZM99.1608 44.2086L99.1415 44.3048L99.3152 44.3336L99.3346 44.2374L99.1608 44.2086ZM98.7652 44.3431L98.7169 44.372L98.601 44.4392L98.495 44.372L98.4467 44.4489L98.5721 44.5258L98.601 44.545L98.6204 44.5363L98.717 44.4786L98.7259 44.5074L98.8127 44.469L98.7838 44.3921L98.7652 44.3431ZM100.164 45.0253H102.76C102.731 46.8029 102.326 48.4845 101.612 50.0026C101.033 51.2422 100.251 52.3664 99.3056 53.3369L99.2381 53.2696C99.2292 53.0871 99.2187 52.8564 99.2187 52.8564L99.1415 52.7795L99.1221 52.3759C99.1896 52.1645 98.8133 51.8571 98.7844 51.9243C98.7553 51.9916 98.5431 51.9436 98.5431 52.0013C98.5431 52.0685 98.4177 52.3856 98.4756 52.5009C98.4756 52.5097 98.4756 52.5097 98.4844 52.5202L97.4712 51.5113C98.2625 50.6946 98.8801 49.7721 99.3336 48.7632C99.8451 47.5909 100.135 46.3322 100.164 45.0254L100.164 45.0253ZM103.146 45.0253H106.012C105.983 47.3602 105.433 49.5703 104.468 51.5496C103.735 53.0582 102.76 54.4322 101.602 55.6141L99.5758 53.5963C100.57 52.5778 101.361 51.4247 101.95 50.1755C102.702 48.5805 103.117 46.8317 103.146 45.0253ZM97.53 45.0253H99.7785C99.7495 46.284 99.4696 47.4851 98.9871 48.5709C98.5529 49.551 97.9449 50.4446 97.2115 51.2133C97.1826 50.8866 97.1054 50.5311 97.1054 50.5311L96.98 50.4639L97.0089 50.07H96.8353L96.5458 50.4446L96.5168 50.5503L96.3527 50.3869L96.4396 50.3004L96.4203 50.1083L96.5361 50.0121V49.8487L96.6327 49.8199L96.652 49.4644L96.7293 49.4451V48.6668L96.488 48.4362C96.4687 48.5131 96.2178 48.5131 96.2178 48.5131C96.2178 48.5131 96.1503 48.6285 96.102 48.6285C96.0537 48.6285 96.1695 48.7726 96.1309 48.8687C96.102 48.9649 95.967 48.9649 95.967 48.9649L95.7257 49.0321L95.6582 49.109H95.4073L95.3879 48.9649C95.4169 48.936 95.4362 48.8976 95.4652 48.8687L95.6678 48.811L95.8319 48.7341L95.9092 48.5708C95.9285 48.4074 96.1214 48.4266 96.1214 48.4266C96.1214 48.4266 96.4881 48.1191 96.5074 47.975C96.5267 47.8309 96.6522 47.4273 96.8741 47.4273H97.2891C97.4531 47.3601 97.4048 47.1486 97.4048 47.1486L97.6171 47.1198L97.6462 47.2351C97.6462 47.2351 97.9356 47.264 97.9646 47.2159C97.9935 47.1678 98.0612 47.0526 98.1383 47.1006C98.2155 47.1487 98.476 46.9853 98.476 46.9853C98.4953 46.8699 98.891 46.918 98.891 46.918L98.9393 46.7739C98.9393 46.7739 98.6691 46.3991 98.6209 46.3991C98.5726 46.3991 98.312 46.1685 98.2831 46.255C98.0225 46.1878 98.0418 45.8322 98.0418 45.8322L97.9452 45.6016C97.9452 45.4671 97.704 45.198 97.6557 45.2269C97.5496 45.1693 97.5207 45.0923 97.5303 45.0251L97.53 45.0253ZM81.212 45.0253H82.341L82.3498 45.1118L82.1086 45.3712L82.1376 45.6307L81.9928 45.6788L81.9639 45.7941L81.8963 46.1304L82.0604 46.1497C82.1375 46.1208 82.1279 46.361 82.0604 46.3899C81.9929 46.4187 81.8191 46.4861 81.9156 46.5532C82.0122 46.6205 81.6551 46.6013 81.6551 46.5051C81.6551 46.4089 81.4621 46.3226 81.4138 46.3611C81.3849 46.3803 81.3463 46.3322 81.3172 46.2841C81.2593 45.871 81.2207 45.4482 81.2112 45.0254L81.212 45.0253ZM82.8717 45.0253H82.949C82.9875 45.0341 83.0261 45.0542 83.0261 45.0542L83.2481 45.0734L83.2674 45.035H84.0298L84.0973 45.4482L83.885 45.6307C83.7113 45.7269 83.7112 45.9574 83.9043 46.0055C84.0297 46.0248 83.9815 46.3322 83.7885 46.1208C83.499 46.1208 83.9525 46.3803 83.8175 46.313C84.107 46.4572 84.0395 46.1881 84.0395 46.1881L84.1843 46.0727C84.2422 46.3898 84.329 46.707 84.4352 47.0048C84.7343 47.8312 85.1975 48.5807 85.8054 49.2341L83.779 51.2519C83.6439 51.1174 83.5184 50.9732 83.4026 50.8291C83.4315 50.7329 83.4895 50.6273 83.4895 50.6273C83.7018 50.4928 83.4412 50.291 83.4412 50.291C83.4701 50.0988 83.3253 49.8682 83.3253 49.8682C83.0358 49.6761 83.113 49.3013 83.113 49.3013V49.0419C82.8718 48.8113 83.2097 48.7825 83.2097 48.7825C83.3255 48.5903 83.1326 48.4461 83.1326 48.4461L83.1132 48.2347L82.8527 48.2059L82.8236 47.4468L82.2447 46.6205C82.1289 46.5916 82.2157 46.3899 82.2157 46.3899C82.3605 46.3129 82.1867 46.1112 82.1867 46.1112L82.1674 45.7557L82.5051 45.7269L82.5824 45.602H82.7465L82.7271 45.1792C82.7754 45.0639 82.8237 45.035 82.8719 45.0254L82.8717 45.0253ZM86.8764 45.0253H87.0598C87.0687 45.1406 87.0792 45.2559 87.0984 45.3616L87.0018 45.3905L86.9728 45.3232L86.9245 45.5058H86.635L86.6157 45.3136L86.7894 45.2656L86.8568 45.1694L86.8764 45.0253ZM91.6339 45.2463C91.6049 45.2463 91.5759 45.2656 91.5566 45.3232V45.5346C91.5566 45.5346 91.7786 45.8902 91.8654 45.9382C91.9426 45.9863 92.0777 45.8805 91.9909 45.8228C91.7496 45.6595 91.7689 45.4481 91.7014 45.304C91.682 45.2752 91.6628 45.2463 91.6339 45.2463ZM83.2481 45.3905L83.2674 45.5058H83.3446C83.4701 45.7364 83.364 46.2841 83.364 46.2841C83.364 46.2841 83.171 46.3033 83.1421 46.2071C83.1131 46.111 83.0262 46.4185 83.0937 46.4666C83.1613 46.5147 83.3833 46.4666 83.4026 46.6491C83.4219 46.8317 83.5473 46.5338 83.5473 46.5338V45.4289L83.2481 45.3905ZM90.9584 45.7171L90.6689 45.9286C90.8136 45.9478 90.833 46.0919 90.8426 46.1591C90.8812 46.3032 90.8715 45.9286 90.9391 45.9478C91.0067 45.9566 90.9585 45.7171 90.9585 45.7171H90.9584ZM84.5412 45.8421C84.6763 45.8902 84.8307 46.1111 84.8307 46.1495C84.8307 46.1976 85.4676 46.1688 85.4676 46.1688C85.6413 46.2841 85.7088 46.5723 85.7088 46.5723C85.8825 46.3417 86.2588 46.5531 85.979 46.6876C86.2395 46.851 86.2395 46.9951 86.2395 46.9951C86.4518 46.9279 86.4518 47.0913 86.4518 47.1392C86.4518 47.1873 86.5194 46.899 86.5194 46.899C86.2781 46.7165 86.8378 46.6588 86.6834 46.976L86.5868 47.1201L86.7508 47.245L86.7702 47.6197C87.1272 47.5909 87.0307 47.1489 87.0307 47.1489L87.1948 47.1201C87.1948 46.976 87.3106 47.0529 87.3106 47.0529C87.2334 46.6685 87.3878 46.5052 87.4843 46.4475C87.6098 46.6877 87.7642 46.9087 87.9475 47.1105L86.1044 48.9457C85.5351 48.3404 85.1104 47.6486 84.8306 46.8895C84.6955 46.5532 84.6087 46.2073 84.5411 45.8421L84.5412 45.8421ZM99.074 46.2263C98.9389 46.2175 98.7748 46.3129 98.823 46.3801C98.9196 46.505 99.0836 46.4473 99.1415 46.457C99.2091 46.4763 99.267 46.5052 99.2091 46.313C99.1897 46.2553 99.1318 46.2264 99.0739 46.2264L99.074 46.2263ZM83.8174 46.4474C83.7788 46.4474 83.7499 46.4762 83.7499 46.5146C83.7499 46.553 83.7788 46.5818 83.8174 46.5818C83.856 46.5818 83.8849 46.553 83.8849 46.5146C83.8938 46.4858 83.856 46.4474 83.8174 46.4474ZM83.6438 46.6684L83.4025 46.8317L83.2384 46.7355V47.1199L83.499 47.4562L83.5956 47.2256L83.6245 47.0815L83.5087 47.0334L83.5281 46.7931L83.6247 46.7739L83.6438 46.6684ZM89.5784 47.0719L89.4337 47.0912L89.453 47.3218L89.5496 47.3987L89.7234 47.4468C89.7234 47.4468 89.9646 47.3796 89.9839 47.1874L89.6172 47.1681L89.5784 47.0719ZM91.6049 47.1969C91.74 47.1969 91.711 47.5236 91.7015 47.6293C91.6049 47.6677 91.5086 47.7061 91.4121 47.7349V47.3794L91.576 47.1968C91.5849 47.1968 91.5955 47.1968 91.6051 47.1968L91.6049 47.1969ZM88.2081 47.389C88.7678 47.8886 89.4627 48.1865 90.2057 48.2442V48.253C90.2057 48.253 90.1477 48.3971 90.2145 48.426C90.282 48.4452 90.2628 48.4644 90.3014 48.5029L90.2628 48.5893C90.2049 48.5124 90.1662 48.647 90.2049 48.6856C90.2435 48.724 90.118 48.6944 90.118 48.7433C90.118 48.7914 90.0795 48.8201 90.118 48.8394C90.1566 48.8682 90.1092 48.8778 90.0601 48.9163C90.0118 48.9547 90.2628 48.9644 90.2628 48.9644C90.2628 48.9644 90.2145 48.8683 90.2717 48.8683C90.2805 48.8683 90.291 48.8683 90.3006 48.8683V49.0316C90.2813 49.0228 90.262 49.0227 90.2331 49.0123V49.1276L90.1077 49.1469L90.2234 49.2718L90.3103 49.2806V49.5497V49.5689C90.3103 49.7803 89.7796 49.6361 89.7313 49.5882L89.712 49.8765L89.6154 49.8957L89.6348 50.0879L89.6154 50.3665L89.7891 50.3377V50.453L90.2234 50.4723L90.3102 50.3858V50.6837V50.7029L90.0207 50.7317L89.8953 50.799L89.847 50.7028H89.7216L89.6443 50.8084C89.2679 50.7508 88.8916 50.6643 88.5346 50.5394C87.7433 50.2704 87.0099 49.8283 86.3826 49.2422L88.2081 47.389ZM72.913 47.5427C73.1253 48.9552 72.5656 50.2044 72.4402 51.5496C72.3341 52.6546 72.527 53.7308 72.9612 54.6532C73.0867 54.9318 73.3183 55.1721 73.3859 55.4603C72.9709 55.0856 72.6717 54.6148 72.3919 54.1535C71.0505 51.9916 68.2424 50.5887 68.0494 47.9559C67.9528 49.1282 68.0583 50.3677 68.4451 51.4055C68.9855 52.8468 70.0373 53.9614 71.2435 54.903C72.4884 55.8831 73.9745 56.6422 75.1132 57.507C74.8913 56.9401 74.5245 56.4212 74.3798 55.835C73.6946 53.135 74.071 50.0218 72.913 47.5427ZM108.077 47.5427C106.919 50.0218 107.296 53.135 106.63 55.8158C106.485 56.4116 106.118 56.9305 105.896 57.4878C107.035 56.623 108.521 55.8639 109.766 54.8838C110.972 53.9421 112.015 52.8276 112.565 51.3863C112.96 50.3485 113.057 49.109 112.96 47.9367C112.767 50.5695 109.959 51.9724 108.618 54.1343C108.328 54.5955 108.039 55.076 107.624 55.4411C107.691 55.1625 107.923 54.9126 108.048 54.634C108.483 53.7019 108.676 52.6354 108.57 51.5304C108.425 50.2044 107.855 48.9552 108.077 47.5427ZM94.0946 47.6005C94.1332 47.6005 94.1621 47.6197 94.1525 47.6774C94.1042 47.8215 94.1525 47.8888 94.1525 47.8888C94.3648 47.6966 94.5385 47.908 94.5192 47.956C94.4998 48.0041 94.635 48.0522 94.7122 48.0041C94.7895 47.956 94.8859 48.1482 94.8569 48.2443C94.8279 48.3405 94.5385 48.3212 94.5192 48.225C94.4998 48.1288 94.4517 48.1578 94.4226 48.2057C94.3936 48.2441 94.2875 48.273 94.2103 48.2539L94.1427 48.1866C94.1516 48.1674 94.1621 48.1482 94.1427 48.129C94.1234 48.1097 94.0945 48.1097 94.0559 48.1097L93.9111 47.9655C93.9111 47.8693 93.9401 47.7349 93.9305 47.6965C93.9217 47.6484 94.0271 47.6004 94.0946 47.6004V47.6005ZM83.663 47.6581L83.5472 47.6774L83.5278 47.8118L83.6532 47.8311L83.663 47.6581ZM103.716 47.8022C103.648 47.8022 103.571 47.8407 103.523 47.8695L103.581 47.9464C103.638 47.908 103.725 47.8887 103.735 47.8983C103.735 47.8983 103.735 47.8983 103.735 47.8895L103.831 47.8702C103.823 47.8413 103.812 47.8126 103.783 47.803C103.754 47.803 103.735 47.803 103.716 47.803L103.716 47.8022ZM83.7113 47.9656C83.6727 47.9656 83.6438 47.9944 83.6438 48.0328C83.6438 48.0712 83.6727 48.1 83.7113 48.1C83.7498 48.1 83.7788 48.0712 83.7788 48.0328C83.7788 47.9944 83.7402 47.9656 83.7113 47.9656ZM91.7014 48.0425C91.7014 48.0809 91.7207 48.129 91.7207 48.129L91.798 48.1578L91.6533 48.2731L91.5278 48.4173L91.3637 48.3692L91.1708 48.3499L91.1033 48.2346L90.9875 48.2154L90.9681 48.446L90.8908 48.5421L90.6978 48.7343C90.9005 48.7343 90.7654 48.8399 90.6689 48.888V48.2346C90.8715 48.2258 91.0839 48.1962 91.2768 48.1481C91.2962 48.1674 91.3058 48.177 91.3058 48.177H91.4506L91.4594 48.1C91.556 48.0912 91.633 48.0712 91.7006 48.0424L91.7014 48.0425ZM83.8174 48.302C83.7788 48.302 83.7499 48.3308 83.7499 48.3692C83.7499 48.4076 83.7788 48.4364 83.8174 48.4364C83.856 48.4364 83.8849 48.4076 83.8849 48.3692C83.8849 48.3308 83.856 48.302 83.8174 48.302ZM89.8776 48.3501C89.8003 48.3501 89.7328 48.5998 89.6942 48.6575C89.6942 48.6575 89.7328 48.792 89.8003 48.7824C89.8678 48.7736 89.9161 48.7343 89.9837 48.7247C90.0416 48.7159 90.0706 48.6191 90.0898 48.5133C90.1091 48.4172 90.0704 48.3692 90.0704 48.3692C90.0704 48.3692 90.0125 48.4654 89.916 48.3692C89.9071 48.3604 89.8966 48.35 89.8774 48.35L89.8776 48.3501ZM83.5183 48.4845L83.3831 48.5038V48.6192L83.5183 48.5999V48.4845ZM93.1779 48.4845H93.2937L93.313 48.5615L93.8052 48.6096H93.8245C94.0175 48.7249 93.9211 48.869 93.8534 48.8979C93.7859 48.9267 93.6798 48.9267 93.6798 48.9267L93.6508 48.9939L93.2359 49.0227L93.2069 49.1861C92.9946 49.1573 92.9174 49.3782 92.9656 49.4936C93.0139 49.6089 92.9656 49.705 92.9656 49.705L93.1393 49.7819L93.3613 49.7146C93.3902 49.5513 93.535 49.5225 93.6701 49.4264C93.7955 49.3302 94.0079 49.6089 93.9403 49.7338C93.9315 49.7531 93.9314 49.7627 93.9209 49.7723C93.6797 49.9356 93.4191 50.0893 93.1489 50.2239C92.7243 50.4257 92.2804 50.589 91.8076 50.6851C91.7987 50.6763 91.7883 50.6762 91.7883 50.6762L91.6146 50.6282L91.5952 50.3879C91.5662 50.2246 91.2575 50.2246 91.2768 50.3399C91.2961 50.4552 90.7074 50.3879 90.6977 50.3879V49.946L90.8618 49.773L91.2285 49.6961C91.2575 49.5328 91.4215 49.7249 91.4215 49.7249C91.5855 49.7057 91.6146 49.8211 91.6146 49.8211L91.8268 49.85C92.0005 49.8981 91.8943 49.9171 91.904 49.9844C91.9234 50.0806 92.0007 50.0517 92.0007 50.0517L92.0296 49.8403L92.1262 49.8596L92.0296 49.7442L91.8559 49.6673L91.6629 49.5904C91.5375 49.4078 91.6918 49.4463 91.8269 49.4655H92.0392C92.0392 49.4655 92.2805 49.7922 92.2805 49.8691C92.2805 49.946 92.3963 49.9653 92.3963 49.9653L92.5411 49.946L92.5894 50.0614H92.7342L92.7824 50.1575H93.072L93.0913 50.0134L92.8211 49.9653L92.8017 49.8019L92.6088 49.7538C92.5413 49.4752 92.6571 49.3983 92.7342 49.5232L92.8308 49.5425L92.8018 49.3023L92.9176 49.2735L92.8887 48.9371L92.7921 48.9083V48.793L93.1974 48.8123C93.1299 48.5816 93.178 48.4855 93.178 48.4855L93.1779 48.4845ZM104.787 49.2245L104.7 49.2725C104.709 49.2917 104.709 49.3206 104.719 49.3397C104.719 49.3685 104.728 49.3974 104.748 49.4166C104.767 49.4254 104.787 49.4358 104.816 49.4253L104.796 49.3292C104.805 49.3292 104.816 49.338 104.816 49.3484C104.816 49.3484 104.816 49.3396 104.816 49.3292C104.807 49.3004 104.807 49.2619 104.787 49.2235V49.2245ZM104.69 49.407L104.593 49.4262C104.622 49.5224 104.651 49.6184 104.651 49.628L104.738 49.5896C104.747 49.5896 104.709 49.4934 104.69 49.407L104.69 49.407ZM97.1632 49.5032V49.8107H97.2791V49.5032H97.1632ZM93.6988 49.5801L93.5734 49.657L93.6217 49.7435L93.7472 49.6667L93.6988 49.5801ZM104.15 49.8011C104.141 49.878 104.159 49.974 104.237 49.9837L104.256 49.8875C104.247 49.8786 104.237 49.8394 104.247 49.801L104.15 49.8011ZM91.2961 49.9741V50.1662V49.9741ZM104.102 49.9829C104.073 49.9829 104.034 50.0117 103.995 50.0405C103.899 50.0982 103.938 50.348 103.995 50.2807C104.053 50.2231 104.131 50.2807 104.14 50.0982C104.149 50.002 104.131 49.9828 104.102 49.9828L104.102 49.9829ZM94.1234 50.1078L94.4998 50.2999C94.5481 50.3672 94.7604 50.3481 94.7604 50.3481L94.8279 50.425C94.8279 50.425 94.9533 50.4057 95.0402 50.5019C95.1173 50.5981 95.542 50.5211 95.542 50.5211L95.6578 50.6173L95.8315 50.6845L96.1306 50.6934L96.314 50.876C96.0245 51.0105 95.4359 50.9624 95.3973 50.924C95.349 50.8759 95.0112 50.7319 95.0112 50.7319C95.0112 50.7319 94.7507 50.5205 94.7025 50.5877C94.6542 50.655 94.4323 50.5108 94.4323 50.5589C94.4323 50.607 94.22 50.4436 94.22 50.4436L93.9015 50.3282L94.1427 50.2801L94.1042 50.1264C94.1042 50.1176 94.113 50.1176 94.1235 50.1071L94.1234 50.1078ZM91.8075 50.1559L91.6917 50.2423L91.74 50.2904L91.7883 50.3673L91.904 50.1848L91.8075 50.1559ZM76.7053 51.0591V51.2224H76.8308V51.4338H76.9273L76.908 51.1936L76.7825 51.1455V51.0685L76.7053 51.0591ZM100.135 51.1455L100.126 51.2897L100.281 51.2985L100.29 51.164L100.135 51.1455ZM100 51.4819L99.9713 51.578C99.9802 51.578 99.9906 51.5868 100 51.5973L100.02 51.6838C100.011 51.6926 100 51.7031 100 51.7126L100.068 51.7799C100.116 51.7222 100.135 51.6645 100.126 51.6165C100.106 51.5203 100.02 51.4916 100 51.4819V51.4819ZM97.2018 51.7702L97.9062 52.4716C97.8773 52.5869 97.7615 52.6542 97.7036 52.6158C97.6361 52.5677 97.7809 52.6927 97.8194 52.7599C97.8484 52.8272 97.9448 52.8272 97.9834 52.7599C98.0028 52.7118 98.0028 52.635 98.0124 52.5677L98.3405 52.8945C98.3019 52.981 98.2536 53.0577 98.273 53.1154L98.4177 53.1826L98.437 53.4613C98.5431 53.5669 98.7845 53.567 98.9775 53.5383L99.045 53.6054C98.4564 54.1819 97.8001 54.6912 97.1053 55.1332V54.9795C97.3948 54.7681 97.4141 54.3934 97.1343 54.3646C96.9316 54.3357 97.0184 54.1243 97.2115 54.0858L97.3274 54.0378V53.8841L97.6941 53.5478V53.2882L96.8932 52.6267C96.7291 52.569 96.7195 52.3673 96.7773 52.1751C96.9125 52.0406 97.0572 51.9157 97.202 51.7716L97.2018 51.7702ZM77.5063 51.8086L77.6221 52.0968L77.6896 52.241L77.815 52.4236L77.9888 52.5869L78.0562 52.4716L77.9404 52.2314L77.8246 52.1545L77.7474 51.9239L77.5063 51.8086ZM74.37 52.0392C75.3447 53.9802 74.9201 56.4784 76.1842 58.3041C76.5799 58.8806 77.1299 59.4283 77.6413 59.8799L77.622 59.8992C77.1588 59.6878 76.7438 59.3611 76.3193 59.0152C74.1094 57.1799 70.7802 56.9493 69.4581 53.961C69.8152 56.1518 71.5618 58.0927 73.4532 59.3226C75.2481 60.4949 77.5448 60.3604 79.5327 61.0138C77.6895 59.534 77.4097 57.3144 76.5895 55.3734C76.078 54.1916 75.2481 53.1058 74.37 52.0392H74.37ZM106.63 52.0392C105.742 53.0962 104.912 54.1819 104.401 55.3926C103.58 57.3336 103.301 59.5532 101.457 61.0329C103.445 60.3795 105.752 60.5045 107.537 59.3418C109.419 58.1119 111.165 56.171 111.532 53.9802C110.21 56.9685 106.881 57.199 104.671 59.0343C104.246 59.3802 103.831 59.7069 103.368 59.9183L103.349 59.8991C103.86 59.4379 104.41 58.8902 104.806 58.3233C106.07 56.4784 105.655 53.9802 106.63 52.0392H106.63ZM81.4627 52.7406C81.6075 52.7406 81.7908 52.904 81.8198 52.9712C81.8286 53.0096 81.8776 53.0578 81.9258 53.0962L81.6846 53.3364C81.5398 53.1827 81.3951 53.0289 81.2504 52.8656H81.3178C81.3468 52.7791 81.4047 52.7406 81.4626 52.7406H81.4627ZM90.9679 53.6438C91.0645 53.6527 91.1706 53.6727 91.2381 53.7208C91.4118 53.8457 91.6531 53.7689 91.6531 53.7689L91.8268 53.9803C91.4505 54.0379 91.0741 54.0668 90.6881 54.0765V53.6921C90.746 53.6537 90.8521 53.6344 90.9679 53.644V53.6438ZM99.3055 53.8745L101.332 55.8923C100.203 56.9877 98.9098 57.9101 97.4816 58.6308C95.4359 59.6589 93.1295 60.2642 90.6881 60.2931V57.4405C91.8557 57.4212 93.0041 57.2484 94.0945 56.9217L94.3743 57.0081L94.4516 57.2675L94.577 57.2483L94.6735 57.1714L95.0595 57.1521L95.2525 56.9695L95.4648 56.9407L96.9799 55.6627C97.8097 55.1535 98.5914 54.5577 99.3055 53.8755V53.8745ZM92.0198 54.3453L92.0487 54.4223L92.3189 54.4992L92.5119 54.5472L92.5795 54.8259L92.7242 54.8451L92.7725 55.0277C92.9462 55.1526 92.7242 55.4313 92.7242 55.4313V55.7868L92.8496 55.8541L92.8303 55.9886L93.0426 56.2L93.2838 56.2192L93.6795 56.642C92.7241 56.9015 91.7206 57.0456 90.6784 57.0648V54.4608C91.1416 54.452 91.5855 54.4127 92.0197 54.3455L92.0198 54.3453ZM88.1405 54.6048L88.0438 54.6817L87.9956 54.72L88.0438 54.7585L88.1597 54.8354L88.2175 54.7585L88.1597 54.7104L88.208 54.6719L88.1405 54.6048ZM89.2792 55.7674L89.2406 55.8539L89.3372 55.902L89.3082 55.9308L89.3758 55.998L89.453 55.9211L89.5013 55.873L89.4435 55.8442L89.2792 55.7674ZM81.1636 56.5841L81.289 56.7763L81.3083 56.9204L81.4724 56.9685L81.5399 57.0647L81.6558 56.9975L81.5785 56.7861L81.3661 56.6035L81.1636 56.5841ZM77.5449 56.7667C78.7511 58.3809 79.0889 60.7255 81.2891 61.5422C81.6751 61.6864 82.1286 61.7151 82.4567 61.9265C82.0321 61.9938 81.6654 61.8593 81.2698 61.7728C78.4423 61.1867 74.978 61.9554 72.855 59.5532C73.6559 61.129 75.3157 62.3686 76.9176 62.8874C79.388 63.6946 81.9645 62.7913 84.2805 62.2244C84.6183 62.1379 85.0236 62.1668 85.3324 62.0515C84.0393 61.792 82.7944 61.3981 81.7908 60.4853C80.353 59.1785 79.0889 57.7852 77.5449 56.7667ZM103.445 56.7667C101.911 57.7852 100.637 59.1785 99.1993 60.4853C98.1958 61.3981 96.9509 61.7824 95.6578 62.0515C95.9666 62.1668 96.3719 62.138 96.7097 62.2244C99.0353 62.801 101.602 63.7042 104.073 62.8874C105.665 62.359 107.325 61.1194 108.135 59.5532C106.012 61.9554 102.548 61.1867 99.7204 61.7824C99.3248 61.8689 98.9581 61.9938 98.5335 61.9361C98.8712 61.7247 99.3151 61.696 99.7011 61.5518C101.901 60.7255 102.239 58.3809 103.445 56.7667ZM88.1598 61.9938C85.9886 61.9938 84.0393 63.0412 82.1383 63.8291C80.4109 64.5401 78.1239 64.4056 76.5895 63.3487C77.3422 64.2903 78.3554 64.8764 79.4073 65.2703C81.3469 66.039 83.6147 65.4529 85.2745 64.3959C86.4614 63.6369 87.4843 62.5607 88.9029 62.5607C89.1538 62.5607 89.4046 62.5895 89.6555 62.6376C87.6676 63.4351 85.8535 64.8284 84.4446 66.1736C84.7051 66.4715 85.0429 66.7502 85.3613 67C86.9342 65.3761 88.7195 63.6273 90.5047 62.897C92.29 63.6177 94.0752 65.3761 95.6482 67C95.9666 66.7406 96.3043 66.4715 96.5649 66.1736C95.156 64.8284 93.3418 63.4351 91.3539 62.6376C91.6048 62.5895 91.8557 62.5607 92.1066 62.5607C93.5252 62.5607 94.548 63.6369 95.735 64.3959C97.3851 65.4433 99.6529 66.039 101.602 65.2703C102.644 64.8764 103.658 64.2903 104.42 63.3487C102.895 64.396 100.599 64.5401 98.8712 63.8291C96.9605 63.0412 95.0209 61.9938 92.8496 61.9938C92.0583 61.9938 91.2767 62.1283 90.5144 62.3589C89.7327 62.1187 88.9511 61.9938 88.1598 61.9938Z" fill="#007DBC"/>
<path d="M162.776 101.681H176V105.213H171.35V120.567H167.475V105.213H162.776V101.681ZM132.47 101.748H144.395V105.074H136.185V109.373H143.468V112.684H136.185V117.108H144.395V120.567H132.47V101.748ZM146.68 101.748V120.567H150.469V109.373L157.95 120.567H161.063V101.748H157.467V112.55L150.034 101.748H146.68ZM68.145 101.748H71.9729V117.148H79.5987V120.567H68.145V101.748ZM53.9678 101.748H65.8927V105.074H57.6826V109.373H64.9658V112.684H57.6826V117.108H65.8927V120.567H53.9678V101.748ZM162.783 74.4282H175.84V78.0693H166.85V82.7765H174.825V86.4011H166.85V91.2451H175.84V95.0315H162.783V74.4282ZM148.375 74.4282H152.501V91.2451H160.822V95.0315H148.375V74.4282ZM131.155 74.4285V95.0311H139.77C143.127 95.0311 146.317 93.5764 146.325 89.3838C146.333 85.4454 143.98 84.9327 143.038 84.313C144.408 83.1786 145.428 82.2223 145.428 79.7349C145.428 78.2817 144.589 74.4285 139.266 74.4285H131.155ZM135.227 78.0696H138.624C142.123 78.0696 142.232 82.7767 138.887 82.7767H135.227V78.0696ZM135.227 86.4005H139.485C142.921 86.3819 143.05 91.2456 139.772 91.2456H135.227V86.4005ZM93.5406 74.4282V95.0315H97.6888V82.7765L105.88 95.0315H109.288V74.4282H105.351V86.255L97.2132 74.4282H93.5406ZM86.1424 95.0315V74.4282H90.2642V95.0315H86.1424ZM120.244 80.3776L122.484 86.7914H118.036L120.244 80.3776ZM118.3 74.4285L110.902 95.0311H115.199L116.74 90.5573H123.8L125.363 95.0311H129.548L122.373 74.4285H118.3ZM73.087 74.4285L65.6881 95.0311H69.9857L71.5261 90.5573H78.5862L80.1493 95.0311H84.3343L77.1595 74.4285H73.087ZM75.0304 80.3776L77.271 86.7914H72.8222L75.0304 80.3776ZM53.0619 74.4282H67.4884V78.2812H62.4153V95.0315H58.1878V78.2812H53.0619V74.4282ZM52.4013 76.5956L49.9705 79.86C49.9705 79.86 47.7225 77.9066 45.6637 77.9066C44.5142 77.9066 43.3153 78.5072 43.3153 79.5258C43.3153 83.7435 52.692 81.9148 52.692 89.1716C52.692 92.2837 50.7308 95.3161 45.5279 95.3161C40.9458 95.3161 38.1862 92.222 38.1862 92.222L40.7756 89.1448C40.7756 89.1448 43.6701 91.6333 45.9279 91.6333C47.0297 91.6333 48.4408 91.1127 48.5173 89.5195C48.7012 85.6849 39.0878 87.4612 39.0878 80.1575C39.0878 76.8313 41.5479 74 45.9015 74C49.8888 74 52.4013 76.5956 52.4013 76.5956ZM36.4739 101.748H40.6101L44.491 114.302L48.6783 101.748H52.5847L46.2783 120.567H42.6272L36.4739 101.748ZM23.6298 101.748H35.5546V105.074H27.3446V109.373H34.6278V112.684H27.3446V117.108H35.5546V120.567H23.6298V101.748ZM6.65994 101.748V120.567H13.3428C23.6262 120.567 25.3339 101.748 12.4691 101.748H6.65994ZM10.4537 105.213H11.8762C20.1119 105.213 18.5658 117.148 12.8625 117.148H10.4537V105.213ZM21.4082 88.4758V74.4282H25.3715V87.5126C25.3715 92.9176 32.8225 92.9176 32.8225 87.5126V74.4282H36.8651V88.4758C36.8651 98.0818 21.4082 98.0818 21.4082 88.4758ZM19.2151 76.5956L16.7843 79.86C16.7843 79.86 14.5363 77.9066 12.4775 77.9066C11.3281 77.9066 10.1291 78.5072 10.1291 79.5258C10.1291 83.7435 19.5058 81.9148 19.5058 89.1716C19.5058 92.2837 17.5446 95.3161 12.3416 95.3161C7.7596 95.3161 5 92.222 5 92.222L7.58941 89.1448C7.58941 89.1448 10.4839 91.6333 12.7417 91.6333C13.8435 91.6333 15.2547 91.1127 15.3311 89.5195C15.5151 85.6849 5.90161 87.4612 5.90161 80.1575C5.90161 76.8313 8.36172 74 12.7153 74C16.7026 74 19.2151 76.5956 19.2151 76.5956ZM98.624 101.748V120.567H102.507V114.864H105.049C114.078 114.864 113.442 101.748 105.352 101.748H98.624ZM102.507 105.213H104.724C108.474 105.213 109.007 111.379 104.747 111.379H102.507L102.507 105.213ZM113.158 120.567V101.748H117.251L121.385 109.32L125.585 101.748H129.555V120.567H125.826V108.747L121.385 116.544L116.973 108.747V120.567H113.158ZM88.0916 101.369C82.6428 101.369 79.5807 105.673 79.5982 111.484C79.6157 117.296 82.8073 121.082 88.1741 120.999C93.541 120.916 96.3915 116.916 96.4649 111.484C96.5385 106.053 93.5404 101.369 88.0916 101.369ZM88.0637 105.213C90.941 105.213 92.5245 108.063 92.4857 111.367C92.4469 114.671 90.9406 117.105 88.1066 117.156C85.2726 117.206 83.5877 114.902 83.5785 111.367C83.5697 107.832 85.1864 105.213 88.0637 105.213Z" fill="#00AEEF"/>
<path d="M146.734 152.47L154.339 152.227C154.339 152.227 153.895 158.137 161.363 158.137C164.432 158.137 167.999 156.713 167.999 153.584C167.999 151.512 167.065 150.746 164.851 149.757C162.241 148.592 160.747 148.257 158.32 147.296C156.175 146.447 152.299 145.694 149.698 142.578C147.895 140.416 147.17 138.048 147.17 136.048C147.17 131.515 150.705 123.792 160.975 123.792C174.637 123.792 174.829 134.643 174.829 134.643L167.127 134.885C167.127 134.885 167.251 130.526 161.266 130.526C156.78 130.526 155.017 132.702 155.017 134.789C155.017 137.464 156.22 138.007 157.778 138.906C159.276 139.771 161.233 140.266 163.3 140.795C164.244 141.037 168.181 142.094 169.888 143.072C172.018 144.292 175.75 146.512 175.75 153.099C175.75 157.13 172.461 164.628 161.217 164.628C145.534 164.628 146.734 152.47 146.734 152.47ZM98.1243 124.191L83.6718 163.744H92.1028L94.8603 155.365H109.205L112.005 163.744H120.499L106.365 124.191H98.1243ZM101.977 133.74L107.104 149.081H96.9279L101.977 133.74ZM122.253 163.744V124.827H129.919V156.746H144.936V163.744H122.253ZM43.1485 135.93C43.1485 135.93 40.0115 123.8 25.7076 123.8C13.004 123.8 6.11345 133.896 6.12306 144.456C6.13441 156.931 16.1104 164.577 25.2691 164.577C44.7162 164.577 44.3665 142.995 44.3665 142.8H26.4384V149.279H35.8409C35.8409 149.279 34.6496 157.707 25.9512 157.707C17.9777 157.707 14.2589 150.734 14.2589 144.31C14.2589 135.246 19.2629 130.766 25.4153 130.766C33.4817 130.766 35.1588 136.564 35.1588 136.564L43.1485 135.93Z" fill="#4F91CD"/>
<path fill-rule="evenodd" clip-rule="evenodd" d="M84.0631 137.065L76.4863 140.466C76.9268 141.447 77.2213 142.486 77.3606 143.552L85.5951 142.482C85.3519 140.611 84.8357 138.786 84.0631 137.065Z" fill="#C31F33"/>
<path fill-rule="evenodd" clip-rule="evenodd" d="M80.0181 131.236L74.1816 137.145C74.9465 137.9 75.5967 138.763 76.1116 139.707L83.4034 135.734C82.5008 134.077 81.3602 132.562 80.0181 131.236Z" fill="#279B48" fill-opacity="0.999071"/>
<path fill-rule="evenodd" clip-rule="evenodd" d="M74.141 127.263L70.833 134.881C71.8191 135.309 72.7372 135.879 73.5581 136.573L78.9224 130.234C77.4823 129.015 75.8714 128.014 74.141 127.263Z" fill="#D3A029"/>
<path fill-rule="evenodd" clip-rule="evenodd" d="M67.2262 125.681L66.8936 133.979C67.9676 134.022 69.0296 134.222 70.0457 134.572L72.758 126.724C70.975 126.108 69.1112 125.756 67.2262 125.681Z" fill="#EB1C2D" fill-opacity="0.999996"/>
<path fill-rule="evenodd" clip-rule="evenodd" d="M60.2061 126.704L62.8935 134.562C63.9105 134.214 64.9729 134.017 66.0471 133.976L65.7411 125.678C63.8559 125.748 61.9911 126.093 60.2061 126.704Z" fill="#183668"/>
<path fill-rule="evenodd" clip-rule="evenodd" d="M54.0293 130.193L59.374 136.55C60.1966 135.858 61.116 135.29 62.1031 134.864L58.8202 127.237C57.0874 127.983 55.4733 128.979 54.0293 130.193Z" fill="#02558B" fill-opacity="0.999697"/>
<path fill-rule="evenodd" clip-rule="evenodd" d="M49.5303 135.678L56.8104 139.675C57.3275 138.733 57.9797 137.871 58.7464 137.118L52.9299 131.192C51.5836 132.513 50.4382 134.025 49.5303 135.678Z" fill="#5DBB46" fill-opacity="0.999315"/>
<path fill-rule="evenodd" clip-rule="evenodd" d="M47.3164 142.418L55.5488 143.516C55.6906 142.45 55.9876 141.411 56.4303 140.432L48.8658 137.006C48.0877 138.725 47.5657 140.548 47.3164 142.418Z" fill="#007DBC"/>
<path fill-rule="evenodd" clip-rule="evenodd" d="M47.6865 149.503L55.7594 147.552C55.5067 146.507 55.4083 145.431 55.4673 144.358L47.1763 143.896C47.0715 145.78 47.2434 147.669 47.6865 149.503Z" fill="#48773E"/>
<path fill-rule="evenodd" clip-rule="evenodd" d="M50.5917 155.975L57.4149 151.24C56.8018 150.357 56.3213 149.389 55.9886 148.367L48.0908 150.932C48.6736 152.726 49.5161 154.425 50.5917 155.975Z" fill="#CF8D2A"/>
<path fill-rule="evenodd" clip-rule="evenodd" d="M55.6372 160.961L60.2891 154.08C59.3985 153.479 58.6008 152.75 57.9214 151.917L51.4834 157.161C52.6749 158.624 54.0744 159.904 55.6372 160.961Z" fill="#F99D26"/>
<path fill-rule="evenodd" clip-rule="evenodd" d="M62.1442 163.788L63.9966 155.691C62.9487 155.452 61.9416 155.06 61.0072 154.529L56.8984 161.745C58.5378 162.679 60.3052 163.367 62.1442 163.788Z" fill="#E11484" fill-opacity="0.999876"/>
<path fill-rule="evenodd" clip-rule="evenodd" d="M69.2328 164.073L68.0355 155.854C66.9719 156.01 65.8914 156.008 64.8281 155.851L63.6035 164.064C65.4694 164.342 67.366 164.345 69.2328 164.073V164.073Z" fill="#F36D25"/>
<path fill-rule="evenodd" clip-rule="evenodd" d="M75.9456 161.778L71.8604 154.547C70.9247 155.076 69.9166 155.465 68.8682 155.702L70.6931 163.803C72.5335 163.388 74.3031 162.706 75.9456 161.778L75.9456 161.778Z" fill="#8F1838" fill-opacity="0.999948"/>
<path fill-rule="evenodd" clip-rule="evenodd" d="M81.3764 157.213L74.955 151.946C74.2736 152.777 73.4741 153.504 72.582 154.104L77.21 160.998C78.7764 159.947 80.1801 158.671 81.3765 157.213L81.3764 157.213Z" fill="#FDB713" fill-opacity="0.989931"/>
<path fill-rule="evenodd" clip-rule="evenodd" d="M84.7914 150.995L76.901 148.403C76.5658 149.425 76.083 150.391 75.4678 151.273L82.2738 156.03C83.3546 154.484 84.2028 152.787 84.7915 150.995L84.7914 150.995Z" fill="#00AED9"/>
<path fill-rule="evenodd" clip-rule="evenodd" d="M85.7295 143.963L77.4356 144.396C77.492 145.47 77.391 146.546 77.1357 147.59L85.2007 149.567C85.6499 147.735 85.8281 145.847 85.7296 143.963L85.7295 143.963Z" fill="#EF402B"/>
</svg>
